<svg xmlns="http://www.w3.org/2000/svg" xmlns:xlink="http://www.w3.org/1999/xlink" viewBox="0 0 1101.75 1473.8"><defs><style>.cls-1{fill:none;}.cls-2,.cls-70{opacity:0.1;}.cls-3{fill:#b6b7b7;}.cls-4{isolation:isolate;}.cls-5{fill:#505050;}.cls-6{fill:#717171;}.cls-7{clip-path:url(#clip-path);}.cls-8{fill:#4b4b4b;}.cls-9{fill:#494949;}.cls-10{fill:#464646;}.cls-11{clip-path:url(#clip-path-2);}.cls-12{fill:#3a3b3a;}.cls-13{fill:#3d3d3d;}.cls-14{fill:#404040;}.cls-15{fill:#424242;}.cls-16{fill:#444;}.cls-17{fill:#636363;}.cls-18{clip-path:url(#clip-path-3);}.cls-19{clip-path:url(#clip-path-4);}.cls-20{clip-path:url(#clip-path-5);}.cls-21{clip-path:url(#clip-path-6);}.cls-22{clip-path:url(#clip-path-7);}.cls-23{clip-path:url(#clip-path-8);}.cls-24,.cls-70{fill:#fff;}.cls-25{fill:#e4e4e4;}.cls-26{fill:#cfcfce;}.cls-27{fill:#4e4e4e;}.cls-28{fill:#908f8f;}.cls-29{fill:#676767;}.cls-30{fill:#818181;}.cls-31{fill:#fbb03b;}.cls-32{fill:#e19e36;}.cls-33{fill:#eaeaea;}.cls-34{fill:#ededed;}.cls-35{fill:#f4f4f5;}.cls-36{fill:#d7d7d6;}.cls-37{fill:#723823;}.cls-38{opacity:0.3;}.cls-39{fill:#bbd759;}.cls-40{fill:#9acb4a;}.cls-41{fill:#88bb40;}.cls-42{fill:#7fae41;}.cls-43{fill:#e5e5e5;}.cls-44{fill:#d8d9d8;}.cls-45{fill:#a7a6a6;}.cls-46{fill:#333;}.cls-47{fill:#4b6682;}.cls-48{fill:#212121;}.cls-49{fill:#525252;}.cls-50{fill:#364a5f;}.cls-51{fill:#9ab359;}.cls-52{fill:#f9c623;}.cls-53{fill:#ed6c71;}.cls-54{fill:#4d7dc0;}.cls-55{fill:#9fb3dc;}.cls-56{fill:#ee4583;}.cls-57{fill:#b0d23c;}.cls-58{fill:#71cee6;}.cls-59{fill:#a486be;}.cls-60{fill:#c2c2c6;}.cls-61{fill:#ababad;}.cls-62{fill:#d1d4db;}.cls-63{fill:#edeef2;}.cls-64{fill:#aeadae;}.cls-65{fill:#f0efef;}.cls-66{fill:#b0b0b0;}.cls-67{fill:#f2f2f2;}.cls-68{fill:#e1e0e0;}.cls-69{fill:#4f2c10;}.cls-71{fill:#f04d44;}.cls-72{fill:#d9453e;}.cls-73{fill:#b63a34;}.cls-74{fill:#5c5c5c;}.cls-75{fill:#65cceb;}.cls-76{fill:#60c0de;}.cls-77{fill:#59b8d6;}.cls-78{fill:#fdbb5c;}.cls-79{fill:#fdc87a;}.cls-80{fill:#fbb043;}.cls-81{fill:#5892cd;}.cls-82{fill:#75a1ce;}.cls-83{fill:#4688c7;}</style><clipPath id="clip-path"><path class="cls-1" d="M740.85,829.27l5.15,2.8a10.25,10.25,0,0,0-6.38-1.1l-5.15-2.8A10.25,10.25,0,0,1,740.85,829.27Z"/></clipPath><clipPath id="clip-path-2"><path class="cls-1" d="M733.19,855.65l-5.15-2.8a11.16,11.16,0,0,1-5.53-10.11c0-7.12,5.37-13.64,12-14.57l5.15,2.8c-6.6.93-12,7.45-12,14.57A11.15,11.15,0,0,0,733.19,855.65Z"/></clipPath><clipPath id="clip-path-3"><path class="cls-1" d="M1028.07,994.28l5.14,2.8a10.25,10.25,0,0,0-6.38-1.1l-5.14-2.8A10.21,10.21,0,0,1,1028.07,994.28Z"/></clipPath><clipPath id="clip-path-4"><path class="cls-1" d="M1020.4,1020.66l-5.14-2.8a11.15,11.15,0,0,1-5.54-10.11c0-7.12,5.37-13.64,12-14.57l5.14,2.8c-6.59.93-11.95,7.45-12,14.57A11.16,11.16,0,0,0,1020.4,1020.66Z"/></clipPath><clipPath id="clip-path-5"><path class="cls-1" d="M76.62,1213.09l5.15,2.8a10.25,10.25,0,0,0-6.38-1.1l-5.15-2.8A10.25,10.25,0,0,1,76.62,1213.09Z"/></clipPath><clipPath id="clip-path-6"><path class="cls-1" d="M69,1239.47l-5.15-2.8a11.16,11.16,0,0,1-5.53-10.11c0-7.12,5.36-13.64,12-14.57l5.15,2.8c-6.6.93-12,7.45-12,14.57A11.15,11.15,0,0,0,69,1239.47Z"/></clipPath><clipPath id="clip-path-7"><path class="cls-1" d="M363.84,1378.1l5.14,2.8a10.25,10.25,0,0,0-6.38-1.1l-5.15-2.8A10.29,10.29,0,0,1,363.84,1378.1Z"/></clipPath><clipPath id="clip-path-8"><path class="cls-1" d="M356.17,1404.48l-5.14-2.8a11.15,11.15,0,0,1-5.54-10.11c0-7.12,5.37-13.64,12-14.57l5.15,2.8c-6.6.93-12,7.45-12,14.57A11.16,11.16,0,0,0,356.17,1404.48Z"/></clipPath></defs><title>Asset 1</title><g id="Layer_2" data-name="Layer 2"><g id="Objects"><ellipse class="cls-2" cx="863.08" cy="1358.76" rx="214.91" ry="105.37"/><polygon class="cls-2" points="58.69 1291.63 357.45 1464.13 1035.49 1076.32 730.31 904.18 58.69 1291.63"/><g id="desk"><path class="cls-3" d="M74.1,892.59c4,2.31,4,6,.05,8.34a15.87,15.87,0,0,1-14.39,0c-4-2.3-4-6,0-8.33A15.84,15.84,0,0,1,74.1,892.59Z"/><g class="cls-4"><path class="cls-5" d="M79,1288v6c0,2-1.28,3.89-3.84,5.37-5.13,3-13.49,3-18.66,0-2.6-1.5-3.9-3.48-3.9-5.44v-6c0,2,1.3,3.94,3.9,5.44,5.17,3,13.53,3,18.66,0C77.71,1291.92,79,1290,79,1288Z"/><path class="cls-6" d="M75.09,1282.59c5.18,3,5.2,7.83.06,10.81s-13.49,3-18.66,0-5.2-7.82-.06-10.81S69.92,1279.61,75.09,1282.59Z"/></g><g class="cls-4"><path class="cls-5" d="M743.22,904.21v6c0,1.94-1.28,3.89-3.84,5.37-5.13,3-13.49,3-18.66,0-2.6-1.5-3.9-3.48-3.89-5.44v-6c0,2,1.29,3.94,3.89,5.44,5.17,3,13.53,3,18.66,0C741.94,908.1,743.22,906.16,743.22,904.21Z"/><path class="cls-6" d="M739.32,898.77c5.18,3,5.2,7.83.06,10.81s-13.49,3-18.66,0-5.2-7.82-.06-10.81S734.15,895.78,739.32,898.77Z"/></g><g class="cls-4"><g class="cls-4"><g class="cls-7"><g class="cls-4"><path class="cls-8" d="M739.62,831l-5.15-2.8a10.68,10.68,0,0,1,4.13.21l5.15,2.8a10.7,10.7,0,0,0-4.13-.21Z"/><path class="cls-9" d="M743.75,831.18l-5.15-2.8a10.18,10.18,0,0,1,1.89.7l5.15,2.8a10.18,10.18,0,0,0-1.89-.7Z"/><path class="cls-10" d="M745.64,831.88l-5.15-2.8.36.19,5.15,2.8-.36-.19Z"/></g></g></g><g class="cls-4"><g class="cls-11"><g class="cls-4"><path class="cls-12" d="M733.19,855.65l-5.15-2.8a11.16,11.16,0,0,1-5.53-10.11,14.74,14.74,0,0,1,.92-5.08l5.15,2.8a14.79,14.79,0,0,0-.92,5.08,11.15,11.15,0,0,0,5.53,10.11Z"/><path class="cls-13" d="M728.58,840.46l-5.15-2.8a16.43,16.43,0,0,1,.9-2l5.15,2.8a15,15,0,0,0-.9,2Z"/><path class="cls-14" d="M729.48,838.45l-5.15-2.8a17.87,17.87,0,0,1,1-1.57l5.15,2.8a15.77,15.77,0,0,0-1,1.57Z"/><path class="cls-15" d="M730.45,836.88l-5.15-2.8c.34-.48.7-.93,1.08-1.37l5.15,2.8c-.38.44-.74.89-1.08,1.37Z"/><path class="cls-16" d="M731.53,835.51l-5.15-2.8a15.73,15.73,0,0,1,1.22-1.23l5.14,2.8c-.42.39-.83.8-1.21,1.23Z"/><path class="cls-10" d="M732.74,834.28l-5.14-2.8a14.42,14.42,0,0,1,1.44-1.14l5.15,2.8a14.54,14.54,0,0,0-1.45,1.14Z"/><path class="cls-9" d="M734.19,833.14l-5.15-2.8a13.93,13.93,0,0,1,1.94-1.12l5.15,2.8a12.87,12.87,0,0,0-1.94,1.12Z"/><path class="cls-8" d="M736.13,832l-5.15-2.8a12.14,12.14,0,0,1,3.49-1.05l5.15,2.8a12.14,12.14,0,0,0-3.49,1Z"/></g></g></g><path class="cls-17" d="M739.62,831c6.6-.92,11.93,4.09,11.92,11.21s-5.37,13.64-12,14.57-11.93-4.09-11.91-11.21S733,831.9,739.62,831Z"/></g><path class="cls-5" d="M741.33,513l-1.07,390.7c0,1.5-1,3-3,4.14a15.85,15.85,0,0,1-14.38,0c-2-1.16-3-2.68-3-4.2L721,512.91c0,1.52,1,3,3,4.2a15.87,15.87,0,0,0,14.39,0C740.34,516,741.33,514.47,741.33,513Z"/><g class="cls-4"><path class="cls-3" d="M1026.44,1016.92c-4,2.31-7.23.47-7.25-4.11a15.87,15.87,0,0,1,7.17-12.48c4-2.3,7.22-.47,7.25,4.11A15.86,15.86,0,0,1,1026.44,1016.92Z"/><path class="cls-5" d="M1021.3,1017.43,733.37,851.65c-1.29-.75-2.1-2.35-2.11-4.62a15.85,15.85,0,0,1,7.17-12.48c2-1.16,3.82-1.27,5.13-.51l287.93,165.78c-1.31-.76-3.13-.65-5.13.51a15.87,15.87,0,0,0-7.17,12.48C1019.2,1015.08,1020,1016.68,1021.3,1017.43Z"/></g><g class="cls-4"><path class="cls-5" d="M1042.59,1076.35v6c0,2-1.28,3.89-3.84,5.37-5.13,3-13.49,3-18.66,0-2.6-1.5-3.9-3.48-3.9-5.44v-6c0,2,1.3,3.94,3.9,5.44,5.17,3,13.53,3,18.66,0C1041.31,1080.24,1042.58,1078.3,1042.59,1076.35Z"/><path class="cls-6" d="M1038.69,1070.91c5.18,3,5.2,7.83.06,10.81s-13.49,3-18.66,0-5.2-7.82-.06-10.81S1033.52,1067.93,1038.69,1070.91Z"/></g><g class="cls-4"><g class="cls-4"><g class="cls-18"><g class="cls-4"><path class="cls-8" d="M1026.83,996l-5.14-2.8a10.7,10.7,0,0,1,4.13.21l5.14,2.8a10.68,10.68,0,0,0-4.13-.21Z"/><path class="cls-9" d="M1031,996.19l-5.14-2.8a10.35,10.35,0,0,1,1.88.7l5.15,2.8a10.18,10.18,0,0,0-1.89-.7Z"/><path class="cls-10" d="M1032.85,996.89l-5.15-2.8.37.19,5.14,2.8-.36-.19Z"/></g></g></g><g class="cls-4"><g class="cls-19"><g class="cls-4"><path class="cls-12" d="M1020.4,1020.66l-5.14-2.8a11.15,11.15,0,0,1-5.54-10.11,14.74,14.74,0,0,1,.92-5.08l5.15,2.8a14.74,14.74,0,0,0-.92,5.08,11.16,11.16,0,0,0,5.53,10.11Z"/><path class="cls-13" d="M1015.79,1005.47l-5.15-2.8a18.11,18.11,0,0,1,.9-2l5.15,2.8a16.43,16.43,0,0,0-.9,2Z"/><path class="cls-14" d="M1016.69,1003.46l-5.15-2.8a15.85,15.85,0,0,1,1-1.57l5.15,2.8a15.85,15.85,0,0,0-1,1.57Z"/><path class="cls-15" d="M1017.67,1001.89l-5.15-2.8a14.37,14.37,0,0,1,1.07-1.37l5.15,2.8a15.74,15.74,0,0,0-1.07,1.37Z"/><path class="cls-16" d="M1018.74,1000.52l-5.15-2.8a15.73,15.73,0,0,1,1.22-1.23l5.15,2.8a15.73,15.73,0,0,0-1.22,1.23Z"/><path class="cls-10" d="M1020,999.29l-5.15-2.8a15.66,15.66,0,0,1,1.44-1.14l5.15,2.8a14.42,14.42,0,0,0-1.44,1.14Z"/><path class="cls-9" d="M1021.4,998.15l-5.15-2.8a13.93,13.93,0,0,1,1.94-1.12l5.15,2.8a13.93,13.93,0,0,0-1.94,1.12Z"/><path class="cls-8" d="M1023.34,997l-5.15-2.8a12.2,12.2,0,0,1,3.5-1.05l5.14,2.8a12.14,12.14,0,0,0-3.49,1Z"/></g></g></g><path class="cls-17" d="M1026.83,996c6.6-.92,11.93,4.09,11.92,11.21s-5.37,13.64-12,14.57-11.93-4.09-11.92-11.21S1020.24,996.91,1026.83,996Z"/></g><g class="cls-4"><path class="cls-5" d="M1040.1,685.47l-1.07,390.7c0,1.5-1,3-3,4.14a15.87,15.87,0,0,1-14.39,0c-2-1.16-3-2.68-3-4.19l1.08-390.7c0,1.51,1,3,3,4.19a15.85,15.85,0,0,0,14.38,0C1039.11,688.47,1040.1,687,1040.1,685.47Z"/><path class="cls-3" d="M1037.1,681.28c4,2.3,4,6,0,8.33a15.85,15.85,0,0,1-14.38,0c-4-2.3-4-6,0-8.33A15.87,15.87,0,0,1,1037.1,681.28Z"/></g><g class="cls-4"><path class="cls-16" d="M852.17,913l10-5.8c1.87-1.09,4.46-.93,7.32.72l-10,5.79C856.63,912.09,854,911.94,852.17,913Z"/><path class="cls-16" d="M876.71,932.3l-10,5.8c1.84-1.08,3-3.36,3-6.6,0-6.53-4.57-14.48-10.25-17.76l10-5.79c5.68,3.28,10.27,11.23,10.25,17.75C879.7,929,878.55,931.23,876.71,932.3Z"/><path class="cls-17" d="M859.49,913.74c5.68,3.28,10.27,11.23,10.25,17.76s-4.64,9.16-10.32,5.88-10.27-11.23-10.25-17.76S853.81,910.46,859.49,913.74Z"/></g><g class="cls-4"><path class="cls-5" d="M569.41,1085.21c0-4.61,3.18-6.51,7.17-4.26a15.86,15.86,0,0,1,7.27,12.42c0,4.6-3.18,6.5-7.16,4.25A15.86,15.86,0,0,1,569.41,1085.21Z"/><path class="cls-5" d="M571.52,1080.49,855,917c1.3-.76,3.09-.66,5.07.46a15.86,15.86,0,0,1,7.27,12.41c0,2.32-.8,3.95-2.11,4.71L581.75,1098.08c1.31-.76,2.12-2.4,2.1-4.71a15.86,15.86,0,0,0-7.27-12.42C574.6,1079.83,572.81,1079.74,571.52,1080.49Z"/></g><g class="cls-4"><path class="cls-16" d="M562.09,1080.7l10-5.8c1.87-1.08,4.46-.93,7.31.72l-10,5.79C566.56,1079.76,564,1079.61,562.09,1080.7Z"/><path class="cls-16" d="M586.64,1100l-10,5.79c1.84-1.07,3-3.36,3-6.6,0-6.53-4.57-14.48-10.26-17.76l10-5.79c5.69,3.28,10.27,11.23,10.26,17.76C589.63,1096.62,588.48,1098.9,586.64,1100Z"/><path class="cls-17" d="M569.41,1081.41c5.69,3.28,10.27,11.23,10.26,17.76s-4.64,9.16-10.32,5.88-10.27-11.23-10.26-17.76S563.74,1078.14,569.41,1081.41Z"/></g><g class="cls-4"><path class="cls-5" d="M201.34,1298.56c0-4.61,3.18-6.51,7.17-4.26a15.88,15.88,0,0,1,7.27,12.42c0,4.6-3.18,6.5-7.17,4.25A15.85,15.85,0,0,1,201.34,1298.56Z"/><path class="cls-5" d="M203.44,1293.84l359.77-209.16c1.3-.75,3.09-.66,5.07.47a15.86,15.86,0,0,1,7.27,12.41c0,2.32-.79,4-2.11,4.71L213.67,1311.43c1.32-.76,2.12-2.39,2.11-4.71a15.88,15.88,0,0,0-7.27-12.42C206.53,1293.18,204.74,1293.09,203.44,1293.84Z"/></g><g class="cls-4"><path class="cls-16" d="M200.63,1290.4l10-5.79c1.87-1.09,4.46-.93,7.32.72l-10,5.79C205.09,1289.47,202.5,1289.32,200.63,1290.4Z"/><path class="cls-16" d="M225.17,1309.68l-10,5.8c1.85-1.08,3-3.36,3-6.6,0-6.53-4.57-14.48-10.25-17.76l10-5.79c5.68,3.28,10.27,11.22,10.25,17.75C228.16,1306.33,227,1308.61,225.17,1309.68Z"/><path class="cls-5" d="M208,1291.12c5.68,3.28,10.27,11.23,10.25,17.76s-4.64,9.16-10.32,5.88-10.27-11.23-10.25-17.76S202.27,1287.84,208,1291.12Z"/></g><path class="cls-5" d="M77.1,896.79,76,1287.49c0,1.5-1,3-3,4.14a15.87,15.87,0,0,1-14.39,0c-2-1.16-3-2.68-3-4.2l1.08-390.7c0,1.52,1,3,3,4.2a15.87,15.87,0,0,0,14.39,0C76.11,899.79,77.1,898.29,77.1,896.79Z"/><g class="cls-4"><path class="cls-5" d="M378.36,1460.17v6c0,2-1.28,3.89-3.84,5.37-5.13,3-13.49,3-18.66,0-2.6-1.5-3.9-3.48-3.9-5.44v-6c0,2,1.3,3.94,3.9,5.44,5.17,3,13.53,3,18.66,0C377.08,1464.06,378.35,1462.12,378.36,1460.17Z"/><path class="cls-6" d="M374.46,1454.73c5.17,3,5.2,7.83.06,10.81s-13.49,3-18.66,0-5.2-7.82-.06-10.81S369.29,1451.75,374.46,1454.73Z"/></g><g class="cls-4"><g class="cls-4"><g class="cls-20"><g class="cls-4"><path class="cls-8" d="M75.39,1214.79l-5.15-2.8a10.69,10.69,0,0,1,4.13.21l5.15,2.8a10.7,10.7,0,0,0-4.13-.21Z"/><path class="cls-9" d="M79.52,1215l-5.15-2.8a10.18,10.18,0,0,1,1.89.7l5.15,2.8a10.18,10.18,0,0,0-1.89-.7Z"/><path class="cls-10" d="M81.41,1215.7l-5.15-2.8.36.19,5.15,2.8-.36-.19Z"/></g></g></g><g class="cls-4"><g class="cls-21"><g class="cls-4"><path class="cls-12" d="M69,1239.47l-5.15-2.8a11.16,11.16,0,0,1-5.53-10.11,14.74,14.74,0,0,1,.92-5.08l5.15,2.8a14.79,14.79,0,0,0-.92,5.08A11.15,11.15,0,0,0,69,1239.47Z"/><path class="cls-13" d="M64.35,1224.28l-5.15-2.8a15,15,0,0,1,.9-2l5.15,2.8a15,15,0,0,0-.9,2Z"/><path class="cls-14" d="M65.25,1222.27l-5.15-2.8a17.87,17.87,0,0,1,1-1.57l5.15,2.8a15.77,15.77,0,0,0-1,1.57Z"/><path class="cls-15" d="M66.22,1220.7l-5.15-2.8c.34-.48.7-.93,1.08-1.37l5.15,2.8a15.86,15.86,0,0,0-1.08,1.37Z"/><path class="cls-16" d="M67.3,1219.33l-5.15-2.8a15.73,15.73,0,0,1,1.22-1.23l5.14,2.8c-.42.39-.83.8-1.21,1.23Z"/><path class="cls-10" d="M68.51,1218.1l-5.14-2.8a14.42,14.42,0,0,1,1.44-1.14L70,1217a14.54,14.54,0,0,0-1.45,1.14Z"/><path class="cls-9" d="M70,1217l-5.15-2.8a13.38,13.38,0,0,1,1.94-1.12l5.15,2.8A13.78,13.78,0,0,0,70,1217Z"/><path class="cls-8" d="M71.9,1215.84l-5.15-2.8a12.14,12.14,0,0,1,3.49-1l5.15,2.8a12,12,0,0,0-3.49,1Z"/></g></g></g><path class="cls-17" d="M75.39,1214.79c6.6-.92,11.93,4.09,11.92,11.21s-5.37,13.64-12,14.57-11.93-4.09-11.91-11.21S68.79,1215.72,75.39,1214.79Z"/></g><g class="cls-4"><path class="cls-3" d="M362.21,1400.74c-4,2.31-7.23.47-7.25-4.11a15.87,15.87,0,0,1,7.17-12.48c4-2.3,7.22-.46,7.24,4.11A15.82,15.82,0,0,1,362.21,1400.74Z"/><path class="cls-5" d="M357.07,1401.25,69.14,1235.47c-1.29-.75-2.1-2.35-2.11-4.62a15.82,15.82,0,0,1,7.17-12.48c2-1.16,3.82-1.27,5.13-.51l287.93,165.78c-1.31-.76-3.13-.65-5.13.51a15.87,15.87,0,0,0-7.17,12.48C355,1398.9,355.78,1400.5,357.07,1401.25Z"/></g><g class="cls-4"><g class="cls-4"><g class="cls-22"><g class="cls-4"><path class="cls-8" d="M362.6,1379.8l-5.15-2.8a10.68,10.68,0,0,1,4.13.21l5.15,2.8a10.69,10.69,0,0,0-4.13-.21Z"/><path class="cls-9" d="M366.73,1380l-5.15-2.8a10.18,10.18,0,0,1,1.89.7l5.15,2.8a10.18,10.18,0,0,0-1.89-.7Z"/><path class="cls-10" d="M368.62,1380.71l-5.15-2.8.37.19,5.14,2.8-.36-.19Z"/></g></g></g><g class="cls-4"><g class="cls-23"><g class="cls-4"><path class="cls-12" d="M356.17,1404.48l-5.14-2.8a11.15,11.15,0,0,1-5.54-10.11,14.74,14.74,0,0,1,.92-5.08l5.15,2.8a14.74,14.74,0,0,0-.92,5.08,11.16,11.16,0,0,0,5.53,10.11Z"/><path class="cls-13" d="M351.56,1389.29l-5.15-2.8a16.43,16.43,0,0,1,.9-2l5.15,2.8a16.43,16.43,0,0,0-.9,2Z"/><path class="cls-14" d="M352.46,1387.28l-5.15-2.8a15.85,15.85,0,0,1,1-1.57l5.14,2.8a17.87,17.87,0,0,0-1,1.57Z"/><path class="cls-15" d="M353.43,1385.71l-5.14-2.8a15.74,15.74,0,0,1,1.07-1.37l5.15,2.8c-.38.44-.74.89-1.08,1.37Z"/><path class="cls-16" d="M354.51,1384.34l-5.15-2.8a15.73,15.73,0,0,1,1.22-1.23l5.15,2.8a15.73,15.73,0,0,0-1.22,1.23Z"/><path class="cls-10" d="M355.73,1383.11l-5.15-2.8a15.66,15.66,0,0,1,1.44-1.14l5.15,2.8a14.42,14.42,0,0,0-1.44,1.14Z"/><path class="cls-9" d="M357.17,1382l-5.15-2.8a13.93,13.93,0,0,1,1.94-1.12l5.15,2.8a13.38,13.38,0,0,0-1.94,1.12Z"/><path class="cls-8" d="M359.11,1380.85l-5.15-2.8a12.23,12.23,0,0,1,3.49-1l5.15,2.8a12.14,12.14,0,0,0-3.49,1Z"/></g></g></g><path class="cls-17" d="M362.6,1379.8c6.6-.92,11.93,4.09,11.92,11.21s-5.37,13.64-12,14.57-11.93-4.09-11.91-11.21S356,1380.73,362.6,1379.8Z"/></g><g class="cls-4"><path class="cls-5" d="M375.87,1069.29,374.8,1460c0,1.49-1,3-3,4.13a15.87,15.87,0,0,1-14.39,0c-2-1.16-3-2.68-3-4.19l1.07-390.7c0,1.51,1,3,3,4.19a15.85,15.85,0,0,0,14.38,0C374.88,1072.29,375.87,1070.79,375.87,1069.29Z"/><path class="cls-3" d="M372.87,1065.1c4,2.3,4,6,0,8.33a15.85,15.85,0,0,1-14.38,0c-4-2.3-4-6,0-8.33A15.87,15.87,0,0,1,372.87,1065.1Z"/></g><g id="desk-2" data-name="desk"><polygon class="cls-24" points="0 871.71 331.97 1063.37 1062.29 641.72 730.35 450.05 0 871.71"/><polygon class="cls-25" points="331.97 1063.37 331.78 1101.59 1062.29 680.05 1062.29 641.72 331.97 1063.37"/></g><polygon class="cls-26" points="0 871.71 331.97 1063.37 331.78 1101.59 0 910.04 0 871.71"/></g><path class="cls-27" d="M679.6,1287.15c0,8.94,6.27,19.81,14,24.28,4.15,2.4,7.89,2.48,10.44.66a5.9,5.9,0,0,0,1.29-1.21c1.47-1.7,2.3-4.27,2.3-7.53,0-8.95-6.27-19.82-14-24.29-2.83-1.64-5.48-2.2-7.68-1.77a5.46,5.46,0,0,0-1.67.5l-.07,0C681.37,1279.16,679.6,1282.42,679.6,1287.15Z"/><path class="cls-28" d="M684.25,1277.79a5.46,5.46,0,0,1,1.67-.5c2.2-.43,4.85.13,7.68,1.77,7.76,4.47,14,15.34,14,24.29,0,3.26-.83,5.83-2.3,7.53a5.9,5.9,0,0,1-1.29,1.21l3-1.74.25-.13c2.68-1.39,4.35-4.6,4.35-9.2,0-9-6.27-19.81-14-24.29-4-2.32-7.61-2.45-10.16-.83Z"/><polygon class="cls-29" points="698.33 1279.87 698.33 1302.61 707.63 1308 707.63 1285.25 702.35 1282.19 698.33 1279.87"/><polygon class="cls-30" points="707.63 1285.25 707.63 1308 711.65 1305.67 711.65 1282.92 707.63 1285.25"/><polygon class="cls-30" points="698.33 1279.87 702.35 1282.19 707.63 1285.25 711.65 1282.92 702.35 1277.54 698.33 1279.87"/><path class="cls-28" d="M676.16,1282.47a5.64,5.64,0,0,1,1.72-.53c2.2-.43,4.85.13,7.69,1.77,7.75,4.47,14,15.34,14,24.29a12.73,12.73,0,0,1-1.31,6.06,6.76,6.76,0,0,1-1,1.47,6.47,6.47,0,0,1-1.51,1.36l3.41-2a0,0,0,0,1,0,0v0c2.71-1.36,4.4-4.55,4.4-9.2,0-9-6.27-19.81-14-24.29-4.14-2.4-7.88-2.47-10.43-.63Z"/><path class="cls-29" d="M671.56,1291.8c0,8.94,6.27,19.81,14,24.28,3.76,2.18,7.2,2.43,9.7,1.12l.51-.31a6.47,6.47,0,0,0,1.51-1.36,6.76,6.76,0,0,0,1-1.47,12.73,12.73,0,0,0,1.31-6.06c0-9-6.27-19.82-14-24.29-2.84-1.64-5.49-2.2-7.69-1.77a5.64,5.64,0,0,0-1.72.53l-.17.1C673.26,1283.94,671.56,1287.17,671.56,1291.8Z"/><path class="cls-27" d="M711.89,1407.23c0,9,6.27,19.82,14,24.29,4.14,2.4,7.88,2.48,10.44.66a5.9,5.9,0,0,0,1.29-1.21c1.46-1.7,2.3-4.28,2.3-7.54,0-8.94-6.27-19.81-14-24.28-2.83-1.65-5.48-2.2-7.68-1.77a5.38,5.38,0,0,0-1.67.5l-.08,0C713.66,1399.25,711.89,1402.51,711.89,1407.23Z"/><path class="cls-28" d="M716.54,1397.88a5.38,5.38,0,0,1,1.67-.5c2.2-.43,4.85.12,7.68,1.77,7.76,4.47,14,15.34,14,24.28,0,3.26-.84,5.84-2.3,7.54a5.9,5.9,0,0,1-1.29,1.21l3-1.74.26-.13c2.68-1.39,4.34-4.6,4.34-9.2,0-8.95-6.26-19.82-14-24.29-4-2.32-7.61-2.45-10.16-.83Z"/><polygon class="cls-29" points="730.62 1399.95 730.62 1422.7 739.92 1428.09 739.92 1405.34 734.63 1402.28 730.62 1399.95"/><polygon class="cls-30" points="739.92 1405.34 739.92 1428.09 743.93 1425.76 743.93 1403.01 739.92 1405.34"/><polygon class="cls-30" points="730.62 1399.95 734.63 1402.28 739.92 1405.34 743.93 1403.01 734.63 1397.63 730.62 1399.95"/><path class="cls-28" d="M708.45,1402.56a5.56,5.56,0,0,1,1.72-.53c2.2-.43,4.85.12,7.68,1.77,7.76,4.47,14,15.34,14,24.28a12.87,12.87,0,0,1-1.31,6.07,6.76,6.76,0,0,1-1,1.47,6.32,6.32,0,0,1-1.52,1.36l3.41-2a0,0,0,0,1,0,0v0c2.7-1.37,4.4-4.55,4.4-9.2,0-9-6.27-19.82-14-24.29-4.14-2.4-7.88-2.48-10.44-.63Z"/><path class="cls-29" d="M703.85,1411.88c0,8.95,6.27,19.82,14,24.29,3.77,2.18,7.21,2.43,9.71,1.11l.5-.3a6.32,6.32,0,0,0,1.52-1.36,6.76,6.76,0,0,0,1-1.47,12.87,12.87,0,0,0,1.31-6.07c0-8.94-6.27-19.81-14-24.28-2.83-1.65-5.48-2.2-7.68-1.77a5.56,5.56,0,0,0-1.72.53l-.18.1C705.54,1404,703.85,1407.26,703.85,1411.88Z"/><path class="cls-29" d="M976.05,1427.64c0,8.95-6.27,19.82-14,24.29-4.15,2.4-7.89,2.48-10.44.66a5.9,5.9,0,0,1-1.29-1.21c-1.47-1.7-2.3-4.28-2.3-7.54,0-8.94,6.27-19.81,14-24.28,2.83-1.65,5.48-2.2,7.68-1.77a5.46,5.46,0,0,1,1.67.5l.07,0C974.28,1419.66,976.05,1422.92,976.05,1427.64Z"/><path class="cls-28" d="M971.4,1418.29a5.46,5.46,0,0,0-1.67-.5c-2.2-.43-4.85.12-7.68,1.77-7.76,4.47-14,15.34-14,24.28,0,3.26.83,5.84,2.3,7.54a5.9,5.9,0,0,0,1.29,1.21l-3-1.75-.25-.12c-2.68-1.39-4.35-4.6-4.35-9.2,0-9,6.27-19.82,14-24.29,4-2.32,7.61-2.45,10.16-.83Z"/><polygon class="cls-30" points="957.32 1420.36 957.32 1443.11 948.02 1448.49 948.02 1425.75 953.3 1422.69 957.32 1420.36"/><polygon class="cls-29" points="948.02 1425.75 948.02 1448.49 944 1446.17 944 1423.42 948.02 1425.75"/><polygon class="cls-30" points="957.32 1420.36 953.3 1422.69 948.02 1425.75 944 1423.42 953.3 1418.04 957.32 1420.36"/><path class="cls-28" d="M979.49,1423a5.38,5.38,0,0,0-1.72-.53c-2.2-.43-4.85.12-7.69,1.77-7.75,4.47-14,15.34-14,24.28a12.75,12.75,0,0,0,1.31,6.07,6.76,6.76,0,0,0,1,1.47,6.47,6.47,0,0,0,1.51,1.36l-3.41-2s0,0,0,0v0c-2.71-1.37-4.4-4.55-4.4-9.2,0-9,6.27-19.82,14-24.29,4.14-2.4,7.88-2.48,10.43-.63Z"/><path class="cls-30" d="M984.09,1432.29c0,9-6.27,19.82-14,24.29-3.76,2.18-7.2,2.43-9.7,1.11l-.51-.3a6.47,6.47,0,0,1-1.51-1.36,6.76,6.76,0,0,1-1-1.47,12.75,12.75,0,0,1-1.31-6.07c0-8.94,6.27-19.81,14-24.28,2.84-1.65,5.49-2.2,7.69-1.77a5.38,5.38,0,0,1,1.72.53l.17.1C982.39,1424.43,984.09,1427.67,984.09,1432.29Z"/><path class="cls-29" d="M1070,1320.09c0,9-6.26,19.82-14,24.29-4.14,2.4-7.88,2.48-10.44.66a5.68,5.68,0,0,1-1.28-1.22c-1.47-1.69-2.3-4.27-2.3-7.53,0-9,6.26-19.81,14-24.29,2.83-1.64,5.49-2.2,7.69-1.77a5.71,5.71,0,0,1,1.66.51l.08,0C1068.18,1312.1,1070,1315.37,1070,1320.09Z"/><path class="cls-28" d="M1065.3,1310.74a5.71,5.71,0,0,0-1.66-.51c-2.2-.43-4.86.13-7.69,1.77-7.76,4.48-14,15.34-14,24.29,0,3.26.83,5.84,2.3,7.53a5.68,5.68,0,0,0,1.28,1.22l-3-1.75-.26-.12c-2.68-1.39-4.34-4.6-4.34-9.2,0-9,6.26-19.82,14-24.29,4-2.33,7.61-2.45,10.16-.84Z"/><polygon class="cls-30" points="1051.23 1312.81 1051.23 1335.56 1041.92 1340.94 1041.92 1318.2 1047.21 1315.14 1051.23 1312.81"/><polygon class="cls-29" points="1041.92 1318.2 1041.92 1340.94 1037.91 1338.62 1037.91 1315.87 1041.92 1318.2"/><polygon class="cls-30" points="1051.23 1312.81 1047.21 1315.14 1041.92 1318.2 1037.91 1315.87 1047.21 1310.49 1051.23 1312.81"/><path class="cls-28" d="M1073.39,1315.42a5.57,5.57,0,0,0-1.72-.54c-2.2-.42-4.85.13-7.68,1.77-7.76,4.48-14,15.35-14,24.29a12.74,12.74,0,0,0,1.32,6.07,7.75,7.75,0,0,0,2.5,2.83l-3.41-2a0,0,0,0,0,0,0v0c-2.7-1.37-4.4-4.55-4.4-9.2,0-8.95,6.27-19.82,14-24.29,4.15-2.4,7.89-2.48,10.44-.63Z"/><path class="cls-30" d="M1078,1324.74c0,9-6.27,19.82-14,24.29-3.77,2.17-7.2,2.43-9.71,1.11l-.5-.3a7.75,7.75,0,0,1-2.5-2.83,12.74,12.74,0,0,1-1.32-6.07c0-8.94,6.27-19.81,14-24.29,2.83-1.64,5.48-2.19,7.68-1.77a5.57,5.57,0,0,1,1.72.54l.18.1C1076.3,1316.88,1078,1320.12,1078,1324.74Z"/><path class="cls-29" d="M921.53,1240.24c0,9-6.26,19.82-14,24.29-4.14,2.4-7.88,2.48-10.44.66a5.9,5.9,0,0,1-1.29-1.21c-1.46-1.7-2.3-4.28-2.3-7.54,0-8.94,6.27-19.81,14-24.28,2.83-1.65,5.49-2.2,7.69-1.77a5.4,5.4,0,0,1,1.66.5l.08,0C919.76,1232.26,921.53,1235.52,921.53,1240.24Z"/><path class="cls-28" d="M916.88,1230.89a5.4,5.4,0,0,0-1.66-.5c-2.2-.43-4.86.12-7.69,1.77-7.76,4.47-14,15.34-14,24.28,0,3.26.84,5.84,2.3,7.54a5.9,5.9,0,0,0,1.29,1.21l-3-1.74-.26-.13c-2.68-1.39-4.34-4.6-4.34-9.2,0-8.95,6.26-19.82,14-24.29,4-2.32,7.61-2.45,10.16-.83Z"/><polygon class="cls-30" points="902.81 1232.96 902.81 1255.71 893.5 1261.1 893.5 1238.35 898.79 1235.29 902.81 1232.96"/><polygon class="cls-29" points="893.5 1238.35 893.5 1261.1 889.49 1258.77 889.49 1236.02 893.5 1238.35"/><polygon class="cls-30" points="902.81 1232.96 898.79 1235.29 893.5 1238.35 889.49 1236.02 898.79 1230.64 902.81 1232.96"/><path class="cls-28" d="M925,1235.57a5.56,5.56,0,0,0-1.72-.53c-2.2-.43-4.85.12-7.68,1.77-7.76,4.47-14,15.34-14,24.28a12.74,12.74,0,0,0,1.32,6.07,6.39,6.39,0,0,0,1,1.47,6.32,6.32,0,0,0,1.52,1.36l-3.41-2a0,0,0,0,0,0,0v0c-2.7-1.37-4.4-4.55-4.4-9.2,0-9,6.27-19.81,14-24.29,4.15-2.4,7.89-2.48,10.44-.63Z"/><path class="cls-30" d="M929.57,1244.89c0,8.95-6.27,19.82-14,24.29-3.77,2.18-7.2,2.43-9.71,1.11l-.5-.3a6.32,6.32,0,0,1-1.52-1.36,6.39,6.39,0,0,1-1-1.47,12.74,12.74,0,0,1-1.32-6.07c0-8.94,6.27-19.81,14-24.28,2.83-1.65,5.48-2.2,7.68-1.77a5.56,5.56,0,0,1,1.72.53l.18.1C927.88,1237,929.57,1240.27,929.57,1244.89Z"/><polygon class="cls-29" points="886.76 1315.8 891.05 1320.66 902.88 1334.08 1054.9 1320.18 1054.9 1300.44 886.76 1315.8"/><polygon class="cls-28" points="824.53 1325.26 726.83 1381.67 743.93 1391.55 744.34 1391.78 864.69 1322.3 941.98 1409.87 950.22 1407.45 964.04 1403.38 902.88 1334.08 891.05 1320.66 886.76 1315.8 1054.9 1300.44 1051.01 1286.31 888.45 1301.17 882.89 1301.68 904.25 1223.88 909.53 1204.6 885.06 1202.38 858.42 1299.45 706.76 1254.82 695.51 1267.56 847.18 1312.19 842.93 1314.64 824.53 1325.26"/><polygon class="cls-29" points="695.51 1267.56 695.51 1287.32 824.53 1325.26 842.93 1314.64 847.18 1312.19 695.51 1267.56"/><polygon class="cls-29" points="726.83 1381.67 726.83 1401.43 744.34 1411.54 743.93 1391.55 726.83 1381.67"/><polygon class="cls-30" points="743.93 1391.55 744.34 1411.54 864.69 1342.04 864.69 1322.3 744.34 1391.78 743.93 1391.55"/><polygon class="cls-29" points="864.69 1322.3 864.69 1342.04 941.98 1429.61 941.98 1409.87 864.69 1322.3"/><polygon class="cls-30" points="941.98 1409.87 941.98 1429.61 964.04 1423.12 964.04 1403.38 950.22 1407.45 941.98 1409.87"/><polygon class="cls-30" points="882.89 1301.68 888.45 1301.17 909.53 1224.36 909.53 1204.6 904.25 1223.88 882.89 1301.68"/><path class="cls-30" d="M868.16,1090.22V1322.3a31,31,0,0,0,15.29-3.67c4.57-2.62,6.64-6.14,6.26-9.57h.08V1090.22Z"/><path class="cls-29" d="M846.55,1309.06h.05c-.36,3.43,1.72,7,6.26,9.57a31.06,31.06,0,0,0,15.3,3.67V1090.22H846.55Z"/><path class="cls-29" d="M994,1063.88s-1.74,6.3,5.44,9.89,10,3.73,10,3.73l-3.53-8.87Z"/><path class="cls-29" d="M874.78,995a46.8,46.8,0,0,0,24.56,20.88l-7.17-19.78Z"/><path class="cls-29" d="M874.78,995l13.46,7.76s-32-101.64-15.63-118.13a7.68,7.68,0,0,1,6.54-2.21,54.06,54.06,0,0,1,6.08.7c37.27,6.54,56.52,52.71,130.64,95.5,0,0,16.61,6,11,22.2s-32.86,63-32.86,63l11,6.32,8.08-14.16,27.41-47.95A33.18,33.18,0,0,0,1041.8,995c-.73-7.7-4.44-17.3-16.55-24.31-53.54-29.58-92.81-79.38-129-97.63A63.06,63.06,0,0,0,876,866.47l-.77-.09a15,15,0,0,0-8.06,1.11l-.09.06C838.83,880.86,874.78,995,874.78,995Z"/><path class="cls-28" d="M867.13,867.49a15,15,0,0,1,8.06-1.11l.77.09a63.06,63.06,0,0,1,20.25,6.63c36.23,18.25,75.5,68,129,97.63,10.79,6.23,14.91,14.54,16.19,21.72l16.31-9.42c-1.28-7.2-5.42-15.48-16.19-21.71-64-35.39-107.65-99.65-150.06-104.36-4.43-.49-7.93.53-10.66,2.75l0,0Z"/><path class="cls-30" d="M1005,1070.2l16.31-9.41,35.48-62.11a33.36,33.36,0,0,0,1-15.65l-16.31,9.42a24.38,24.38,0,0,1,.36,2.59,33.18,33.18,0,0,1-1.33,13.05L1013.06,1056Z"/><path class="cls-30" d="M888.24,1002.8l16.31-9.41s-25.61-81.21-19.32-110.23a54.06,54.06,0,0,0-6.08-.7,7.68,7.68,0,0,0-6.54,2.21C856.19,901.16,888.24,1002.8,888.24,1002.8Z"/><path class="cls-30" d="M888.24,1002.8l16.31-9.41s2.61,8.74,1.31,23.74C905.86,1017.13,892.74,1018,888.24,1002.8Z"/><path class="cls-30" d="M1021.29,1060.79l-8.35,17.25s-10,0-8-7.84Z"/><path class="cls-31" d="M846.59,1208.25l195.71-113c33.52-72.6,51.67-163.5,53.52-262.18a80.52,80.52,0,0,0-7.25-10.79c-7.08-8.63-13.71-10.57-23.09-9.19h-.08c-28.51.64-109,12.31-197.91,113.35,10.61-2,17.73-.47,25.35,8.83a78.92,78.92,0,0,1,7.27,10.79C898.27,1044.74,880.11,1135.65,846.59,1208.25Z"/><path class="cls-31" d="M652.67,1060.45s18.55,3.79,47.06,16.12A398.79,398.79,0,0,1,741,1097.38c33.3,19.21,46.56,29,58.44,38.06,5.18,4,13.39,25.2,16.31,31.47,80.7-26.29,131.38-77.31,161.94-101.49,20.21-16,30-26.93,30-26.93a43.55,43.55,0,0,0-12.5-16c-11.9-9.1-25.16-18.85-58.46-38.06-50.56-29.21-88.34-36.93-88.34-36.93S731.71,981.41,652.67,1060.45Z"/><path class="cls-32" d="M652.67,1060.45v35.76l6.52,3.77,156.57,90.4v-23.47a37.3,37.3,0,0,0-3.78-15.42,43.74,43.74,0,0,0-12.53-16c-11.88-9.09-25.14-18.85-58.44-38.06a398.79,398.79,0,0,0-41.28-20.81C671.22,1064.24,652.67,1060.45,652.67,1060.45Z"/><path class="cls-29" d="M652.67,1096.21v7.54s69.06,82.8,199.88,115.67v-7.54L659.19,1100Z"/><path class="cls-29" d="M652.67,1073.65v30.1l150,86.63v-23.47a23.06,23.06,0,0,0-1.43-7.63,29.65,29.65,0,0,0-9.4-13.24c-12.32-9.43-25.14-18.75-57.4-37.36-33.05-19.1-60.73-28.85-75.29-33.2C656.57,1074.71,654.39,1074.1,652.67,1073.65Z"/><path class="cls-28" d="M652.67,1073.65c1.72.45,3.9,1.06,6.52,1.83,14.56,4.35,42.24,14.1,75.29,33.2,32.26,18.61,45.08,27.93,57.4,37.36a29.65,29.65,0,0,1,9.4,13.24l6.51-3.76a29.4,29.4,0,0,0-9.37-13.24c-12.34-9.44-25.16-18.76-57.41-37.37-39-22.5-70.48-32.05-81.82-35Z"/><path class="cls-30" d="M801.28,1159.28a23.06,23.06,0,0,1,1.43,7.63v23.47l6.52-3.77v-23.47a22.77,22.77,0,0,0-1.44-7.62Z"/><path class="cls-32" d="M815.76,1190.38c1.24,1.31,30.83,17.87,30.83,17.87,33.52-72.6,51.68-163.51,53.52-262.19a78.92,78.92,0,0,0-7.27-10.79c-7.62-9.3-14.74-10.83-25.35-8.83-9.17,7.48-15.36,68.55-9.17,105.52C823.69,1075,808.94,1174,815.76,1190.38Z"/><path class="cls-29" d="M814.86,1190.66l27.57,16.19c.88-2,1.77-4,2.63-6,29.7-69.08,46.31-152.26,48.37-243.88-1.36-2.17-9.06-11.68-10.27-13.15a17.57,17.57,0,0,0-4.65-4.21,15,15,0,0,0-8.34-1.68,35,35,0,0,0-4.65.51c-7,8-13.39,63.26-7.33,99.43l.55,3.34-1.43,1.77C823.82,1084.52,812.33,1174,814.86,1190.66Z"/><path class="cls-29" d="M846.59,1208.25l5.95,3.35C886,1139,904.2,1051.05,906,952.41l-.24-.26-5.69-6.09C898.27,1044.74,880.11,1135.65,846.59,1208.25Z"/><path class="cls-30" d="M852.54,1211.6l195.71-113c33.52-72.59,51.67-160.55,53.5-259.2l-6.18,3.58L906,952.41C904.2,1051.05,886,1139,852.54,1211.6Z"/><path class="cls-28" d="M900.11,946.06c.34.21,4.63,4.92,5.69,6.09l.24.26L1095.57,843l6.18-3.58s-5.52-6.1-5.93-6.34Z"/><path class="cls-28" d="M865.52,938.4a35,35,0,0,1,4.65-.51,15,15,0,0,1,8.34,1.68,17.57,17.57,0,0,1,4.65,4.21c1.21,1.47,8.91,11,10.27,13.15l6.51-3.77c-1.35-2.16-9.06-11.67-10.26-13.14A17.61,17.61,0,0,0,885,935.8c-3.13-1.79-7.16-2.17-13-1.17Z"/><path class="cls-30" d="M842.43,1206.85l6.51-3.76c31.36-70.25,48.89-155.61,51-249.93l-6.51,3.77c-2.06,91.62-18.67,174.8-48.37,243.88C844.2,1202.84,843.31,1204.86,842.43,1206.85Z"/><polygon class="cls-30" points="852.54 1211.6 852.54 1219.42 1048.25 1106.42 1048.25 1098.61 852.54 1211.6"/><path class="cls-29" d="M782.34,1188.89s-1.73,6.3,5.45,9.89,10,3.73,10,3.73l-3.52-8.87Z"/><path class="cls-29" d="M663.11,1120.05a46.79,46.79,0,0,0,24.57,20.88l-7.18-19.78Z"/><path class="cls-29" d="M663.11,1120.05l13.47,7.76S644.53,1026.17,661,1009.68a7.65,7.65,0,0,1,6.53-2.21,54.23,54.23,0,0,1,6.09.7c37.26,6.54,56.51,52.71,130.64,95.5,0,0,16.61,6,11,22.2s-32.86,63-32.86,63l11,6.32,8.08-14.16,27.4-48a33.07,33.07,0,0,0,1.34-13c-.74-7.7-4.45-17.3-16.56-24.31-53.54-29.58-92.8-79.38-129-97.63a62.93,62.93,0,0,0-20.24-6.63l-.77-.09a15,15,0,0,0-8.06,1.11l-.1.06C627.16,1005.87,663.11,1120.05,663.11,1120.05Z"/><path class="cls-28" d="M655.47,992.5a15,15,0,0,1,8.06-1.11l.77.09a62.93,62.93,0,0,1,20.24,6.63c36.24,18.25,75.5,68.05,129,97.63,10.8,6.23,14.92,14.54,16.2,21.71l16.31-9.41c-1.28-7.2-5.42-15.48-16.2-21.72-64-35.38-107.64-99.64-150-104.35-4.43-.49-7.93.53-10.66,2.75l0,0Z"/><path class="cls-30" d="M793.32,1195.21l16.31-9.41,35.48-62.11a33.51,33.51,0,0,0,1-15.65l-16.31,9.41c.17.89.28,1.76.36,2.6a33.07,33.07,0,0,1-1.34,13l-27.4,48Z"/><path class="cls-30" d="M676.58,1127.81l16.31-9.41s-25.61-81.21-19.32-110.23a54.23,54.23,0,0,0-6.09-.7,7.65,7.65,0,0,0-6.53,2.21C644.53,1026.17,676.58,1127.81,676.58,1127.81Z"/><path class="cls-30" d="M676.58,1127.81l16.31-9.41s2.61,8.74,1.3,23.74C694.19,1142.14,681.08,1143.05,676.58,1127.81Z"/><path class="cls-30" d="M809.63,1185.8l-8.35,17.25s-10,0-8-7.84Z"/><path class="cls-2" d="M789.4,579.51c0,12.26-18.15,22.21-40.44,22.21s-40.37-9.61-40.37-21.86,18.08-22.52,40.37-22.52S789.4,567.26,789.4,579.51Z"/><polygon class="cls-33" points="700.24 502.65 708.01 577.38 778.82 577.38 786.64 502.65 700.24 502.65"/><path class="cls-33" d="M768.4,561.86c-13.88-8-36.31-8-50.1,0s-13.71,21,.17,29,36.3,8,50.09,0,13.72-21-.16-29Z"/><path class="cls-34" d="M768.4,488.14c-13.87-8-36.3-8-50.09,0-8.5,4.94-11.74,11.77-9.72,18.17,1.25-3.93,4.49-7.69,9.72-10.72,13.79-8,36.22-8,50.09,0,5.32,3.07,8.62,6.87,9.87,10.85C780.31,500,777,493.11,768.4,488.14Z"/><path class="cls-35" d="M773.88,485c-16.92-9.78-44.28-9.78-61.09,0s-16.72,25.32-.25,35.11l.45.27c16.93,9.77,44.27,9.78,61.1,0l.23-.14C790.9,510.42,790.72,494.68,773.88,485Zm4.39,21.47c-1.24,3.93-4.47,7.69-9.71,10.73-13.79,8-36.21,8-50.09,0-5.33-3.08-8.62-6.89-9.88-10.85-2-6.4,1.22-13.23,9.72-18.17,13.79-8,36.22-8,50.09,0C777,493.11,780.31,500,778.27,506.43Z"/><path class="cls-36" d="M778.27,506.43c-1.25-4-4.55-7.78-9.87-10.85-13.87-8-36.3-8-50.09,0-5.23,3-8.47,6.79-9.72,10.72-2-6.4,1.22-13.23,9.72-18.17,13.79-8,36.22-8,50.09,0C777,493.11,780.31,500,778.27,506.43Z"/><path class="cls-37" d="M778.27,506.43c-1.24,3.93-4.47,7.69-9.71,10.73-13.79,8-36.21,8-50.09,0-5.33-3.08-8.62-6.89-9.88-10.85,1.25-3.93,4.49-7.69,9.72-10.72,13.79-8,36.22-8,50.09,0C773.72,498.65,777,502.45,778.27,506.43Z"/><ellipse class="cls-38" cx="743.93" cy="510.36" rx="16.54" ry="8.22"/><path class="cls-39" d="M752.35,392.65s7.21,28-15.39,64.53,6.07,54.36,6.22,53.8,24.84-73.29,19-96.07C757.53,396.55,752.35,392.65,752.35,392.65Z"/><path class="cls-40" d="M739.41,363.17s-19.71,29-.75,82.84,2.2,65.67,2.2,65.67,35.26-19.11,22.87-59.11S737.91,379,739.41,363.17Z"/><path class="cls-41" d="M745.7,514.66s-22.72,2.59-24.23-32.82-6.66-61.43-19.57-68.6c0,0,34.69,4.73,40.94,30.44S754,496.73,745.7,514.66Z"/><path class="cls-42" d="M742.59,514.54s-6.15-21.33,4.77-46.56,38.4-43.05,54-49.45c0,0-22,21.85-31,49.45S757.65,516.8,742.59,514.54Z"/><g id="monitor"><polygon class="cls-43" points="374.77 717.4 462.96 768.32 568.8 707.22 480.6 656.3 374.77 717.4"/><ellipse class="cls-24" cx="456.94" cy="703.05" rx="38.37" ry="17.94"/><polygon class="cls-44" points="445.32 717.4 480.6 697.03 480.6 595.19 445.32 615.56 445.32 717.4"/><polygon class="cls-45" points="445.32 717.4 427.69 707.22 427.69 605.38 445.32 615.56 445.32 717.4"/><polygon class="cls-46" points="242.47 498.44 242.47 763.23 648.18 529 648.18 264.21 242.47 498.44"/><polygon class="cls-47" points="251.29 503.54 639.36 279.48 639.36 523.9 251.29 747.96 251.29 503.54"/><polygon class="cls-48" points="242.47 498.44 233.65 493.35 233.65 758.14 242.47 763.23 242.47 498.44"/><polygon class="cls-49" points="233.65 493.35 639.36 259.11 648.18 264.21 242.47 498.44 233.65 493.35"/><polygon class="cls-44" points="462.96 768.32 462.96 773.85 568.8 713.33 568.8 707.22 462.96 768.32"/><polygon class="cls-45" points="374.77 717.4 462.96 768.32 462.96 773.85 374.77 723.14 374.77 717.4"/><polygon class="cls-24" points="621.72 542.24 621.72 538.36 634.02 531.06 634.02 535.13 621.72 542.24"/><polygon class="cls-24" points="617.82 544.49 617.82 540.25 615.65 541.51 615.65 545.74 617.82 544.49"/><polygon class="cls-24" points="614.2 546.58 614.2 542.34 612.03 543.61 612.03 547.83 614.2 546.58"/><polygon class="cls-24" points="610.54 548.69 610.54 544.45 608.37 545.72 608.37 549.95 610.54 548.69"/><polygon class="cls-24" points="606.92 550.78 606.92 546.55 604.75 547.81 604.75 552.04 606.92 550.78"/></g><path class="cls-24" d="M555,352.2c-1.33.77-2.42.15-2.42-1.38a5.31,5.31,0,0,1,2.4-4.16c1.33-.77,2.42-.15,2.42,1.38a5.31,5.31,0,0,1-2.4,4.16Zm7.47-4.32c-1.33.77-2.41.15-2.41-1.37a5.3,5.3,0,0,1,2.4-4.17c1.33-.76,2.41-.15,2.42,1.38a5.29,5.29,0,0,1-2.41,4.16Zm7.48-4.32c-1.33.77-2.41.16-2.41-1.37a5.28,5.28,0,0,1,2.4-4.16c1.33-.77,2.41-.15,2.42,1.38a5.3,5.3,0,0,1-2.41,4.15Zm3.39-10.85L319.43,479.3a12.77,12.77,0,0,0-5.78,10l.57,201c0,3.66,2.63,5.15,5.81,3.31l253.9-146.59a12.75,12.75,0,0,0,5.77-10V531.8L314.21,685.08l-.54-190.53,16.89-9.76L579.15,341.28l0-5.26c0-3.66-2.62-5.15-5.81-3.31Z"/><path class="cls-50" d="M347.07,635.72c-.43.24-.77,0-.77-.44V632a1.71,1.71,0,0,1,.76-1.33l39.9-23c.42-.24.76,0,.76.44v3.28a1.71,1.71,0,0,1-.76,1.33l-39.89,23Zm44.93-26c-.42.25-.76.05-.77-.43v-3.29a1.67,1.67,0,0,1,.77-1.32L422.78,587c.42-.24.77-.05.77.44v3.29a1.69,1.69,0,0,1-.77,1.32L392,609.77Zm36.6-21.12c-.43.24-.77,0-.77-.44v-3.29a1.71,1.71,0,0,1,.76-1.32l24.85-14.35c.43-.24.77,0,.77.44V573a1.71,1.71,0,0,1-.76,1.32L428.6,588.65ZM459.13,571c-.42.24-.76,0-.76-.44v-3.29a1.69,1.69,0,0,1,.76-1.32l63.12-36.44c.42-.25.77,0,.77.44v3.28a1.66,1.66,0,0,1-.77,1.32L459.13,571Zm-98.95,45c-.43.24-.77.05-.77-.44v-3.28a1.71,1.71,0,0,1,.76-1.33l13.75-7.94c.43-.24.77,0,.77.44v3.29a1.71,1.71,0,0,1-.76,1.32l-13.75,7.94ZM380,604.58c-.42.25-.76,0-.77-.43v-3.29a1.69,1.69,0,0,1,.77-1.32l27.65-16c.42-.25.76-.05.77.43v3.29a1.65,1.65,0,0,1-.76,1.32l-27.65,16Zm34.48-19.9c-.42.24-.76.05-.76-.44V581a1.65,1.65,0,0,1,.76-1.32L457.21,555c.42-.25.76-.05.76.43v3.29a1.67,1.67,0,0,1-.76,1.32l-42.71,24.66Zm-66.42,28.7c-.43.25-.77,0-.77-.43v-3.29a1.69,1.69,0,0,1,.76-1.32l39.9-23c.42-.24.77,0,.77.44V589a1.7,1.7,0,0,1-.77,1.32l-39.89,23ZM393,587.44c-.42.24-.76,0-.77-.44v-3.28a1.65,1.65,0,0,1,.76-1.32l30.79-17.78c.42-.25.77,0,.77.43v3.29a1.69,1.69,0,0,1-.76,1.32L393,587.44Zm-33.5,9.7c-.43.24-.77.05-.77-.44v-3.29a1.71,1.71,0,0,1,.76-1.32l23.61-13.63c.43-.24.77-.05.77.44v3.29a1.71,1.71,0,0,1-.76,1.32l-23.61,13.63Zm29.32-16.93c-.42.24-.77,0-.77-.44v-3.28a1.67,1.67,0,0,1,.76-1.32l26.1-15.07c.43-.25.77-.05.77.43v3.29a1.69,1.69,0,0,1-.76,1.32l-26.1,15.07ZM422,561.06c-.42.25-.76.05-.76-.43v-3.29A1.65,1.65,0,0,1,422,556l27.23-15.73c.43-.24.77,0,.77.44V544a1.71,1.71,0,0,1-.76,1.32L422,561.06Zm-61.91,26.1c-.42.24-.76.05-.76-.44v-3.28a1.67,1.67,0,0,1,.76-1.32l63.12-36.45c.42-.24.76,0,.77.44v3.29a1.69,1.69,0,0,1-.77,1.32l-63.12,36.44Zm68.43-39.51c-.42.24-.76.05-.76-.44v-3.28a1.67,1.67,0,0,1,.76-1.32l26.1-15.07c.42-.25.77,0,.77.44v3.28a1.66,1.66,0,0,1-.77,1.32l-26.1,15.07Zm33.17-19.15c-.42.25-.77,0-.77-.43v-3.29a1.66,1.66,0,0,1,.77-1.32l27.23-15.72c.43-.25.77-.05.77.43v3.29a1.71,1.71,0,0,1-.76,1.32L461.69,528.5Zm-101.62,49c-.42.24-.77.05-.77-.44v-3.28a1.67,1.67,0,0,1,.76-1.32l40.42-23.34c.42-.24.76,0,.77.44v3.28a1.72,1.72,0,0,1-.77,1.33l-40.41,23.33ZM406,551c-.42.25-.77.05-.77-.43v-3.29a1.69,1.69,0,0,1,.76-1.32L443,524.58c.42-.24.76-.05.76.44v3.28a1.65,1.65,0,0,1-.76,1.32L406,551Zm-58,23.83c-.43.25-.77,0-.77-.43v-3.29a1.69,1.69,0,0,1,.76-1.32L384,549c.42-.25.77,0,.77.43v3.29a1.66,1.66,0,0,1-.77,1.32l-36,20.79ZM389.4,551c-.42.24-.76,0-.76-.44v-3.29a1.71,1.71,0,0,1,.76-1.32l63.12-36.44c.42-.24.77,0,.77.44v3.28a1.72,1.72,0,0,1-.77,1.33L389.4,551Zm68-39.25c-.43.24-.77.05-.77-.44V508a1.71,1.71,0,0,1,.76-1.32l41.75-24.1c.42-.24.76-.05.76.44v3.28a1.65,1.65,0,0,1-.76,1.32L457.39,511.7Zm-117,57.9c-.43.24-.77,0-.77-.44v-3.28a1.67,1.67,0,0,1,.76-1.32l45.27-26.14c.43-.24.77,0,.77.44v3.28a1.67,1.67,0,0,1-.76,1.32L340.39,569.6ZM360,544.94c-.42.25-.76,0-.76-.43v-3.29a1.67,1.67,0,0,1,.76-1.32L373.71,532c.43-.25.77-.05.77.44v3.28a1.67,1.67,0,0,1-.76,1.32L360,544.94Zm19.86-11.46c-.42.25-.77,0-.77-.44v-3.28a1.69,1.69,0,0,1,.77-1.33l27.65-16c.42-.24.76-.05.76.44v3.29a1.71,1.71,0,0,1-.76,1.32l-27.65,16Zm34.48-19.91c-.42.25-.77,0-.77-.43v-3.29a1.66,1.66,0,0,1,.77-1.32L457,483.87c.43-.24.77-.05.77.44v3.28a1.71,1.71,0,0,1-.76,1.33l-42.71,24.65Zm-66.43,28.71c-.42.24-.76,0-.76-.44v-3.29a1.71,1.71,0,0,1,.76-1.32l39.9-23c.42-.25.76-.05.77.44v3.28a1.65,1.65,0,0,1-.76,1.32l-39.9,23Zm44.94-25.95c-.42.25-.77,0-.77-.43v-3.29a1.67,1.67,0,0,1,.77-1.32l30.79-17.78c.42-.24.77-.05.77.44v3.28a1.67,1.67,0,0,1-.76,1.32l-30.8,17.78Zm-45,16.32c-.43.24-.77.05-.77-.44v-3.28a1.71,1.71,0,0,1,.76-1.33l24.86-14.34c.42-.25.76,0,.76.43V517a1.67,1.67,0,0,1-.76,1.32l-24.85,14.35ZM378.4,515c-.43.24-.77.05-.77-.44v-3.29a1.71,1.71,0,0,1,.76-1.32l63.12-36.44c.42-.24.77,0,.77.44v3.28a1.66,1.66,0,0,1-.77,1.32L378.4,515Zm68.18-39.37c-.42.24-.77.05-.77-.44v-3.28a1.66,1.66,0,0,1,.77-1.32L470.18,457c.42-.25.76-.05.76.43v3.29a1.71,1.71,0,0,1-.76,1.32l-23.61,13.63Zm-86.69,40.4c-.42.25-.76.05-.77-.43v-3.29a1.65,1.65,0,0,1,.76-1.32L423,474.57c.42-.25.76-.05.76.44v3.28a1.65,1.65,0,0,1-.76,1.32l-63.12,36.44Zm68.43-39.5c-.42.24-.76,0-.76-.44v-3.29a1.68,1.68,0,0,1,.76-1.32l26.1-15.07c.42-.24.77-.05.77.44v3.29a1.69,1.69,0,0,1-.77,1.32l-26.1,15.07Zm33.17-19.15c-.42.24-.77.05-.77-.44v-3.29a1.71,1.71,0,0,1,.76-1.32l63.12-36.44c.43-.24.77-.05.77.44v3.28a1.67,1.67,0,0,1-.76,1.32L461.49,457.4Zm-101.62,49c-.43.25-.77.05-.77-.43V502.7a1.67,1.67,0,0,1,.76-1.32l40.41-23.33c.43-.25.77-.05.77.43v3.29a1.66,1.66,0,0,1-.76,1.32l-40.41,23.33Zm45.89-26.49c-.42.24-.77.05-.77-.44v-3.28a1.71,1.71,0,0,1,.76-1.33l37.09-21.41c.42-.24.76,0,.76.44v3.29a1.71,1.71,0,0,1-.76,1.32l-37.08,21.41Zm43.85-25.32c-.42.24-.76.05-.76-.44v-3.29a1.71,1.71,0,0,1,.76-1.32l63.12-36.44c.42-.24.76-.05.76.44v3.28a1.68,1.68,0,0,1-.76,1.33l-63.12,36.44ZM519,414.55c-.42.24-.76.05-.77-.44v-3.28a1.65,1.65,0,0,1,.76-1.32l41.74-24.1c.43-.25.77-.05.77.43v3.29a1.71,1.71,0,0,1-.76,1.32L519,414.55ZM347.78,503.76c-.43.24-.77.05-.77-.44V500a1.71,1.71,0,0,1,.76-1.32l36-20.79c.42-.24.76-.05.76.44v3.28a1.65,1.65,0,0,1-.76,1.33l-36,20.79Zm41.42-23.92c-.42.25-.76.05-.76-.44v-3.28a1.62,1.62,0,0,1,.76-1.32l63.12-36.44c.42-.25.76-.05.77.43v3.29a1.66,1.66,0,0,1-.76,1.32L389.2,479.84Zm68-39.25c-.43.25-.77.05-.77-.44v-3.28a1.67,1.67,0,0,1,.76-1.32l41.75-24.1c.42-.25.76-.05.76.43v3.29a1.69,1.69,0,0,1-.76,1.32l-41.74,24.1Zm-117,57.91c-.42.24-.76,0-.76-.44v-3.29a1.69,1.69,0,0,1,.76-1.32L403.29,457c.42-.24.76-.05.77.44v3.28a1.72,1.72,0,0,1-.77,1.33L340.18,498.5Zm239-157.22L330.56,484.79l.54,190.53-16.89,9.76-.54-190.53.54,190.53L579.69,531.8l-.54-190.52Z"/><path class="cls-51" d="M569.92,338a5.28,5.28,0,0,0-2.4,4.16c0,1.53,1.08,2.14,2.41,1.37a5.3,5.3,0,0,0,2.41-4.15c0-1.53-1.09-2.15-2.42-1.38Z"/><path class="cls-52" d="M562.44,342.34a5.3,5.3,0,0,0-2.4,4.17c0,1.52,1.08,2.14,2.41,1.37a5.29,5.29,0,0,0,2.41-4.16c0-1.53-1.09-2.14-2.42-1.38Z"/><path class="cls-53" d="M555,346.66a5.31,5.31,0,0,0-2.4,4.16c0,1.53,1.09,2.15,2.42,1.38a5.31,5.31,0,0,0,2.4-4.16c0-1.53-1.09-2.15-2.42-1.38Z"/><path class="cls-54" d="M319.45,568.68c-1.3.75-2.37.14-2.37-1.35V563a5.18,5.18,0,0,1,2.36-4.08l5.76-3.33c1.3-.75,2.37-.14,2.38,1.35v4.37a5.23,5.23,0,0,1-2.36,4.08l-5.77,3.33Zm0-13.43c-1.3.76-2.36.15-2.37-1.35v-4.36a5.21,5.21,0,0,1,2.36-4.09l5.76-3.33c1.3-.75,2.37-.14,2.38,1.36v4.36a5.22,5.22,0,0,1-2.36,4.08l-5.77,3.33Zm0-13.42c-1.31.75-2.37.14-2.38-1.35v-4.37a5.23,5.23,0,0,1,2.36-4.08l5.76-3.33c1.31-.75,2.37-.15,2.38,1.35v4.36a5.21,5.21,0,0,1-2.36,4.09l-5.76,3.33Zm0-13.43c-1.3.75-2.37.14-2.38-1.35v-4.37a5.23,5.23,0,0,1,2.36-4.08l5.77-3.33c1.3-.75,2.37-.14,2.37,1.35V521a5.18,5.18,0,0,1-2.36,4.08l-5.76,3.33Zm0-13.43c-1.3.76-2.37.15-2.37-1.35l0-4.36a5.25,5.25,0,0,1,2.36-4.09l5.77-3.33c1.3-.75,2.37-.14,2.37,1.36l0,4.36a5.25,5.25,0,0,1-2.36,4.09L319.3,515Zm11.26-30.18-16.89,9.76.54,190.53,16.89-9.76-.54-190.53Z"/><path class="cls-55" d="M325,501.84l-5.77,3.33a5.25,5.25,0,0,0-2.36,4.09l0,4.36c0,1.5,1.07,2.11,2.37,1.35l5.77-3.32a5.25,5.25,0,0,0,2.36-4.09l0-4.36c0-1.5-1.07-2.11-2.37-1.36Z"/><path class="cls-55" d="M325.08,515.27l-5.77,3.33a5.23,5.23,0,0,0-2.36,4.08v4.37c0,1.49,1.08,2.1,2.38,1.35l5.76-3.33a5.18,5.18,0,0,0,2.36-4.08v-4.37c0-1.49-1.07-2.1-2.37-1.35Z"/><path class="cls-55" d="M325.11,528.7,319.35,532a5.23,5.23,0,0,0-2.36,4.08v4.37c0,1.49,1.07,2.1,2.38,1.35l5.76-3.33a5.21,5.21,0,0,0,2.36-4.09v-4.36c0-1.5-1.07-2.1-2.38-1.35Z"/><path class="cls-55" d="M325.15,542.12l-5.76,3.33a5.21,5.21,0,0,0-2.36,4.09v4.36c0,1.5,1.07,2.11,2.37,1.35l5.77-3.33a5.22,5.22,0,0,0,2.36-4.08v-4.36c0-1.5-1.08-2.11-2.38-1.36Z"/><path class="cls-55" d="M325.19,555.55l-5.76,3.33a5.18,5.18,0,0,0-2.36,4.08v4.37c0,1.49,1.07,2.1,2.37,1.35l5.77-3.33a5.23,5.23,0,0,0,2.36-4.08V556.9c0-1.49-1.08-2.1-2.38-1.35Z"/><path class="cls-56" d="M403.29,457l-63.12,36.44a1.69,1.69,0,0,0-.76,1.32v3.29c0,.48.34.68.76.44l63.12-36.44a1.72,1.72,0,0,0,.77-1.33v-3.28c0-.49-.35-.68-.77-.44Z"/><path class="cls-57" d="M383.78,477.92l-36,20.79A1.71,1.71,0,0,0,347,500v3.29c0,.49.34.68.77.44l36-20.79a1.65,1.65,0,0,0,.76-1.33v-3.28c0-.49-.34-.68-.76-.44Z"/><path class="cls-24" d="M400.26,478.05l-40.41,23.33a1.67,1.67,0,0,0-.76,1.32V506c0,.48.34.68.77.43l40.41-23.33a1.66,1.66,0,0,0,.76-1.32v-3.29c0-.48-.34-.68-.77-.43Z"/><path class="cls-58" d="M423,474.57,359.88,511a1.65,1.65,0,0,0-.76,1.32v3.29c0,.48.35.68.77.43L423,479.61a1.65,1.65,0,0,0,.76-1.32V475c0-.49-.34-.69-.76-.44Z"/><path class="cls-57" d="M372.7,513.26,347.84,527.6a1.71,1.71,0,0,0-.76,1.33v3.28c0,.49.34.68.77.44l24.85-14.35a1.67,1.67,0,0,0,.76-1.32v-3.29c0-.48-.34-.68-.76-.43Z"/><path class="cls-24" d="M387.77,514.2l-39.9,23a1.71,1.71,0,0,0-.76,1.32v3.29c0,.48.34.68.76.44l39.9-23a1.65,1.65,0,0,0,.76-1.32v-3.28c0-.49-.35-.69-.77-.44Z"/><path class="cls-24" d="M373.71,532,360,539.9a1.67,1.67,0,0,0-.76,1.32v3.29c0,.48.34.68.76.43L373.73,537a1.67,1.67,0,0,0,.76-1.32V532.4c0-.49-.34-.69-.77-.44Z"/><path class="cls-59" d="M452.31,438.36,389.19,474.8a1.62,1.62,0,0,0-.76,1.32v3.28c0,.49.34.69.76.44l63.12-36.44a1.66,1.66,0,0,0,.76-1.32v-3.29c0-.48-.35-.68-.77-.43Z"/><path class="cls-56" d="M442.83,453.47l-37.09,21.41a1.71,1.71,0,0,0-.76,1.33v3.28c0,.49.35.68.77.44l37.08-21.41a1.71,1.71,0,0,0,.76-1.32v-3.29c0-.48-.34-.68-.76-.44Z"/><path class="cls-57" d="M454.41,456.43l-26.1,15.07a1.68,1.68,0,0,0-.76,1.32v3.29c0,.48.34.68.76.44l26.1-15.07a1.69,1.69,0,0,0,.77-1.32v-3.29c0-.49-.35-.68-.77-.44Z"/><path class="cls-56" d="M441.5,473.53,378.38,510a1.71,1.71,0,0,0-.76,1.32v3.29c0,.49.34.68.77.44l63.11-36.45a1.66,1.66,0,0,0,.77-1.32V474c0-.49-.35-.68-.77-.44Z"/><path class="cls-59" d="M423.6,493.51l-30.79,17.78a1.67,1.67,0,0,0-.77,1.32v3.29c0,.48.35.68.77.43l30.8-17.78a1.67,1.67,0,0,0,.76-1.32V494c0-.49-.35-.68-.77-.44Z"/><path class="cls-24" d="M407.47,512.47l-27.65,16a1.69,1.69,0,0,0-.77,1.33V533c0,.49.35.69.77.44l27.65-16a1.71,1.71,0,0,0,.76-1.32v-3.29c0-.49-.34-.68-.76-.44Z"/><path class="cls-58" d="M498.92,411.45l-41.75,24.1a1.67,1.67,0,0,0-.76,1.32v3.28c0,.49.34.69.77.44l41.74-24.1a1.69,1.69,0,0,0,.76-1.32v-3.29c0-.48-.34-.68-.76-.43Z"/><path class="cls-58" d="M560.72,385.41,519,409.51a1.65,1.65,0,0,0-.76,1.32v3.28c0,.49.35.68.77.44l41.75-24.1a1.71,1.71,0,0,0,.76-1.32v-3.29c0-.48-.34-.68-.77-.43Z"/><path class="cls-57" d="M512.72,413.12,449.6,449.56a1.71,1.71,0,0,0-.76,1.32v3.29c0,.49.34.68.76.44l63.12-36.44a1.68,1.68,0,0,0,.76-1.33v-3.28c0-.49-.34-.68-.76-.44Z"/><path class="cls-56" d="M524.59,415.91l-63.12,36.44a1.71,1.71,0,0,0-.76,1.32V457c0,.49.35.68.77.44L524.61,421a1.67,1.67,0,0,0,.76-1.32v-3.28c0-.49-.34-.68-.77-.44Z"/><path class="cls-24" d="M470.18,457l-23.61,13.63a1.66,1.66,0,0,0-.77,1.32v3.28c0,.49.35.68.77.44L470.19,462a1.71,1.71,0,0,0,.76-1.32v-3.29c0-.48-.34-.68-.76-.43Z"/><path class="cls-59" d="M457,483.87l-42.7,24.66a1.66,1.66,0,0,0-.77,1.32v3.29c0,.48.35.68.77.43L457,488.92a1.71,1.71,0,0,0,.76-1.33v-3.28c0-.49-.34-.68-.77-.44Z"/><path class="cls-58" d="M385.64,538.42l-45.27,26.14a1.67,1.67,0,0,0-.76,1.32v3.28c0,.49.34.68.77.44l45.27-26.14a1.67,1.67,0,0,0,.76-1.32v-3.28c0-.49-.34-.68-.77-.44Z"/><path class="cls-24" d="M384,549l-36,20.79a1.69,1.69,0,0,0-.76,1.32v3.29c0,.48.34.68.77.43l36-20.79a1.66,1.66,0,0,0,.77-1.32v-3.29c0-.48-.35-.68-.77-.43Z"/><path class="cls-57" d="M400.47,549.15l-40.42,23.34a1.67,1.67,0,0,0-.76,1.32v3.28c0,.49.35.68.77.44l40.41-23.33a1.72,1.72,0,0,0,.77-1.33v-3.28c0-.49-.35-.68-.77-.44Z"/><path class="cls-24" d="M423.2,545.67l-63.12,36.45a1.67,1.67,0,0,0-.76,1.32v3.28c0,.49.34.68.76.44l63.12-36.44a1.69,1.69,0,0,0,.77-1.32v-3.29c0-.48-.35-.68-.77-.44Z"/><path class="cls-24" d="M453.43,569.25,428.58,583.6a1.71,1.71,0,0,0-.76,1.32v3.29c0,.48.34.68.77.44l24.85-14.35a1.71,1.71,0,0,0,.76-1.32v-3.29c0-.48-.34-.68-.77-.44Z"/><path class="cls-59" d="M388,585.3l-39.9,23a1.69,1.69,0,0,0-.76,1.32V613c0,.48.34.68.77.43l39.89-23a1.7,1.7,0,0,0,.77-1.32v-3.29c0-.48-.35-.68-.77-.44Z"/><path class="cls-24" d="M373.91,603.06,360.16,611a1.71,1.71,0,0,0-.76,1.33v3.28c0,.49.34.68.77.44l13.75-7.94a1.71,1.71,0,0,0,.76-1.32V603.5c0-.48-.34-.68-.77-.44Z"/><path class="cls-59" d="M452.51,509.46,389.39,545.9a1.71,1.71,0,0,0-.76,1.32v3.29c0,.48.34.68.76.44l63.12-36.44a1.72,1.72,0,0,0,.77-1.33V509.9c0-.49-.35-.68-.77-.44Z"/><path class="cls-56" d="M443,524.58,405.94,546a1.69,1.69,0,0,0-.76,1.32v3.29c0,.48.35.68.77.43L443,529.62a1.65,1.65,0,0,0,.76-1.32V525c0-.49-.34-.68-.76-.44Z"/><path class="cls-24" d="M454.61,527.54l-26.1,15.07a1.67,1.67,0,0,0-.76,1.32v3.28c0,.49.34.68.76.44l26.1-15.07a1.66,1.66,0,0,0,.77-1.32V528c0-.49-.35-.69-.77-.44Z"/><path class="cls-56" d="M522.24,529.53,459.12,566a1.69,1.69,0,0,0-.76,1.32v3.29c0,.48.34.68.76.44l63.12-36.45a1.66,1.66,0,0,0,.77-1.32V530c0-.49-.35-.69-.77-.44Z"/><path class="cls-58" d="M423.8,564.62,393,582.4a1.65,1.65,0,0,0-.76,1.32V587c0,.49.35.68.77.44l30.8-17.78a1.69,1.69,0,0,0,.76-1.32v-3.29c0-.48-.35-.68-.77-.43Z"/><path class="cls-56" d="M387,607.64l-39.9,23a1.71,1.71,0,0,0-.76,1.33v3.28c0,.49.34.68.77.44l39.89-23a1.71,1.71,0,0,0,.76-1.33v-3.28c0-.49-.34-.68-.76-.44Z"/><path class="cls-57" d="M422.78,587,392,604.73a1.67,1.67,0,0,0-.77,1.32v3.29c0,.48.35.68.77.43L422.79,592a1.69,1.69,0,0,0,.77-1.32v-3.29c0-.49-.35-.68-.77-.44Z"/><path class="cls-58" d="M407.67,583.58l-27.65,16a1.69,1.69,0,0,0-.77,1.32v3.29c0,.48.35.68.77.43l27.65-16a1.65,1.65,0,0,0,.76-1.32V584c0-.48-.35-.68-.77-.43Z"/><path class="cls-58" d="M499.12,482.55l-41.75,24.1a1.71,1.71,0,0,0-.76,1.32v3.29c0,.49.34.68.77.44l41.74-24.11a1.65,1.65,0,0,0,.76-1.32V483c0-.49-.34-.68-.76-.44Z"/><path class="cls-24" d="M488.91,507.74l-27.23,15.72a1.66,1.66,0,0,0-.77,1.32v3.29c0,.48.35.68.77.43l27.24-15.72a1.71,1.71,0,0,0,.76-1.32v-3.29c0-.48-.34-.68-.77-.43Z"/><path class="cls-56" d="M414.92,560.1l-26.1,15.07a1.67,1.67,0,0,0-.76,1.32v3.28c0,.49.35.68.77.44l26.1-15.07a1.69,1.69,0,0,0,.76-1.32v-3.29c0-.48-.34-.68-.77-.43Z"/><path class="cls-57" d="M449.22,540.29,422,556a1.65,1.65,0,0,0-.76,1.32v3.29c0,.48.34.68.76.43l27.24-15.72A1.71,1.71,0,0,0,450,544v-3.29c0-.48-.34-.68-.77-.44Z"/><path class="cls-59" d="M383.11,578.46,359.5,592.09a1.71,1.71,0,0,0-.76,1.32v3.29c0,.49.34.68.77.44l23.61-13.63a1.71,1.71,0,0,0,.76-1.32V578.9c0-.49-.34-.68-.77-.44Z"/><path class="cls-56" d="M457.21,555,414.5,579.63a1.65,1.65,0,0,0-.76,1.32v3.29c0,.49.34.68.76.44L457.22,560a1.67,1.67,0,0,0,.76-1.32v-3.29c0-.48-.34-.68-.76-.43Z"/><path class="cls-60" d="M484.55,820.41l57,32.89a6.63,6.63,0,0,0,6,0l147-84.88c1.64-.94,1.64-2.5,0-3.44l-57-32.9a6.69,6.69,0,0,0-6,0l-120.72,69.7L484.55,817C482.91,817.91,482.91,819.46,484.55,820.41Z"/><polygon class="cls-60" points="695.74 766.72 695.74 764.68 694.46 763.76 693.92 766.08 693.92 767.52 695.74 766.72"/><polygon class="cls-61" points="483.32 818.61 483.32 816.6 487.23 818.82 488.48 821.43 483.32 818.61"/><path class="cls-61" d="M484.55,820.41l57,32.89a6.06,6.06,0,0,0,3,.71V841.12l-33.63-39.33h0L484.55,817C482.91,817.91,482.91,819.46,484.55,820.41Z"/><path class="cls-62" d="M547.49,851.19l147-84.88c1.64-.95,1.64-2.5,0-3.45l-57-32.89a6.63,6.63,0,0,0-6,0l-147,84.88c-1.64.95-1.64,2.5,0,3.45l57,32.89A6.61,6.61,0,0,0,547.49,851.19Z"/><path class="cls-63" d="M635.07,751.72l7.45-4.3a.51.51,0,0,0,0-1l-6.91-4a1.82,1.82,0,0,0-1.67,0l-7.45,4.3a.51.51,0,0,0,0,1l6.9,4A1.84,1.84,0,0,0,635.07,751.72Z"/><path class="cls-63" d="M624.61,757.76l7.45-4.3a.51.51,0,0,0,0-1l-6.91-4a1.82,1.82,0,0,0-1.67,0l-7.45,4.3a.51.51,0,0,0,0,1l6.9,4A1.84,1.84,0,0,0,624.61,757.76Z"/><path class="cls-63" d="M614.15,763.8l7.45-4.3a.51.51,0,0,0,0-1l-6.91-4a1.89,1.89,0,0,0-1.67,0l-7.45,4.31a.51.51,0,0,0,0,1l6.9,4A1.84,1.84,0,0,0,614.15,763.8Z"/><path class="cls-63" d="M603.69,769.84l7.45-4.3a.51.51,0,0,0,0-1l-6.91-4a1.89,1.89,0,0,0-1.67,0l-7.45,4.31a.51.51,0,0,0,0,1l6.9,4A1.91,1.91,0,0,0,603.69,769.84Z"/><path class="cls-63" d="M593.23,775.88l7.45-4.3a.51.51,0,0,0,0-1l-6.91-4a1.89,1.89,0,0,0-1.67,0l-7.45,4.3a.51.51,0,0,0,0,1l6.9,4A1.91,1.91,0,0,0,593.23,775.88Z"/><path class="cls-63" d="M582.87,781.86l7.45-4.3a.51.51,0,0,0,0-1l-6.9-4a1.91,1.91,0,0,0-1.68,0l-7.45,4.3a.51.51,0,0,0,0,1l6.91,4A1.89,1.89,0,0,0,582.87,781.86Z"/><path class="cls-63" d="M572.46,787.87l7.45-4.31a.51.51,0,0,0,0-1l-6.9-4a1.84,1.84,0,0,0-1.68,0l-7.45,4.3a.51.51,0,0,0,0,1l6.91,4A1.89,1.89,0,0,0,572.46,787.87Z"/><path class="cls-63" d="M562,793.94l7.45-4.31a.51.51,0,0,0,0-1l-6.9-4a1.84,1.84,0,0,0-1.68,0l-7.45,4.3a.51.51,0,0,0,0,1l6.91,4A1.89,1.89,0,0,0,562,793.94Z"/><path class="cls-63" d="M551.54,799.94l7.45-4.3a.51.51,0,0,0,0-1l-6.9-4a1.84,1.84,0,0,0-1.68,0L543,795a.51.51,0,0,0,0,1l6.91,4A1.82,1.82,0,0,0,551.54,799.94Z"/><path class="cls-63" d="M541.08,806l7.45-4.3a.51.51,0,0,0,0-1l-6.9-4a1.84,1.84,0,0,0-1.68,0L532.5,801a.51.51,0,0,0,0,1l6.91,4A1.82,1.82,0,0,0,541.08,806Z"/><path class="cls-63" d="M530.62,812l7.45-4.3a.51.51,0,0,0,0-1l-6.9-4a1.84,1.84,0,0,0-1.68,0l-7.45,4.3a.51.51,0,0,0,0,1l6.91,4A1.82,1.82,0,0,0,530.62,812Z"/><path class="cls-63" d="M520.21,818l7.45-4.3a.51.51,0,0,0,0-1l-6.9-4a1.84,1.84,0,0,0-1.68,0l-7.45,4.3a.51.51,0,0,0,0,1l6.91,4A1.82,1.82,0,0,0,520.21,818Z"/><path class="cls-63" d="M645.53,745.68l7.45-4.3a.51.51,0,0,0,0-1l-6.91-4a1.82,1.82,0,0,0-1.67,0l-7.45,4.3a.51.51,0,0,0,0,1l6.9,4A1.84,1.84,0,0,0,645.53,745.68Z"/><path class="cls-63" d="M609.27,754.92l7.45-4.3a.51.51,0,0,0,0-1l-6.91-4a1.89,1.89,0,0,0-1.67,0l-7.45,4.3a.51.51,0,0,0,0,1l6.9,4A1.91,1.91,0,0,0,609.27,754.92Z"/><path class="cls-63" d="M598.81,761l7.45-4.31a.51.51,0,0,0,0-1l-6.91-4a1.89,1.89,0,0,0-1.67,0l-7.45,4.3a.51.51,0,0,0,0,1l6.9,4A1.91,1.91,0,0,0,598.81,761Z"/><path class="cls-63" d="M588.35,767l7.45-4.31a.51.51,0,0,0,0-1l-6.91-4a1.82,1.82,0,0,0-1.67,0l-7.45,4.3a.51.51,0,0,0,0,1l6.9,4A1.91,1.91,0,0,0,588.35,767Z"/><path class="cls-63" d="M577.89,773l7.45-4.3a.51.51,0,0,0,0-1l-6.91-4a1.82,1.82,0,0,0-1.67,0l-7.45,4.3a.51.51,0,0,0,0,1l6.9,4A1.84,1.84,0,0,0,577.89,773Z"/><path class="cls-63" d="M567.43,779.07l7.45-4.3a.51.51,0,0,0,0-1l-6.91-4a1.82,1.82,0,0,0-1.67,0l-7.45,4.3a.51.51,0,0,0,0,1l6.9,4A1.84,1.84,0,0,0,567.43,779.07Z"/><path class="cls-63" d="M557.07,785.05l7.45-4.3a.51.51,0,0,0,0-1l-6.9-4a1.84,1.84,0,0,0-1.68,0l-7.45,4.3a.51.51,0,0,0,0,1l6.91,4A1.82,1.82,0,0,0,557.07,785.05Z"/><path class="cls-63" d="M546.66,791.06l7.45-4.3a.51.51,0,0,0,0-1l-6.9-4a1.84,1.84,0,0,0-1.68,0l-7.45,4.3a.51.51,0,0,0,0,1l6.91,4A1.82,1.82,0,0,0,546.66,791.06Z"/><path class="cls-63" d="M536.15,797.13l7.45-4.3a.51.51,0,0,0,0-1l-6.91-4a1.82,1.82,0,0,0-1.67,0l-7.45,4.3a.51.51,0,0,0,0,1l6.91,4A1.82,1.82,0,0,0,536.15,797.13Z"/><path class="cls-63" d="M525.74,803.14l7.45-4.3a.51.51,0,0,0,0-1l-6.9-4a1.84,1.84,0,0,0-1.68,0l-7.45,4.3a.51.51,0,0,0,0,1l6.91,4A1.82,1.82,0,0,0,525.74,803.14Z"/><path class="cls-63" d="M515.28,809.18l7.45-4.3a.51.51,0,0,0,0-1l-6.9-4a1.91,1.91,0,0,0-1.68,0l-7.45,4.31a.51.51,0,0,0,0,1l6.91,4A1.82,1.82,0,0,0,515.28,809.18Z"/><path class="cls-63" d="M504.82,815.22l7.45-4.3a.51.51,0,0,0,0-1l-6.9-4a1.91,1.91,0,0,0-1.68,0l-7.45,4.31a.51.51,0,0,0,0,1l6.91,4A1.89,1.89,0,0,0,504.82,815.22Z"/><path class="cls-63" d="M494.41,821.23l7.45-4.3a.51.51,0,0,0,0-1l-6.9-4a1.91,1.91,0,0,0-1.68,0l-7.45,4.3a.51.51,0,0,0,0,1l6.91,4A1.89,1.89,0,0,0,494.41,821.23Z"/><path class="cls-63" d="M504.37,827.18l13-7.5a.41.41,0,0,0,0-.77l-7.26-4.19a1.46,1.46,0,0,0-1.32,0l-13,7.51a.4.4,0,0,0,0,.76l7.26,4.19A1.46,1.46,0,0,0,504.37,827.18Z"/><path class="cls-63" d="M619.73,748.88l7.45-4.3a.51.51,0,0,0,0-1l-6.91-4a1.89,1.89,0,0,0-1.67,0l-7.45,4.3a.51.51,0,0,0,0,1l6.9,4A1.91,1.91,0,0,0,619.73,748.88Z"/><path class="cls-63" d="M630.12,742.88l12.72-7.35a.51.51,0,0,0,0-1l-6.89-4a1.86,1.86,0,0,0-1.69,0l-12.72,7.34a.52.52,0,0,0,0,1l6.9,4A1.84,1.84,0,0,0,630.12,742.88Z"/><path class="cls-63" d="M629.45,766.62l7.45-4.3a.51.51,0,0,0,0-1l-6.9-4a1.91,1.91,0,0,0-1.68,0l-7.45,4.3a.51.51,0,0,0,0,1l6.91,4A1.89,1.89,0,0,0,629.45,766.62Z"/><path class="cls-63" d="M619,772.66l7.45-4.3a.51.51,0,0,0,0-1l-6.9-4a1.91,1.91,0,0,0-1.68,0l-7.45,4.3a.51.51,0,0,0,0,1l6.91,4A1.89,1.89,0,0,0,619,772.66Z"/><path class="cls-63" d="M608.53,778.7l7.45-4.3a.51.51,0,0,0,0-1l-6.9-4a1.91,1.91,0,0,0-1.68,0l-7.45,4.3a.51.51,0,0,0,0,1l6.91,4A1.89,1.89,0,0,0,608.53,778.7Z"/><path class="cls-63" d="M598.07,784.74l7.45-4.31a.51.51,0,0,0,0-1l-6.91-4a1.89,1.89,0,0,0-1.67,0l-7.45,4.3a.51.51,0,0,0,0,1l6.91,4A1.89,1.89,0,0,0,598.07,784.74Z"/><path class="cls-63" d="M587.61,790.78l7.45-4.31a.51.51,0,0,0,0-1l-6.91-4a1.82,1.82,0,0,0-1.67,0l-7.45,4.3a.51.51,0,0,0,0,1l6.91,4A1.89,1.89,0,0,0,587.61,790.78Z"/><path class="cls-63" d="M577.25,796.75l7.46-4.3a.51.51,0,0,0,0-1l-6.91-4a1.82,1.82,0,0,0-1.67,0l-7.46,4.3a.51.51,0,0,0,0,1l6.91,4A1.82,1.82,0,0,0,577.25,796.75Z"/><path class="cls-63" d="M566.85,802.76l7.45-4.3a.51.51,0,0,0,0-1l-6.91-4a1.82,1.82,0,0,0-1.67,0l-7.45,4.3a.51.51,0,0,0,0,1l6.9,4A1.84,1.84,0,0,0,566.85,802.76Z"/><path class="cls-63" d="M556.33,808.83l7.45-4.3a.51.51,0,0,0,0-1l-6.9-4a1.84,1.84,0,0,0-1.68,0l-7.45,4.3a.51.51,0,0,0,0,1l6.91,4A1.82,1.82,0,0,0,556.33,808.83Z"/><path class="cls-63" d="M545.93,814.84l7.45-4.3a.51.51,0,0,0,0-1l-6.91-4a1.82,1.82,0,0,0-1.67,0l-7.45,4.3a.51.51,0,0,0,0,1l6.9,4A1.84,1.84,0,0,0,545.93,814.84Z"/><path class="cls-63" d="M535.47,820.88l7.45-4.3a.51.51,0,0,0,0-1l-6.91-4a1.82,1.82,0,0,0-1.67,0l-7.45,4.3a.51.51,0,0,0,0,1l6.9,4A1.84,1.84,0,0,0,535.47,820.88Z"/><path class="cls-63" d="M525,826.92l7.45-4.3a.51.51,0,0,0,0-1l-6.91-4a1.82,1.82,0,0,0-1.67,0l-7.45,4.3a.51.51,0,0,0,0,1l6.9,4A1.84,1.84,0,0,0,525,826.92Z"/><path class="cls-63" d="M514.6,832.93l7.45-4.3a.51.51,0,0,0,0-1l-6.91-4a1.89,1.89,0,0,0-1.67,0L506,828a.51.51,0,0,0,0,1l6.9,4A1.91,1.91,0,0,0,514.6,832.93Z"/><path class="cls-63" d="M639.91,760.58l7.45-4.3a.51.51,0,0,0,0-1l-6.9-4a1.91,1.91,0,0,0-1.68,0l-7.45,4.31a.51.51,0,0,0,0,1l6.91,4A1.89,1.89,0,0,0,639.91,760.58Z"/><path class="cls-63" d="M637.05,774l7.45-4.3a.51.51,0,0,0,0-1l-6.91-4a1.89,1.89,0,0,0-1.67,0l-7.45,4.3a.51.51,0,0,0,0,1l6.9,4A1.91,1.91,0,0,0,637.05,774Z"/><path class="cls-63" d="M626.59,780l7.45-4.31a.51.51,0,0,0,0-1l-6.91-4a1.89,1.89,0,0,0-1.67,0l-7.45,4.3a.51.51,0,0,0,0,1l6.9,4A1.91,1.91,0,0,0,626.59,780Z"/><path class="cls-63" d="M616.13,786.06l7.45-4.31a.51.51,0,0,0,0-1l-6.91-4a1.82,1.82,0,0,0-1.67,0l-7.45,4.3a.51.51,0,0,0,0,1l6.9,4A1.91,1.91,0,0,0,616.13,786.06Z"/><path class="cls-63" d="M605.67,792.09l7.45-4.3a.51.51,0,0,0,0-1l-6.91-4a1.82,1.82,0,0,0-1.67,0l-7.45,4.3a.51.51,0,0,0,0,1l6.9,4A1.84,1.84,0,0,0,605.67,792.09Z"/><path class="cls-63" d="M595.21,798.13l7.45-4.3a.51.51,0,0,0,0-1l-6.91-4a1.82,1.82,0,0,0-1.67,0l-7.45,4.3a.51.51,0,0,0,0,1l6.9,4A1.84,1.84,0,0,0,595.21,798.13Z"/><path class="cls-63" d="M584.85,804.11l7.45-4.3a.51.51,0,0,0,0-1l-6.9-4a1.84,1.84,0,0,0-1.68,0l-7.45,4.3a.51.51,0,0,0,0,1l6.91,4A1.82,1.82,0,0,0,584.85,804.11Z"/><path class="cls-63" d="M574.44,810.12l7.45-4.3a.51.51,0,0,0,0-1l-6.9-4a1.84,1.84,0,0,0-1.68,0l-7.45,4.3a.51.51,0,0,0,0,1l6.91,4A1.82,1.82,0,0,0,574.44,810.12Z"/><path class="cls-63" d="M563.93,816.19l7.45-4.3a.51.51,0,0,0,0-1l-6.91-4a1.82,1.82,0,0,0-1.67,0l-7.45,4.3a.51.51,0,0,0,0,1l6.91,4A1.82,1.82,0,0,0,563.93,816.19Z"/><path class="cls-63" d="M553.52,822.2l7.45-4.3a.51.51,0,0,0,0-1l-6.9-4a1.91,1.91,0,0,0-1.68,0l-7.45,4.31a.51.51,0,0,0,0,1l6.91,4A1.82,1.82,0,0,0,553.52,822.2Z"/><path class="cls-63" d="M543.06,828.24l7.45-4.3a.51.51,0,0,0,0-1l-6.9-4a1.91,1.91,0,0,0-1.68,0l-7.45,4.31a.51.51,0,0,0,0,1l6.91,4A1.82,1.82,0,0,0,543.06,828.24Z"/><path class="cls-63" d="M647.51,767.94l7.45-4.3a.51.51,0,0,0,0-1l-6.91-4a1.89,1.89,0,0,0-1.67,0l-7.45,4.3a.51.51,0,0,0,0,1l6.9,4A1.91,1.91,0,0,0,647.51,767.94Z"/><path class="cls-63" d="M641.92,782.91l7.45-4.3a.51.51,0,0,0,0-1l-6.91-4a1.89,1.89,0,0,0-1.67,0L633.34,778a.51.51,0,0,0,0,1l6.9,4A1.91,1.91,0,0,0,641.92,782.91Z"/><path class="cls-63" d="M631.46,789l7.45-4.3a.51.51,0,0,0,0-1l-6.91-4a1.89,1.89,0,0,0-1.67,0l-7.45,4.3a.51.51,0,0,0,0,1l6.9,4A1.91,1.91,0,0,0,631.46,789Z"/><path class="cls-63" d="M621,795l7.45-4.3a.51.51,0,0,0,0-1l-6.91-4a1.89,1.89,0,0,0-1.67,0l-7.45,4.3a.51.51,0,0,0,0,1l6.9,4A1.91,1.91,0,0,0,621,795Z"/><path class="cls-63" d="M600.16,818.68l48.51-28a.72.72,0,0,0,0-1.36l-6.22-3.6a2.65,2.65,0,0,0-2.36,0l-48.51,28a.72.72,0,0,0,0,1.36l6.23,3.59A2.56,2.56,0,0,0,600.16,818.68Z"/><path class="cls-63" d="M610.54,801l7.45-4.3a.51.51,0,0,0,0-1l-6.91-4a1.89,1.89,0,0,0-1.67,0l-7.45,4.3a.51.51,0,0,0,0,1l6.9,4A1.91,1.91,0,0,0,610.54,801Z"/><path class="cls-63" d="M600.08,807.07l7.45-4.31a.51.51,0,0,0,0-1l-6.91-4a1.89,1.89,0,0,0-1.67,0l-7.45,4.3a.51.51,0,0,0,0,1l6.9,4A1.91,1.91,0,0,0,600.08,807.07Z"/><path class="cls-63" d="M589.72,813l7.45-4.3a.51.51,0,0,0,0-1l-6.9-4a1.84,1.84,0,0,0-1.68,0l-7.45,4.3a.51.51,0,0,0,0,1l6.91,4A1.82,1.82,0,0,0,589.72,813Z"/><path class="cls-63" d="M579.31,819.05l7.45-4.3a.51.51,0,0,0,0-1l-6.9-4a1.84,1.84,0,0,0-1.68,0l-7.45,4.3a.51.51,0,0,0,0,1l6.91,4A1.82,1.82,0,0,0,579.31,819.05Z"/><path class="cls-63" d="M568.8,825.12l7.45-4.3a.51.51,0,0,0,0-1l-6.9-4a1.84,1.84,0,0,0-1.68,0l-7.45,4.3a.51.51,0,0,0,0,1l6.91,4A1.82,1.82,0,0,0,568.8,825.12Z"/><path class="cls-63" d="M558.39,831.13l7.45-4.3a.51.51,0,0,0,0-1l-6.9-4a1.84,1.84,0,0,0-1.68,0l-7.45,4.3a.51.51,0,0,0,0,1l6.91,4A1.82,1.82,0,0,0,558.39,831.13Z"/><path class="cls-63" d="M652.38,776.87l7.45-4.3a.51.51,0,0,0,0-1l-6.91-4a1.89,1.89,0,0,0-1.67,0l-7.45,4.31a.51.51,0,0,0,0,1l6.9,4A1.84,1.84,0,0,0,652.38,776.87Z"/><path class="cls-63" d="M675.51,775.18l7.45-4.3a.51.51,0,0,0,0-1l-6.9-4a1.91,1.91,0,0,0-1.68,0l-7.45,4.31a.51.51,0,0,0,0,1l6.91,4A1.82,1.82,0,0,0,675.51,775.18Z"/><path class="cls-63" d="M665.05,781.22l7.45-4.3a.51.51,0,0,0,0-1l-6.9-4a1.91,1.91,0,0,0-1.68,0l-7.45,4.31a.51.51,0,0,0,0,1l6.91,4A1.89,1.89,0,0,0,665.05,781.22Z"/><path class="cls-63" d="M652.13,788.68l9.8-5.66a.58.58,0,0,0,0-1.09l-6.68-3.86a2.12,2.12,0,0,0-1.9,0l-9.8,5.65a.58.58,0,0,0,0,1.1l6.69,3.86A2.1,2.1,0,0,0,652.13,788.68Z"/><path class="cls-63" d="M650.48,754.48l12.6-7.28a.48.48,0,0,0,0-.9l-7-4a1.74,1.74,0,0,0-1.57,0l-12.6,7.28a.48.48,0,0,0,0,.9l7,4.05A1.74,1.74,0,0,0,650.48,754.48Z"/><path class="cls-63" d="M658,761.89l15.26-8.81c.44-.25.44-.66,0-.92l-7-4a1.78,1.78,0,0,0-1.59,0l-15.26,8.81a.49.49,0,0,0,0,.92l7,4A1.74,1.74,0,0,0,658,761.89Z"/><path class="cls-63" d="M663,770.72l20.4-11.78a.47.47,0,0,0,0-.89l-7-4.06a1.7,1.7,0,0,0-1.55,0l-20.39,11.77a.48.48,0,0,0,0,.9l7,4.06A1.76,1.76,0,0,0,663,770.72Z"/><path class="cls-63" d="M524.77,838.8,540,830a.49.49,0,0,0,0-.92l-7-4a1.72,1.72,0,0,0-1.59,0l-15.26,8.81c-.44.25-.44.66,0,.92l7,4A1.78,1.78,0,0,0,524.77,838.8Z"/><path class="cls-63" d="M534.92,844.68l20.39-11.77a.48.48,0,0,0,0-.9l-7-4a1.72,1.72,0,0,0-1.56,0l-20.39,11.77a.48.48,0,0,0,0,.9l7,4A1.7,1.7,0,0,0,534.92,844.68Z"/><path class="cls-63" d="M545,850.51l7.45-4.3a.51.51,0,0,0,0-1l-6.9-4a1.91,1.91,0,0,0-1.68,0l-7.45,4.3a.51.51,0,0,0,0,1l6.91,4A1.89,1.89,0,0,0,545,850.51Z"/><path class="cls-63" d="M576.37,832.42l7.45-4.3a.51.51,0,0,0,0-1l-6.9-4a1.91,1.91,0,0,0-1.68,0l-7.45,4.31a.51.51,0,0,0,0,1l6.91,4A1.89,1.89,0,0,0,576.37,832.42Z"/><path class="cls-63" d="M565.91,838.46l7.45-4.3a.51.51,0,0,0,0-1l-6.9-4a1.91,1.91,0,0,0-1.68,0l-7.45,4.3a.51.51,0,0,0,0,1l6.91,4A1.89,1.89,0,0,0,565.91,838.46Z"/><path class="cls-63" d="M550.86,842l7.82-4.51c.32-.19.32-.48,0-.67l-2.95-1.7a1.27,1.27,0,0,0-1.14,0l-7.83,4.52a.35.35,0,0,0,0,.66l3,1.7A1.29,1.29,0,0,0,550.86,842Z"/><path class="cls-63" d="M555.34,844.56l7.82-4.52a.35.35,0,0,0,0-.66l-2.94-1.7a1.29,1.29,0,0,0-1.15,0l-7.82,4.52a.35.35,0,0,0,0,.66l3,1.7A1.27,1.27,0,0,0,555.34,844.56Z"/><path class="cls-63" d="M587.08,826.23l9.66-5.57a.58.58,0,0,0,0-1.09l-6.7-3.86a2.08,2.08,0,0,0-1.88,0l-9.66,5.57a.58.58,0,0,0,0,1.09l6.7,3.86A2.08,2.08,0,0,0,587.08,826.23Z"/><path class="cls-63" d="M686,769.14l7.45-4.3a.51.51,0,0,0,0-1l-6.9-4a1.84,1.84,0,0,0-1.68,0l-7.45,4.3a.51.51,0,0,0,0,1l6.91,4A1.82,1.82,0,0,0,686,769.14Z"/><path class="cls-64" d="M659.73,671.32c1.75,3.67,18.45,10.77,21.6,11.8s8.7,6,11.64,8c11,7.26,19.19,3.48,25,1.24,6.93-2.65,8.94-5.93,9-9.4a16.49,16.49,0,0,0-1.15-5.61c-1.61-4.61-13.47-19.7-28-25s-27.24-4.69-34.56,3.22a17.09,17.09,0,0,0-3.79,6.18A13.82,13.82,0,0,0,659.73,671.32Z"/><path class="cls-65" d="M662.8,670.45c2,.37,8.06-1.76,15.67,1s13.41,14.7,17.36,18.51,11.38,4.52,22.48,0c4.49-1.83,7.24-4.44,8.69-7.06a16.49,16.49,0,0,0-1.15-5.61c-1.36-3.91-10.08-15.33-21.53-22l-1.1-.62a40.07,40.07,0,0,0-5.34-2.44c-11.28-4.16-21.49-4.69-28.92-1h0c-.31.15-.62.31-.92.48h0a19.28,19.28,0,0,0-4.72,3.73c-2,2.11-3.36,4.16-3.79,6.18C657.64,670.62,661.88,670.28,662.8,670.45Z"/><path class="cls-66" d="M679.65,669.62l.37.22c6-10.13,12.66-13.42,17.24-14.39a17.62,17.62,0,0,1,7.06-.1l-1.1-.62a18.32,18.32,0,0,0-6,.29,20.13,20.13,0,0,0-5.28,1.94l-.44.23C687.73,659.28,683.53,663,679.65,669.62Z"/><path class="cls-66" d="M668,651.78a40.41,40.41,0,0,1,23.44,5.41l.29.19L692,657l-.1-.06a34.74,34.74,0,0,0-8.22-3.75A42,42,0,0,0,669,651.3h0C668.65,651.45,668.34,651.61,668,651.78Z"/><path class="cls-66" d="M684.88,652.36s-3,1.55-3.38,2.24a25.26,25.26,0,0,0-8.45-1.57s1.69-2,3.33-2.18A19.68,19.68,0,0,1,684.88,652.36Z"/><rect class="cls-67" x="298.67" y="905.95" width="53.67" height="64.21"/><path class="cls-67" d="M344.54,981.15l-.4.23a33.91,33.91,0,0,1-9.79,3.47c-9.39,1.88-20.23.65-27.76-3.7-10.52-6.07-10.57-15.91-.12-22,7.52-4.37,18.43-5.6,27.88-3.67a33.67,33.67,0,0,1,9.79,3.51l.28.16C354.93,965.24,355,975.08,344.54,981.15Z"/><path class="cls-24" d="M344.42,895c-10.52-6.07-27.51-6.07-37.95,0s-10.39,15.91.12,22,27.51,6.07,38,0,10.39-15.91-.12-22Z"/><path class="cls-68" d="M347.78,910.41a15.08,15.08,0,0,1-5.57,5.19c-9.17,5.32-24.07,5.32-33.3,0a15.31,15.31,0,0,1-5.68-5.27c-2.81-4.76-1-10.23,5.57-14,9.17-5.33,24.08-5.33,33.3,0C348.71,900.12,350.6,905.64,347.78,910.41Z"/><path class="cls-69" d="M347.78,910.41a15.08,15.08,0,0,1-5.57,5.19c-9.17,5.32-24.07,5.32-33.3,0a15.31,15.31,0,0,1-5.68-5.27,15.12,15.12,0,0,1,5.57-5.17c9.17-5.33,24.08-5.33,33.3,0A15.28,15.28,0,0,1,347.78,910.41Z"/><path class="cls-70" d="M327.41,904.43c0,.4-.6.72-1.33.72s-1.34-.32-1.34-.72.6-.72,1.34-.72S327.41,904,327.41,904.43Z"/><path class="cls-70" d="M330.8,903.71c0,.39-.6.72-1.33.72s-1.34-.33-1.34-.72.6-.72,1.34-.72S330.8,903.31,330.8,903.71Z"/><path class="cls-70" d="M344.26,908.51c0,.6-.91,1.09-2,1.09s-2-.49-2-1.09.91-1.1,2-1.1S344.26,907.9,344.26,908.51Z"/><ellipse class="cls-70" cx="332.51" cy="903.99" rx="0.82" ry="0.44"/><ellipse class="cls-70" cx="341.41" cy="912.41" rx="0.82" ry="0.44"/><path class="cls-70" d="M339.87,910c0,.17-.24.3-.54.3s-.54-.13-.54-.3.24-.29.54-.29S339.87,909.88,339.87,910Z"/><ellipse class="cls-70" cx="341.13" cy="910.78" rx="0.54" ry="0.29"/><path class="cls-70" d="M328.61,905.8c0,.25-.37.45-.82.45s-.82-.2-.82-.45.37-.44.82-.44S328.61,905.56,328.61,905.8Z"/><path class="cls-70" d="M340.88,906.79c0,.24-.37.44-.82.44s-.81-.2-.81-.44.36-.45.81-.45S340.88,906.54,340.88,906.79Z"/><ellipse class="cls-70" cx="331.07" cy="908.06" rx="0.82" ry="0.44"/><path class="cls-70" d="M327.57,902.4c0,.4-.6.72-1.33.72s-1.34-.32-1.34-.72.6-.72,1.34-.72S327.57,902,327.57,902.4Z"/><path class="cls-70" d="M333.45,906c0,.65-1,1.19-2.2,1.19s-2.19-.54-2.19-1.19,1-1.18,2.19-1.18S333.45,905.3,333.45,906Z"/><ellipse class="cls-70" cx="337.14" cy="911.97" rx="2.19" ry="1.18"/><path class="cls-70" d="M336.93,905c0,.44-.67.8-1.49.8s-1.48-.36-1.48-.8.66-.8,1.48-.8S336.93,904.56,336.93,905Z"/><path class="cls-70" d="M339.25,908.06c0,1-1.43,1.72-3.19,1.72s-3.18-.77-3.18-1.72,1.43-1.72,3.18-1.72S339.25,907.11,339.25,908.06Z"/><g class="cls-4"><polygon class="cls-24" points="342.66 969 347.49 966.19 356.99 971.68 352.16 974.49 342.66 969"/><path class="cls-24" d="M359.65,971.94l-4.83,2.81a2.65,2.65,0,0,1-2.66-.26l4.83-2.81A2.65,2.65,0,0,0,359.65,971.94Z"/><path class="cls-24" d="M363.27,978.16,358.44,981c1.59-.92,2.57-2.89,2.58-5.67l4.84-2.81C365.85,975.28,364.86,977.24,363.27,978.16Z"/><polygon class="cls-24" points="361.12 941.11 365.95 938.3 365.86 972.49 361.02 975.3 361.12 941.11"/><polygon class="cls-24" points="342.79 920.39 347.63 917.59 357.17 923.1 352.34 925.91 342.79 920.39"/><path class="cls-24" d="M352.34,925.91l4.83-2.81c4.86,2.8,8.8,9.62,8.78,15.2l-4.83,2.81C361.14,935.53,357.2,928.71,352.34,925.91Z"/><path class="cls-68" d="M352.34,925.91c4.86,2.8,8.8,9.62,8.78,15.2L361,975.3c0,5.61-4,7.88-8.88,5.06l-9.5-5.49,0-5.87,9.5,5.49c2.06,1.19,3.75.23,3.75-2.14l.1-34.19a8.11,8.11,0,0,0-3.69-6.38l-9.54-5.51V920.4Z"/></g><path class="cls-2" d="M75.08,862.86,174,919.94l72.66-42,6.36-3.62L152.55,821.11a9.59,9.59,0,0,0-9.61,0L75.08,856.22Z"/><polygon class="cls-71" points="66.39 856.78 164.94 913.61 237.94 871.53 139.39 814.64 66.39 856.78"/><polygon class="cls-65" points="236.79 853.49 236.79 871.53 165.2 912.8 165.2 894.88 236.79 853.49"/><path class="cls-71" d="M66.39,838.54l98.55,56.9,73-42.15-95.64-55.22a5.83,5.83,0,0,0-5.8,0Z"/><polygon class="cls-72" points="66.39 838.54 164.94 895.44 164.94 914.76 66.39 857.87 66.39 838.54"/><polygon class="cls-73" points="164.94 895.44 164.94 896.83 237.94 854.62 237.94 853.29 164.94 895.44"/><polygon class="cls-73" points="164.94 913.61 164.94 914.76 237.94 872.62 237.94 871.53 164.94 913.61"/><polygon class="cls-73" points="164.94 895.9 166.32 895.09 166.32 912.8 164.94 913.61 164.94 895.9"/><path class="cls-74" d="M171.5,901.66,176,899s2.18,3.44,3.45,4A45.36,45.36,0,0,0,187,905l-4.61,3.44s-6-1.92-7.07-2.84C173.84,904.27,171.5,901.66,171.5,901.66Z"/><path class="cls-65" d="M146.4,818l-39,22.5c-1.93,1.12-1.94,2.94,0,4l11.78,6.85a7.71,7.71,0,0,0,7,0l39-22.5c1.93-1.12,1.94-2.94,0-4.05L153.4,818a7.71,7.71,0,0,0-7,0Z"/><polygon class="cls-75" points="66.39 833.99 164.94 890.82 237.94 848.74 139.39 791.84 66.39 833.99"/><polygon class="cls-65" points="236.79 830.7 236.79 848.73 165.2 890 165.2 872.09 236.79 830.7"/><path class="cls-75" d="M66.39,815.75l98.55,56.89,73-42.14-93.86-54.19a9.32,9.32,0,0,0-9.36,0Z"/><polygon class="cls-76" points="66.39 815.75 164.94 872.64 164.94 891.97 66.39 835.07 66.39 815.75"/><polygon class="cls-77" points="164.94 872.64 164.94 874.03 237.94 831.83 237.94 830.5 164.94 872.64"/><polygon class="cls-77" points="164.94 890.82 164.94 891.97 237.94 849.82 237.94 848.73 164.94 890.82"/><polygon class="cls-77" points="164.94 873.11 166.32 872.29 166.32 890 164.94 890.82 164.94 873.11"/><path class="cls-74" d="M171.5,878.86l4.53-2.63s2.18,3.45,3.45,4a44.39,44.39,0,0,0,7.51,1.93l-4.61,3.45s-6-1.93-7.07-2.84C173.84,881.48,171.5,878.86,171.5,878.86Z"/><path class="cls-65" d="M146.4,795.15l-39,22.51c-1.93,1.11-1.94,2.94,0,4.05l11.78,6.85a7.77,7.77,0,0,0,7,0l39-22.5c1.93-1.12,1.94-2.94,0-4.06l-11.78-6.85a7.77,7.77,0,0,0-7,0Z"/><g class="cls-4"><polygon class="cls-78" points="668.64 153.65 652.24 144.12 655.03 142.5 671.43 152.04 668.64 153.65"/><path class="cls-78" d="M671.43,152,655,142.51c8.38-4.84,14.34-12.28,14.31-23.46a84.8,84.8,0,0,0-.7-8.47,82.45,82.45,0,0,1-.7-8.35c0-3.21.85-8.25,7.49-12.2l16.41,9.53c-6.65,4-7.5,9-7.49,12.2a80.08,80.08,0,0,0,.7,8.36c.29,2.82.69,5.69.7,8.46C685.78,139.76,679.82,147.2,671.43,152Z"/><polygon class="cls-24" points="668.62 145.79 652.21 136.26 653.95 135.26 670.35 144.79 668.62 145.79"/><polygon class="cls-24" points="668.64 153.65 652.24 144.12 652.21 136.26 668.62 145.79 668.64 153.65"/><polygon class="cls-78" points="691.84 99.56 675.43 90.03 675.41 82.83 691.82 92.36 691.84 99.56"/><polygon class="cls-24" points="683.35 100.91 666.95 91.38 666.95 91.16 683.35 100.69 683.35 100.91"/><path class="cls-24" d="M685.9,93.57,669.5,84c1.1.64,2.92.47,5.91-1.21l16.41,9.53C688.83,94,687,94.21,685.9,93.57Z"/><path class="cls-78" d="M669.39,84l16.4,9.53.12.08L669.5,84A.41.41,0,0,1,669.39,84Z"/><path class="cls-24" d="M670.35,144.79,654,135.26c4.81-2.89,6.64-7,6.62-12.59A52.33,52.33,0,0,0,660,116a60,60,0,0,1-.6-7.75c-.12-7.69,2.76-12.79,7.58-16.9l16.4,9.53c-4.81,4.11-7.69,9.21-7.57,16.91a56.31,56.31,0,0,0,.6,7.74,52.29,52.29,0,0,1,.59,6.64C677,137.74,675.17,141.9,670.35,144.79Z"/><polygon class="cls-78" points="640.32 170 623.91 160.47 626.71 158.86 643.11 168.39 640.32 170"/><path class="cls-78" d="M663.37,91.58a8.55,8.55,0,0,0,3.58-.42l16.4,9.53a8.39,8.39,0,0,1-3.58.42Z"/><path class="cls-78" d="M663.37,91.58a1.59,1.59,0,0,1,.22.13l.72.42.5.29.51.3,2,1.13,12.49,7.26a3.72,3.72,0,0,1-1.45-.49l-16.41-9.53A4.2,4.2,0,0,0,663.37,91.58Z"/><polygon class="cls-78" points="643.11 168.39 626.71 158.86 626.68 151 643.09 160.53 643.11 168.39"/><polygon class="cls-24" points="641.35 161.53 624.95 152 626.68 151 643.09 160.53 641.35 161.53"/><path class="cls-24" d="M636.46,162.42l-16.41-9.53c1.09.63,2.69.38,4.9-.89l16.4,9.53C639.15,162.8,637.55,163.05,636.46,162.42Z"/><path class="cls-78" d="M620.06,152.89a1.49,1.49,0,0,1-.29-.2l16.4,9.54a2.9,2.9,0,0,0,.29.19Z"/><path class="cls-78" d="M612.82,162.68c2.57,1.5,6.46.46,11.09-2.21L640.32,170c-4.63,2.68-8.53,3.71-11.1,2.21Z"/><path class="cls-78" d="M618.18,147.14a52.21,52.21,0,0,1,.66-7.36l16.4,9.53a52.1,52.1,0,0,0-.65,7.37c0,2.77.49,4.68,1.58,5.55l-16.4-9.54C618.68,151.82,618.19,149.91,618.18,147.14Z"/><path class="cls-78" d="M669.18,60.71a15,15,0,0,0-1.06-6.11l16.41,9.54a15,15,0,0,1,1.05,6.1c0,2.88-.37,6.09-.65,9.36s-.66,6.36-.65,9.24c0,1.9.26,3.84,1.51,4.66L669.39,84c-1.25-.83-1.51-2.77-1.51-4.66,0-2.88.37-6.09.65-9.24S669.18,63.59,669.18,60.71Z"/><path class="cls-78" d="M595,222.68l-16.41-9.53c-1.62-1-2.63-3-2.64-5.78l16.4,9.53C592.35,219.74,593.36,221.74,595,222.68Z"/><path class="cls-78" d="M668.12,54.6a5.49,5.49,0,0,0-2.2-2.57l16.4,9.53a5.58,5.58,0,0,1,2.21,2.58l-8.2-4.77-2.15-1.24-2.1-1.23-2-1.18A8.33,8.33,0,0,1,668.12,54.6Z"/><path class="cls-78" d="M618.84,139.78c.18-2.54.56-5.42.55-8.41l16.41,9.54c0,3-.37,5.86-.56,8.4Z"/><path class="cls-78" d="M619.39,131.34l16.41,9.54v0h0l-16.41-9.54h0Z"/><path class="cls-79" d="M701.37.61l16.41,9.54c-1.65-1-3.92-.83-6.43.61L695,1.23C697.45-.21,699.73-.34,701.37.61Z"/><path class="cls-24" d="M678.32,100.62l-16.4-9.53c-1.72-1-2.66-3.45-2.62-7.94a72.68,72.68,0,0,1,.56-8.3,68.65,68.65,0,0,0,.55-7.31c0-3-.53-4.92-1.8-5.66L675,71.41c1.27.74,1.79,2.71,1.8,5.67a71.58,71.58,0,0,1-.56,7.3,77.74,77.74,0,0,0-.56,8.31C675.66,97.17,676.6,99.62,678.32,100.62Z"/><path class="cls-24" d="M629.23,172.22l-16.41-9.54c-2.08-1.21-3.29-4.08-3.3-9.09a82,82,0,0,1,.64-9.24l16.41,9.53a79.81,79.81,0,0,0-.65,9.24C625.93,168.13,627.14,171,629.23,172.22Z"/><path class="cls-78" d="M658,61.63a2.37,2.37,0,0,1,.61.25L675,71.41a2.16,2.16,0,0,0-.61-.24Z"/><path class="cls-78" d="M653.74,62.75c1.84-1,3.24-1.37,4.26-1.12l16.41,9.54c-1-.26-2.43.09-4.26,1.11Z"/><polygon class="cls-78" points="668.41 73.28 652.01 63.75 653.74 62.75 670.14 72.28 668.41 73.28"/><path class="cls-78" d="M619.39,131.34c0-4.47-.9-7-2.64-8l16.4,9.53c1.74,1,2.69,3.5,2.65,8Z"/><path class="cls-24" d="M665.9,52l16.41,9.53c-2.54-1.47-6.41-.58-11.13,2.15l-16.4-9.54C659.49,51.44,663.37,50.55,665.9,52Z"/><path class="cls-24" d="M609.06,130.58l16.41,9.53c1.4.82,1.65,2.89,1.65,4.69,0,2.88-.27,5.92-.55,9.08l-16.41-9.53c.28-3.16.56-6.2.56-9.08C610.71,133.47,610.46,131.39,609.06,130.58Z"/><path class="cls-24" d="M671.18,63.7c8.58-5,14.37-3.87,14.4,6.54,0,2.88-.37,6.09-.65,9.36s-.66,6.37-.65,9.24c0,3.55.89,7.25,7.54,3.52l0,7.2c-6.65,4-7.5,9-7.49,12.2a80.08,80.08,0,0,0,.7,8.36c.29,2.82.69,5.69.7,8.46,0,11.19-5.93,18.62-14.32,23.46l-2.79,1.61,0-7.86,1.73-1c4.82-2.89,6.64-7,6.62-12.59a52.29,52.29,0,0,0-.59-6.64,56.31,56.31,0,0,1-.6-7.74c-.12-7.7,2.76-12.8,7.57-16.91v-.22c-4.82,1.45-7.72-.2-7.65-8a77.74,77.74,0,0,1,.56-8.31,71.58,71.58,0,0,0,.56-7.3c0-5.43-1.76-7.53-6.67-4.8l-1.74,1,0-8Z"/><polygon class="cls-24" points="668.41 73.28 652.01 63.75 651.99 55.78 668.39 65.31 668.41 73.28"/><polygon class="cls-24" points="668.39 65.31 651.99 55.78 654.78 54.16 671.18 63.7 668.39 65.31"/><polygon class="cls-78" points="628.05 132.84 611.65 123.31 611.65 123.08 628.05 132.62 628.05 132.84"/><path class="cls-24" d="M616.74,123.36l16.41,9.54c-1.29-.75-3-.7-5.1-.06l-16.4-9.53C613.73,122.67,615.46,122.62,616.74,123.36Z"/><path class="cls-78" d="M603.18,131.74c3-1.66,4.78-1.8,5.88-1.16l16.4,9.53c-1.1-.64-2.91-.5-5.87,1.17Z"/><path class="cls-78" d="M628.05,132.62l-16.4-9.53c4.91-4.17,7.79-9.16,7.67-16.85,0-2.88-.4-5.32-.6-7.64l16.4,9.53c.2,2.33.6,4.76.61,7.64C635.84,123.46,633,128.45,628.05,132.62Z"/><polygon class="cls-24" points="619.59 141.28 603.18 131.74 603.16 124.55 619.57 134.08 619.59 141.28"/><polygon class="cls-78" points="641.15 89.02 624.74 79.49 626.48 78.49 642.88 88.02 641.15 89.02"/><path class="cls-24" d="M619.57,134.08l-16.41-9.53c6.74-4,7.5-8.66,7.49-12.2a82.91,82.91,0,0,0-.6-8.52l16.4,9.53a82.91,82.91,0,0,1,.61,8.52C627.07,125.43,626.31,130.08,619.57,134.08Z"/><path class="cls-78" d="M635.12,108.13l-16.4-9.53A38.7,38.7,0,0,1,618,92c0-5.43,1.72-9.64,6.72-12.53L641.15,89c-5,2.89-6.74,7.11-6.72,12.53A38.68,38.68,0,0,0,635.12,108.13Z"/><polygon class="cls-78" points="642.88 88.02 626.48 78.49 626.46 70.52 642.86 80.05 642.88 88.02"/><polygon class="cls-24" points="640.07 81.66 623.66 72.13 626.46 70.52 642.86 80.05 640.07 81.66"/><path class="cls-24" d="M626.45,113.36l-16.4-9.53a63.62,63.62,0,0,1-.7-8.58c0-10.41,5.74-18.17,14.31-23.12l16.41,9.53c-8.58,5-14.34,12.72-14.32,23.12A65.29,65.29,0,0,0,626.45,113.36Z"/><path class="cls-80" d="M711.35,10.76c5-2.87,9-.54,9.07,5.17l.36,126.82c0,5.71-4,12.73-9,15.6L601.41,222.07c-5,2.87-9,.54-9.07-5.17L592,90.08c0-5.71,4-12.73,9-15.6ZM642.88,88l0-8-2.79,1.61c-8.58,5-14.34,12.72-14.32,23.12a65.29,65.29,0,0,0,.7,8.58,82.91,82.91,0,0,1,.61,8.52c0,3.55-.75,8.2-7.49,12.2l0,7.2c6.74-3.78,7.52.31,7.53,3.52,0,2.88-.27,5.92-.55,9.08a79.81,79.81,0,0,0-.65,9.24c0,11.19,6,11.72,14.4,6.88l2.79-1.61,0-7.86-1.74,1c-4.81,2.78-6.75.68-6.76-4.85a52.1,52.1,0,0,1,.65-7.37c.19-2.54.57-5.42.56-8.41.07-7.8-2.83-9.57-7.75-8.06v-.22c4.91-4.17,7.79-9.16,7.68-16.85,0-2.88-.41-5.31-.61-7.64a38.68,38.68,0,0,1-.69-6.58c0-5.42,1.71-9.64,6.72-12.53l1.73-1Zm49,11.54,0-7.2c-6.65,3.73-7.53,0-7.54-3.52,0-2.88.37-6.09.65-9.24s.66-6.48.65-9.36c0-10.41-5.82-11.49-14.4-6.54l-2.79,1.61,0,8,1.74-1c4.91-2.73,6.65-.63,6.67,4.8a71.58,71.58,0,0,1-.56,7.3,77.74,77.74,0,0,0-.56,8.31c-.07,7.8,2.83,9.45,7.65,8v.22c-4.81,4.11-7.69,9.21-7.57,16.91a56.31,56.31,0,0,0,.6,7.74,52.29,52.29,0,0,1,.59,6.64c0,5.54-1.8,9.7-6.62,12.59l-1.73,1,0,7.86,2.79-1.61c8.39-4.84,14.35-12.28,14.32-23.46,0-2.77-.41-5.64-.7-8.46a80.08,80.08,0,0,1-.7-8.36c0-3.21.84-8.25,7.49-12.2Z"/><path class="cls-24" d="M642.86,80.05l0,8-1.73,1c-5,2.89-6.74,7.11-6.72,12.53a38.68,38.68,0,0,0,.69,6.58c.2,2.33.6,4.76.61,7.64.11,7.69-2.77,12.68-7.68,16.85v.22c4.92-1.51,7.82.26,7.75,8.06,0,3-.37,5.87-.56,8.41a52.1,52.1,0,0,0-.65,7.37c0,5.53,1.95,7.63,6.76,4.85l1.74-1,0,7.86L640.32,170c-8.38,4.84-14.37,4.31-14.4-6.88a79.81,79.81,0,0,1,.65-9.24c.28-3.16.56-6.2.55-9.08,0-3.21-.79-7.3-7.53-3.52l0-7.2c6.74-4,7.5-8.65,7.49-12.2a82.91,82.91,0,0,0-.61-8.52,65.29,65.29,0,0,1-.7-8.58c0-10.4,5.74-18.17,14.32-23.12Z"/><polygon class="cls-78" points="592.34 216.9 575.94 207.37 575.58 80.55 591.98 90.08 592.34 216.9"/><polygon class="cls-79" points="600.99 74.48 584.58 64.95 694.95 1.23 711.35 10.76 600.99 74.48"/><path class="cls-79" d="M592,90.08l-16.4-9.53c0-5.71,4-12.73,9-15.6L601,74.48C596,77.35,592,84.37,592,90.08Z"/></g><g class="cls-4"><polygon class="cls-81" points="101.61 390.27 85.21 380.73 130.8 329.13 147.21 338.66 101.61 390.27"/><polygon class="cls-24" points="101.58 380.41 85.18 370.88 121.92 330.15 138.33 339.68 101.58 380.41"/><polygon class="cls-81" points="101.47 341.22 85.07 331.69 121.92 329.93 138.33 339.46 101.47 341.22"/><polygon class="cls-24" points="138.33 339.68 121.92 330.15 121.92 329.93 138.33 339.46 138.33 339.68"/><polygon class="cls-24" points="101.44 331.38 85.04 321.84 130.78 320.71 147.18 330.25 101.44 331.38"/><polygon class="cls-81" points="147.21 338.66 130.8 329.13 130.78 320.71 147.18 330.25 147.21 338.66"/><polygon class="cls-24" points="101.61 390.27 85.21 380.73 85.18 370.88 101.58 380.41 101.61 390.27"/><polygon class="cls-81" points="64.05 416.39 47.65 406.86 55.93 402.07 72.34 411.61 64.05 416.39"/><path class="cls-81" d="M42.08,463.56,25.68,454c-1.63-.94-2.64-2.94-2.65-5.78l16.41,9.53C39.44,460.62,40.46,462.62,42.08,463.56Z"/><path class="cls-82" d="M148.47,241.5l16.4,9.53c-1.65-1-3.92-.83-6.42.62L142,242.11C144.54,240.67,146.82,240.54,148.47,241.5Z"/><polygon class="cls-24" points="101.47 341.22 85.07 331.69 85.04 321.84 101.44 331.38 101.47 341.22"/><polygon class="cls-24" points="101.44 331.38 147.18 330.25 147.21 338.66 101.61 390.27 101.58 380.41 138.33 339.68 138.33 339.46 101.47 341.22 101.44 331.38"/><polygon class="cls-81" points="72.34 411.61 55.93 402.07 79.21 308.24 95.61 317.77 72.34 411.61"/><polygon class="cls-24" points="95.61 317.77 72.34 411.61 64.05 416.39 87.33 322.56 95.61 317.77"/><polygon class="cls-24" points="87.33 322.56 70.93 313.02 79.21 308.24 95.61 317.77 87.33 322.56"/><polygon class="cls-24" points="64.05 416.39 47.65 406.86 70.93 313.02 87.33 322.56 64.05 416.39"/><polygon class="cls-81" points="39.44 457.78 23.03 448.25 22.67 321.43 39.08 330.96 39.44 457.78"/><polygon class="cls-82" points="48.08 315.37 31.68 305.83 142.04 242.11 158.45 251.65 48.08 315.37"/><path class="cls-83" d="M158.45,251.65c5-2.87,9.05-.55,9.06,5.16l.36,126.82c0,5.71-4,12.73-9,15.6L48.5,463c-5,2.87-9,.54-9.06-5.17L39.08,331c0-5.71,4-12.73,9-15.6Zm-11.24,87,0-8.41-45.74,1.12,0,9.85,36.86-1.76v.22l-36.75,40.73,0,9.86,45.6-51.61ZM72.34,411.61l23.28-93.84-8.29,4.79L64.05,416.39l8.29-4.78Z"/><path class="cls-82" d="M39.08,331l-16.41-9.53c0-5.71,4-12.73,9-15.6l16.4,9.53C43.11,318.23,39.06,325.25,39.08,331Z"/></g></g></g></svg>