<?xml version="1.0" encoding="utf-8"?>
<!-- Generator: Adobe Illustrator 23.0.1, SVG Export Plug-In . SVG Version: 6.00 Build 0)  -->
<svg version="1.1" xmlns="http://www.w3.org/2000/svg" xmlns:xlink="http://www.w3.org/1999/xlink" x="0px" y="0px"
	 viewBox="0 0 2500 2000" style="enable-background:new 0 0 2500 2000;" xml:space="preserve">
<style type="text/css">
	.st0{fill:#A9D0FF;}
	.st1{fill:#7A8DED;}
	.st2{fill:#928CFF;}
	.st3{fill:#654BBD;}
	.st4{fill:#9689F5;}
	.st5{fill:#E68D45;}
	.st6{fill:#FDB477;}
	.st7{fill:#FFFFFF;}
	.st8{fill:#0D0D0D;}
	.st9{clip-path:url(#SVGID_2_);}
	.st10{fill:#352D57;}
	.st11{fill:#574A8F;}
	.st12{fill:#F4F0FF;}
	.st13{fill:#ECE8FF;}
	.st14{fill:#BCB3FF;}
	.st15{fill:#4D4180;}
</style>
<g id="BG">
</g>
<g id="machine">
	<g>
		<g>
			<g>
				<g>
					<g>
						<path class="st0" d="M35.85,1424.7H1290.8v-58.73H35.85c-8.11,0-15.45,3.29-20.76,8.6c-5.31,5.31-8.6,12.65-8.6,20.76
							C6.49,1411.55,19.63,1424.7,35.85,1424.7z"/>
						<rect x="872.29" y="1423.72" class="st1" width="6.48" height="5.19"/>
						<rect x="859.33" y="1423.72" class="st1" width="6.48" height="5.19"/>
						<rect x="820.19" y="1361.75" class="st1" width="6.48" height="5.21"/>
						<rect x="885.02" y="1361.75" class="st1" width="6.48" height="5.21"/>
						<rect x="859.09" y="1361.75" class="st1" width="6.48" height="5.21"/>
						<rect x="833.39" y="1423.72" class="st1" width="6.48" height="5.19"/>
						<rect x="833.15" y="1361.75" class="st1" width="6.48" height="5.21"/>
						<rect x="820.42" y="1423.72" class="st1" width="6.48" height="5.19"/>
						<rect x="975.79" y="1361.75" class="st1" width="6.48" height="5.21"/>
						<rect x="846.11" y="1361.75" class="st1" width="6.5" height="5.21"/>
						<rect x="846.35" y="1423.72" class="st1" width="6.48" height="5.19"/>
						<rect x="872.06" y="1361.75" class="st1" width="6.48" height="5.21"/>
						<rect x="949.85" y="1361.75" class="st1" width="6.5" height="5.21"/>
						<rect x="937.13" y="1423.72" class="st1" width="6.48" height="5.19"/>
						<rect x="950.09" y="1423.72" class="st1" width="6.48" height="5.19"/>
						<rect x="936.89" y="1361.75" class="st1" width="6.48" height="5.21"/>
						<rect x="963.05" y="1423.72" class="st1" width="6.5" height="5.19"/>
						<rect x="962.83" y="1361.75" class="st1" width="6.48" height="5.21"/>
						<rect x="924.16" y="1423.72" class="st1" width="6.48" height="5.19"/>
						<rect x="898.22" y="1423.72" class="st1" width="6.48" height="5.19"/>
						<rect x="910.96" y="1361.75" class="st1" width="6.48" height="5.21"/>
						<rect x="923.93" y="1361.75" class="st1" width="6.48" height="5.21"/>
						<rect x="911.2" y="1423.72" class="st1" width="6.48" height="5.19"/>
						<rect x="897.98" y="1361.75" class="st1" width="6.5" height="5.21"/>
						<rect x="885.26" y="1423.72" class="st1" width="6.48" height="5.19"/>
						<rect x="703.49" y="1361.75" class="st1" width="6.48" height="5.21"/>
						<rect x="651.62" y="1361.75" class="st1" width="6.48" height="5.21"/>
						<rect x="703.72" y="1423.72" class="st1" width="6.48" height="5.19"/>
						<rect x="690.75" y="1423.72" class="st1" width="6.48" height="5.19"/>
						<rect x="716.45" y="1361.75" class="st1" width="6.48" height="5.21"/>
						<rect x="716.69" y="1423.72" class="st1" width="6.48" height="5.19"/>
						<rect x="729.41" y="1361.75" class="st1" width="6.48" height="5.21"/>
						<rect x="664.58" y="1361.75" class="st1" width="6.48" height="5.21"/>
						<rect x="677.78" y="1423.72" class="st1" width="6.48" height="5.19"/>
						<rect x="651.85" y="1423.72" class="st1" width="6.48" height="5.19"/>
						<rect x="677.54" y="1361.75" class="st1" width="6.48" height="5.21"/>
						<rect x="664.82" y="1423.72" class="st1" width="6.48" height="5.19"/>
						<rect x="729.65" y="1423.72" class="st1" width="6.48" height="5.19"/>
						<rect x="781.52" y="1423.72" class="st1" width="6.48" height="5.19"/>
						<rect x="781.28" y="1361.75" class="st1" width="6.48" height="5.21"/>
						<rect x="794.25" y="1361.75" class="st1" width="6.5" height="5.21"/>
						<rect x="794.48" y="1423.72" class="st1" width="6.48" height="5.19"/>
						<rect x="768.56" y="1423.72" class="st1" width="6.48" height="5.19"/>
						<rect x="807.22" y="1361.75" class="st1" width="6.48" height="5.21"/>
						<rect x="807.46" y="1423.72" class="st1" width="6.48" height="5.19"/>
						<rect x="742.61" y="1423.72" class="st1" width="6.48" height="5.19"/>
						<rect x="768.32" y="1361.75" class="st1" width="6.48" height="5.21"/>
						<rect x="742.39" y="1361.75" class="st1" width="6.48" height="5.21"/>
						<rect x="755.36" y="1361.75" class="st1" width="6.48" height="5.21"/>
						<rect x="755.59" y="1423.72" class="st1" width="6.48" height="5.19"/>
						<rect x="690.52" y="1361.75" class="st1" width="6.48" height="5.21"/>
						<rect x="1196.23" y="1361.75" class="st1" width="6.48" height="5.21"/>
						<rect x="1196.47" y="1423.72" class="st1" width="6.48" height="5.19"/>
						<rect x="1183.27" y="1361.75" class="st1" width="6.48" height="5.21"/>
						<rect x="1222.16" y="1361.75" class="st1" width="6.5" height="5.21"/>
						<rect x="1209.2" y="1361.75" class="st1" width="6.48" height="5.21"/>
						<rect x="1209.43" y="1423.72" class="st1" width="6.48" height="5.19"/>
						<rect x="1183.51" y="1423.72" class="st1" width="6.48" height="5.19"/>
						<rect x="1144.6" y="1423.72" class="st1" width="6.48" height="5.19"/>
						<rect x="1170.53" y="1423.72" class="st1" width="6.5" height="5.19"/>
						<rect x="1157.33" y="1361.75" class="st1" width="6.48" height="5.21"/>
						<rect x="1170.29" y="1361.75" class="st1" width="6.5" height="5.21"/>
						<rect x="1157.56" y="1423.72" class="st1" width="6.48" height="5.19"/>
						<path class="st1" d="M8.87,1404.21c-0.62-1.88-1.04-3.83-1.24-5.8l-0.98,0.1l-2.57,0.28l-1.63,0.18
							c0.25,2.34,0.75,4.63,1.49,6.87l1.54-0.5l2.47-0.81L8.87,1404.21z"/>
						<rect x="1274.26" y="1423.72" class="st1" width="6.48" height="5.19"/>
						<rect x="1261.3" y="1423.72" class="st1" width="6.48" height="5.19"/>
						<rect x="1287.01" y="1361.75" class="st1" width="3.8" height="5.21"/>
						<rect x="1274.03" y="1361.75" class="st1" width="6.5" height="5.21"/>
						<rect x="1144.36" y="1361.75" class="st1" width="6.48" height="5.21"/>
						<rect x="1287.24" y="1423.72" class="st1" width="3.56" height="5.19"/>
						<rect x="1235.14" y="1361.75" class="st1" width="6.48" height="5.21"/>
						<rect x="1261.06" y="1361.75" class="st1" width="6.48" height="5.21"/>
						<rect x="1222.4" y="1423.72" class="st1" width="6.5" height="5.19"/>
						<rect x="1235.37" y="1423.72" class="st1" width="6.48" height="5.19"/>
						<rect x="976.03" y="1423.72" class="st1" width="6.48" height="5.19"/>
						<rect x="1248.1" y="1361.75" class="st1" width="6.48" height="5.21"/>
						<rect x="1248.34" y="1423.72" class="st1" width="6.48" height="5.19"/>
						<rect x="1040.63" y="1361.75" class="st1" width="6.48" height="5.21"/>
						<rect x="1014.92" y="1423.72" class="st1" width="6.5" height="5.19"/>
						<rect x="1027.66" y="1361.75" class="st1" width="6.48" height="5.21"/>
						<rect x="1131.64" y="1423.72" class="st1" width="6.48" height="5.19"/>
						<rect x="1053.59" y="1361.75" class="st1" width="6.48" height="5.21"/>
						<rect x="1040.86" y="1423.72" class="st1" width="6.48" height="5.19"/>
						<rect x="988.99" y="1423.72" class="st1" width="6.48" height="5.19"/>
						<rect x="1053.83" y="1423.72" class="st1" width="6.48" height="5.19"/>
						<rect x="988.76" y="1361.75" class="st1" width="6.48" height="5.21"/>
						<rect x="1014.7" y="1361.75" class="st1" width="6.48" height="5.21"/>
						<rect x="1001.96" y="1423.72" class="st1" width="6.48" height="5.19"/>
						<rect x="1001.72" y="1361.75" class="st1" width="6.48" height="5.21"/>
						<rect x="1027.9" y="1423.72" class="st1" width="6.48" height="5.19"/>
						<rect x="1118.44" y="1361.75" class="st1" width="6.48" height="5.21"/>
						<rect x="1105.7" y="1423.72" class="st1" width="6.48" height="5.19"/>
						<rect x="1118.66" y="1423.72" class="st1" width="6.5" height="5.19"/>
						<rect x="1105.46" y="1361.75" class="st1" width="6.48" height="5.21"/>
						<rect x="1131.4" y="1361.75" class="st1" width="6.48" height="5.21"/>
						<rect x="1079.53" y="1361.75" class="st1" width="6.48" height="5.21"/>
						<rect x="1066.79" y="1423.72" class="st1" width="6.5" height="5.19"/>
						<rect x="1066.57" y="1361.75" class="st1" width="6.48" height="5.21"/>
						<rect x="1092.73" y="1423.72" class="st1" width="6.48" height="5.19"/>
						<rect x="1092.49" y="1361.75" class="st1" width="6.48" height="5.21"/>
						<rect x="1079.77" y="1423.72" class="st1" width="6.48" height="5.19"/>
						<rect x="159.09" y="1423.72" class="st2" width="6.5" height="5.19"/>
						<rect x="210.74" y="1361.75" class="st1" width="6.48" height="5.21"/>
						<rect x="210.96" y="1423.72" class="st1" width="6.5" height="5.19"/>
						<rect x="198" y="1423.72" class="st1" width="6.48" height="5.19"/>
						<rect x="197.76" y="1361.75" class="st1" width="6.48" height="5.21"/>
						<rect x="223.94" y="1423.72" class="st1" width="6.48" height="5.19"/>
						<rect x="223.7" y="1361.75" class="st1" width="6.48" height="5.21"/>
						<rect x="146.13" y="1423.72" class="st1" width="6.48" height="5.19"/>
						<rect x="236.67" y="1361.75" class="st1" width="6.48" height="5.21"/>
						<rect x="171.84" y="1361.75" class="st1" width="6.48" height="5.21"/>
						<rect x="158.87" y="1361.75" class="st1" width="6.48" height="5.21"/>
						<rect x="184.8" y="1361.75" class="st1" width="6.48" height="5.21"/>
						<rect x="172.07" y="1423.72" class="st1" width="6.48" height="5.19"/>
						<rect x="185.04" y="1423.72" class="st1" width="6.48" height="5.19"/>
						<rect x="288.77" y="1423.72" class="st1" width="6.48" height="5.19"/>
						<rect x="288.54" y="1361.75" class="st1" width="6.48" height="5.21"/>
						<rect x="275.81" y="1423.72" class="st1" width="6.48" height="5.19"/>
						<rect x="301.5" y="1361.75" class="st1" width="6.48" height="5.21"/>
						<rect x="314.46" y="1361.75" class="st1" width="6.5" height="5.21"/>
						<rect x="301.74" y="1423.72" class="st1" width="6.48" height="5.19"/>
						<rect x="262.83" y="1423.72" class="st1" width="6.48" height="5.19"/>
						<rect x="249.87" y="1423.72" class="st1" width="6.48" height="5.19"/>
						<rect x="638.88" y="1423.72" class="st1" width="6.48" height="5.19"/>
						<rect x="249.63" y="1361.75" class="st1" width="6.48" height="5.21"/>
						<rect x="262.59" y="1361.75" class="st1" width="6.5" height="5.21"/>
						<rect x="236.9" y="1423.72" class="st1" width="6.48" height="5.19"/>
						<rect x="68.33" y="1423.72" class="st1" width="6.48" height="5.19"/>
						<path class="st1" d="M29.59,1366.65l0.21,0.95c1.92-0.41,3.91-0.64,5.89-0.64v-0.99l-0.01-2.59l-0.01-1.63
							c-2.34,0.01-4.69,0.28-6.97,0.77l0.36,1.6L29.59,1366.65z"/>
						<rect x="42.39" y="1423.72" class="st1" width="6.48" height="5.19"/>
						<path class="st1" d="M29.8,1424.08l-0.52,2.53l-0.34,1.6c2.26,0.47,4.59,0.71,6.91,0.71h0.06v-5.19h-0.06
							c-1.97,0-3.94-0.21-5.85-0.61L29.8,1424.08z"/>
						<rect x="42.16" y="1361.75" class="st1" width="6.48" height="5.21"/>
						<rect x="55.13" y="1361.75" class="st1" width="6.48" height="5.21"/>
						<rect x="145.89" y="1361.75" class="st1" width="6.48" height="5.21"/>
						<rect x="55.37" y="1423.72" class="st1" width="6.48" height="5.19"/>
						<path class="st1" d="M10.35,1380.77l0.86,0.49c0.98-1.7,2.15-3.33,3.46-4.81l-0.73-0.65l-1.94-1.73l-1.21-1.08
							c-1.55,1.76-2.94,3.67-4.1,5.7l1.42,0.81L10.35,1380.77z"/>
						<path class="st1" d="M4.05,1392.13l2.59,0.25l0.96,0.1c0.21-1.98,0.61-3.92,1.21-5.8l-0.93-0.3l-2.47-0.8l-1.55-0.5
							c-0.71,2.23-1.2,4.54-1.42,6.88L4.05,1392.13z"/>
						<path class="st1" d="M18.48,1371.66l0.59,0.8c1.58-1.18,3.31-2.19,5.11-3l-0.4-0.89l-1.07-2.35l-0.68-1.49
							c-2.13,0.96-4.16,2.16-6.05,3.55l0.96,1.3L18.48,1371.66z"/>
						<path class="st1" d="M10.47,1410.1l-2.23,1.3l-1.42,0.83c1.18,2.01,2.57,3.91,4.14,5.65l1.21-1.1l1.91-1.73l0.74-0.67
							c-1.33-1.48-2.52-3.08-3.51-4.78L10.47,1410.1z"/>
						<path class="st1" d="M18.66,1419.14l-1.51,2.1l-0.96,1.32c1.89,1.38,3.95,2.55,6.08,3.49l0.67-1.49l1.04-2.37l0.4-0.89
							c-1.79-0.8-3.52-1.79-5.14-2.96L18.66,1419.14z"/>
						<rect x="68.1" y="1361.75" class="st1" width="6.48" height="5.21"/>
						<rect x="107.24" y="1423.72" class="st1" width="6.48" height="5.19"/>
						<rect x="120.2" y="1423.72" class="st1" width="6.48" height="5.19"/>
						<rect x="119.97" y="1361.75" class="st1" width="6.48" height="5.21"/>
						<rect x="133.17" y="1423.72" class="st1" width="6.48" height="5.19"/>
						<rect x="132.93" y="1361.75" class="st1" width="6.48" height="5.21"/>
						<rect x="94.02" y="1361.75" class="st1" width="6.48" height="5.21"/>
						<rect x="81.06" y="1361.75" class="st1" width="6.48" height="5.21"/>
						<rect x="81.3" y="1423.72" class="st1" width="6.48" height="5.19"/>
						<rect x="94.26" y="1423.72" class="st1" width="6.48" height="5.19"/>
						<rect x="314.7" y="1423.72" class="st1" width="6.48" height="5.19"/>
						<rect x="107" y="1361.75" class="st1" width="6.48" height="5.21"/>
						<rect x="275.57" y="1361.75" class="st1" width="6.48" height="5.21"/>
						<rect x="535.14" y="1423.72" class="st1" width="6.5" height="5.19"/>
						<rect x="327.44" y="1361.75" class="st1" width="6.48" height="5.21"/>
						<rect x="547.88" y="1361.75" class="st1" width="6.48" height="5.21"/>
						<rect x="534.92" y="1361.75" class="st1" width="6.48" height="5.21"/>
						<rect x="548.12" y="1423.72" class="st1" width="6.48" height="5.19"/>
						<rect x="483.27" y="1423.72" class="st1" width="6.5" height="5.19"/>
						<rect x="496.01" y="1361.75" class="st1" width="6.48" height="5.21"/>
						<rect x="496.25" y="1423.72" class="st1" width="6.48" height="5.19"/>
						<rect x="561.08" y="1423.72" class="st1" width="6.48" height="5.19"/>
						<rect x="509.21" y="1423.72" class="st1" width="6.48" height="5.19"/>
						<rect x="521.94" y="1361.75" class="st1" width="6.5" height="5.21"/>
						<rect x="508.97" y="1361.75" class="st1" width="6.48" height="5.21"/>
						<rect x="560.84" y="1361.75" class="st1" width="6.48" height="5.21"/>
						<rect x="625.68" y="1361.75" class="st1" width="6.48" height="5.21"/>
						<rect x="573.81" y="1361.75" class="st1" width="6.48" height="5.21"/>
						<rect x="612.71" y="1361.75" class="st1" width="6.48" height="5.21"/>
						<rect x="638.65" y="1361.75" class="st1" width="6.48" height="5.21"/>
						<rect x="625.91" y="1423.72" class="st1" width="6.48" height="5.19"/>
						<rect x="612.95" y="1423.72" class="st1" width="6.48" height="5.19"/>
						<rect x="574.04" y="1423.72" class="st1" width="6.48" height="5.19"/>
						<rect x="586.79" y="1361.75" class="st1" width="6.48" height="5.21"/>
						<rect x="599.75" y="1361.75" class="st1" width="6.48" height="5.21"/>
						<rect x="599.99" y="1423.72" class="st1" width="6.48" height="5.19"/>
						<rect x="587.01" y="1423.72" class="st1" width="6.5" height="5.19"/>
						<rect x="522.18" y="1423.72" class="st1" width="6.48" height="5.19"/>
						<rect x="379.31" y="1361.75" class="st1" width="6.48" height="5.21"/>
						<rect x="483.05" y="1361.75" class="st1" width="6.48" height="5.21"/>
						<rect x="379.55" y="1423.72" class="st1" width="6.48" height="5.19"/>
						<rect x="392.27" y="1361.75" class="st1" width="6.48" height="5.21"/>
						<rect x="366.33" y="1361.75" class="st1" width="6.5" height="5.21"/>
						<rect x="392.51" y="1423.72" class="st1" width="6.48" height="5.19"/>
						<rect x="327.68" y="1423.72" class="st1" width="6.48" height="5.19"/>
						<rect x="340.41" y="1361.75" class="st1" width="6.48" height="5.21"/>
						<rect x="405.24" y="1361.75" class="st1" width="6.48" height="5.21"/>
						<rect x="353.37" y="1361.75" class="st1" width="6.48" height="5.21"/>
						<rect x="340.64" y="1423.72" class="st1" width="6.48" height="5.19"/>
						<rect x="353.61" y="1423.72" class="st1" width="6.48" height="5.19"/>
						<rect x="366.57" y="1423.72" class="st1" width="6.48" height="5.19"/>
						<rect x="457.34" y="1423.72" class="st1" width="6.48" height="5.19"/>
						<rect x="457.11" y="1361.75" class="st1" width="6.48" height="5.21"/>
						<rect x="470.31" y="1423.72" class="st1" width="6.48" height="5.19"/>
						<rect x="470.07" y="1361.75" class="st1" width="6.5" height="5.21"/>
						<rect x="444.38" y="1423.72" class="st1" width="6.48" height="5.19"/>
						<rect x="418.44" y="1423.72" class="st1" width="6.48" height="5.19"/>
						<rect x="405.47" y="1423.72" class="st1" width="6.48" height="5.19"/>
						<rect x="418.2" y="1361.75" class="st1" width="6.5" height="5.21"/>
						<rect x="431.18" y="1361.75" class="st1" width="6.48" height="5.21"/>
						<rect x="431.42" y="1423.72" class="st1" width="6.48" height="5.19"/>
						<rect x="444.14" y="1361.75" class="st1" width="6.48" height="5.21"/>
						<path class="st2" d="M4.08,1398.79c0.24,2.26,0.71,4.45,1.41,6.54c0.71,2.13,1.63,4.16,2.75,6.07
							c1.11,1.94,2.44,3.74,3.94,5.39c1.49,1.66,3.17,3.15,4.97,4.45c1.81,1.3,3.73,2.41,5.79,3.31c2.01,0.9,4.14,1.6,6.35,2.06
							c2.12,0.44,4.32,0.68,6.57,0.68H1290.8v-5.19H35.85c-14.75,0-26.77-12-26.77-26.76c0-14.75,12.02-26.77,26.77-26.77H1290.8
							v-5.19H35.67c-2.28,0.01-4.48,0.27-6.63,0.74c-2.2,0.47-4.32,1.18-6.33,2.1c-2.04,0.92-3.98,2.04-5.77,3.36
							c-1.79,1.33-3.43,2.83-4.93,4.48c-1.48,1.66-2.8,3.48-3.89,5.43c-1.12,1.92-2.03,3.95-2.71,6.1
							c-0.68,2.09-1.14,4.28-1.36,6.54c-0.1,1.05-0.16,2.13-0.16,3.21C3.89,1396.51,3.95,1397.67,4.08,1398.79z"/>
						<path class="st2" d="M1140.81,1405.91c5.51,6.36,15.14,7.04,21.5,1.54c6.36-5.52,7.04-15.15,1.52-21.52
							c-5.52-6.35-15.14-7.04-21.5-1.52C1135.97,1389.93,1135.29,1399.54,1140.81,1405.91z M1146.35,1389.04
							c3.8-3.3,9.56-2.89,12.86,0.92s2.9,9.56-0.9,12.86c-3.8,3.3-9.57,2.89-12.86-0.92
							C1142.14,1398.09,1142.54,1392.34,1146.35,1389.04z"/>
						<path class="st2" d="M981.74,1405.91c5.52,6.36,15.15,7.04,21.52,1.54c6.35-5.52,7.04-15.15,1.52-21.52
							c-5.52-6.35-15.14-7.04-21.5-1.52C976.92,1389.93,976.24,1399.54,981.74,1405.91z M987.29,1389.04
							c3.8-3.3,9.56-2.89,12.86,0.92s2.89,9.56-0.92,12.86c-3.8,3.3-9.56,2.89-12.86-0.92
							C983.07,1398.09,983.49,1392.34,987.29,1389.04z"/>
						<path class="st2" d="M822.69,1405.91c5.52,6.36,15.14,7.04,21.5,1.54c6.36-5.52,7.04-15.15,1.54-21.52
							c-5.52-6.35-15.15-7.04-21.52-1.52C817.86,1389.93,817.17,1399.54,822.69,1405.91z M828.24,1389.04
							c3.8-3.3,9.56-2.89,12.86,0.92c3.3,3.8,2.89,9.56-0.92,12.86c-3.8,3.3-9.56,2.89-12.86-0.92
							C824.02,1398.09,824.43,1392.34,828.24,1389.04z"/>
						<path class="st2" d="M663.63,1405.91c5.5,6.36,15.14,7.04,21.5,1.54c6.36-5.52,7.04-15.15,1.52-21.52
							c-5.51-6.35-15.14-7.04-21.5-1.52C658.8,1389.93,658.11,1399.54,663.63,1405.91z M669.17,1389.04
							c3.8-3.3,9.56-2.89,12.86,0.92c3.3,3.8,2.9,9.56-0.9,12.86c-3.8,3.3-9.56,2.89-12.86-0.92
							C664.97,1398.09,665.37,1392.34,669.17,1389.04z"/>
						<path class="st2" d="M504.57,1405.91c5.52,6.36,15.15,7.04,21.52,1.54c6.35-5.52,7.04-15.15,1.52-21.52
							c-5.52-6.35-15.14-7.04-21.5-1.52C499.74,1389.93,499.06,1399.54,504.57,1405.91z M510.11,1389.04
							c3.8-3.3,9.56-2.89,12.86,0.92c3.3,3.8,2.89,9.56-0.92,12.86c-3.8,3.3-9.56,2.89-12.86-0.92
							C505.9,1398.09,506.31,1392.34,510.11,1389.04z"/>
						<path class="st2" d="M342.02,1398.58v0.01c0.46,2.62,1.61,5.15,3.49,7.31c5.52,6.36,15.14,7.04,21.5,1.54
							c6.36-5.52,7.04-15.15,1.54-21.52c-5.24-6.02-14.18-6.96-20.51-2.32c-0.34,0.25-0.68,0.52-1.01,0.8
							C342.85,1388.05,341.12,1393.48,342.02,1398.58z M351.06,1389.04c3.8-3.3,9.56-2.89,12.86,0.92c3.3,3.8,2.89,9.56-0.92,12.86
							c-3.8,3.3-9.56,2.89-12.86-0.92C346.84,1398.09,347.26,1392.34,351.06,1389.04z"/>
						<path class="st2" d="M186.46,1405.91c5.5,6.36,15.14,7.04,21.5,1.54c6.36-5.52,7.04-15.15,1.52-21.52
							c-5.51-6.35-15.14-7.04-21.5-1.52C181.62,1389.93,180.94,1399.54,186.46,1405.91z M191.99,1389.04
							c3.8-3.3,9.56-2.89,12.86,0.92c3.3,3.8,2.9,9.56-0.9,12.86c-3.8,3.3-9.56,2.89-12.86-0.92
							C187.79,1398.09,188.19,1392.34,191.99,1389.04z"/>
						<path class="st2" d="M27.39,1405.91c5.52,6.36,15.15,7.04,21.52,1.54c6.35-5.52,7.04-15.15,1.52-21.52
							c-5.52-6.35-15.14-7.04-21.5-1.52C22.56,1389.93,21.88,1399.54,27.39,1405.91z M32.94,1389.04c3.8-3.3,9.56-2.89,12.86,0.92
							s2.89,9.56-0.92,12.86c-3.8,3.3-9.56,2.89-12.86-0.92C28.72,1398.09,29.13,1392.34,32.94,1389.04z"/>
					</g>
				</g>
			</g>
			<g>
				<g>
					<g>
						<path class="st0" d="M2466.59,1365.72H1211.63v58.73h1254.96c8.11,0,15.45-3.29,20.76-8.6c5.31-5.31,8.6-12.65,8.6-20.76
							C2495.95,1378.87,2482.8,1365.72,2466.59,1365.72z"/>
						<rect x="1623.66" y="1361.5" class="st1" width="6.48" height="5.19"/>
						<rect x="1636.63" y="1361.5" class="st1" width="6.48" height="5.19"/>
						<rect x="1675.77" y="1423.46" class="st1" width="6.48" height="5.21"/>
						<rect x="1610.94" y="1423.46" class="st1" width="6.48" height="5.21"/>
						<rect x="1636.86" y="1423.46" class="st1" width="6.48" height="5.21"/>
						<rect x="1662.57" y="1361.5" class="st1" width="6.48" height="5.19"/>
						<rect x="1662.8" y="1423.46" class="st1" width="6.48" height="5.21"/>
						<rect x="1675.53" y="1361.5" class="st1" width="6.48" height="5.19"/>
						<rect x="1520.16" y="1423.46" class="st1" width="6.48" height="5.21"/>
						<rect x="1649.83" y="1423.46" class="st1" width="6.5" height="5.21"/>
						<rect x="1649.6" y="1361.5" class="st1" width="6.48" height="5.19"/>
						<rect x="1623.9" y="1423.46" class="st1" width="6.48" height="5.21"/>
						<rect x="1546.09" y="1423.46" class="st1" width="6.5" height="5.21"/>
						<rect x="1558.83" y="1361.5" class="st1" width="6.48" height="5.19"/>
						<rect x="1545.87" y="1361.5" class="st1" width="6.48" height="5.19"/>
						<rect x="1559.07" y="1423.46" class="st1" width="6.48" height="5.21"/>
						<rect x="1532.89" y="1361.5" class="st1" width="6.5" height="5.19"/>
						<rect x="1533.12" y="1423.46" class="st1" width="6.48" height="5.21"/>
						<rect x="1571.79" y="1361.5" class="st1" width="6.48" height="5.19"/>
						<rect x="1597.74" y="1361.5" class="st1" width="6.48" height="5.19"/>
						<rect x="1584.99" y="1423.46" class="st1" width="6.48" height="5.21"/>
						<rect x="1572.03" y="1423.46" class="st1" width="6.48" height="5.21"/>
						<rect x="1584.76" y="1361.5" class="st1" width="6.48" height="5.19"/>
						<rect x="1597.96" y="1423.46" class="st1" width="6.5" height="5.21"/>
						<rect x="1610.7" y="1361.5" class="st1" width="6.48" height="5.19"/>
						<rect x="1792.47" y="1423.46" class="st1" width="6.48" height="5.21"/>
						<rect x="1844.34" y="1423.46" class="st1" width="6.48" height="5.21"/>
						<rect x="1792.23" y="1361.5" class="st1" width="6.48" height="5.19"/>
						<rect x="1805.21" y="1361.5" class="st1" width="6.48" height="5.19"/>
						<rect x="1779.51" y="1423.46" class="st1" width="6.48" height="5.21"/>
						<rect x="1779.27" y="1361.5" class="st1" width="6.48" height="5.19"/>
						<rect x="1766.54" y="1423.46" class="st1" width="6.48" height="5.21"/>
						<rect x="1831.37" y="1423.46" class="st1" width="6.48" height="5.21"/>
						<rect x="1818.17" y="1361.5" class="st1" width="6.48" height="5.19"/>
						<rect x="1844.1" y="1361.5" class="st1" width="6.48" height="5.19"/>
						<rect x="1818.41" y="1423.46" class="st1" width="6.48" height="5.21"/>
						<rect x="1831.14" y="1361.5" class="st1" width="6.48" height="5.19"/>
						<rect x="1766.3" y="1361.5" class="st1" width="6.48" height="5.19"/>
						<rect x="1714.44" y="1361.5" class="st1" width="6.48" height="5.19"/>
						<rect x="1714.67" y="1423.46" class="st1" width="6.48" height="5.21"/>
						<rect x="1701.69" y="1423.46" class="st1" width="6.5" height="5.21"/>
						<rect x="1701.47" y="1361.5" class="st1" width="6.48" height="5.19"/>
						<rect x="1727.4" y="1361.5" class="st1" width="6.48" height="5.19"/>
						<rect x="1688.73" y="1423.46" class="st1" width="6.48" height="5.21"/>
						<rect x="1688.49" y="1361.5" class="st1" width="6.48" height="5.19"/>
						<rect x="1753.34" y="1361.5" class="st1" width="6.48" height="5.19"/>
						<rect x="1727.64" y="1423.46" class="st1" width="6.48" height="5.21"/>
						<rect x="1753.56" y="1423.46" class="st1" width="6.48" height="5.21"/>
						<rect x="1740.6" y="1423.46" class="st1" width="6.48" height="5.21"/>
						<rect x="1740.36" y="1361.5" class="st1" width="6.48" height="5.19"/>
						<rect x="1805.43" y="1423.46" class="st1" width="6.48" height="5.21"/>
						<rect x="1299.72" y="1423.46" class="st1" width="6.48" height="5.21"/>
						<rect x="1299.49" y="1361.5" class="st1" width="6.48" height="5.19"/>
						<rect x="1312.69" y="1423.46" class="st1" width="6.48" height="5.21"/>
						<rect x="1273.78" y="1423.46" class="st1" width="6.5" height="5.21"/>
						<rect x="1286.76" y="1423.46" class="st1" width="6.48" height="5.21"/>
						<rect x="1286.52" y="1361.5" class="st1" width="6.48" height="5.19"/>
						<rect x="1312.45" y="1361.5" class="st1" width="6.48" height="5.19"/>
						<rect x="1351.35" y="1361.5" class="st1" width="6.48" height="5.19"/>
						<rect x="1325.41" y="1361.5" class="st1" width="6.5" height="5.19"/>
						<rect x="1338.63" y="1423.46" class="st1" width="6.48" height="5.21"/>
						<rect x="1325.65" y="1423.46" class="st1" width="6.5" height="5.21"/>
						<rect x="1338.39" y="1361.5" class="st1" width="6.48" height="5.19"/>
						<path class="st1" d="M2493.56,1386.22c0.62,1.88,1.04,3.83,1.24,5.8l0.98-0.1l2.57-0.28l1.63-0.18
							c-0.25-2.34-0.75-4.63-1.49-6.87l-1.54,0.5l-2.47,0.81L2493.56,1386.22z"/>
						<rect x="1221.69" y="1361.5" class="st1" width="6.48" height="5.19"/>
						<rect x="1234.65" y="1361.5" class="st1" width="6.48" height="5.19"/>
						<rect x="1211.63" y="1423.46" class="st1" width="3.8" height="5.21"/>
						<rect x="1221.91" y="1423.46" class="st1" width="6.5" height="5.21"/>
						<rect x="1351.59" y="1423.46" class="st1" width="6.48" height="5.21"/>
						<rect x="1211.63" y="1361.5" class="st1" width="3.56" height="5.19"/>
						<rect x="1260.82" y="1423.46" class="st1" width="6.48" height="5.21"/>
						<rect x="1234.89" y="1423.46" class="st1" width="6.48" height="5.21"/>
						<rect x="1273.54" y="1361.5" class="st1" width="6.5" height="5.19"/>
						<rect x="1260.58" y="1361.5" class="st1" width="6.48" height="5.19"/>
						<rect x="1519.92" y="1361.5" class="st1" width="6.48" height="5.19"/>
						<rect x="1247.85" y="1423.46" class="st1" width="6.48" height="5.21"/>
						<rect x="1247.62" y="1361.5" class="st1" width="6.48" height="5.19"/>
						<rect x="1455.33" y="1423.46" class="st1" width="6.48" height="5.21"/>
						<rect x="1481.02" y="1361.5" class="st1" width="6.5" height="5.19"/>
						<rect x="1468.29" y="1423.46" class="st1" width="6.48" height="5.21"/>
						<rect x="1364.32" y="1361.5" class="st1" width="6.48" height="5.19"/>
						<rect x="1442.37" y="1423.46" class="st1" width="6.48" height="5.21"/>
						<rect x="1455.09" y="1361.5" class="st1" width="6.48" height="5.19"/>
						<rect x="1506.96" y="1361.5" class="st1" width="6.48" height="5.19"/>
						<rect x="1442.13" y="1361.5" class="st1" width="6.48" height="5.19"/>
						<rect x="1507.2" y="1423.46" class="st1" width="6.48" height="5.21"/>
						<rect x="1481.26" y="1423.46" class="st1" width="6.48" height="5.21"/>
						<rect x="1494" y="1361.5" class="st1" width="6.48" height="5.19"/>
						<rect x="1494.23" y="1423.46" class="st1" width="6.48" height="5.21"/>
						<rect x="1468.06" y="1361.5" class="st1" width="6.48" height="5.19"/>
						<rect x="1377.52" y="1423.46" class="st1" width="6.48" height="5.21"/>
						<rect x="1390.26" y="1361.5" class="st1" width="6.48" height="5.19"/>
						<rect x="1377.28" y="1361.5" class="st1" width="6.5" height="5.19"/>
						<rect x="1390.5" y="1423.46" class="st1" width="6.48" height="5.21"/>
						<rect x="1364.56" y="1423.46" class="st1" width="6.48" height="5.21"/>
						<rect x="1416.42" y="1423.46" class="st1" width="6.48" height="5.21"/>
						<rect x="1429.15" y="1361.5" class="st1" width="6.5" height="5.19"/>
						<rect x="1429.39" y="1423.46" class="st1" width="6.48" height="5.21"/>
						<rect x="1403.22" y="1361.5" class="st1" width="6.48" height="5.19"/>
						<rect x="1403.46" y="1423.46" class="st1" width="6.48" height="5.21"/>
						<rect x="1416.19" y="1361.5" class="st1" width="6.48" height="5.19"/>
						<rect x="2336.85" y="1361.5" class="st2" width="6.5" height="5.19"/>
						<rect x="2285.21" y="1423.46" class="st1" width="6.48" height="5.21"/>
						<rect x="2284.98" y="1361.5" class="st1" width="6.5" height="5.19"/>
						<rect x="2297.96" y="1361.5" class="st1" width="6.48" height="5.19"/>
						<rect x="2298.19" y="1423.46" class="st1" width="6.48" height="5.21"/>
						<rect x="2272.01" y="1361.5" class="st1" width="6.48" height="5.19"/>
						<rect x="2272.25" y="1423.46" class="st1" width="6.48" height="5.21"/>
						<rect x="2349.82" y="1361.5" class="st1" width="6.48" height="5.19"/>
						<rect x="2259.29" y="1423.46" class="st1" width="6.48" height="5.21"/>
						<rect x="2324.12" y="1423.46" class="st1" width="6.48" height="5.21"/>
						<rect x="2337.08" y="1423.46" class="st1" width="6.48" height="5.21"/>
						<rect x="2311.16" y="1423.46" class="st1" width="6.48" height="5.21"/>
						<rect x="2323.88" y="1361.5" class="st1" width="6.48" height="5.19"/>
						<rect x="2310.92" y="1361.5" class="st1" width="6.48" height="5.19"/>
						<rect x="2207.18" y="1361.5" class="st1" width="6.48" height="5.19"/>
						<rect x="2207.42" y="1423.46" class="st1" width="6.48" height="5.21"/>
						<rect x="2220.15" y="1361.5" class="st1" width="6.48" height="5.19"/>
						<rect x="2194.46" y="1423.46" class="st1" width="6.48" height="5.21"/>
						<rect x="2181.48" y="1423.46" class="st1" width="6.5" height="5.21"/>
						<rect x="2194.22" y="1361.5" class="st1" width="6.48" height="5.19"/>
						<rect x="2233.12" y="1361.5" class="st1" width="6.48" height="5.19"/>
						<rect x="2246.09" y="1361.5" class="st1" width="6.48" height="5.19"/>
						<rect x="1857.08" y="1361.5" class="st1" width="6.48" height="5.19"/>
						<rect x="2246.32" y="1423.46" class="st1" width="6.48" height="5.21"/>
						<rect x="2233.35" y="1423.46" class="st1" width="6.5" height="5.21"/>
						<rect x="2259.05" y="1361.5" class="st1" width="6.48" height="5.19"/>
						<rect x="2427.62" y="1361.5" class="st1" width="6.48" height="5.19"/>
						<path class="st1" d="M2472.84,1423.77l-0.21-0.95c-1.92,0.41-3.91,0.64-5.89,0.64v0.99l0.01,2.59l0.01,1.63
							c2.34-0.01,4.69-0.28,6.97-0.77l-0.36-1.6L2472.84,1423.77z"/>
						<rect x="2453.56" y="1361.5" class="st1" width="6.48" height="5.19"/>
						<path class="st1" d="M2472.64,1366.34l0.52-2.53l0.34-1.6c-2.26-0.47-4.59-0.71-6.91-0.71h-0.06v5.19h0.06
							c1.97,0,3.94,0.21,5.85,0.61L2472.64,1366.34z"/>
						<rect x="2453.8" y="1423.46" class="st1" width="6.48" height="5.21"/>
						<rect x="2440.82" y="1423.46" class="st1" width="6.48" height="5.21"/>
						<rect x="2350.06" y="1423.46" class="st1" width="6.48" height="5.21"/>
						<rect x="2440.58" y="1361.5" class="st1" width="6.48" height="5.19"/>
						<path class="st1" d="M2492.08,1409.66l-0.86-0.49c-0.98,1.7-2.15,3.33-3.46,4.81l0.73,0.65l1.94,1.73l1.21,1.08
							c1.55-1.76,2.94-3.67,4.1-5.7l-1.42-0.81L2492.08,1409.66z"/>
						<path class="st1" d="M2498.39,1398.29l-2.59-0.25l-0.96-0.1c-0.21,1.98-0.61,3.92-1.21,5.8l0.93,0.3l2.47,0.8l1.55,0.5
							c0.71-2.23,1.2-4.54,1.42-6.88L2498.39,1398.29z"/>
						<path class="st1" d="M2483.96,1418.76l-0.59-0.8c-1.58,1.18-3.31,2.19-5.11,3l0.4,0.89l1.07,2.35l0.68,1.49
							c2.13-0.96,4.16-2.16,6.05-3.55l-0.96-1.3L2483.96,1418.76z"/>
						<path class="st1" d="M2491.96,1380.33l2.23-1.3l1.42-0.83c-1.18-2.01-2.57-3.91-4.14-5.65l-1.21,1.09l-1.91,1.73l-0.74,0.67
							c1.33,1.48,2.52,3.08,3.51,4.78L2491.96,1380.33z"/>
						<path class="st1" d="M2483.78,1371.28l1.51-2.1l0.96-1.32c-1.89-1.38-3.95-2.55-6.08-3.49l-0.67,1.49l-1.04,2.37l-0.4,0.89
							c1.79,0.8,3.52,1.79,5.14,2.96L2483.78,1371.28z"/>
						<rect x="2427.86" y="1423.46" class="st1" width="6.48" height="5.21"/>
						<rect x="2388.72" y="1361.5" class="st1" width="6.48" height="5.19"/>
						<rect x="2375.75" y="1361.5" class="st1" width="6.48" height="5.19"/>
						<rect x="2375.99" y="1423.46" class="st1" width="6.48" height="5.21"/>
						<rect x="2362.79" y="1361.5" class="st1" width="6.48" height="5.19"/>
						<rect x="2363.02" y="1423.46" class="st1" width="6.48" height="5.21"/>
						<rect x="2401.93" y="1423.46" class="st1" width="6.48" height="5.21"/>
						<rect x="2414.89" y="1423.46" class="st1" width="6.48" height="5.21"/>
						<rect x="2414.66" y="1361.5" class="st1" width="6.48" height="5.19"/>
						<rect x="2401.69" y="1361.5" class="st1" width="6.48" height="5.19"/>
						<rect x="2181.25" y="1361.5" class="st1" width="6.48" height="5.19"/>
						<rect x="2388.95" y="1423.46" class="st1" width="6.48" height="5.21"/>
						<rect x="2220.38" y="1423.46" class="st1" width="6.48" height="5.21"/>
						<rect x="1960.8" y="1361.5" class="st1" width="6.5" height="5.19"/>
						<rect x="2168.51" y="1423.46" class="st1" width="6.48" height="5.21"/>
						<rect x="1948.07" y="1423.46" class="st1" width="6.48" height="5.21"/>
						<rect x="1961.04" y="1423.46" class="st1" width="6.48" height="5.21"/>
						<rect x="1947.84" y="1361.5" class="st1" width="6.48" height="5.19"/>
						<rect x="2012.67" y="1361.5" class="st1" width="6.5" height="5.19"/>
						<rect x="1999.94" y="1423.46" class="st1" width="6.48" height="5.21"/>
						<rect x="1999.71" y="1361.5" class="st1" width="6.48" height="5.19"/>
						<rect x="1934.87" y="1361.5" class="st1" width="6.48" height="5.19"/>
						<rect x="1986.74" y="1361.5" class="st1" width="6.48" height="5.19"/>
						<rect x="1974" y="1423.46" class="st1" width="6.5" height="5.21"/>
						<rect x="1986.98" y="1423.46" class="st1" width="6.48" height="5.21"/>
						<rect x="1935.11" y="1423.46" class="st1" width="6.48" height="5.21"/>
						<rect x="1870.28" y="1423.46" class="st1" width="6.48" height="5.21"/>
						<rect x="1922.15" y="1423.46" class="st1" width="6.48" height="5.21"/>
						<rect x="1883.24" y="1423.46" class="st1" width="6.48" height="5.21"/>
						<rect x="1857.3" y="1423.46" class="st1" width="6.48" height="5.21"/>
						<rect x="1870.04" y="1361.5" class="st1" width="6.48" height="5.19"/>
						<rect x="1883.01" y="1361.5" class="st1" width="6.48" height="5.19"/>
						<rect x="1921.91" y="1361.5" class="st1" width="6.48" height="5.19"/>
						<rect x="1909.17" y="1423.46" class="st1" width="6.48" height="5.21"/>
						<rect x="1896.21" y="1423.46" class="st1" width="6.48" height="5.21"/>
						<rect x="1895.97" y="1361.5" class="st1" width="6.48" height="5.19"/>
						<rect x="1908.93" y="1361.5" class="st1" width="6.5" height="5.19"/>
						<rect x="1973.78" y="1361.5" class="st1" width="6.48" height="5.19"/>
						<rect x="2116.64" y="1423.46" class="st1" width="6.48" height="5.21"/>
						<rect x="2012.91" y="1423.46" class="st1" width="6.48" height="5.21"/>
						<rect x="2116.41" y="1361.5" class="st1" width="6.48" height="5.19"/>
						<rect x="2103.68" y="1423.46" class="st1" width="6.48" height="5.21"/>
						<rect x="2129.61" y="1423.46" class="st1" width="6.5" height="5.21"/>
						<rect x="2103.44" y="1361.5" class="st1" width="6.48" height="5.19"/>
						<rect x="2168.28" y="1361.5" class="st1" width="6.48" height="5.19"/>
						<rect x="2155.55" y="1423.46" class="st1" width="6.48" height="5.21"/>
						<rect x="2090.72" y="1423.46" class="st1" width="6.48" height="5.21"/>
						<rect x="2142.59" y="1423.46" class="st1" width="6.48" height="5.21"/>
						<rect x="2155.31" y="1361.5" class="st1" width="6.48" height="5.19"/>
						<rect x="2142.35" y="1361.5" class="st1" width="6.48" height="5.19"/>
						<rect x="2129.39" y="1361.5" class="st1" width="6.48" height="5.19"/>
						<rect x="2038.61" y="1361.5" class="st1" width="6.48" height="5.19"/>
						<rect x="2038.85" y="1423.46" class="st1" width="6.48" height="5.21"/>
						<rect x="2025.65" y="1361.5" class="st1" width="6.48" height="5.19"/>
						<rect x="2025.87" y="1423.46" class="st1" width="6.5" height="5.21"/>
						<rect x="2051.58" y="1361.5" class="st1" width="6.48" height="5.19"/>
						<rect x="2077.52" y="1361.5" class="st1" width="6.48" height="5.19"/>
						<rect x="2090.48" y="1361.5" class="st1" width="6.48" height="5.19"/>
						<rect x="2077.74" y="1423.46" class="st1" width="6.5" height="5.21"/>
						<rect x="2064.78" y="1423.46" class="st1" width="6.48" height="5.21"/>
						<rect x="2064.54" y="1361.5" class="st1" width="6.48" height="5.19"/>
						<rect x="2051.81" y="1423.46" class="st1" width="6.48" height="5.21"/>
						<path class="st2" d="M2498.36,1391.63c-0.24-2.26-0.71-4.45-1.41-6.54c-0.71-2.13-1.63-4.16-2.75-6.07
							c-1.11-1.94-2.44-3.74-3.94-5.39c-1.49-1.66-3.17-3.15-4.97-4.45c-1.81-1.3-3.73-2.41-5.79-3.31c-2.01-0.9-4.14-1.6-6.35-2.06
							c-2.12-0.44-4.32-0.68-6.57-0.68H1211.63v5.19h1254.95c14.75,0,26.77,12,26.77,26.76c0,14.75-12.02,26.77-26.77,26.77H1211.63
							v5.19h1255.13c2.28-0.01,4.48-0.27,6.63-0.74c2.2-0.47,4.32-1.18,6.33-2.1c2.04-0.92,3.98-2.04,5.77-3.36
							c1.79-1.33,3.43-2.83,4.93-4.48c1.48-1.66,2.8-3.48,3.89-5.43c1.12-1.92,2.03-3.95,2.71-6.1c0.68-2.09,1.14-4.28,1.36-6.54
							c0.1-1.05,0.16-2.13,0.16-3.21C2498.55,1393.91,2498.49,1392.76,2498.36,1391.63z"/>
						<path class="st2" d="M1361.63,1384.51c-5.51-6.36-15.14-7.04-21.5-1.54c-6.36,5.52-7.04,15.15-1.52,21.52
							c5.52,6.35,15.14,7.04,21.5,1.52C1366.46,1400.5,1367.14,1390.88,1361.63,1384.51z M1356.09,1401.38
							c-3.8,3.3-9.56,2.89-12.86-0.92c-3.3-3.8-2.9-9.56,0.9-12.86c3.8-3.3,9.57-2.89,12.86,0.92
							C1360.29,1392.33,1359.89,1398.08,1356.09,1401.38z"/>
						<path class="st2" d="M1520.69,1384.51c-5.52-6.36-15.15-7.04-21.52-1.54c-6.35,5.52-7.04,15.15-1.52,21.52
							c5.52,6.35,15.14,7.04,21.5,1.52C1525.52,1400.5,1526.2,1390.88,1520.69,1384.51z M1515.14,1401.38
							c-3.8,3.3-9.56,2.89-12.86-0.92c-3.3-3.8-2.89-9.56,0.92-12.86c3.8-3.3,9.56-2.89,12.86,0.92
							C1519.36,1392.33,1518.95,1398.08,1515.14,1401.38z"/>
						<path class="st2" d="M1679.75,1384.51c-5.52-6.36-15.14-7.04-21.5-1.54c-6.36,5.52-7.04,15.15-1.54,21.52
							c5.52,6.35,15.15,7.04,21.52,1.52C1684.57,1400.5,1685.27,1390.88,1679.75,1384.51z M1674.2,1401.38
							c-3.8,3.3-9.56,2.89-12.86-0.92c-3.3-3.8-2.89-9.56,0.92-12.86c3.8-3.3,9.56-2.89,12.86,0.92
							C1678.42,1392.33,1678,1398.08,1674.2,1401.38z"/>
						<path class="st2" d="M1838.8,1384.51c-5.51-6.36-15.14-7.04-21.5-1.54c-6.36,5.52-7.04,15.15-1.52,21.52
							c5.51,6.35,15.14,7.04,21.5,1.52C1843.64,1400.5,1844.32,1390.88,1838.8,1384.51z M1833.27,1401.38
							c-3.8,3.3-9.56,2.89-12.86-0.92c-3.3-3.8-2.9-9.56,0.9-12.86c3.8-3.3,9.56-2.89,12.86,0.92
							C1837.47,1392.33,1837.07,1398.08,1833.27,1401.38z"/>
						<path class="st2" d="M1997.87,1384.51c-5.52-6.36-15.15-7.04-21.52-1.54c-6.35,5.52-7.04,15.15-1.52,21.52
							c5.52,6.35,15.14,7.04,21.5,1.52C2002.7,1400.5,2003.38,1390.88,1997.87,1384.51z M1992.32,1401.38
							c-3.8,3.3-9.56,2.89-12.86-0.92c-3.3-3.8-2.89-9.56,0.92-12.86c3.8-3.3,9.56-2.89,12.86,0.92
							C1996.54,1392.33,1996.13,1398.08,1992.32,1401.38z"/>
						<path class="st2" d="M2160.42,1391.84v-0.01c-0.46-2.62-1.61-5.15-3.49-7.31c-5.52-6.36-15.14-7.04-21.5-1.54
							c-6.36,5.52-7.04,15.15-1.54,21.52c5.24,6.02,14.18,6.96,20.51,2.32c0.34-0.25,0.68-0.52,1.01-0.8
							C2159.59,1402.38,2161.32,1396.94,2160.42,1391.84z M2151.38,1401.38c-3.8,3.3-9.56,2.89-12.86-0.92
							c-3.3-3.8-2.89-9.56,0.92-12.86c3.8-3.3,9.56-2.89,12.86,0.92C2155.59,1392.33,2155.18,1398.08,2151.38,1401.38z"/>
						<path class="st2" d="M2315.98,1384.51c-5.5-6.36-15.14-7.04-21.5-1.54c-6.36,5.52-7.04,15.15-1.52,21.52
							c5.51,6.35,15.14,7.04,21.5,1.52C2320.82,1400.5,2321.5,1390.88,2315.98,1384.51z M2310.45,1401.38
							c-3.8,3.3-9.56,2.89-12.86-0.92c-3.3-3.8-2.9-9.56,0.9-12.86c3.8-3.3,9.56-2.89,12.86,0.92
							C2314.65,1392.33,2314.25,1398.08,2310.45,1401.38z"/>
						<path class="st2" d="M2475.05,1384.51c-5.52-6.36-15.15-7.04-21.52-1.54c-6.35,5.52-7.04,15.15-1.52,21.52
							c5.52,6.35,15.14,7.04,21.5,1.52C2479.87,1400.5,2480.55,1390.88,2475.05,1384.51z M2469.5,1401.38
							c-3.8,3.3-9.56,2.89-12.86-0.92c-3.3-3.8-2.89-9.56,0.92-12.86c3.8-3.3,9.56-2.89,12.86,0.92
							C2473.72,1392.33,2473.3,1398.08,2469.5,1401.38z"/>
					</g>
				</g>
			</g>
		</g>
		<g>
			<path class="st3" d="M1966.59,1081.32l-4.5-3.66c39.56-48.63,55.66-89.19,49.24-123.99c-8.74-47.38-58.57-76.1-102.52-101.45
				c-24.68-14.23-47.98-27.67-61.15-42.91c-9.88-11.44-13.97-23.83-12.17-36.82c4.09-29.48,36.96-51.43,38.36-52.35l3.19,4.84
				c-0.32,0.21-32.09,21.46-35.81,48.32c-1.56,11.26,2.08,22.1,10.82,32.21c12.52,14.5,35.42,27.7,59.66,41.68
				c45.05,25.97,96.1,55.41,105.33,105.42C2023.78,989.19,2007.28,1031.29,1966.59,1081.32z"/>
			<path class="st3" d="M2101.96,1240.18l-19.55-12.5c32.12-50.22,32.11-95.79-0.02-131.78c-53.41-59.82-161.85-12.53-162.94-12.05
				l-9.46-21.19c1.25-0.56,31.13-13.78,69-18.58c51.85-6.58,93.59,6,120.7,36.36C2138.93,1124.38,2139.74,1181.11,2101.96,1240.18z"
				/>
			<path class="st3" d="M1620.72,757.68c-0.73-1.5-17.81-37.28-21.67-81.86c-5.27-60.87,16.73-108.37,63.61-137.37
				c34.24-21.18,71.93-27.32,109-17.74c42.75,11.05,76.83,41.45,86.4,58.51l-20.24,11.35c-6.38-11.38-34.92-37.82-71.97-47.4
				c-31.23-8.07-61.85-3.02-90.99,15.01c-39.49,24.43-57.22,63.34-52.7,115.64c3.49,40.37,19.28,73.44,19.44,73.77L1620.72,757.68z"
				/>
			
				<rect x="1815.66" y="576.04" transform="matrix(0.866 -0.5 0.5 0.866 -44.8714 1002.3379)" class="st3" width="64.58" height="17.73"/>
			<g>
				<g>
					<rect x="2259.27" y="520.63" class="st3" width="38.18" height="176.9"/>
					<path class="st4" d="M2301.49,643.56l-44.75-0.03c-7.95,6.49-13.02,16.37-13.01,27.44l0.06,32.37l70.73-0.08l-0.06-32.37
						C2314.45,659.87,2309.4,650.03,2301.49,643.56z"/>
					<g>
						<rect x="2237.6" y="703.22" class="st3" width="83.59" height="10.14"/>
					</g>
				</g>
				<g>
					<g>
						<polygon class="st3" points="2220.28,887.7 2205.96,889.79 2165.32,784.69 2204.38,778.98 						"/>
						<polygon class="st3" points="2369.16,886.92 2383.63,886.37 2404.43,775.62 2364.98,777.12 						"/>
						<path class="st4" d="M2329.16,751.41l-94.21-0.06c-7.48,0-13.61-6.13-13.61-13.62v-10.07c0-7.48,6.12-13.6,13.61-13.6
							l94.21,0.06c7.48,0,13.61,6.13,13.61,13.62v10.07C2342.76,745.29,2336.64,751.41,2329.16,751.41z"/>
						<g>
							<path class="st4" d="M2249.62,720.13c-5.83-6.4-15.7-7-22.26-1.34l-55.03,47.47c-12.73,10.76-12.53,30.44,0.42,40.94l0,0
								c12.31,9.98,30.57,7.04,39.12-6.31l39.38-61.37C2255.17,733.43,2254.5,725.48,2249.62,720.13L2249.62,720.13z"/>
							<g>
								<g>
									<path class="st3" d="M2182.5,779.48c-4.4,5.54-2.08,13.67,4.58,16.05c4.04,1.44,8.67,0.12,11.34-3.24
										c4.4-5.54,2.08-13.67-4.58-16.05C2189.8,774.8,2185.16,776.12,2182.5,779.48z"/>
								</g>
							</g>
							<g>
								<g>
									<path class="st3" d="M2230.68,727.3c-3.38,4.26-1.6,10.5,3.52,12.33c3.1,1.11,6.66,0.09,8.71-2.49
										c3.38-4.26,1.6-10.5-3.52-12.33C2236.29,723.7,2232.73,724.72,2230.68,727.3z"/>
								</g>
							</g>
						</g>
						<g>
							<path class="st4" d="M2311.98,720.91c4.93-7.12,14.64-9.01,21.88-4.27l60.81,39.79c14.04,8.99,16.43,28.52,4.99,40.64l0,0
								c-10.89,11.52-29.37,11.01-39.61-1.09l-47.14-55.64C2308.24,734.83,2307.86,726.86,2311.98,720.91L2311.98,720.91z"/>
							<g>
								<g>
									<path class="st3" d="M2318.39,729.74c-1.03,5.34,3.44,10.05,8.83,9.3c3.26-0.45,5.95-3,6.57-6.24
										c1.03-5.34-3.44-10.05-8.83-9.3C2321.7,723.95,2319.01,726.5,2318.39,729.74z"/>
								</g>
							</g>
							<g>
								<g>
									<path class="st3" d="M2369.16,776.33c-1.34,6.95,4.48,13.08,11.49,12.11c4.25-0.59,7.74-3.91,8.56-8.12
										c1.34-6.95-4.48-13.08-11.49-12.11C2373.47,768.8,2369.97,772.12,2369.16,776.33z"/>
								</g>
							</g>
						</g>
					</g>
				</g>
			</g>
			<g>
				<rect x="2144.95" y="511.31" class="st3" width="140.69" height="45.26"/>
				<path class="st4" d="M2162.07,583.48h-104.52c-19.97,0-36.17-16.19-36.17-36.17v-26.76c0-19.97,16.19-36.17,36.17-36.17h104.52
					V583.48z"/>
				<path class="st4" d="M2293.51,583.48h-77.61v-99.09h77.61c19.97,0,36.17,16.19,36.17,36.17v26.76
					C2329.68,567.29,2313.48,583.48,2293.51,583.48z"/>
				<path class="st3" d="M2291.82,557.59c-13.28,5.57-28.61-0.71-34.18-13.99c-5.57-13.28,0.71-28.61,13.99-34.18
					s28.61,0.71,34.18,13.99C2311.37,536.69,2305.09,552.02,2291.82,557.59z M2275.88,519.56c-7.69,3.22-11.32,12.1-8.1,19.79
					c3.22,7.69,12.1,11.32,19.79,8.1c7.69-3.22,11.32-12.1,8.1-19.79C2292.44,519.97,2283.56,516.34,2275.88,519.56z"/>
			</g>
			<g>
				
					<rect x="1764.55" y="674.1" transform="matrix(0.5427 0.84 -0.84 0.5427 1419.0043 -1227.7262)" class="st3" width="144.75" height="30.21"/>
				<path class="st3" d="M1639.48,816.5L1639.48,816.5c-11.79-18.32-6.49-42.73,11.84-54.52l203-130.7l42.68,66.36l-203,130.7
					C1675.68,840.12,1651.27,834.82,1639.48,816.5z"/>
				<g>
					<path class="st4" d="M1879.48,760.54L2099.1,597.9c28.22-20.9,35.31-60.15,16.19-89.61v0c-19.13-29.45-57.87-38.94-88.44-21.66
						L1789.4,621.1L1879.48,760.54z"/>
					<path class="st3" d="M2082.53,580.41c-19.72,12.81-46.18,7.18-58.98-12.54s-7.18-46.18,12.54-58.98
						c19.72-12.81,46.18-7.18,58.98,12.54C2107.87,541.15,2102.24,567.61,2082.53,580.41z M2045.86,523.94
						c-11.42,7.41-14.67,22.74-7.26,34.15c7.41,11.42,22.74,14.67,34.15,7.26c11.42-7.41,14.67-22.74,7.26-34.15
						C2072.59,519.79,2057.27,516.53,2045.86,523.94z"/>
				</g>
			</g>
			<g>
				<path class="st4" d="M1964.91,1157.04L1964.91,1157.04c-53.43,46.34-134.31,40.58-180.65-12.85l-210.32-242.54
					c-46.34-53.43-40.58-134.31,12.85-180.65l0,0c53.43-46.34,134.31-40.58,180.65,12.85l210.32,242.54
					C2024.1,1029.82,2018.35,1110.7,1964.91,1157.04z"/>
				<path class="st3" d="M1621.59,761.13c-28.13,24.39-31.16,66.98-6.76,95.11c24.39,28.13,66.98,31.17,95.11,6.77
					c28.14-24.4,31.16-66.98,6.77-95.11C1692.31,739.76,1649.73,736.73,1621.59,761.13z M1692.18,842.53
					c-16.82,14.59-42.28,12.77-56.87-4.05c-14.59-16.83-12.78-42.29,4.04-56.87c16.83-14.59,42.29-12.78,56.88,4.05
					C1710.82,802.48,1709.01,827.94,1692.18,842.53z"/>
			</g>
			<g>
				<g>
					<path class="st3" d="M2011.08,1180.5h-232.71v-131.25c0-46.91,38.03-84.94,84.94-84.94h62.84c46.91,0,84.94,38.03,84.94,84.94
						V1180.5z"/>
					<path class="st4" d="M1861.35,1038.99c-22.08,19.15-24.46,52.57-5.31,74.65s52.57,24.46,74.65,5.31
						c22.08-19.15,24.46-52.57,5.31-74.66C1916.86,1022.22,1883.43,1019.84,1861.35,1038.99z M1916.75,1102.89
						c-13.2,11.45-33.19,10.03-44.64-3.18s-10.03-33.19,3.17-44.64c13.21-11.45,33.19-10.03,44.64,3.18
						C1931.38,1071.45,1929.96,1091.43,1916.75,1102.89z"/>
				</g>
			</g>
			<g>
				<rect x="1751.91" y="1168.77" class="st3" width="297.52" height="87.41"/>
				<g>
					<path class="st4" d="M2152.21,1290.7h-528.74c-0.28,2.42-0.42,4.89-0.42,7.4v253.79h529.59V1298.1
						C2152.63,1295.59,2152.49,1293.13,2152.21,1290.7z"/>
					<path class="st4" d="M2036.69,1210.84h-298.1c-63.78,17.33-110.45,47.17-115.32,89.51h528.74
						C2147.15,1258.01,2100.47,1228.17,2036.69,1210.84z"/>
				</g>
				<rect x="1610.87" y="1474.68" class="st3" width="557.5" height="77.23"/>
				<g>
					<path class="st3" d="M1837.24,1364.1L1837.24,1364.1c-7.87,0-14.24-6.38-14.24-14.24l0,0c0-7.87,6.38-14.24,14.24-14.24l0,0
						c7.87,0,14.24,6.38,14.24,14.24l0,0C1851.48,1357.72,1845.11,1364.1,1837.24,1364.1z"/>
					<path class="st3" d="M1885.52,1364.1L1885.52,1364.1c-7.87,0-14.24-6.38-14.24-14.24l0,0c0-7.87,6.38-14.24,14.24-14.24l0,0
						c7.87,0,14.24,6.38,14.24,14.24l0,0C1899.77,1357.72,1893.39,1364.1,1885.52,1364.1z"/>
					<path class="st3" d="M1933.8,1364.1L1933.8,1364.1c-7.87,0-14.25-6.38-14.25-14.24l0,0c0-7.87,6.38-14.24,14.25-14.24l0,0
						c7.87,0,14.24,6.38,14.24,14.24l0,0C1948.05,1357.72,1941.67,1364.1,1933.8,1364.1z"/>
					<path class="st3" d="M1982.08,1364.1L1982.08,1364.1c-7.87,0-14.24-6.38-14.24-14.24l0,0c0-7.87,6.38-14.24,14.24-14.24l0,0
						c7.87,0,14.24,6.38,14.24,14.24l0,0C1996.33,1357.72,1989.95,1364.1,1982.08,1364.1z"/>
				</g>
				<path class="st3" d="M1767.75,1462.36h-85.41v-78.43h85.41V1462.36z M1683.66,1461.04h82.77v-75.79h-82.77V1461.04z"/>
				<g>
					<g>
						<path class="st3" d="M1708.38,1256.68c8.69-12.5,21.7-21.3,34.61-29.05h-6.27c-12.92,7.75-25.93,16.55-34.63,29.05H1708.38z"
							/>
						<path class="st3" d="M1723.31,1256.68c8.67-12.5,21.68-21.3,34.58-29.05h-6.27c-12.9,7.75-25.92,16.55-34.59,29.05H1723.31z"
							/>
						<path class="st3" d="M1738.24,1256.68c8.64-12.5,21.66-21.3,34.54-29.05h-6.27c-12.89,7.75-25.9,16.55-34.55,29.05H1738.24z"
							/>
						<path class="st3" d="M1753.16,1256.68c8.62-12.5,21.64-21.3,34.5-29.05h-6.27c-12.87,7.75-25.89,16.55-34.52,29.05H1753.16z"
							/>
						<path class="st3" d="M1768.09,1256.68c8.6-12.5,21.62-21.3,34.47-29.05h-6.27c-12.85,7.75-25.87,16.55-34.48,29.05H1768.09z"
							/>
						<path class="st3" d="M1783.02,1256.68c8.58-12.5,21.6-21.3,34.43-29.05h-6.27c-12.84,7.75-25.86,16.55-34.45,29.05H1783.02z"
							/>
						<path class="st3" d="M1797.94,1256.68c8.56-12.5,21.58-21.3,34.4-29.05h-6.27c-12.82,7.75-25.84,16.55-34.41,29.05H1797.94z"
							/>
					</g>
				</g>
			</g>
		</g>
		<g>
			<path class="st3" d="M544.34,1075.91l4.5-3.66c-39.56-48.63-55.66-89.19-49.24-123.99c8.74-47.38,58.57-76.1,102.52-101.45
				c24.68-14.23,47.98-27.67,61.15-42.91c9.88-11.44,13.97-23.83,12.17-36.82c-4.09-29.48-36.96-51.43-38.36-52.35l-3.19,4.84
				c0.32,0.21,32.09,21.46,35.81,48.32c1.56,11.26-2.08,22.1-10.82,32.21c-12.52,14.5-35.42,27.7-59.66,41.68
				c-45.05,25.97-96.1,55.41-105.33,105.42C487.14,983.79,503.65,1025.89,544.34,1075.91z"/>
			<path class="st3" d="M408.97,1234.77l19.55-12.5c-32.12-50.22-32.11-95.79,0.02-131.78c53.41-59.82,161.85-12.53,162.94-12.05
				l9.46-21.19c-1.25-0.56-31.13-13.78-69-18.58c-51.85-6.58-93.59,6-120.7,36.36C372,1118.98,371.19,1175.71,408.97,1234.77z"/>
			<path class="st3" d="M890.21,752.28c0.73-1.5,17.81-37.28,21.67-81.86c5.27-60.87-16.73-108.37-63.61-137.37
				c-34.24-21.18-71.93-27.32-109-17.74c-42.75,11.05-76.83,41.45-86.4,58.51l20.24,11.35c6.38-11.38,34.92-37.82,71.97-47.4
				c31.23-8.07,61.85-3.02,90.99,15.01c39.49,24.43,57.22,63.34,52.7,115.64c-3.49,40.37-19.28,73.44-19.44,73.77L890.21,752.28z"/>
			
				<rect x="630.69" y="570.63" transform="matrix(-0.866 -0.5 0.5 -0.866 947.3859 1412.8439)" class="st3" width="64.58" height="17.73"/>
			<g>
				<g>
					
						<rect x="213.48" y="515.22" transform="matrix(-1 6.600677e-04 -6.600677e-04 -1 465.5418 1207.1935)" class="st3" width="38.18" height="176.9"/>
					<path class="st4" d="M209.43,638.15l44.75-0.03c7.95,6.49,13.02,16.37,13.01,27.44l-0.06,32.37l-70.73-0.08l0.06-32.37
						C196.48,654.46,201.53,644.63,209.43,638.15z"/>
					<g>
						
							<rect x="189.74" y="697.81" transform="matrix(-1 6.580279e-04 -6.580279e-04 -1 463.5323 1405.6113)" class="st3" width="83.59" height="10.14"/>
					</g>
				</g>
				<g>
					<g>
						<polygon class="st3" points="290.65,882.29 304.97,884.39 345.61,779.28 306.55,773.57 						"/>
						<polygon class="st3" points="141.77,881.52 127.3,880.96 106.5,770.21 145.95,771.72 						"/>
						<path class="st4" d="M186.82,746l84.15-0.06c10.25-0.01,18.63-8.4,18.63-18.65l0,0c-0.01-10.25-8.4-18.63-18.65-18.63
							l-84.15,0.06c-10.25,0.01-18.63,8.4-18.63,18.65l0,0C168.17,737.63,176.56,746.01,186.82,746z"/>
						<g>
							<path class="st4" d="M261.3,714.73c5.83-6.4,15.7-7,22.26-1.34l55.03,47.47c12.73,10.76,12.53,30.44-0.42,40.94h0
								c-12.31,9.98-30.57,7.04-39.12-6.31l-39.38-61.37C255.76,728.03,256.43,720.08,261.3,714.73L261.3,714.73z"/>
							<g>
								<g>
									<path class="st3" d="M317.09,770.84c-6.66,2.38-8.98,10.51-4.58,16.05c2.67,3.36,7.3,4.68,11.34,3.24
										c6.66-2.38,8.98-10.51,4.58-16.05C325.77,770.72,321.13,769.39,317.09,770.84z"/>
								</g>
							</g>
							<g>
								<g>
									<path class="st3" d="M271.54,719.41c-5.12,1.83-6.9,8.08-3.52,12.33c2.05,2.58,5.61,3.6,8.71,2.49
										c5.12-1.83,6.9-8.08,3.52-12.33C278.2,719.32,274.64,718.3,271.54,719.41z"/>
								</g>
							</g>
						</g>
						<g>
							<path class="st4" d="M198.95,715.51c-4.93-7.12-14.64-9.01-21.88-4.27l-60.81,39.79c-14.04,8.99-16.43,28.52-4.99,40.64l0,0
								c10.89,11.52,29.37,11.01,39.61-1.09l47.14-55.64C202.69,729.43,203.07,721.45,198.95,715.51L198.95,715.51z"/>
							<g>
								<g>
									<path class="st3" d="M185.96,718.1c-5.38-0.74-9.85,3.97-8.83,9.3c0.62,3.23,3.31,5.78,6.57,6.24
										c5.38,0.74,9.85-3.97,8.83-9.31C191.91,721.1,189.23,718.55,185.96,718.1z"/>
								</g>
							</g>
							<g>
								<g>
									<path class="st3" d="M133.21,762.81c-7.01-0.97-12.83,5.16-11.49,12.11c0.81,4.21,4.31,7.53,8.56,8.12
										c7.01,0.97,12.83-5.16,11.49-12.11C140.96,766.71,137.46,763.39,133.21,762.81z"/>
								</g>
							</g>
						</g>
					</g>
				</g>
			</g>
			<g>
				
					<rect x="225.3" y="505.9" transform="matrix(-1 -1.224647e-16 1.224647e-16 -1 591.277 1057.0673)" class="st3" width="140.69" height="45.26"/>
				<path class="st4" d="M348.85,578.08h104.52c19.97,0,36.17-16.19,36.17-36.17v-26.76c0-19.97-16.19-36.17-36.17-36.17H348.85
					V578.08z"/>
				<path class="st4" d="M217.42,578.08h77.61v-99.09h-77.61c-19.97,0-36.17,16.19-36.17,36.17v26.76
					C181.25,561.89,197.45,578.08,217.42,578.08z"/>
				<path class="st3" d="M205.13,518.01c5.57-13.28,20.9-19.55,34.18-13.99c13.28,5.57,19.55,20.9,13.99,34.18
					c-5.57,13.28-20.9,19.55-34.18,13.99C205.84,546.62,199.56,531.29,205.13,518.01z M215.26,522.26
					c-3.22,7.69,0.41,16.57,8.1,19.79c7.69,3.22,16.57-0.41,19.79-8.1c3.22-7.69-0.41-16.57-8.1-19.79
					C227.36,510.94,218.49,514.57,215.26,522.26z"/>
			</g>
			<g>
				
					<rect x="601.63" y="668.7" transform="matrix(-0.5427 0.84 -0.84 -0.5427 1614.1246 488.7504)" class="st3" width="144.75" height="30.21"/>
				<path class="st3" d="M871.45,811.09L871.45,811.09c11.79-18.32,6.49-42.73-11.84-54.52l-203-130.7l-42.68,66.36l203,130.7
					C835.25,834.72,859.66,829.42,871.45,811.09z"/>
				<g>
					<path class="st4" d="M631.45,755.13L411.83,592.5c-28.22-20.9-35.31-60.15-16.19-89.61l0,0
						c19.13-29.45,57.87-38.94,88.44-21.66l237.44,134.46L631.45,755.13z"/>
					<path class="st3" d="M415.87,516.02c12.81-19.72,39.27-25.34,58.98-12.54c19.72,12.81,25.34,39.26,12.54,58.98
						c-12.81,19.72-39.26,25.34-58.98,12.54C408.68,562.2,403.06,535.74,415.87,516.02z M430.92,525.8
						c-7.41,11.42-4.16,26.74,7.26,34.15c11.42,7.41,26.74,4.16,34.15-7.26c7.41-11.42,4.16-26.74-7.26-34.15
						C453.66,511.13,438.33,514.38,430.92,525.8z"/>
				</g>
			</g>
			<g>
				<path class="st4" d="M546.02,1151.64L546.02,1151.64c53.43,46.34,134.31,40.58,180.65-12.85l210.32-242.54
					c46.34-53.43,40.58-134.31-12.85-180.65l0,0c-53.43-46.34-134.31-40.58-180.65,12.85L533.16,970.99
					C486.83,1024.42,492.58,1105.3,546.02,1151.64z"/>
				<path class="st3" d="M794.22,762.49c-24.39,28.13-21.37,70.71,6.77,95.11c28.13,24.39,70.71,21.36,95.11-6.77
					c24.39-28.13,21.37-70.71-6.76-95.11C861.2,731.33,818.62,734.36,794.22,762.49z M814.7,780.25
					c14.59-16.83,40.05-18.64,56.88-4.05c16.82,14.59,18.63,40.05,4.04,56.87c-14.59,16.83-40.05,18.64-56.87,4.05
					C801.92,822.54,800.11,797.07,814.7,780.25z"/>
			</g>
			<g>
				<g>
					<path class="st3" d="M499.85,1175.1h232.71v-131.25c0-46.91-38.03-84.94-84.94-84.94h-62.84c-46.91,0-84.94,38.03-84.94,84.94
						V1175.1z"/>
					<path class="st4" d="M574.93,1038.9c-19.15,22.08-16.77,55.5,5.31,74.66c22.08,19.15,55.5,16.77,74.65-5.31
						c19.15-22.08,16.77-55.5-5.31-74.65C627.5,1014.44,594.07,1016.82,574.93,1038.9z M591,1052.84
						c11.45-13.21,31.44-14.63,44.64-3.18c13.2,11.45,14.62,31.44,3.17,44.64c-11.45,13.21-31.44,14.63-44.64,3.18
						C580.97,1086.03,579.55,1066.04,591,1052.84z"/>
				</g>
			</g>
			<g>
				
					<rect x="461.5" y="1163.36" transform="matrix(-1 -1.224647e-16 1.224647e-16 -1 1220.515 2414.1423)" class="st3" width="297.52" height="87.41"/>
				<g>
					<path class="st4" d="M358.72,1285.3h528.74c0.28,2.42,0.42,4.89,0.42,7.4v253.79H358.3V1292.7
						C358.3,1290.19,358.44,1287.73,358.72,1285.3z"/>
					<path class="st4" d="M474.24,1205.43h298.1c63.78,17.33,110.45,47.17,115.32,89.51H358.91
						C363.78,1252.6,410.45,1222.77,474.24,1205.43z"/>
				</g>
				
					<rect x="342.56" y="1469.28" transform="matrix(-1 -1.224647e-16 1.224647e-16 -1 1242.6226 3015.7893)" class="st3" width="557.5" height="77.23"/>
				<g>
					<path class="st3" d="M673.69,1358.7L673.69,1358.7c7.87,0,14.24-6.38,14.24-14.24l0,0c0-7.87-6.38-14.25-14.24-14.25l0,0
						c-7.87,0-14.24,6.38-14.24,14.25l0,0C659.45,1352.32,665.82,1358.7,673.69,1358.7z"/>
					<path class="st3" d="M625.41,1358.7L625.41,1358.7c7.87,0,14.24-6.38,14.24-14.24l0,0c0-7.87-6.38-14.25-14.24-14.25l0,0
						c-7.87,0-14.25,6.38-14.25,14.25l0,0C611.16,1352.32,617.54,1358.7,625.41,1358.7z"/>
					<path class="st3" d="M577.13,1358.7L577.13,1358.7c7.87,0,14.25-6.38,14.25-14.24l0,0c0-7.87-6.38-14.25-14.25-14.25l0,0
						c-7.87,0-14.24,6.38-14.24,14.25l0,0C562.88,1352.32,569.26,1358.7,577.13,1358.7z"/>
					<path class="st3" d="M528.84,1358.7L528.84,1358.7c7.87,0,14.24-6.38,14.24-14.24l0,0c0-7.87-6.38-14.25-14.24-14.25h0
						c-7.87,0-14.24,6.38-14.24,14.25l0,0C514.6,1352.32,520.98,1358.7,528.84,1358.7z"/>
				</g>
				<path class="st3" d="M743.18,1378.53h85.41v78.43h-85.41V1378.53z M827.27,1379.85H744.5v75.79h82.77V1379.85z"/>
				<g>
					<g>
						<path class="st3" d="M802.55,1251.28c-8.69-12.5-21.7-21.3-34.61-29.05h6.27c12.92,7.75,25.93,16.55,34.63,29.05H802.55z"/>
						<path class="st3" d="M787.62,1251.28c-8.67-12.5-21.68-21.3-34.58-29.05h6.27c12.9,7.75,25.92,16.55,34.59,29.05H787.62z"/>
						<path class="st3" d="M772.69,1251.28c-8.64-12.5-21.66-21.3-34.54-29.05h6.27c12.89,7.75,25.9,16.55,34.55,29.05H772.69z"/>
						<path class="st3" d="M757.77,1251.28c-8.62-12.5-21.64-21.3-34.5-29.05h6.27c12.87,7.75,25.89,16.55,34.52,29.05H757.77z"/>
						<path class="st3" d="M742.84,1251.28c-8.6-12.5-21.62-21.3-34.47-29.05h6.27c12.85,7.75,25.87,16.55,34.48,29.05H742.84z"/>
						<path class="st3" d="M727.91,1251.28c-8.58-12.5-21.6-21.3-34.43-29.05h6.27c12.84,7.75,25.86,16.55,34.45,29.05H727.91z"/>
						<path class="st3" d="M712.99,1251.28c-8.56-12.5-21.58-21.3-34.4-29.05h6.27c12.82,7.75,25.84,16.55,34.41,29.05H712.99z"/>
					</g>
				</g>
			</g>
		</g>
		<g>
			<rect x="86.95" y="1251.27" class="st5" width="127.72" height="112.12"/>
			<rect x="125.44" y="1251.27" class="st6" width="127.72" height="112.12"/>
			<g>
				<rect x="178.68" y="1251.27" class="st7" width="13.79" height="22.62"/>
			</g>
			<g>
				<rect x="215.28" y="1342.59" class="st5" width="13.28" height="12.69"/>
				<rect x="233.69" y="1342.59" class="st5" width="13.28" height="12.69"/>
				<rect x="196.74" y="1342.59" class="st5" width="13.28" height="12.69"/>
			</g>
		</g>
		<g>
			<rect x="2209.53" y="1245.87" class="st5" width="127.72" height="112.12"/>
			<rect x="2248.03" y="1245.87" class="st6" width="127.72" height="112.12"/>
			<g>
				<rect x="2301.27" y="1245.87" class="st7" width="13.79" height="22.62"/>
			</g>
			<g>
				<rect x="2337.86" y="1337.18" class="st5" width="13.28" height="12.69"/>
				<rect x="2356.28" y="1337.18" class="st5" width="13.28" height="12.69"/>
				<rect x="2319.33" y="1337.18" class="st5" width="13.28" height="12.69"/>
			</g>
		</g>
	</g>
</g>
<g id="shadow">
	<path class="st8" d="M2321.96,1505.05H325.2c-1.07,0-1.94-0.75-1.94-1.67c0-0.92,0.87-1.67,1.94-1.67h1996.76
		c1.07,0,1.94,0.75,1.94,1.67C2323.89,1504.3,2323.03,1505.05,2321.96,1505.05z"/>
</g>
<g id="text">
</g>
<g id="robot">
	<g>
		<defs>
			<rect id="SVGID_1_" x="539.85" y="292.48" width="1487.38" height="1534.23"/>
		</defs>
		<clipPath id="SVGID_2_">
			<use xlink:href="#SVGID_1_"  style="overflow:visible;"/>
		</clipPath>
		<g class="st9">
			<g>
				<g>
					
						<ellipse transform="matrix(0.041 -0.9992 0.9992 0.041 930.9309 1812.8445)" class="st4" cx="1409.83" cy="421.47" rx="12.07" ry="12.21"/>
					<g>
						<path class="st4" d="M1457.39,382.51L1457.39,382.51c1.47-1.52,1.46-3.94-0.05-5.42c-27.12-26.44-68.66-27.17-96.66-1.71
							c-1.57,1.42-1.65,3.84-0.23,5.41l0,0c1.44,1.6,3.94,1.77,5.55,0.34c24.96-22.3,61.65-21.65,85.84,1.52
							C1453.39,384.15,1455.89,384.06,1457.39,382.51z"/>
						<path class="st4" d="M1446.08,394.23l0.02-0.02c1.51-1.56,1.43-4.03-0.16-5.52c-21.05-19.71-52.56-20.27-74.26-1.33
							c-1.64,1.43-1.8,3.9-0.34,5.52l0.02,0.02c1.42,1.57,3.86,1.75,5.47,0.37c18.72-15.99,45.6-15.52,63.76,1.14
							C1442.16,395.85,1444.61,395.75,1446.08,394.23z"/>
						<path class="st4" d="M1435.12,405.59l0.03-0.04c1.52-1.58,1.45-4.11-0.21-5.56c-15.15-13.3-37.04-13.7-52.64-0.97
							c-1.71,1.39-1.87,3.93-0.4,5.56l0.03,0.04c1.39,1.54,3.76,1.72,5.39,0.43c12.64-9.96,30.08-9.64,42.36,0.78
							C1431.3,407.18,1433.68,407.09,1435.12,405.59z"/>
					</g>
				</g>
			</g>
			<g>
				<path class="st10" d="M1330.6,857.88l-1.08-8.29c28.3-3.7,46.42-13.74,53.83-29.83c9.11-19.76-0.56-43.54-6.94-53.35
					c-15.36-23.6-14.76-43.8-11.56-56.59c3.5-13.96,10.71-22.27,11.02-22.62l6.28,5.53l-3.14-2.76l3.15,2.75
					c-1.02,1.17-24.71,29.23,1.26,69.13c7.79,11.97,18.14,38.38,7.53,61.41C1382.24,842.13,1361.94,853.78,1330.6,857.88z"/>
				<path class="st10" d="M960.52,968.05c-0.28-0.73-6.89-18.17-7.62-38.66c-1.01-28.02,9.54-47.97,30.52-57.68
					c39.69-18.39,75.94,2.86,89.59,10.86c1.98,1.16,4.23,2.48,4.9,2.7c-0.01,0-0.8-0.26-1.85,0.1l2.64,7.94
					c-2.5,0.84-4.52-0.35-9.92-3.52c-13.8-8.09-46.12-27.04-81.84-10.48c-43.21,20.02-18.85,85.1-18.6,85.76L960.52,968.05z"/>
				<path class="st10" d="M1565.28,969.65l-7.81-2.99c0.25-0.65,24.54-65.77-18.6-85.76c-35.72-16.55-68.04,2.39-81.84,10.48
					c-5.4,3.17-7.42,4.35-9.93,3.52l2.65-7.94c-1.06-0.35-1.85-0.1-1.85-0.1c0.67-0.22,2.92-1.54,4.9-2.7
					c13.65-8,49.9-29.25,89.59-10.86c20.97,9.72,31.52,29.66,30.51,57.68C1572.16,951.48,1565.56,968.92,1565.28,969.65z"/>
				<path class="st10" d="M1138.42,1582.99c-80.88-5.82-126.11-23.17-138.27-53.02c-13.83-33.95,18.79-77.09,48.75-110.87
					c35.15-39.64,34.83-94.16,28.37-132.91c-7.08-42.49-22.88-75.92-23.04-76.25l7.55-3.61c0.67,1.4,16.41,34.66,23.71,78.28
					c9.75,58.25-0.74,106.67-30.33,140.04c-28.35,31.97-59.35,72.48-47.26,102.16c10.69,26.24,54.8,42.34,131.12,47.83
					L1138.42,1582.99z"/>
				<path class="st10" d="M1380.54,1591.24l-0.51-8.35c76.37-4.71,120.65-20.35,131.6-46.49c12.39-29.56-18.19-70.38-46.21-102.64
					c-29.25-33.67-39.24-82.2-28.89-140.35c7.75-43.53,23.82-76.64,24.51-78.03l7.51,3.68c-0.16,0.33-16.3,33.59-23.82,76.01
					c-6.86,38.69-7.73,93.2,27.01,133.2c29.61,34.09,61.78,77.55,47.61,111.36C1506.88,1569.37,1461.48,1586.25,1380.54,1591.24z"/>
				<g>
					<circle class="st10" cx="1054.22" cy="1005.45" r="100.13"/>
					<circle class="st10" cx="1454.4" cy="1005.45" r="100.13"/>
					
						<ellipse transform="matrix(0.1602 -0.9871 0.9871 0.1602 -625.0128 2475.625)" class="st10" cx="1142.37" cy="1605.12" rx="79.74" ry="79.74"/>
					
						<ellipse transform="matrix(0.1602 -0.9871 0.9871 0.1602 -418.4904 2718.363)" class="st10" cx="1388.28" cy="1605.12" rx="79.74" ry="79.74"/>
					<polygon class="st10" points="1398.96,1508.68 1117.59,1508.68 1093.65,1176.42 1422.91,1176.42 					"/>
					<path class="st11" d="M1364.09,1395.64c-21.33,0-37.92-10.71-53.96-21.06c-15.05-9.72-29.26-18.89-46.43-18.89
						c-17.2,0-32.61,8.01-48.92,16.49c-17.35,9.02-35.3,18.35-56.6,18.35c-15.57,0-32.28-8.23-49.65-24.46l0.71-0.76
						c17.17,16.05,33.64,24.18,48.94,24.18c21.05,0,38.88-9.27,56.12-18.23c16.43-8.54,31.94-16.6,49.4-16.6
						c17.48,0,31.82,9.26,47,19.06c15.91,10.27,32.37,20.9,53.39,20.9c12.62,0,26.82-4.71,42.21-13.99l0.54,0.89
						C1391.29,1390.88,1376.9,1395.64,1364.09,1395.64z"/>
					<path class="st11" d="M1364.09,1434.56c-21.33,0-37.92-10.71-53.96-21.06c-15.05-9.71-29.26-18.89-46.43-18.89
						c-17.2,0-32.61,8.01-48.92,16.48c-17.35,9.02-35.3,18.34-56.6,18.34c-14.63,0-30.33-7.31-46.64-21.72l0.69-0.78
						c16.12,14.24,31.58,21.46,45.95,21.46c21.05,0,38.88-9.26,56.12-18.22c16.43-8.54,31.94-16.6,49.4-16.6
						c17.48,0,31.82,9.26,47,19.05c15.91,10.27,32.37,20.89,53.39,20.89c11.79,0,25.01-4.13,39.29-12.27l0.52,0.91
						C1389.46,1430.39,1376.07,1434.56,1364.09,1434.56z"/>
					<path class="st11" d="M1364.09,1477.59c-21.33,0-37.92-10.71-53.96-21.06c-15.05-9.72-29.26-18.89-46.43-18.89
						c-17.2,0-32.61,8.01-48.92,16.49c-17.35,9.02-35.3,18.35-56.6,18.35c-13.62,0-28.19-6.36-43.32-18.89l0.67-0.8
						c14.94,12.38,29.29,18.65,42.66,18.65c21.05,0,38.88-9.27,56.12-18.23c16.43-8.54,31.94-16.6,49.4-16.6
						c17.48,0,31.82,9.26,47,19.06c15.91,10.27,32.37,20.9,53.39,20.9c10.91,0,23.05-3.53,36.07-10.5l0.49,0.92
						C1387.48,1474.02,1375.17,1477.59,1364.09,1477.59z"/>
					<path class="st7" d="M1499.22,1090.3c-21.4,117-55.67,267.62-100.64,267.62c-64.25,0-65.97-70.76-140.76-70.76
						c-74.79,0-76.08,70.76-140.34,70.76c-42.67,0-75.24-122.81-97.52-240.75c4.39-18.72,3.14-155,2.56-212.24
						c4.8-4.93,10.12-9.53,15.91-13.83c20.19-15.04,46.01-26.36,75.2-34.29c84.93-23.12,198.33-17.58,284.22,8.68
						c34.95,10.69,65.33,24.8,87.38,41.8c0.7,0.54,1.4,1.09,2.08,1.63C1485.86,917.76,1490.62,1069.94,1499.22,1090.3z"/>
					<path class="st12" d="M1499.22,1090.3c-21.4,117-55.67,267.62-100.64,267.62c-64.25,0-65.97-70.76-140.76-70.76
						c-74.79,0-76.08,70.76-140.34,70.76c-42.67,0-75.24-122.81-97.52-240.75c4.39-18.72,3.14-155,2.56-212.24
						c4.8-4.93,10.12-9.53,15.91-13.83c0.56,49.24,3.29,170.01,16.25,203.73c16.42,42.68,14.78,157.57,116.54,124.74
						c101.76-32.83,114.89-21.34,167.41,11.48c49.07,30.66,142.52-133.44,146.6-323.77c0.7,0.54,1.4,1.09,2.08,1.63
						C1485.86,917.76,1490.62,1069.94,1499.22,1090.3z"/>
					<path class="st12" d="M1397.84,865.49c-0.25,4.4-1.68,8.69-4.15,12.8c-15.45,25.6-71.59,44.57-138.48,44.57
						c-73.32,0-133.73-22.79-141.76-52.13c-0.61-2.19-0.91-4.41-0.91-6.67c0-2.45,0.37-4.87,1.09-7.25
						C1198.55,833.69,1311.95,839.23,1397.84,865.49z"/>
					<path class="st10" d="M1393.68,878.29c-15.45,25.6-71.59,44.57-138.48,44.57c-73.32,0-133.73-22.79-141.76-52.13
						C1157.52,842.87,1329.2,829.36,1393.68,878.29z"/>
					<path class="st10" d="M1339.09,850.11c0,37.26-166.98,37.26-166.98,0l11.13-141.01h144.72L1339.09,850.11z"/>
					<g>
						<path class="st10" d="M1126.68,677.2c-0.8,0-1.61-0.19-2.36-0.59c-2.45-1.31-3.37-4.35-2.07-6.8
							c1.56-2.93,2.66-4.64,2.71-4.71c1.5-2.33,4.61-3,6.94-1.5c2.33,1.5,3,4.61,1.5,6.94c-0.04,0.06-0.96,1.51-2.29,4
							C1130.21,676.23,1128.48,677.2,1126.68,677.2z"/>
						<path class="st10" d="M1165.93,770.2l-0.34,0c-2.77-0.01-5.01-2.27-5-5.05c0.01-2.77,2.27-4.98,5.05-5l0.3,0
							c2.72,0,5.55-0.16,8.4-0.49c2.76-0.32,5.24,1.67,5.56,4.42c0.31,2.76-1.67,5.24-4.42,5.56
							C1172.23,770.01,1169.03,770.2,1165.93,770.2z M1152.68,768.87c-0.35,0-0.7-0.04-1.05-0.11c-3.42-0.73-6.7-1.74-9.76-3.02
							c-2.56-1.07-3.77-4.01-2.71-6.57c1.07-2.56,4-3.77,6.57-2.71c2.49,1.04,5.18,1.87,7.99,2.47c2.71,0.58,4.44,3.25,3.86,5.96
							C1157.08,767.25,1154.99,768.87,1152.68,768.87z M1132.67,759.44c-1.13,0-2.26-0.38-3.2-1.16c-2.62-2.17-5.05-4.67-7.21-7.41
							c-1.72-2.18-1.35-5.34,0.83-7.05c2.18-1.72,5.34-1.35,7.05,0.83c1.73,2.19,3.66,4.17,5.74,5.9c2.14,1.77,2.43,4.94,0.66,7.07
							C1135.55,758.82,1134.11,759.44,1132.67,759.44z M1119.55,741.63c-1.94,0-3.79-1.13-4.61-3.02c-1.34-3.09-2.42-6.34-3.2-9.68
							c-0.63-2.7,1.04-5.4,3.74-6.04c2.7-0.64,5.4,1.04,6.04,3.74c0.65,2.75,1.53,5.43,2.63,7.97c1.1,2.54-0.06,5.5-2.61,6.61
							C1120.9,741.49,1120.22,741.63,1119.55,741.63z M1115.13,719.89c-2.75,0-5-2.22-5.02-4.98l0-0.56c0-3.05,0.2-6.21,0.6-9.38
							c0.34-2.75,2.86-4.7,5.61-4.36c2.75,0.34,4.7,2.85,4.36,5.61c-0.35,2.77-0.52,5.5-0.52,8.14l0,0.48
							c0.02,2.77-2.2,5.04-4.98,5.07C1115.16,719.89,1115.15,719.89,1115.13,719.89z M1118.32,697.86c-0.45,0-0.92-0.06-1.37-0.19
							c-2.67-0.76-4.22-3.54-3.46-6.2c0.87-3.06,1.91-6.18,3.1-9.26c1-2.59,3.91-3.88,6.49-2.88c2.59,1,3.88,3.91,2.88,6.49
							c-1.08,2.8-2.02,5.62-2.81,8.39C1122.52,696.42,1120.51,697.86,1118.32,697.86z"/>
						<path class="st10" d="M1187.73,767.26c-2.22,0-4.25-1.49-4.85-3.74c-0.71-2.68,0.89-5.43,3.57-6.14
							c2.72-0.72,4.35-1.31,4.36-1.32c2.61-0.95,5.49,0.39,6.44,2.99c0.95,2.6-0.38,5.48-2.98,6.44c-0.08,0.03-2.03,0.74-5.25,1.6
							C1188.59,767.21,1188.16,767.26,1187.73,767.26z"/>
					</g>
					<path class="st7" d="M1110.21,623.88L1110.21,623.88c-2.42,0-4.37-1.96-4.37-4.37V460.47c0-2.42,1.96-4.37,4.37-4.37l0,0
						c2.42,0,4.37,1.96,4.37,4.37v159.04C1114.58,621.92,1112.62,623.88,1110.21,623.88z"/>
					<path class="st7" d="M1409.07,623.88L1409.07,623.88c-2.42,0-4.37-1.96-4.37-4.37V460.47c0-2.42,1.96-4.37,4.37-4.37l0,0
						c2.42,0,4.37,1.96,4.37,4.37v159.04C1413.44,621.92,1411.49,623.88,1409.07,623.88z"/>
					<g>
						<g>
							<path class="st10" d="M1395.79,633.68c-9.76,71.13-65.46,143.7-135.77,144.6c-63.77,0.82-128.93-70.89-135.77-144.6
								C1086.04,371.98,1434.11,372.08,1395.79,633.68z"/>
						</g>
					</g>
					<g>
						<path class="st10" d="M1164.45,701.05h-29.57c-12.68,0-23.05-10.37-23.05-23.05v-57.94c0-12.68,10.37-23.05,23.05-23.05h29.57
							c12.68,0,23.05,10.37,23.05,23.05V678C1187.5,690.68,1177.13,701.05,1164.45,701.05z"/>
						<path class="st7" d="M1114.93,608.57c-7.8,1.71-13.71,9.12-13.71,17.93c-2.7,15.12-2.35,29.13,0,42.39
							c0,8.81,5.91,16.22,13.71,17.93C1111.78,661.92,1111.1,636.09,1114.93,608.57z"/>
					</g>
					<g>
						<path class="st10" d="M1355.3,701.05h29.57c12.68,0,23.05-10.37,23.05-23.05v-57.94c0-12.68-10.37-23.05-23.05-23.05h-29.57
							c-12.68,0-23.05,10.37-23.05,23.05V678C1332.24,690.68,1342.62,701.05,1355.3,701.05z"/>
						<path class="st7" d="M1404.81,611.05c7.8,1.6,13.71,8.54,13.71,16.8c2.7,14.17,2.35,27.28,0,39.71
							c0,8.26-5.91,15.2-13.71,16.8C1407.97,661.02,1408.64,636.83,1404.81,611.05z"/>
					</g>
					<g>
						<g>
							<path class="st7" d="M1383.81,671.55c-8.84,71.32-60.27,144.3-125.41,145.2c-19.91,0.28-39.96-7.71-58-21.29
								c-35.54-26.68-63.38-74.91-67.44-123.91c-13.06-98.98,25.01-160.33,75.35-184.05c31.26-14.75,67.22-14.99,98.62-0.72
								c18.12,8.2,34.71,21.23,47.99,39.09C1379.13,558.41,1392.37,606.99,1383.81,671.55z"/>
						</g>
						<path class="st13" d="M1383.81,671.55c-8.84,71.32-60.27,144.3-125.41,145.2c-19.91,0.28-39.96-7.71-58-21.29
							c30.88,8.9,88.21,17.72,123.61-24.03c50.3-59.32,27.78-112.64,27.78-112.64s10.51-2.25,0-38.29
							c21.01-17.28,2.99-94.62,2.99-94.62l0.14-0.02C1379.13,558.41,1392.37,606.99,1383.81,671.55z"/>
					</g>
					<path class="st10" d="M1383.23,619.38h-248.81v21.39l6.89,16.04c0,17.01,233.66,17.01,233.66,0l8.26-19.25V619.38z"/>
					<path class="st13" d="M1289.08,567.82h-62.91c-10.4,0-18.86-8.46-18.86-18.86V487.5h2.01v61.46c0,9.29,7.56,16.85,16.85,16.85
						h62.91c9.29,0,16.85-7.56,16.85-16.85v-62.18h2.01v62.18C1307.93,559.36,1299.47,567.82,1289.08,567.82z"/>
					<path class="st13" d="M1228.5,549.19c0,2.47-2,4.48-4.48,4.48c-2.47,0-4.48-2-4.48-4.48c0-2.47,2-4.48,4.48-4.48
						C1226.5,544.72,1228.5,546.72,1228.5,549.19z"/>
					<path class="st13" d="M1295.06,549.19c0,2.47-2,4.48-4.48,4.48c-2.47,0-4.48-2-4.48-4.48c0-2.47,2-4.48,4.48-4.48
						C1293.05,544.72,1295.06,546.72,1295.06,549.19z"/>
					<path class="st14" d="M1113.63,1183.92c-9.08,0-17.95-1.29-26.56-3.87c-43.39-12.98-65.54-54.9-65.76-55.32l1.78-0.92
						c0.22,0.41,21.99,41.6,64.57,54.33c26.75,8,55.97,3.26,86.87-14.06c73.39-41.17,104.5-26.03,143.87-6.86
						c9.27,4.51,18.85,9.18,29.59,13.4c51.62,20.31,108.85-1.33,140.19-30.04l1.36,1.48c-23.09,21.15-60.08,38.52-98.68,38.52
						c-14.52,0-29.27-2.46-43.6-8.1c-10.81-4.25-20.43-8.94-29.74-13.46c-38.85-18.91-69.54-33.85-142.01,6.81
						C1154.03,1177.88,1133.31,1183.92,1113.63,1183.92z"/>
					<path class="st14" d="M1162.49,969.06h182.43c10.75,0,18.31,8.62,16.93,19.01l-8.79,66.14c-1.14,8.56-9.7,15.36-19.15,15.36
						h-160.4c-9.45,0-18.01-6.8-19.15-15.36l-8.79-66.14C1144.18,977.68,1151.74,969.06,1162.49,969.06z"/>
					<path class="st7" d="M1464.76,1524.16l-134.32,162.33c0,25.38-137.83,25.38-137.83,0l-134.89-163.71l13-50.11h380.13
						l7.25,26.82L1464.76,1524.16z"/>
					<path class="st12" d="M1464.76,1524.16l-134.32,162.33c0,25.38-137.83,25.38-137.83,0l-134.89-163.71l13-50.11h4.04
						c19.7,58.27,69.36,162.71,172.02,161.84c105.35-0.91,179.76-89.21,211.32-135.01L1464.76,1524.16z"/>
					<path class="st7" d="M1181.89,2058.63h-178.76c0,0-106.87-395.27,11.65-492.78c10.05-8.27,21.73-14.4,35.23-17.97
						l131.88,155.85C1208.14,1843.87,1203.25,1958.09,1181.89,2058.63z"/>
					<path class="st12" d="M1181.89,2058.63h-64.91c12.79-69.49,29.84-192.56,13.25-290.41
						c-18.86-111.33-85.62-177.67-115.45-202.37c10.05-8.27,21.73-14.4,35.23-17.97l131.88,155.85
						C1208.14,1843.87,1203.25,1958.09,1181.89,2058.63z"/>
					<path class="st7" d="M1533.38,2058.63H1348.3c-18.7-102-22.63-216.86,0-354.89l131.89-155.85
						c22.27,5.88,39.7,18.74,53.12,36.69C1623.99,1705.75,1533.38,2058.63,1533.38,2058.63z"/>
					<path class="st12" d="M1418.52,1768.22c-36.75,77.38-17.83,229.53-6.38,290.41h-63.84c-18.7-102-22.63-216.86,0-354.89
						l131.89-155.85c22.27,5.88,39.7,18.74,53.12,36.69C1507.05,1619.8,1452.82,1696,1418.52,1768.22z"/>
					<g>
						
							<ellipse transform="matrix(0.327 -0.945 0.945 0.327 -691.347 1706.4037)" class="st10" cx="852.38" cy="1338.59" rx="45.39" ry="45.39"/>
						<path class="st7" d="M987.9,1138.66l-80.46,198.07c-30.11,5.76-87.56-17.85-99.22-32.63c0.22-3.28,0.54-7.16,0.98-11.58
							c7.6-77.39,48.84-319.15,158.45-369.89c3.87-1.8,7.83-3.36,11.88-4.65L987.9,1138.66z"/>
						<path class="st12" d="M987.9,1138.66l-80.46,198.07c-30.11,5.76-87.56-17.85-99.22-32.63c0.22-3.28,0.54-7.16,0.98-11.58
							c104.57,22.46,124.69-97.34,154.29-158.44c25.82-53.29,9.13-178.63,4.16-211.46c3.87-1.8,7.83-3.36,11.88-4.65L987.9,1138.66z
							"/>
						<path class="st7" d="M852.06,1808.39c-21.01,18.21-71.32,11-77.28-6.85c-0.06-1.76-0.14-3.51-0.21-5.27
							c-6.12-149.59-39.29-297.38,31.46-441.24c20.75-7.63,40.86-10.32,60.12-6.51c13.91,2.74,27.38,8.87,40.32,18.95
							C924.03,1464.45,888.83,1635.32,852.06,1808.39z"/>
						<path class="st12" d="M852.06,1808.39c-21.01,18.21-71.32,11-77.28-6.85c-0.06-1.76-0.14-3.51-0.21-5.27
							c126.29,24.29,94.6-409.7,91.57-447.76c13.91,2.74,27.38,8.87,40.32,18.95C924.03,1464.45,888.83,1635.32,852.06,1808.39z"/>
					</g>
					<g>
						
							<ellipse transform="matrix(0.2298 -0.9732 0.9732 0.2298 -73.94 1928.4512)" class="st10" cx="1181.38" cy="1010.94" rx="7.98" ry="7.98"/>
						
							<ellipse transform="matrix(0.9239 -0.3827 0.3827 0.9239 -294.3092 542.283)" class="st10" cx="1215.97" cy="1010.94" rx="7.98" ry="7.98"/>
						
							<ellipse transform="matrix(0.2298 -0.9732 0.9732 0.2298 -20.6559 1995.7784)" class="st10" cx="1250.56" cy="1010.94" rx="7.98" ry="7.98"/>
						
							<ellipse transform="matrix(0.9239 -0.3827 0.3827 0.9239 -289.0433 568.7562)" class="st10" cx="1285.15" cy="1010.94" rx="7.98" ry="7.98"/>
						
							<ellipse transform="matrix(0.7071 -0.7071 0.7071 0.7071 -328.3003 1229.2911)" class="st10" cx="1319.74" cy="1010.94" rx="7.98" ry="7.98"/>
					</g>
				</g>
				<g>
					<polygon class="st7" points="847.27,1830.84 855.96,1886.92 833.8,1919.7 754.51,1906.06 774.6,1826.1 					"/>
					<path class="st7" d="M859.2,1892.11l-13.43,25.59c0,0,14.89,48.95,30.78,34.24C875.01,1938.62,859.2,1892.11,859.2,1892.11z"/>
					<path class="st7" d="M807.48,1919.69l5.07,32.97l34.62,45.06c0,0,14.72-14.93-10.7-45.25c-2.23-19.62-2.23-28.33-2.23-28.33
						L807.48,1919.69z"/>
					<path class="st7" d="M780.23,1915.48l4.67,36.99l33.36,41.74c0,0,14.1-12.91-11.32-43.24c-2.23-19.62-3.92-31.01-3.92-31.01
						L780.23,1915.48z"/>
					<path class="st7" d="M754.15,1911.55l5.71,38.79l26.06,39.24c0,0,12.85-12.04-7.5-42.36c-1.78-19.62-3.98-32.11-3.98-32.11
						L754.15,1911.55z"/>
				</g>
				<path class="st7" d="M1742.36,1266.21c-9.35,16.33-62.69,48.18-93.32,46.93l-20.37-34.46l-88.45-149.57l-24.31-219.5
					c33.2,5.45,63.36,27.47,90.09,58.25C1683.65,1057.24,1732.34,1220.48,1742.36,1266.21z"/>
				<path class="st12" d="M1742.36,1266.21c-9.35,16.33-62.69,48.18-93.32,46.93l-20.37-34.46c35.3-91.22-2.96-244.47-22.67-310.82
					C1683.65,1057.24,1732.34,1220.48,1742.36,1266.21z"/>
				
					<ellipse transform="matrix(0.961 -0.2766 0.2766 0.961 -294.6067 520.4354)" class="st10" cx="1697.37" cy="1304.45" rx="45.39" ry="45.39"/>
				<path class="st7" d="M1865.4,885.54c-30.19,174.32-61.02,346.05-113.36,429.56c-37.64,10.84-69.6-0.31-97.88-25.79
					c-0.77-10.05-1.15-19.96-1.16-29.74c-0.36-147.69,80.52-266.52,138.1-396.4c6.77-7.98,25.03-7.81,42.11-1.84
					C1846.86,866.09,1859.74,874.56,1865.4,885.54z"/>
				<path class="st12" d="M1865.4,885.54c-30.19,174.32-61.02,346.05-113.36,429.56c-37.64,10.84-69.6-0.31-97.88-25.79
					c-0.77-10.05-1.15-19.96-1.16-29.74c11.86,12.52,29.98,24.55,54.74,22.02c48.99-5,102.98-222.98,108.98-273.97
					c5.23-44.41,14.24-125.98,16.48-146.3C1846.86,866.09,1859.74,874.56,1865.4,885.54z"/>
				
					<ellipse transform="matrix(0.3287 -0.9444 0.9444 0.3287 399.3101 2315.491)" class="st10" cx="1828.53" cy="876.84" rx="12.05" ry="32.91"/>
				<g>
					<path class="st7" d="M1920.66,792.08l-46.44,79.64c-10.44,10.75-56.46,8.28-74.17-16.45c-6.18-8.64-8.23-18.74-8.23-18.74
						l21.57-52.46l4.37-29.31L1920.66,792.08z"/>
					<g>
						<path class="st7" d="M1846.17,766.01c0,0,8.68-24.45,18.2-22c9.52,2.44,12.88,15.21,12.88,15.21s7.28-6.52,14.28-3.26
							s8.12,12.5,8.12,12.5s11.48-8.96,21-0.54c9.52,8.42-11.2,47-21.56,54.06c-10.36,7.06-14.56-12.22-14.56-12.22
							s-13.72,12.22-22.12,4.07c-8.4-8.15-5.88-13.58-5.88-13.58s-12.32,8.15-17.36,1.36
							C1834.13,794.81,1846.17,766.01,1846.17,766.01z"/>
						<path class="st15" d="M1894.71,825.12c-0.91,0-1.8-0.17-2.67-0.52c-4.73-1.88-7.32-8.42-8.44-12.09
							c-4.35,3.23-14.89,9.65-22.31,2.45c-5.08-4.93-6.46-9.07-6.67-11.81c-4.29,2.18-12.44,5.18-16.73-0.61
							c-5.4-7.28,5.45-33.89,6.79-37.11c1.01-2.83,9.52-25.69,20.08-22.97c7.87,2.02,11.81,10.16,13.3,14.14
							c2.84-1.9,8.48-4.73,14.13-2.09c5.44,2.53,7.67,8.12,8.53,11.35c4-2.3,13.09-6.11,20.97,0.86c2.23,1.97,3.21,5.24,2.93,9.71
							c-0.92,14.56-15.69,40.76-24.64,46.86C1898.18,824.51,1896.42,825.12,1894.71,825.12z M1885.49,806.75l0.58,2.66
							c0.63,2.86,3.13,10.64,7.15,12.24c1.49,0.59,3.11,0.27,4.96-0.99c7.48-5.1,22.34-29.92,23.26-44.43
							c0.22-3.44-0.41-5.84-1.86-7.12c-8.39-7.43-18.54,0.28-18.96,0.61l-2.22,1.72l-0.34-2.79c-0.01-0.08-1.12-8.41-7.21-11.24
							c-5.94-2.77-12.48,2.95-12.55,3l-1.93,1.72l-0.67-2.5c-0.03-0.12-3.25-11.9-11.73-14.08c-6.6-1.69-14.17,15.01-16.3,21
							l-0.03,0.08c-4.52,10.81-10.47,29.61-7.19,34.02c4.08,5.5,15.09-1.67,15.2-1.74l4.68-3.09l-2.36,5.09
							c-0.01,0.02-1.8,4.65,5.54,11.77c7.24,7.02,19.82-4.01,19.95-4.12L1885.49,806.75z M1846.17,766.01h0.01H1846.17z"/>
					</g>
					<path class="st15" d="M1884.52,811.32c-0.14,0-0.28-0.02-0.43-0.06c-0.83-0.24-1.32-1.1-1.08-1.94
						c0.37-1.3,9.07-31.91,14.7-39.23c0.53-0.69,1.51-0.81,2.2-0.29c0.69,0.53,0.82,1.51,0.29,2.2
						c-5.26,6.84-14.08,37.86-14.17,38.17C1885.83,810.87,1885.21,811.32,1884.52,811.32z"/>
					<path class="st15" d="M1856.43,803.6c-0.21,0-0.42-0.04-0.62-0.13c-0.8-0.34-1.16-1.27-0.82-2.06
						c0.58-1.35,14.3-33.18,19.87-40.41c0.53-0.69,1.51-0.81,2.2-0.29c0.69,0.53,0.82,1.51,0.29,2.2
						c-5.33,6.92-19.33,39.41-19.47,39.74C1857.61,803.25,1857.03,803.6,1856.43,803.6z"/>
					<path class="st7" d="M1832.94,703.98c2.35,0.49,5.09,0.71,7.75,0.99c4.03,0.43,8.06,0.78,12.1,1.11
						c-0.22-25.96-2.33-48.29-8.78-50.14c-6.47-1.85-12.7,20.04-17.81,46.73C1828.45,703.08,1830.7,703.51,1832.94,703.98z"/>
					<path class="st7" d="M1826.44,742.1c8.56,0,17.13,0.51,25.65,1.37c0.42-10.53,0.71-21.78,0.71-32.6
						c-1.03-0.08-2.06-0.16-3.09-0.25c-6.13-0.52-12.42-0.87-18.45-2.1c-1.98-0.4-3.96-0.79-5.94-1.16
						c-2.1,11.44-3.98,23.52-5.61,34.86C1821.96,742.14,1824.2,742.1,1826.44,742.1z"/>
					<path class="st7" d="M1838.56,747.24c-6.49-0.34-13.02-0.49-19.52-0.19c-3.4,24.45-5.44,44.24-5.44,44.24l35.74-0.76
						c0,0,1.53-18.76,2.56-42.27C1847.46,747.82,1843.01,747.47,1838.56,747.24z"/>
					<path class="st15" d="M1804.12,853.17c-17.87-9.45-22.02-46.84,9.28-69.11c9.98,3.39,33.26,13.28,34.36,32.22
						C1848.98,837.34,1822.5,854.68,1804.12,853.17z"/>
					<path class="st7" d="M1797.94,837.06c0,0-25.75-53.34-11.65-74.49c14.1-21.15,89.8,12.77,89.8,12.77s0.35,13.64-19.59,15.39
						c-14.6,1.28-37.46-4.95-37.46-4.95s19.9,18.66,15.76,33.17S1809.12,855.42,1797.94,837.06z"/>
					<path class="st15" d="M1853.54,791.48c-14.6,0-31.72-3.77-32.73-4c-0.85-0.19-1.38-1.03-1.19-1.87
						c0.19-0.85,1.03-1.38,1.87-1.19c0.34,0.08,34.08,7.51,46.24,1.75c6.27-2.97,6.87-8.54,6.85-10.68
						c-6.44-2.67-45.89-18.72-65.88-19.73c-0.87-0.04-1.53-0.78-1.49-1.65c0.04-0.86,0.8-1.54,1.65-1.49
						c22.26,1.12,65.99,19.56,67.84,20.35l0.82,0.35l0.12,0.88c0.47,3.49-0.71,11.07-8.57,14.8
						C1865.22,790.83,1859.59,791.48,1853.54,791.48z"/>
				</g>
			</g>
		</g>
	</g>
</g>
</svg>
