<?xml version="1.0" encoding="utf-8"?>
<!-- Generator: Adobe Illustrator 23.0.1, SVG Export Plug-In . SVG Version: 6.00 Build 0)  -->
<svg version="1.1" id="Layer_1" xmlns="http://www.w3.org/2000/svg" xmlns:xlink="http://www.w3.org/1999/xlink" x="0px" y="0px"
	 viewBox="0 0 4000 4000" style="enable-background:new 0 0 4000 4000;" xml:space="preserve">
<style type="text/css">
	.st0{opacity:0.2;}
	.st1{fill:#390075;}
	.st2{fill:#ED902B;}
	.st3{opacity:0.3;}
	.st4{fill:#EC1C24;}
	.st5{opacity:0.55;}
	.st6{fill:#FFFFFF;}
	.st7{fill:#262F6A;}
	.st8{fill:#F7C414;}
	.st9{fill:#FFDC9C;}
	.st10{fill:#00C3FF;}
	.st11{opacity:0.7;}
	.st12{opacity:0.8;}
	.st13{clip-path:url(#SVGID_2_);fill:#EC1C24;}
	.st14{clip-path:url(#SVGID_2_);fill:#EC1D24;}
	.st15{clip-path:url(#SVGID_2_);fill:#EC1E24;}
	.st16{clip-path:url(#SVGID_2_);fill:#EC1F24;}
	.st17{clip-path:url(#SVGID_2_);fill:#EC2024;}
	.st18{clip-path:url(#SVGID_2_);fill:#ED2124;}
	.st19{clip-path:url(#SVGID_2_);fill:#ED2224;}
	.st20{clip-path:url(#SVGID_2_);fill:#ED2324;}
	.st21{clip-path:url(#SVGID_2_);fill:#ED2424;}
	.st22{clip-path:url(#SVGID_2_);fill:#ED2524;}
	.st23{clip-path:url(#SVGID_2_);fill:#ED2624;}
	.st24{clip-path:url(#SVGID_2_);fill:#ED2724;}
	.st25{clip-path:url(#SVGID_2_);fill:#ED2824;}
	.st26{clip-path:url(#SVGID_2_);fill:#ED2924;}
	.st27{clip-path:url(#SVGID_2_);fill:#ED2A24;}
	.st28{clip-path:url(#SVGID_2_);fill:#EE2A24;}
	.st29{clip-path:url(#SVGID_2_);fill:#EE2B24;}
	.st30{clip-path:url(#SVGID_2_);fill:#EE2C24;}
	.st31{clip-path:url(#SVGID_2_);fill:#EE2D24;}
	.st32{clip-path:url(#SVGID_2_);fill:#EE2E24;}
	.st33{clip-path:url(#SVGID_2_);fill:#EE2F24;}
	.st34{clip-path:url(#SVGID_2_);fill:#EE3024;}
	.st35{clip-path:url(#SVGID_2_);fill:#EE3124;}
	.st36{clip-path:url(#SVGID_2_);fill:#EE3224;}
	.st37{clip-path:url(#SVGID_2_);fill:#EE3225;}
	.st38{clip-path:url(#SVGID_2_);fill:#EF3325;}
	.st39{clip-path:url(#SVGID_2_);fill:#EF3425;}
	.st40{clip-path:url(#SVGID_2_);fill:#EF3525;}
	.st41{clip-path:url(#SVGID_2_);fill:#EF3625;}
	.st42{clip-path:url(#SVGID_2_);fill:#EF3725;}
	.st43{clip-path:url(#SVGID_2_);fill:#EF3825;}
	.st44{clip-path:url(#SVGID_2_);fill:#EF3925;}
	.st45{clip-path:url(#SVGID_2_);fill:#EF3A25;}
	.st46{clip-path:url(#SVGID_2_);fill:#EF3B25;}
	.st47{clip-path:url(#SVGID_2_);fill:#EF3C25;}
	.st48{clip-path:url(#SVGID_2_);fill:#F03D25;}
	.st49{clip-path:url(#SVGID_2_);fill:#F03E25;}
	.st50{clip-path:url(#SVGID_2_);fill:#F03F25;}
	.st51{clip-path:url(#SVGID_2_);fill:#F04025;}
	.st52{clip-path:url(#SVGID_2_);fill:#F04125;}
	.st53{clip-path:url(#SVGID_2_);fill:#F04225;}
	.st54{clip-path:url(#SVGID_2_);fill:#F04325;}
	.st55{clip-path:url(#SVGID_2_);fill:#F04425;}
	.st56{clip-path:url(#SVGID_2_);fill:#F04525;}
	.st57{clip-path:url(#SVGID_2_);fill:#F14625;}
	.st58{clip-path:url(#SVGID_2_);fill:#F14725;}
	.st59{clip-path:url(#SVGID_2_);fill:#F14825;}
	.st60{clip-path:url(#SVGID_2_);fill:#F14925;}
	.st61{clip-path:url(#SVGID_2_);fill:#F14A25;}
	.st62{clip-path:url(#SVGID_2_);fill:#F14B25;}
	.st63{clip-path:url(#SVGID_2_);fill:#F14C25;}
	.st64{clip-path:url(#SVGID_2_);fill:#F14D25;}
	.st65{clip-path:url(#SVGID_2_);fill:#F14E25;}
	.st66{clip-path:url(#SVGID_2_);fill:#F24F25;}
	.st67{clip-path:url(#SVGID_2_);fill:#F25025;}
	.st68{clip-path:url(#SVGID_2_);fill:#F25125;}
	.st69{clip-path:url(#SVGID_2_);fill:#F25225;}
	.st70{clip-path:url(#SVGID_2_);fill:#F25325;}
	.st71{clip-path:url(#SVGID_2_);fill:#F25425;}
	.st72{clip-path:url(#SVGID_2_);fill:#F25525;}
	.st73{clip-path:url(#SVGID_2_);fill:#F25625;}
	.st74{clip-path:url(#SVGID_2_);fill:#F25725;}
	.st75{clip-path:url(#SVGID_2_);fill:#F35825;}
	.st76{clip-path:url(#SVGID_2_);fill:#F35925;}
	.st77{clip-path:url(#SVGID_2_);fill:#F35A25;}
	.st78{clip-path:url(#SVGID_2_);fill:#F35C25;}
	.st79{clip-path:url(#SVGID_2_);fill:#F35D25;}
	.st80{clip-path:url(#SVGID_2_);fill:#F35E26;}
	.st81{clip-path:url(#SVGID_2_);fill:#F35F26;}
	.st82{clip-path:url(#SVGID_2_);fill:#F36026;}
	.st83{clip-path:url(#SVGID_2_);fill:#F46126;}
	.st84{clip-path:url(#SVGID_2_);fill:#F46226;}
	.st85{clip-path:url(#SVGID_2_);fill:#F46426;}
	.st86{clip-path:url(#SVGID_2_);fill:#F46526;}
	.st87{clip-path:url(#SVGID_2_);fill:#F46626;}
	.st88{clip-path:url(#SVGID_2_);fill:#F46726;}
	.st89{clip-path:url(#SVGID_2_);fill:#F46826;}
	.st90{clip-path:url(#SVGID_2_);fill:#F46A26;}
	.st91{clip-path:url(#SVGID_2_);fill:#F56B26;}
	.st92{clip-path:url(#SVGID_2_);fill:#F56C26;}
	.st93{clip-path:url(#SVGID_2_);fill:#F56D26;}
	.st94{clip-path:url(#SVGID_2_);fill:#F56F26;}
	.st95{clip-path:url(#SVGID_2_);fill:#F57026;}
	.st96{clip-path:url(#SVGID_2_);fill:#F57126;}
	.st97{clip-path:url(#SVGID_2_);fill:#F57226;}
	.st98{clip-path:url(#SVGID_2_);fill:#F67426;}
	.st99{clip-path:url(#SVGID_2_);fill:#F67526;}
	.st100{clip-path:url(#SVGID_2_);fill:#F67626;}
	.st101{clip-path:url(#SVGID_2_);fill:#F67726;}
	.st102{clip-path:url(#SVGID_2_);fill:#F67926;}
	.st103{clip-path:url(#SVGID_2_);fill:#F67A26;}
	.st104{clip-path:url(#SVGID_2_);fill:#F67B26;}
	.st105{clip-path:url(#SVGID_2_);fill:#F77D26;}
	.st106{clip-path:url(#SVGID_2_);fill:#F77E26;}
	.st107{clip-path:url(#SVGID_2_);fill:#F77F26;}
	.st108{clip-path:url(#SVGID_2_);fill:#F78126;}
	.st109{clip-path:url(#SVGID_2_);fill:#F78226;}
	.st110{clip-path:url(#SVGID_2_);fill:#F78426;}
	.st111{clip-path:url(#SVGID_2_);fill:#F78526;}
	.st112{clip-path:url(#SVGID_2_);fill:#F88626;}
	.st113{clip-path:url(#SVGID_2_);fill:#F88826;}
	.st114{clip-path:url(#SVGID_2_);fill:#F88927;}
	.st115{clip-path:url(#SVGID_2_);fill:#F88A27;}
	.st116{clip-path:url(#SVGID_2_);fill:#F88C27;}
	.st117{clip-path:url(#SVGID_2_);fill:#F88D27;}
	.st118{clip-path:url(#SVGID_2_);fill:#F98F27;}
	.st119{clip-path:url(#SVGID_2_);fill:#F99027;}
	.st120{clip-path:url(#SVGID_2_);fill:#F99227;}
	.st121{clip-path:url(#SVGID_2_);fill:#F99327;}
	.st122{clip-path:url(#SVGID_2_);fill:#F99427;}
	.st123{clip-path:url(#SVGID_2_);fill:#F99627;}
	.st124{clip-path:url(#SVGID_2_);fill:#F99727;}
	.st125{clip-path:url(#SVGID_2_);fill:#FA9927;}
	.st126{clip-path:url(#SVGID_2_);fill:#FA9A27;}
	.st127{clip-path:url(#SVGID_2_);fill:#FA9C27;}
	.st128{clip-path:url(#SVGID_2_);fill:#FA9D27;}
	.st129{clip-path:url(#SVGID_2_);fill:#FA9F27;}
	.st130{clip-path:url(#SVGID_2_);fill:#FAA027;}
	.st131{clip-path:url(#SVGID_2_);fill:#FBA227;}
	.st132{clip-path:url(#SVGID_2_);fill:#FBA327;}
	.st133{clip-path:url(#SVGID_2_);fill:#FBA527;}
	.st134{clip-path:url(#SVGID_2_);fill:#FBA627;}
	.st135{clip-path:url(#SVGID_2_);fill:#FBA827;}
	.st136{clip-path:url(#SVGID_2_);fill:#FBAA27;}
	.st137{clip-path:url(#SVGID_2_);fill:#FCAB27;}
	.st138{clip-path:url(#SVGID_2_);fill:#FCAD27;}
	.st139{clip-path:url(#SVGID_2_);fill:#FCAE27;}
	.st140{clip-path:url(#SVGID_2_);fill:#FCB027;}
	.st141{clip-path:url(#SVGID_2_);fill:#FCB127;}
	.st142{clip-path:url(#SVGID_2_);fill:#FCB327;}
	.st143{clip-path:url(#SVGID_2_);fill:#FDB528;}
	.st144{clip-path:url(#SVGID_2_);fill:#FDB628;}
	.st145{clip-path:url(#SVGID_2_);fill:#FDB828;}
	.st146{clip-path:url(#SVGID_2_);fill:#FDB928;}
	.st147{clip-path:url(#SVGID_2_);fill:#FDBB28;}
	.st148{clip-path:url(#SVGID_2_);fill:#FEBD28;}
	.st149{clip-path:url(#SVGID_2_);fill:#FEBE28;}
	.st150{clip-path:url(#SVGID_2_);fill:#FEC028;}
	.st151{clip-path:url(#SVGID_2_);fill:#FEC228;}
	.st152{clip-path:url(#SVGID_2_);fill:#FEC328;}
	.st153{clip-path:url(#SVGID_2_);fill:#FEC528;}
	.st154{clip-path:url(#SVGID_2_);fill:#FFC728;}
	.st155{clip-path:url(#SVGID_2_);fill:#FFC828;}
	.st156{clip-path:url(#SVGID_2_);fill:#FFCA28;}
	.st157{opacity:0.5;}
	.st158{fill:#FFD553;}
	.st159{fill:#00AAFF;}
	.st160{opacity:0.6;}
	.st161{opacity:0.35;}
	.st162{fill:#D25658;}
	.st163{fill:#371A45;}
	.st164{fill:#6BD6F0;}
</style>
<g>
	<g>
		<g class="st0">
			<path class="st1" d="M2665.5,3443.13c29,19.07,44.77,39.54,44.77,60.88c0,102.75-366.05,185.99-817.67,185.99
				c-451.56,0-817.67-83.24-817.67-185.99c0-24.42,20.66-47.7,58.18-69.04c-208.66-52.62-338.25-126.14-338.25-207.44
				c0-160.06,502.03-289.82,1121.34-289.82c619.25,0,1121.28,129.76,1121.28,289.82C3037.48,3313.16,2893.85,3390.08,2665.5,3443.13
				z"/>
		</g>
		<g>
			<polygon class="st2" points="2733.27,2132.77 1890.4,2441.72 1103.31,2132.77 1890.4,1823.82 			"/>
		</g>
		<g class="st0">
			<polygon class="st1" points="2733.27,2132.77 1890.4,2441.72 1103.31,2132.77 1890.4,1823.82 			"/>
		</g>
		<g class="st3">
			<polygon class="st1" points="2733.27,2132.77 1890.4,2441.72 1890.4,1823.82 			"/>
		</g>
		<g>
			<path class="st1" d="M1890.4,2463.33c-2.68,0-5.36-0.5-7.9-1.49l-787.09-308.95c-8.27-3.25-13.71-11.23-13.71-20.12
				c0-8.89,5.44-16.87,13.71-20.12l787.09-308.95c4.92-1.92,10.37-1.98,15.33-0.17l842.87,308.95c8.51,3.12,14.17,11.22,14.17,20.29
				s-5.66,17.17-14.17,20.29l-842.87,308.95C1895.44,2462.89,1892.92,2463.33,1890.4,2463.33z M1162.45,2132.77l728.21,285.84
				l779.82-285.84l-779.82-285.84L1162.45,2132.77z"/>
		</g>
		<g>
			<polygon class="st2" points="2733.27,2132.77 2733.27,3211.2 1890.4,3520.15 1103.31,3211.2 1103.31,2132.77 1890.4,2441.72 			
				"/>
		</g>
		<g>
			<path class="st4" d="M3401.89,2777c-13.18,0.16-25.88,3.89-38.14,10.53v0.05c-17.07,9.18-33.33,24.2-48.94,43.59
				c-14.04,17.39-27.6,38.3-40.84,61.64c-19.39,34.3-49.1,62.01-85.62,76.82c-104.58,42.35-147.04-30.14-168.22-136.89
				c-1.19-5.78-2.27-11.67-3.3-17.61c-14.15-81.57-77.41-139.86-150.98-154.71l-0.05-0.05c-40.68-8.26-84.49-3.24-124.84,18.47
				c-2.59,1.4-5.19,2.86-7.67,4.32l-0.32-109.39l102.42-44.19c0,0,0,0,0.05-0.05l7.29-3.13c24.85,1.94,47.97,8.64,68.77,21.5
				c24.58,15.13,45.97,38.73,63.37,73.03c12.64,24.96,20.69,51.91,24.96,79.57c0.43,2.49,0.81,5.02,1.13,7.51
				c5.67,42.51,18.53,79.3,36.03,106.58c36.52,57.1,93.02,72.49,144.72,11.29c11.67-13.83,20.31-29.87,26.9-46.67
				c3.67-9.35,7.62-18.2,11.83-26.58c24.9-50.02,58.23-81.3,95.07-78.33c7.94,0.65,16.04,2.86,24.25,6.86
				c-17.39,20.26-29.87,41.59-30.9,65.47C3345.12,2741.67,3379.31,2742.59,3401.89,2777z"/>
			<path class="st1" d="M3133.17,2984.54c-15.25,0-29.09-3.33-41.4-9.98c-35.34-19.08-58.94-63.98-74.28-141.28
				c-1.19-5.79-2.28-11.71-3.31-17.68c-13.38-77.09-71.8-136.96-148.86-152.52c-0.16-0.03-0.31-0.07-0.46-0.13
				c-42.24-8.49-84.62-2.17-122.62,18.29c-2.56,1.39-5.13,2.83-7.59,4.27c-0.84,0.48-1.87,0.49-2.7,0.02
				c-0.84-0.48-1.36-1.37-1.36-2.34l-0.32-109.39c0-1.08,0.64-2.06,1.63-2.49l102.16-44.07c0.1-0.06,0.21-0.12,0.31-0.17l7.29-3.14
				c0.4-0.17,0.84-0.26,1.28-0.21c26.26,2.06,49.8,9.43,69.98,21.9c25.82,15.89,47.48,40.82,64.36,74.11
				c12.23,24.15,20.71,51.19,25.22,80.38c0.43,2.47,0.81,5.05,1.14,7.57c5.5,41.25,17.82,77.72,35.63,105.47
				c19.22,30.05,43.65,47.52,68.78,49.19c24.32,1.54,49.14-11.59,71.6-38.19c10.61-12.57,19.27-27.6,26.45-45.91
				c3.68-9.35,7.69-18.37,11.93-26.8c27.06-54.36,61.74-82.71,97.71-79.81c8.44,0.69,16.93,3.08,25.22,7.13
				c0.75,0.37,1.29,1.06,1.46,1.88c0.17,0.82-0.05,1.68-0.6,2.31c-18.72,21.8-28.33,41.16-30.04,60.6
				c34.63-4.4,69.46-2.93,92.37,31.99c0.54,0.83,0.59,1.88,0.13,2.75s-1.37,1.42-2.35,1.43c-12.12,0.15-24.39,3.51-36.48,10
				c-0.13,0.1-0.26,0.19-0.41,0.27c-15.89,8.55-32.08,22.98-48.12,42.91c-13.21,16.37-26.49,36.41-40.59,61.28
				c-20.22,35.75-51.1,63.45-86.96,77.99C3168.96,2980.4,3150.18,2984.54,3133.17,2984.54z M2866.79,2657.86
				c79.05,16.13,138.97,77.64,152.71,156.81c1.02,5.92,2.1,11.78,3.28,17.53c15,75.63,37.74,119.34,71.55,137.6
				c24.91,13.44,55.33,12.57,93.01-2.68c34.73-14.08,64.66-40.95,84.29-75.64c14.25-25.13,27.69-45.41,41.09-62
				c16.59-20.61,32.74-35.03,49.36-44.05c0.12-0.11,0.26-0.2,0.4-0.27c11.36-6.16,22.91-9.72,34.41-10.64
				c-20.66-27.93-50.1-30.35-87.64-25.21c-0.79,0.09-1.59-0.14-2.19-0.68c-0.59-0.54-0.91-1.31-0.88-2.11
				c0.9-20.98,10.21-41.51,29.24-64.38c-6.66-2.87-13.41-4.59-20.11-5.14c-33.56-2.68-66.42,24.58-92.44,76.84
				c-4.17,8.3-8.12,17.17-11.73,26.36c-7.4,18.88-16.35,34.39-27.35,47.43c-23.62,27.96-49.92,41.82-76.09,40.09
				c-26.89-1.78-52.8-20.13-72.97-51.66c-18.23-28.41-30.83-65.65-36.43-107.68c-0.32-2.45-0.69-4.96-1.12-7.4
				c-4.42-28.68-12.73-55.17-24.7-78.81c-16.42-32.39-37.41-56.59-62.37-71.96c-19.27-11.91-41.78-19-66.9-21.06l-6.41,2.76
				c-0.1,0.06-0.21,0.12-0.31,0.17l-100.78,43.48l0.3,102.96c1.23-0.69,2.46-1.37,3.7-2.04c39.25-21.12,83.04-27.62,126.67-18.75
				C2866.49,2657.76,2866.64,2657.8,2866.79,2657.86z"/>
		</g>
		<g class="st5">
			<polygon class="st6" points="2733.27,2132.77 2733.27,3211.2 2672.15,3233.59 2672.15,2155.16 			"/>
		</g>
		<g>
			<polygon class="st2" points="1890.4,2441.72 1890.4,3520.15 1880.68,3516.33 1103.31,3211.2 1103.31,2132.77 			"/>
		</g>
		<g>
			<path class="st1" d="M1890.4,3541.76c-2.68,0-5.36-0.5-7.9-1.49l-787.09-308.95c-8.27-3.25-13.71-11.23-13.71-20.12V2132.77
				c0-7.14,3.53-13.83,9.44-17.85c5.9-4.02,13.42-4.86,20.07-2.26l779.45,305.96l835.17-306.13c6.63-2.43,14.03-1.47,19.81,2.57
				c5.79,4.04,9.23,10.66,9.23,17.72V3211.2c0,9.06-5.66,17.17-14.17,20.29l-842.87,308.95
				C1895.44,3541.32,1892.92,3541.76,1890.4,3541.76z M1124.92,3196.46l765.74,300.58l821-300.94V2163.7l-813.82,298.31
				c-4.96,1.81-10.42,1.75-15.33-0.17l-757.58-297.38V3196.46z"/>
		</g>
		<g>
			<path class="st1" d="M1890.4,3541.76c-11.93,0-21.61-9.68-21.61-21.61V2441.72c0-11.93,9.67-21.61,21.61-21.61
				c11.93,0,21.61,9.68,21.61,21.61v1078.43C1912.01,3532.08,1902.33,3541.76,1890.4,3541.76z"/>
		</g>
		<g class="st3">
			<polygon class="st7" points="2733.27,2566.52 2733.27,2678.64 2167.16,2886.15 1890.4,2638.71 1890.4,2447.86 1895.18,2446.11 
				2230.91,2750.68 			"/>
			<path class="st1" d="M2166.57,2889.24l-1.21-1.08l-277.66-248.24v-193.95l8.08-2.97l335.73,304.57l504.45-184.93v117.88
				l-1.77,0.65L2166.57,2889.24z M1893.1,2637.51l274.65,245.55l562.82-206.31v-106.36l-500.26,183.39l-1.21-1.1l-334.52-303.47
				l-1.47,0.54V2637.51z"/>
		</g>
		<g class="st3">
			<path class="st7" d="M1883.79,3498.08c0,0-1.12,6.69-3.11,18.25l-777.36-305.13v-641.57l66.94,26.3l408.64,160.25l-132.76,140.57
				l-202.09-79.21C1370.11,3123.06,1578.66,3354.08,1883.79,3498.08z"/>
			<path class="st1" d="M1882.78,3520.05l-782.17-307.01v-647.37l70.63,27.74l412.37,161.71l-136.76,144.81l-197.87-77.56
				c128.74,308.37,342.68,534.86,635.96,673.26l1.85,0.88l-0.34,2.01c0,0-1.11,6.7-3.11,18.27L1882.78,3520.05z M1106.02,3209.36
				l772.56,303.24c1.05-6.13,1.8-10.57,2.21-12.96c-295.44-139.95-510.5-369.09-639.24-681.08l-2.42-5.86l206.29,80.86
				l128.76-136.34l-468.17-183.64V3209.36z"/>
		</g>
		<g>
			<polygon class="st2" points="2733.25,2132.77 1890.4,1823.83 2280.07,1839.77 3122.92,2148.71 			"/>
		</g>
		<g>
			<path class="st1" d="M3122.93,2170.32c-0.3,0-0.59-0.01-0.89-0.02l-389.67-15.94c-2.24-0.09-4.45-0.53-6.55-1.3l-842.85-308.93
				c-9.99-3.66-15.83-14.06-13.76-24.5c2.08-10.44,11.53-17.99,22.08-17.38l389.67,15.93c2.24,0.09,4.45,0.53,6.55,1.3
				l842.85,308.94c9.99,3.66,15.83,14.06,13.76,24.5C3142.1,2163.06,3133.19,2170.32,3122.93,2170.32z M2737.51,2111.32
				l248.32,10.16l-710.03-260.25l-248.32-10.15L2737.51,2111.32z"/>
		</g>
		<g>
			<polygon class="st2" points="1103.33,2132.77 1890.4,1823.83 1474.17,1849.73 687.1,2158.67 			"/>
		</g>
		<g>
			<path class="st1" d="M687.09,2180.28c-10.06,0-18.88-6.99-21.08-16.94c-2.3-10.39,3.3-20.9,13.2-24.79l787.07-308.93
				c2.1-0.82,4.31-1.31,6.55-1.45l416.23-25.9c10.63-0.62,20.14,6.51,22.44,16.89c2.3,10.39-3.3,20.9-13.2,24.79l-787.07,308.93
				c-2.1,0.82-4.31,1.31-6.55,1.45l-416.23,25.9C687.99,2180.26,687.54,2180.28,687.09,2180.28z M1103.33,2132.77h0.05H1103.33z
				 M1478.9,1871.09l-655.97,257.48l275.67-17.15l655.97-257.48L1478.9,1871.09z"/>
		</g>
		<g>
			<g>
				<path class="st8" d="M1504.62,2362.37l-124.53,26.65c-17.67,3.78-35.06-7.48-38.84-25.15l-124.3-580.86
					c-3.78-17.67,7.48-35.06,25.15-38.84l124.53-26.65c17.67-3.78,35.06,7.48,38.84,25.15l124.3,580.86
					C1533.55,2341.2,1522.29,2358.59,1504.62,2362.37z"/>
			</g>
			<g class="st3">
				<path class="st1" d="M1539.18,2329.25c-1.09,14.03-11.27,26.3-25.78,29.41l-124.52,26.65c-17.65,3.78-35.06-7.5-38.84-25.14
					l-124.3-580.88c-3.07-14.34,3.78-28.51,15.91-35.34c-0.26,3.09-0.07,6.26,0.61,9.47l97.65,456.33
					c18.5,86.45,103.55,141.55,190.01,123.05C1533.26,2332.07,1536.35,2330.88,1539.18,2329.25z"/>
			</g>
			<g class="st5">
				<path class="st6" d="M1401.1,1751.15l124.3,580.88c3.09,14.44-3.91,28.75-16.25,35.52l-96.32-450.12
					c-32.95-3.25-46.3-65.61-17.56-82.07l-16.16-75.52c-1.77-8.27-9.92-13.55-18.19-11.78l-148.71,31.82
					c1.92-13.12,11.78-24.29,25.51-27.23l124.52-26.65C1379.91,1722.23,1397.32,1733.5,1401.1,1751.15z"/>
			</g>
			<g>
				<path class="st1" d="M1373.24,2405.95c-22.58,0-42.92-15.75-47.83-38.69l-124.3-580.86c-2.74-12.78-0.33-25.86,6.77-36.83
					c7.1-10.97,18.05-18.52,30.83-21.26l124.53-26.65c12.77-2.74,25.86-0.33,36.83,6.77c10.97,7.11,18.52,18.06,21.25,30.83
					l124.3,580.85c5.65,26.38-11.22,52.44-37.6,58.09h0l-124.53,26.65C1380.05,2405.6,1376.62,2405.95,1373.24,2405.95z
					 M1373.51,1732.99c-1.16,0-2.33,0.12-3.49,0.37l-124.53,26.65c-8.9,1.9-14.6,10.7-12.69,19.6l124.3,580.86
					c1.91,8.91,10.69,14.62,19.61,12.69l124.53-26.65c8.9-1.9,14.6-10.7,12.69-19.6l-124.3-580.85c-0.93-4.32-3.47-8.01-7.17-10.41
					C1379.74,1733.9,1376.66,1732.99,1373.51,1732.99z M1504.62,2362.37h0.05H1504.62z"/>
			</g>
			<g>
				<g>
					<g>
						<path class="st1" d="M1225.15,1832.17c-4.99,0-9.47-3.47-10.55-8.55c-1.25-5.84,2.47-11.58,8.31-12.82l48.93-10.47
							c5.81-1.25,11.58,2.46,12.82,8.3s-2.47,11.58-8.31,12.82l-48.93,10.47C1226.66,1832.09,1225.9,1832.17,1225.15,1832.17z"/>
					</g>
					<g>
						<path class="st1" d="M1240.34,1903.18c-4.99,0-9.47-3.47-10.55-8.55c-1.25-5.84,2.47-11.58,8.3-12.82l48.93-10.47
							c5.85-1.26,11.58,2.46,12.83,8.3c1.25,5.84-2.47,11.58-8.3,12.82l-48.93,10.47
							C1241.85,1903.1,1241.09,1903.18,1240.34,1903.18z"/>
					</g>
					<g>
						<path class="st1" d="M1255.54,1974.18c-4.99,0-9.47-3.47-10.55-8.55c-1.25-5.84,2.47-11.58,8.3-12.82l83.24-17.81
							c5.84-1.26,11.58,2.46,12.83,8.3c1.25,5.84-2.47,11.58-8.3,12.82l-83.24,17.81
							C1257.05,1974.1,1256.29,1974.18,1255.54,1974.18z"/>
					</g>
					<g>
						<path class="st1" d="M1270.73,2045.18c-4.99,0-9.47-3.47-10.55-8.55c-1.25-5.84,2.47-11.58,8.31-12.82l48.93-10.47
							c5.82-1.27,11.58,2.46,12.82,8.3c1.25,5.84-2.47,11.58-8.31,12.82l-48.93,10.47
							C1272.24,2045.1,1271.48,2045.18,1270.73,2045.18z"/>
					</g>
					<g>
						<path class="st1" d="M1285.92,2116.19c-4.99,0-9.47-3.47-10.55-8.55c-1.25-5.84,2.47-11.58,8.3-12.82l48.93-10.47
							c5.84-1.26,11.58,2.46,12.83,8.3s-2.47,11.58-8.3,12.82l-48.93,10.47C1287.43,2116.11,1286.67,2116.19,1285.92,2116.19z"/>
					</g>
					<g>
						<path class="st1" d="M1301.12,2187.19c-4.99,0-9.47-3.47-10.55-8.55c-1.25-5.84,2.47-11.58,8.3-12.82l83.24-17.81
							c5.85-1.26,11.58,2.46,12.83,8.3s-2.47,11.58-8.3,12.82l-83.24,17.81C1302.63,2187.11,1301.87,2187.19,1301.12,2187.19z"/>
					</g>
					<g>
						<path class="st1" d="M1316.31,2258.2c-4.99,0-9.47-3.47-10.55-8.55c-1.25-5.84,2.47-11.58,8.3-12.82l48.93-10.47
							c5.83-1.27,11.58,2.46,12.83,8.3c1.25,5.84-2.47,11.58-8.3,12.82l-48.93,10.47C1317.82,2258.12,1317.06,2258.2,1316.31,2258.2
							z"/>
					</g>
				</g>
				<g>
					<path class="st1" d="M1330.33,2323.69c-4.99,0-9.47-3.47-10.55-8.55c-1.25-5.84,2.47-11.58,8.3-12.82l48.93-10.47
						c5.84-1.27,11.58,2.46,12.83,8.3c1.25,5.84-2.47,11.58-8.3,12.82l-48.93,10.47
						C1331.84,2323.61,1331.08,2323.69,1330.33,2323.69z"/>
				</g>
			</g>
		</g>
		<g>
			<polygon class="st2" points="1890.4,2441.72 1589.57,2760.48 802.49,2451.53 1081.24,2156.2 1103.31,2132.77 			"/>
		</g>
		<g class="st5">
			<polygon class="st6" points="1883.76,2441.72 1582.93,2760.48 1524.12,2737.37 1788.13,2457.66 1059.86,2171.82 1096.67,2132.77 
							"/>
		</g>
		<g>
			<path class="st1" d="M1589.57,2782.07c-2.65,0-5.32-0.49-7.89-1.49l-787.07-308.94c-6.68-2.62-11.62-8.39-13.19-15.4
				c-1.57-7,0.45-14.33,5.37-19.55l300.82-318.76c6.06-6.42,15.4-8.49,23.61-5.29l787.07,308.94c6.68,2.62,11.62,8.39,13.19,15.4
				c1.57,7-0.45,14.33-5.37,19.55l-300.83,318.76C1601.13,2779.7,1595.41,2782.07,1589.57,2782.07z M840.17,2443.1l743.71,291.92
				l268.86-284.88l-743.71-291.92L840.17,2443.1z"/>
		</g>
		<g class="st3">
			<path class="st7" d="M1589.57,2760.48l-787.09-308.95l278.75-295.33c14.02,1.51,22.07,2.47,22.07,2.47
				C992.87,2370.88,1198.14,2569.7,1589.57,2760.48z"/>
			<path class="st1" d="M1588.59,2762.99l-790.81-310.41l282.42-299.21l1.33,0.14c14.04,1.52,22.1,2.47,22.1,2.47l3.88,0.46
				l-1.81,3.47c-31.95,61.38-37.81,123.84-17.41,185.65c44.34,134.39,208.7,269.31,502.46,412.49L1588.59,2762.99z M807.2,2450.47
				l727.05,285.39c-261.32-133.91-409.08-261.3-451.08-388.61c-20.48-62.07-15.1-124.75,15.97-186.35
				c-3.48-0.4-9.22-1.05-16.85-1.88L807.2,2450.47z"/>
		</g>
		<g>
			<g>
				<path class="st9" d="M2564.22,1750.9l-231.38,404.66c-12.42,21.71-40.03,29.2-61.69,16.81c-21.67-12.39-29.22-39.98-16.81-61.69
					l231.38-404.66l99.02-82.08L2564.22,1750.9z"/>
				<path class="st1" d="M2293.51,2181.02c-8.06,0-16.22-2.03-23.7-6.31c-22.93-13.12-30.92-42.45-17.81-65.39l231.62-405.08
					l104.93-86.98l-21.99,134.98l-231.38,404.65C2326.35,2172.35,2310.15,2181.02,2293.51,2181.02z M2487.82,1707.78l-231.14,404.23
					c-11.63,20.35-4.54,46.38,15.81,58.01c20.34,11.64,46.37,4.55,58.01-15.8l231.14-404.23l19.29-119.39L2487.82,1707.78z"/>
			</g>
			<g>
				<path class="st4" d="M2360.41,2107.35l-27.56,48.21c-12.42,21.71-40.03,29.2-61.69,16.81c-21.67-12.39-29.22-39.98-16.81-61.69
					l27.56-48.21C2267.61,2087.46,2346.11,2132.34,2360.41,2107.35z"/>
				<path class="st1" d="M2293.51,2181.02c-8.06,0-16.22-2.03-23.7-6.31c-22.93-13.12-30.92-42.45-17.81-65.39l27.55-48.18
					c0.01-0.01,0.01-0.02,0.02-0.03l0,0c0.74-1.3,2.4-1.74,3.69-1.01c1.29,0.74,1.74,2.4,1,3.69l-0.01,0.02
					c-6.14,10.77,9.2,27.01,27.53,37.49c18.34,10.49,40.12,15.46,46.28,4.72l0.01-0.01l0,0c0.74-1.29,2.39-1.74,3.69-1.01
					c1.29,0.74,1.74,2.4,1,3.69l0,0c0,0.01-0.01,0.02-0.01,0.02l-27.56,48.19C2326.35,2172.35,2310.15,2181.02,2293.51,2181.02z
					 M2278.26,2074.26l-21.58,37.74c-11.63,20.35-4.54,46.38,15.81,58.01c20.34,11.64,46.37,4.55,58.01-15.8l21.58-37.74
					c-11.57,3-28.64-2.27-42.98-10.48C2294.75,2097.79,2281.56,2085.76,2278.26,2074.26z"/>
			</g>
			<g>
				<path class="st10" d="M2564.22,1750.9l-203.82,356.45c-14.29,25-92.79-19.89-78.5-44.89l203.82-356.45
					C2471.43,1731.01,2549.93,1775.9,2564.22,1750.9z"/>
			</g>
			<g class="st5">
				<path class="st6" d="M2564.22,1750.9l-231.38,404.66c-12.42,21.71-40.03,29.2-61.69,16.81c-5.16-2.95-9.52-6.75-13.02-11.18
					c17.72,2.42,35.97-5.88,45.41-22.39l231.38-404.66l12.89-79.56l36.94-30.65L2564.22,1750.9z"/>
			</g>
			<g>
				<path class="st1" d="M2293.48,2191.84c-9.87,0-19.87-2.49-29.04-7.73c0,0,0,0,0,0c-28.1-16.08-37.9-52.02-21.82-80.12
					l231.4-404.69c0.8-1.4,1.85-2.66,3.1-3.69l99.02-82.1c4.33-3.58,10.44-4.12,15.32-1.33c4.89,2.8,7.53,8.33,6.63,13.88
					l-20.52,126.98c-0.26,1.6-0.8,3.14-1.61,4.55l-231.4,404.69C2333.73,2181.21,2313.88,2191.84,2293.48,2191.84z M2277.84,2160.66
					c15.17,8.68,34.58,3.4,43.26-11.79l230.18-402.56l14.4-89.05l-69.45,57.58l-230.18,402.56
					C2257.38,2132.56,2262.67,2151.98,2277.84,2160.66L2277.84,2160.66z"/>
			</g>
			<g>
				<path class="st1" d="M2548.64,1771.74c-1.97,0-4.08-0.12-6.31-0.39c-10.61-1.25-22.97-5.67-34.79-12.43
					c-30.48-17.43-43.96-41.4-33.54-59.62c3.66-6.4,11.67-8.49,18.13-4.93c6.43,3.54,8.75,11.75,5.36,18.25
					c-0.1,2.71,6.55,13.19,23.47,22.86c17.08,9.77,29.56,10.09,31.66,8.57c3.7-6.47,11.9-8.65,18.37-4.96
					c6.48,3.7,8.66,12.02,4.96,18.49C2572.79,1763.13,2565.19,1771.74,2548.64,1771.74z"/>
			</g>
			<g>
				<path class="st1" d="M2344.5,2128.11c-11.8,0.01-25.93-4.23-40.78-12.72c-30.49-17.43-43.97-41.4-33.54-59.63
					c3.66-6.39,11.66-8.48,18.12-4.93c6.43,3.54,8.75,11.75,5.37,18.25c-0.1,2.7,6.54,13.18,23.45,22.85
					c17.1,9.78,29.59,10.11,31.68,8.58c3.7-6.48,11.89-8.65,18.37-4.96c6.48,3.7,8.66,12.02,4.96,18.49
					C2366.78,2123.41,2356.94,2128.11,2344.5,2128.11z"/>
			</g>
			<g>
				<path class="st1" d="M2537.01,1664.28c4.7,19.98,15.87,27.73,35.17,20.11l6.82-42.77L2537.01,1664.28z"/>
			</g>
		</g>
		<g>
			<polygon class="st2" points="2733.25,2132.77 1890.4,2441.71 2230.93,2750.64 3073.78,2441.71 			"/>
		</g>
		<g class="st5">
			<polygon class="st6" points="3073.78,2441.72 3006.76,2466.27 2722.59,2208.55 1946.82,2492.96 1890.4,2441.72 2733.27,2132.77 
							"/>
		</g>
		<g>
			<path class="st1" d="M2230.93,2772.25c-5.28,0-10.48-1.94-14.52-5.61l-340.53-308.94c-5.6-5.08-8.14-12.72-6.69-20.14
				c1.45-7.42,6.67-13.54,13.77-16.15l842.85-308.94c7.55-2.77,16-1.11,21.95,4.28l340.53,308.94c5.6,5.08,8.14,12.72,6.69,20.14
				c-1.45,7.42-6.67,13.54-13.77,16.15l-842.85,308.94C2235.94,2771.82,2233.43,2772.25,2230.93,2772.25z M1931.37,2449.7
				l304.39,276.16l797.04-292.15l-304.39-276.16L1931.37,2449.7z"/>
		</g>
		<g>
			<path class="st4" d="M1574.94,3396.34c-21.93,59.42-171.78,12.69-168.16-62.01c-1.57-44.89-14.64-89.35-38.19-126.73
				c0,0,0,0-0.05,0c-49.48-78.49-145.42-125.65-278.36-79.68c-31.49,10.86-61.42,25.98-89.13,44.46c-3.03,2-6,4.05-8.91,6.1
				c-223.48,157.41-400.5,60.72-475.21-83.84c0-0.05-0.05-0.05-0.05-0.05c-42.35-82-51.8-179.4-18.1-254.54l54.83,82.22
				c50.4-91.51,101.07-108.85,101.07-108.85c-42.84,73.09-43.32,152.39-16.1,220.13c27.33,68.12,82.7,124.46,151.26,150.82
				c72.12,27.71,152.61,13.78,214.03-31.93c5.56-4.11,10.91-8.48,16.15-13.13c236.93-210.73,436.86-79.14,517.78,109.23
				C1558.09,3295.75,1570.89,3346.48,1574.94,3396.34z"/>
			<path class="st1" d="M1524.66,3426.08c-7.83,0-16.29-0.89-25.22-2.71c-47.85-9.75-97.52-44.31-95.35-89.18
				c-1.58-44.93-14.56-88.15-37.54-124.78c-0.11-0.11-0.21-0.24-0.29-0.37c-56.3-89.32-159.18-118.7-275.2-78.56
				c-30.64,10.56-60.42,25.41-88.52,44.15c-3.01,1.99-5.96,4.03-8.86,6.07c-99.4,70.02-199.02,95.49-288.06,73.7
				c-79.36-19.43-148.96-77.1-190.98-158.26c-0.07-0.1-0.13-0.2-0.18-0.3c-44.03-85.26-51-183.69-18.16-256.88
				c0.4-0.9,1.26-1.5,2.24-1.59c0.95-0.11,1.93,0.38,2.47,1.2l52.38,78.53c49.59-88.01,98.33-105.52,100.4-106.23
				c1.07-0.36,2.25-0.03,2.97,0.85c0.71,0.87,0.81,2.1,0.24,3.07c-39.57,67.52-45.23,144.85-15.92,217.76
				c27.25,67.92,83.22,123.74,149.72,149.31c69.78,26.82,148.83,15.02,211.44-31.57c5.35-3.95,10.58-8.19,15.97-12.98
				c98.97-88.03,200.94-123.51,294.84-102.6c95.43,21.25,178.24,98.81,227.21,212.79c20.4,47.42,33.33,98.83,37.38,148.65
				c0.03,0.39-0.02,0.78-0.16,1.15C1570.61,3415.88,1551.21,3426.08,1524.66,3426.08z M1370.58,3205.77
				c0.11,0.12,0.21,0.25,0.29,0.38c23.64,37.52,36.99,81.82,38.61,128.08c-1.95,40.56,44.75,74.42,91.03,83.85
				c28.36,5.77,61.96,2.95,71.69-22.13c-4.06-49.06-16.81-99.65-36.9-146.35c-48.27-112.37-129.71-188.79-223.42-209.65
				c-92.14-20.51-192.46,14.54-290.08,101.37c-5.53,4.9-10.87,9.24-16.34,13.28c-64.09,47.7-145.07,59.76-216.6,32.28
				c-67.87-26.1-124.99-83.05-152.79-152.34c-28.87-71.83-24.53-147.86,12.06-215.06c-15.74,8.57-54.16,35.08-92.16,104.07
				c-0.46,0.83-1.31,1.35-2.25,1.4c-0.9-0.01-1.84-0.42-2.36-1.2l-52.08-78.09c-29.88,71.17-22.42,165.43,19.88,247.46
				c0.06,0.09,0.11,0.18,0.16,0.27h0.01c41.29,79.9,109.67,136.66,187.59,155.74c87.49,21.41,185.58-3.78,283.66-72.87
				c2.94-2.07,5.93-4.14,8.98-6.15c28.48-18.99,58.67-34.04,89.74-44.76C1207.66,3084.42,1312.79,3114.49,1370.58,3205.77z"/>
		</g>
		<g class="st5">
			<path class="st6" d="M654.66,2813.41c-16.31,27.87-26.79,40.97-31.65,69.66c-14.29,11.18-29.24,34.28-47.04,65.5
				c-9.75,17.11-33.71,19.01-46.08,3.69l-35.18-43.56c-7.18,16.04-12.42,33.06-15.77,50.78c-2.59-42.14,3.62-83.35,19.83-119.44
				l54.83,82.22C603.99,2830.75,654.66,2813.41,654.66,2813.41z"/>
		</g>
		<g class="st5">
			<path class="st6" d="M1578.09,3393.63c-5.4,14.64-18.53,22.8-35.17,25.71c-19.5-233.31-230.66-486.34-501.41-298.46
				C1329.23,2884.39,1558.27,3150.06,1578.09,3393.63z"/>
		</g>
		<g class="st5">
			<path class="st6" d="M611.45,2843.88c-17.07,16.53-37.49,41.38-57.86,78.38l-9.45-14.15
				C572.93,2868.24,598.81,2850.68,611.45,2843.88z"/>
			<path class="st1" d="M553.82,2927.45l-12.97-19.41l1.1-1.52c29.09-40.28,55.23-58.03,68.22-65.03l17.17-9.24l-14.01,13.57
				c-20.71,20.05-40.01,46.21-57.37,77.74L553.82,2927.45z M547.43,2908.17l5.95,8.91c12.41-22.04,25.8-41.43,39.98-57.91
				C580.68,2869.15,564.65,2884.61,547.43,2908.17z"/>
		</g>
		<g class="st5">
			<path class="st6" d="M1038.37,3123.59c-6.1,5.02-12.21,10.26-18.37,15.72c-10.16,9.02-20.96,17.07-32.25,24.09
				C1004.82,3148.33,1021.73,3135.15,1038.37,3123.59z"/>
			<path class="st1" d="M989.18,3165.7l-3.21-4.32c16.43-14.5,33.54-27.97,50.86-40.01l3.26,4.3c-5.8,4.77-11.78,9.9-18.29,15.66
				C1011.62,3150.36,1000.65,3158.56,989.18,3165.7z"/>
		</g>
		<g class="st5">
			<path class="st6" d="M3348.9,2789.33c7.22-16.43-40.93-16.56-65.35-15.61c-7.94,0.31-14.74-5.71-15.37-13.64
				c-4.85-61.53,31.77-80.31,31.77-80.31l0.7-3.67c7.94,0.65,16.04,2.86,24.25,6.86c-17.39,20.26-29.87,41.59-30.9,65.47
				c36.25-4.97,70.44-4.05,93.02,30.36C3373.85,2778.96,3361.16,2782.69,3348.9,2789.33z"/>
		</g>
		<g class="st5">
			<path class="st6" d="M2989.02,2700.51c-9.67,14.37-16.58,24.25-16.58,24.25c-29.28-108.85-81.57-167.3-147.85-195.17
				c0,0,0,0,0.05-0.05l7.29-3.13c24.85,1.94,47.97,8.64,68.77,21.5c24.58,15.13,45.97,38.73,63.37,73.03
				C2976.7,2645.89,2984.75,2672.85,2989.02,2700.51z"/>
		</g>
		<g>
			<path class="st1" d="M1524.69,3439.58c-8.75,0-18.09-0.98-27.92-2.98c-53.12-10.81-108.22-50.3-106.23-102.35
				c-2.69-72.89-36.41-138.43-90.28-175.42c-54.77-37.61-125.59-43.01-204.79-15.61c-32.74,11.33-64.37,27.65-94.01,48.52
				c-149.08,104.98-299.7,111.48-413.25,17.84c-109.9-90.63-156.66-259.38-104.23-376.18c2.41-5.38,7.56-9.03,13.44-9.51
				c5.88-0.49,11.55,2.25,14.83,7.15l40.53,60.75c48.3-76.4,94.51-92.96,96.63-93.68c6.4-2.2,13.51-0.17,17.8,5.08
				c4.29,5.24,4.86,12.61,1.43,18.45c-35.31,60.24-42.06,129.64-19.01,195.45c24.35,69.51,78.93,126.39,146.02,152.16
				c71.63,27.53,153.46,11.41,213.58-42.04c148.88-132.39,271.38-123.58,347.91-92.91c124.5,49.92,220.71,198.26,233.97,360.72
				c0.19,2.35-0.13,4.71-0.95,6.92C1581.21,3426.18,1557.11,3439.58,1524.69,3439.58z M1190.11,3093.5
				c57.2,0,99.66,18.8,128.49,38.61c62.47,42.89,101.48,118.27,104.35,201.64c0.02,0.45,0.01,0.9-0.01,1.34
				c-1.57,32.68,40.45,61.65,80.29,69.76c20.76,4.21,46.87,3.56,55.2-11.31c-13.54-149.08-100.86-284.06-213.37-329.17
				c-84.59-33.92-177.54-15.8-271.17,52.2c3.64-1.38,7.3-2.71,10.97-3.98C1124.33,3098.94,1159.36,3093.5,1190.11,3093.5z
				 M503.1,2875.73c-28.3,101.87,15.24,234.22,105.73,308.84c50.57,41.71,150.28,93.26,293.27,27.71
				c-39.43,5.88-79.97,1.85-118.09-12.79c-75.85-29.14-137.53-93.33-164.99-171.71c-19.08-54.47-20.23-111.1-4-164.32
				c-14.33,15.24-30.76,36.69-47.22,66.6c-2.73,4.96-7.85,8.14-13.51,8.38c-5.65,0.27-11.03-2.49-14.17-7.2L503.1,2875.73z"/>
		</g>
		<g>
			<path class="st1" d="M3133.12,2998.07c-17.87,0.01-34.17-4.05-48.78-12.18c-41.05-22.82-67.58-76.2-83.48-167.99
				c-9.68-55.91-44.75-102.34-96.19-127.37c-50.46-24.56-107.33-23.6-156.04,2.6c-2.41,1.3-4.79,2.64-7.13,4.02
				c-7.72,4.53-17.65,1.96-22.19-5.74c-4.54-7.71-1.97-17.65,5.74-22.19c2.69-1.58,5.43-3.13,8.21-4.63
				c58.02-31.21,125.66-32.38,185.6-3.21c25.66,12.48,48.13,29.94,66.33,50.93c-0.1-0.72-0.2-1.45-0.3-2.18
				c-4-30.14-12.23-57.68-24.48-81.86c-27.1-53.48-66-81.53-118.94-85.74c-8.92-0.71-15.58-8.51-14.87-17.44
				c0.71-8.92,8.51-15.63,17.44-14.87c64.23,5.11,113.11,39.9,145.28,103.4c13.9,27.44,23.22,58.48,27.69,92.25
				c9.68,73,42.32,129.7,81.21,141.08c29.48,8.6,54.92-12.4,71.1-31.55c9.62-11.4,17.55-25.18,24.22-42.14
				c15.98-40.6,44.32-92.62,88.55-109.88c21.08-8.23,43.48-7.13,64.75,3.2c4.52,2.19,7.77,6.36,8.79,11.28
				c1.02,4.92-0.3,10.04-3.57,13.85c-11.34,13.21-18.94,25.22-23.13,36.73c31.72-1.4,64.02,5.37,86.51,39.66
				c3.24,4.95,3.53,11.27,0.76,16.49c-2.77,5.22-8.17,8.52-14.09,8.6c-36.04,0.5-73.34,35.7-114.03,107.61
				c-21.73,38.41-55,68.18-93.67,83.85C3172.35,2993.6,3151.87,2998.07,3133.12,2998.07z M3039.16,2844.37
				c13.93,61.05,33.97,98.21,60.92,113.19c21.24,11.8,48.12,10.84,82.16-2.94c31.92-12.93,59.49-37.7,77.63-69.76
				c24.57-43.41,60.83-98.63,108.86-117.45c-15.1-8.01-34.16-7.93-57.67-4.7c-4.76,0.66-9.57-0.84-13.12-4.08
				c-3.55-3.24-5.49-7.88-5.28-12.69c0.81-18.65,7.16-36.7,19.73-55.61c-6.27-0.24-12.35,0.84-18.53,3.25
				c-25.63,10-51.21,43.38-70.17,91.56c-7.99,20.29-17.67,37.03-29.61,51.17c-31.64,37.47-68.9,52.3-104.96,41.74
				C3070.85,2872.72,3053.92,2861.04,3039.16,2844.37z"/>
		</g>
		<g class="st3">
			<path class="st7" d="M1003.85,3152.44c0,0-0.97,7.51-2.81,19.93c-3.03,2-6,4.05-8.91,6.1
				c-223.48,157.41-400.5,60.72-475.21-83.84c99.13,65.09,160.33,74.93,121.6-61.1h0.05c27.33,68.12,82.7,124.46,151.26,150.82
				C861.94,3212.07,942.43,3198.14,1003.85,3152.44z"/>
			<path class="st1" d="M769.2,3261.95c-21.67,0-42.9-2.51-63.57-7.57c-79.44-19.44-149.1-77.22-191.11-158.51l-4.73-9.15l8.61,5.65
				c61.63,40.47,100.1,53.91,117.62,41.02c15.44-11.34,15.4-44.69-0.1-99.11l-0.98-3.44h5.4l0.73,1.69
				c27.25,67.92,83.22,123.74,149.72,149.31c69.79,26.82,148.84,15.02,211.44-31.57l5.11-3.8l-0.82,6.32c0,0-0.97,7.53-2.81,19.98
				l-0.18,1.19l-1.01,0.67c-3,1.98-5.95,4.02-8.85,6.05C917.36,3234.44,840.89,3261.95,769.2,3261.95z M524.25,3102.6
				c41.69,75.05,107.76,128.2,182.66,146.53c87.49,21.41,185.58-3.78,283.66-72.87c2.61-1.84,5.27-3.68,7.97-5.48
				c0.75-5.12,1.35-9.34,1.78-12.47c-63.26,44.6-141.84,55.31-211.47,28.57c-59.25-22.79-110.31-69.09-140.83-126.59
				c8.78,41.24,5.85,66.68-8.82,77.46C620.31,3151.63,583.65,3140.48,524.25,3102.6z"/>
		</g>
		<g class="st3">
			<path class="st1" d="M3314.81,2831.18c-14.04,17.39-27.6,38.3-40.84,61.64c-19.39,34.3-49.1,62.01-85.62,76.82
				c-104.58,42.35-147.04-30.14-168.22-136.89c6-6.37,11.61-12.42,16.85-18.15c36.52,57.1,93.02,72.49,144.72,11.29
				c11.67-13.83,20.31-29.87,26.9-46.67c3.67-9.35,7.62-18.2,11.83-26.58C3189.32,2895.25,3229.95,2904.38,3314.81,2831.18z"/>
		</g>
		<g class="st3">
			<path class="st1" d="M2865.8,2660.37c-40.68-8.26-84.49-3.24-124.84,18.47c-2.59,1.4-5.19,2.86-7.67,4.32l-0.32-109.39
				l109.77-47.38c24.85,1.94,47.97,8.64,68.77,21.5C2822.04,2574.59,2806.76,2612.08,2865.8,2660.37z"/>
		</g>
		<g class="st3">
			<path class="st7" d="M1574.94,3396.34c-21.93,59.42-171.78,12.69-168.16-62.01c-1.57-44.89-14.64-89.35-38.19-126.73
				c83.08,123.44,142.23,148.55,169.19,40.95C1558.09,3295.75,1570.89,3346.48,1574.94,3396.34z"/>
			<path class="st1" d="M1524.66,3426.08c-7.83,0-16.29-0.89-25.22-2.71c-47.85-9.75-97.52-44.31-95.35-89.18
				c-1.58-45.08-14.65-88.44-37.78-125.16l4.53-2.95c51.27,76.17,91.81,112.24,120.49,107.22c19.05-3.33,33.8-25.34,43.84-65.42
				l1.94-7.75l3.16,7.34c20.4,47.42,33.33,98.83,37.38,148.65l0.05,0.59l-0.21,0.56
				C1570.61,3415.88,1551.21,3426.08,1524.66,3426.08z M1389.28,3241.49c12.17,28.84,19.07,60.3,20.2,92.74
				c-1.95,40.56,44.75,74.42,91.03,83.85c28.36,5.77,61.96,2.95,71.69-22.13c-3.85-46.52-15.52-94.42-33.84-139.07
				c-10.67,37.95-25.79,58.18-46.1,61.74C1465.49,3323.28,1431.66,3298.03,1389.28,3241.49z"/>
		</g>
		<g>
			<g>
				<path class="st10" d="M785.95,1193.13l93.24-141.29c10.26,11.19,21.85,21.21,34.69,29.69l45.69,30.15
					c9.73,6.42,18.25,14.46,25.19,23.84l14.43,19.39c5.36,7.26,5.64,17.13,0.68,24.65l-49.05,74.33
					c-4.96,7.52-14.15,11.14-22.93,9.07l-23.51-5.64c-11.35-2.69-22.09-7.36-31.82-13.78l-45.69-30.15
					C814.03,1204.91,800.28,1198.16,785.95,1193.13z"/>
			</g>
			<g class="st11">
				<path class="st6" d="M874.07,1057.74c10.26,11.19,21.85,21.21,34.69,29.69l45.69,30.15c9.73,6.42,18.25,14.46,25.19,23.84
					l14.43,19.39c5.36,7.26,5.64,17.13,0.68,24.65l-6.89,10.44c-0.13-4.32-1.54-8.6-4.22-12.23l-14.43-19.39
					c-6.94-9.38-15.46-17.42-25.19-23.84l-45.69-30.15c-12.84-8.47-24.43-18.5-34.69-29.69l-79.05,119.79
					c-1.27-0.47-2.52-0.92-3.76-1.36L874.07,1057.74z"/>
			</g>
			<g>
				<path class="st1" d="M808.76,1154.64c-2.22,0-4.48-0.5-6.6-1.56l-116.66-58.36c-3.78-1.89-6.57-5.31-7.66-9.39
					c-1.09-4.08-0.39-8.43,1.94-11.95l48.15-72.97c2.33-3.53,6.05-5.88,10.23-6.48c4.19-0.61,8.42,0.62,11.64,3.34l99.54,84.31
					c6.22,5.28,7,14.6,1.72,20.82c-5.27,6.23-14.59,6.99-20.82,1.73l-86.84-73.55l-29.81,45.18l101.77,50.92
					c7.29,3.65,10.25,12.52,6.6,19.82C819.39,1151.65,814.17,1154.64,808.76,1154.64z"/>
			</g>
			<g class="st12">
				<path class="st8" d="M779.56,908.3c28.12,18.55,47.92,44.98,58.43,74.41c8.54,23.88,21.11,45.96,37.41,64.86l-94.85,143.73
					c-23.65-7.55-48.7-10.49-73.86-8.85c-31.36,2.02-63.67-5.8-91.92-24.44c-68.72-45.35-87.84-137.71-42.89-206.59
					C616.97,882.33,710.75,862.89,779.56,908.3z"/>
				<path class="st1" d="M781.79,1194.79l-2.13-0.68c-23.23-7.42-47.71-10.39-72.77-8.71c-33.37,2.11-65.77-6.47-93.74-24.92
					c-69.84-46.09-89.46-140.6-43.73-210.68c22.23-34.07,56.6-57.42,96.79-65.76c40.2-8.33,81.03-0.59,114.97,21.81
					c27.8,18.34,48.4,44.58,59.59,75.88c8.58,24,20.98,45.5,36.86,63.92l1.46,1.7L781.79,1194.79z M720.32,1179.04
					c20.23,0,40,2.93,59,8.76l92.4-140.02c-15.66-18.59-27.94-40.14-36.5-64.09c-10.75-30.08-30.56-55.3-57.28-72.93l0,0
					c-32.62-21.53-71.87-28.96-110.52-20.95c-38.64,8.02-71.69,30.47-93.05,63.21c-43.95,67.36-25.09,158.21,42.04,202.51
					c26.89,17.75,58.04,26.09,90.1,23.95C711.13,1179.19,715.74,1179.04,720.32,1179.04z"/>
			</g>
			<g class="st3">
				<path class="st1" d="M853.58,1016.59c6.27,11.03,13.58,21.39,21.83,30.98l-94.85,143.73c-23.65-7.55-48.7-10.49-73.86-8.85
					c-31.36,2.02-63.67-5.8-91.92-24.44c-47.9-31.61-71.67-86.02-66.49-139.45c9.54,33.02,30.38,62.88,61.29,83.27
					c28.25,18.64,60.56,26.46,91.92,24.44c0.25-0.02,0.5-0.03,0.75-0.05c51.18-3.17,98.21-29.15,126.45-71.95L853.58,1016.59z"/>
			</g>
			<g class="st11">
				<path class="st6" d="M780.98,912.02c28.12,18.55,47.92,44.98,58.43,74.41c8.54,23.88,21.11,45.96,37.41,64.86l-7.71,8.99
					c-10.59-15.13-21.89-24.94-28.2-42.61c-10.52-29.42-30.32-55.85-58.43-74.41c-19.75-13.03-41.54-20.71-63.64-23.42
					c0.41,38.95-67.02,49.43-77.34,10.83c-26.42,11.19-49.91,30-66.69,55.7c-14.8,22.63-22.64,47.86-24.1,73.06
					c-5.37-35.11,1.72-72.23,22.6-104.3C618.39,886.05,712.17,866.61,780.98,912.02z"/>
			</g>
			<g>
				<path class="st1" d="M932.8,1278.3c-2.76,0-5.54-0.31-8.3-0.97l-23.57-5.64c-13.03-3.12-25.31-8.44-36.5-15.83l-45.69-30.15
					c-32.27-21.3-70.67-31.18-111.08-28.53c-35.91,2.34-70.85-6.95-101.01-26.84c-75.25-49.66-96.39-151.49-47.12-226.99
					c23.96-36.72,61-61.89,104.29-70.87c43.3-9,87.29-0.64,123.88,23.51c29.95,19.76,52.15,48.04,64.21,81.76
					c13.84,38.7,38.08,70.32,70.11,91.46l45.69,30.16c11.18,7.38,20.91,16.57,28.91,27.33l14.43,19.41
					c9.04,12.25,9.49,28.96,1.15,41.6l-49.05,74.33C956.36,1272.31,944.82,1278.3,932.8,1278.3z M720.42,1167.22
					c41.51,0,80.86,11.57,114.59,33.83l45.69,30.15c8.31,5.49,17.43,9.44,27.11,11.76l23.53,5.64c2.7,0.63,5.61-0.5,7.17-2.84
					l49.05-74.33c1.55-2.35,1.45-5.46-0.23-7.75l-14.4-19.37c-5.94-7.99-13.16-14.82-21.47-20.3l-45.7-30.16
					c-37.41-24.69-65.65-61.41-81.66-106.17c-9.88-27.65-28.09-50.84-52.66-67.05c0,0,0,0,0,0
					c-29.98-19.79-66.08-26.63-101.61-19.25c-35.54,7.38-65.92,28.01-85.55,58.1c-40.41,61.93-23.07,145.46,38.65,186.2
					c24.74,16.32,53.39,23.98,82.82,22.02C710.65,1167.38,715.55,1167.22,720.42,1167.22z"/>
			</g>
			<g>
				<path class="st1" d="M780.54,1203.14c-2.24,0-4.49-0.63-6.5-1.95c-5.45-3.6-6.95-10.93-3.35-16.37l94.87-143.75
					c3.59-5.45,10.93-6.93,16.37-3.36c5.45,3.6,6.95,10.93,3.35,16.37l-94.87,143.75C788.15,1201.27,784.38,1203.14,780.54,1203.14z
					"/>
			</g>
			<g>
				<path class="st1" d="M837.76,1263.88c-1.72,0-3.47-0.3-5.18-0.94c-7.64-2.86-11.51-11.37-8.65-19.01l74.11-197.9
					c2.86-7.64,11.37-11.5,19.01-8.65c7.64,2.86,11.51,11.37,8.65,19.01l-74.11,197.9C849.37,1260.22,843.74,1263.88,837.76,1263.88
					z"/>
			</g>
			<g>
				<path class="st1" d="M893.51,1297.02c-1.72,0-3.47-0.3-5.18-0.94c-7.64-2.86-11.51-11.37-8.65-19.01l71.97-192.16
					c2.86-7.64,11.37-11.49,19.01-8.65c7.64,2.86,11.51,11.37,8.65,19.01l-71.97,192.16
					C905.12,1293.36,899.49,1297.02,893.51,1297.02z"/>
			</g>
			<g class="st3">
				<path class="st1" d="M976.5,1214.97l-25.68,38.91c-4.96,7.52-14.15,11.14-22.93,9.07l-23.51-5.64
					c-11.35-2.69-22.09-7.36-31.82-13.78l-45.69-30.15c-12.84-8.47-26.59-15.22-40.92-20.25l11.26-17.06l-6.96,0.53l48.94-74.17
					c-13.41,28.02-14.25,52.28,9.36,69.48l0.19,0.13c1.28,0.75,2.54,1.58,3.8,2.42l45.69,30.15c9.73,6.42,20.47,11.09,31.82,13.78
					l23.51,5.64C962.35,1226.12,971.54,1222.5,976.5,1214.97z"/>
			</g>
		</g>
		<g>
			<g>
				<polygon class="st8" points="3057.6,987.5 2927.8,989.86 2846.81,991.36 3005.14,780.14 				"/>
			</g>
			<g class="st5">
				<polygon class="st6" points="3057.6,987.5 3025.32,988.06 2980.91,812.49 3005.14,780.14 				"/>
			</g>
			<g>
				<path class="st1" d="M2846.81,1004.86c-5.06,0-9.71-2.84-12.02-7.36c-2.35-4.59-1.88-10.12,1.22-14.25l158.32-211.21
					c3.12-4.17,8.35-6.2,13.46-5.14c5.1,1.02,9.16,4.88,10.44,9.93l52.46,207.36c1.01,4,0.14,8.24-2.36,11.51
					c-2.5,3.28-6.36,5.23-10.49,5.3l-210.78,3.86C2846.98,1004.86,2846.9,1004.86,2846.81,1004.86z M2998.98,810.87L2874.2,977.34
					l166.14-3.04L2998.98,810.87z"/>
			</g>
			<g>
				<polygon class="st8" points="3005.14,780.14 2767.53,991.49 2613.36,1005.58 				"/>
			</g>
			<g class="st5">
				<polygon class="st6" points="3009.11,779.21 2771.5,990.56 2617.33,1004.65 2617.77,1004.4 2720.1,995.03 2877.79,854.8 				"/>
			</g>
			<g>
				<path class="st1" d="M2613.35,1019.08c-5.84,0-11.08-3.78-12.87-9.43c-1.92-6.05,0.64-12.62,6.14-15.78l391.77-225.44
					c6-3.46,13.64-1.81,17.69,3.81c4.05,5.62,3.2,13.38-1.98,17.99l-237.61,211.35c-2.16,1.92-4.87,3.09-7.75,3.36l-154.16,14.09
					C2614.18,1019.06,2613.76,1019.08,2613.35,1019.08z M2897.97,857.39l-224.4,129.12l88.3-8.07L2897.97,857.39z"/>
			</g>
			<g>
				<polygon class="st8" points="2846.81,991.36 2875.91,1155.34 2767.53,991.49 3005.14,780.14 				"/>
				<path class="st1" d="M2875.91,1158.04c-0.89,0-1.74-0.43-2.25-1.21l-108.38-163.85c-0.74-1.12-0.54-2.61,0.46-3.5l237.61-211.35
					c1.04-0.93,2.61-0.91,3.62,0.03c1.02,0.94,1.17,2.5,0.33,3.61l-157.62,210.28l28.89,162.83c0.22,1.26-0.47,2.5-1.66,2.98
					C2876.59,1157.98,2876.25,1158.04,2875.91,1158.04z M2771.07,991.95l99.9,151.03l-26.82-151.15c-0.13-0.74,0.05-1.49,0.5-2.09
					L2986.88,800L2771.07,991.95z"/>
			</g>
			<g class="st0">
				<polygon class="st1" points="2846.81,991.36 2875.91,1155.34 2767.53,991.49 3005.14,780.14 				"/>
			</g>
			<g>
				<path class="st1" d="M2875.92,1168.84c-4.43,0-8.71-2.18-11.27-6.05l-108.38-163.85c-3.7-5.61-2.73-13.08,2.29-17.55
					l237.61-211.35c5.18-4.6,13.01-4.55,18.12,0.15c5.11,4.69,5.83,12.49,1.66,18.04l-154.81,206.53l28.07,158.22
					c1.12,6.3-2.34,12.53-8.29,14.9C2879.29,1168.53,2877.59,1168.84,2875.92,1168.84z M2785.25,993.8l65.98,99.75l-17.71-99.84
					c-0.65-3.68,0.25-7.47,2.49-10.46l77.83-103.84L2785.25,993.8z"/>
			</g>
			<g>
				<polygon class="st8" points="2927.8,989.86 2875.91,1155.34 2846.81,991.36 				"/>
				<path class="st1" d="M2875.91,1158.04c-0.06,0-0.11,0-0.17-0.01c-1.24-0.08-2.27-1-2.49-2.22l-29.1-163.98
					c-0.14-0.77,0.07-1.57,0.57-2.19c0.5-0.61,1.25-0.97,2.04-0.98l80.99-1.5c1.01,0.05,1.69,0.38,2.21,1.08
					c0.52,0.69,0.67,1.6,0.41,2.43l-51.89,165.48C2878.13,1157.28,2877.08,1158.04,2875.91,1158.04z M2850.02,994l26.61,149.99
					l47.47-151.36L2850.02,994z"/>
			</g>
			<g class="st0">
				<polygon class="st1" points="2927.8,989.86 2875.91,1155.34 2846.81,991.36 				"/>
			</g>
			<g>
				<path class="st1" d="M2875.92,1168.84c-0.29,0-0.58-0.01-0.87-0.03c-6.21-0.39-11.34-4.99-12.43-11.12l-29.1-163.98
					c-0.69-3.89,0.36-7.88,2.87-10.94c2.51-3.05,6.23-4.85,10.18-4.92l80.99-1.5c4.55-0.03,8.46,1.94,11.06,5.41
					c2.6,3.47,3.37,7.99,2.08,12.14l-51.89,165.48C2887.02,1165.04,2881.78,1168.84,2875.92,1168.84z M2862.87,1004.56l16.68,94.02
					l29.75-94.88L2862.87,1004.56z"/>
			</g>
		</g>
		<g>
			<path class="st1" d="M1290.33,1583.75c-5.62,0-10.87-3.54-12.78-9.15c-1.9-5.57-3.84-11.09-5.84-16.56
				c-2.56-7.01,1.06-14.76,8.07-17.32c7-2.54,14.76,1.06,17.31,8.07c2.06,5.65,4.07,11.36,6.03,17.11
				c2.41,7.06-1.37,14.73-8.43,17.13C1293.24,1583.52,1291.77,1583.75,1290.33,1583.75z M1259.63,1507.03
				c-5.08,0-9.94-2.88-12.24-7.78c-9.2-19.67-19.22-38.48-29.78-55.91c-3.86-6.38-1.82-14.68,4.56-18.55
				c6.37-3.87,14.68-1.82,18.55,4.56c11.05,18.25,21.53,37.91,31.14,58.45c3.16,6.75,0.25,14.79-6.51,17.96
				C1263.5,1506.62,1261.55,1507.03,1259.63,1507.03z M1192.28,1396.62c-3.98,0-7.92-1.75-10.59-5.11
				c-13.19-16.62-27.46-32.21-42.4-46.34c-5.42-5.12-5.67-13.67-0.54-19.09c5.12-5.42,13.67-5.65,19.09-0.54
				c15.88,15,31.02,31.55,45.01,49.17c4.64,5.84,3.66,14.34-2.18,18.97C1198.19,1395.66,1195.22,1396.62,1192.28,1396.62z
				 M1098.26,1308.08c-2.65,0-5.33-0.78-7.67-2.4c-17.01-11.77-35.22-22.43-54.13-31.69c-6.7-3.29-9.47-11.37-6.19-18.07
				c3.28-6.69,11.37-9.46,18.07-6.19c20.12,9.86,39.5,21.2,57.61,33.74c6.13,4.24,7.67,12.65,3.42,18.79
				C1106.76,1306.05,1102.55,1308.08,1098.26,1308.08z"/>
		</g>
		<g>
			<g>
				<path class="st1" d="M2709.93,1187.79c-3.8,0-7.57-1.6-10.24-4.7c-4.87-5.65-4.22-14.18,1.43-19.04
					c7.93-6.82,16.1-13.25,24.3-19.1c6.07-4.34,14.5-2.92,18.84,3.14c4.33,6.07,2.93,14.5-3.14,18.84
					c-7.53,5.38-15.06,11.3-22.38,17.6C2716.18,1186.71,2713.05,1187.79,2709.93,1187.79z"/>
			</g>
			<g>
				<path class="st1" d="M2572.68,1414.25c-1.13,0-2.28-0.14-3.42-0.44c-7.22-1.89-11.54-9.27-9.65-16.48
					c5.8-22.17,13.25-44.16,22.15-65.37c2.89-6.88,10.8-10.13,17.68-7.22c6.88,2.89,10.11,10.8,7.23,17.68
					c-8.41,20.04-15.45,40.81-20.93,61.76C2584.15,1410.23,2578.67,1414.25,2572.68,1414.25z M2624.47,1290.79
					c-2.36,0-4.75-0.62-6.92-1.92c-6.4-3.83-8.48-12.13-4.65-18.53c11.98-20.01,25.37-39.04,39.78-56.55
					c4.74-5.76,13.25-6.59,19.01-1.84c5.76,4.74,6.58,13.25,1.84,19.01c-13.57,16.48-26.17,34.4-37.46,53.26
					C2633.54,1288.44,2629.07,1290.79,2624.47,1290.79z"/>
			</g>
			<g>
				<path class="st1" d="M2558.01,1509.94c-0.22,0-0.43-0.01-0.65-0.02c-7.45-0.36-13.2-6.68-12.85-14.13
					c0.48-10.14,1.3-20.4,2.44-30.49c0.83-7.41,7.51-12.81,14.93-11.91c7.41,0.83,12.75,7.52,11.91,14.93
					c-1.07,9.51-1.84,19.19-2.3,28.75C2571.15,1504.31,2565.18,1509.94,2558.01,1509.94z"/>
			</g>
		</g>
		<g>
			<path class="st1" d="M1092.52,1851.32c-4.08,0-8.12-1.85-10.77-5.35c-12.17-16.05-24.6-31.24-36.96-45.14
				c-4.96-5.57-4.45-14.11,1.12-19.07c5.57-4.96,14.11-4.45,19.07,1.12c12.83,14.42,25.71,30.16,38.3,46.77
				c4.51,5.94,3.34,14.41-2.61,18.92C1098.23,1850.43,1095.36,1851.32,1092.52,1851.32z M1013.41,1762.86
				c-3.29,0-6.58-1.19-9.18-3.61c-14.46-13.42-29.44-25.84-44.52-36.92c-6.01-4.42-7.3-12.87-2.89-18.88
				c4.42-6.01,12.87-7.3,18.88-2.89c15.9,11.68,31.68,24.77,46.9,38.88c5.47,5.07,5.79,13.62,0.71,19.09
				C1020.65,1761.41,1017.03,1762.86,1013.41,1762.86z M917.72,1692.93c-2.21,0-4.44-0.54-6.51-1.68
				c-16.81-9.28-34.35-17.45-52.12-24.28c-6.96-2.68-10.44-10.49-7.76-17.45c2.68-6.96,10.49-10.44,17.45-7.76
				c18.92,7.28,37.59,15.97,55.48,25.84c6.53,3.61,8.9,11.82,5.3,18.35C927.1,1690.4,922.48,1692.93,917.72,1692.93z
				 M807.24,1650.35c-1.03,0-2.08-0.12-3.13-0.37c-18.28-4.34-37.41-7.63-56.86-9.78c-7.41-0.82-12.76-7.49-11.94-14.9
				c0.82-7.41,7.52-12.78,14.91-11.94c20.55,2.27,40.78,5.75,60.13,10.34c7.26,1.72,11.74,9,10.02,16.26
				C818.9,1646.17,813.36,1650.35,807.24,1650.35z M689.46,1637.03h-1.5c-7.46,0-13.5-6.05-13.5-13.51s6.05-13.51,13.5-13.51h1.5
				c7.46,0,13.5,6.05,13.5,13.51S696.91,1637.03,689.46,1637.03z"/>
		</g>
		<g>
			<path class="st1" d="M2741.33,1846.5c-3.23,0-6.48-1.16-9.06-3.5c-5.53-5.01-5.95-13.55-0.94-19.08
				c13.99-15.44,28.21-30,42.24-43.25c5.43-5.13,13.98-4.86,19.09,0.55c5.12,5.43,4.87,13.97-0.55,19.09
				c-13.53,12.77-27.24,26.81-40.77,41.74C2748.68,1845,2745.01,1846.5,2741.33,1846.5z M2827.88,1765.28
				c-4.03,0-8.01-1.79-10.67-5.22c-4.58-5.89-3.51-14.38,2.38-18.95c16.39-12.74,33.26-24.39,50.13-34.65
				c6.37-3.87,14.68-1.85,18.55,4.53c3.87,6.37,1.85,14.68-4.53,18.55c-15.99,9.71-32,20.78-47.58,32.89
				C2833.69,1764.36,2830.77,1765.28,2827.88,1765.28z M2929.31,1703.99c-5.18,0-10.13-3-12.36-8.04
				c-3.02-6.82,0.06-14.79,6.88-17.81c18.67-8.26,38.02-15.29,57.52-20.89c7.18-2.06,14.65,2.09,16.71,9.25
				c2.06,7.17-2.08,14.65-9.25,16.71c-18.32,5.27-36.51,11.87-54.05,19.63C2932.99,1703.61,2931.13,1703.99,2929.31,1703.99z
				 M3043.1,1671.23c-6.59,0-12.36-4.83-13.35-11.55c-1.08-7.38,4.02-14.24,11.41-15.32c19.73-2.89,40.19-4.59,60.82-5.04
				c7.29-0.25,13.63,5.75,13.8,13.2c0.16,7.46-5.75,13.64-13.21,13.8c-19.52,0.43-38.87,2.03-57.5,4.76
				C3044.41,1671.18,3043.75,1671.23,3043.1,1671.23z M3163.09,1668.39c-0.35,0-0.7-0.02-1.05-0.04l-1.61-0.13
				c-7.43-0.66-12.92-7.21-12.26-14.64c0.66-7.43,7.23-12.83,14.64-12.26l1.3,0.11c7.44,0.57,13,7.06,12.43,14.5
				C3176,1663,3170.08,1668.39,3163.09,1668.39z"/>
		</g>
		<g>
			<path class="st1" d="M2794.43,1424.67c0,4.34-9.28,8.09-22.77,9.86c-4.15,0.55-7.4,3.8-7.94,7.94
				c-1.76,13.44-5.47,22.71-9.81,22.71c-4.34,0-8.09-9.27-9.86-22.72c-0.55-4.14-3.79-7.39-7.94-7.94
				c-13.45-1.77-22.72-5.52-22.72-9.86c0-4.34,9.27-8.09,22.72-9.86c4.14-0.55,7.39-3.79,7.94-7.94
				c1.77-13.45,5.52-22.72,9.86-22.72c4.34,0,8.05,9.26,9.81,22.71c0.54,4.15,3.79,7.4,7.94,7.94
				C2785.15,1416.58,2794.43,1420.32,2794.43,1424.67z"/>
		</g>
		<g>
			<path class="st1" d="M1302.74,1182.28c-3.07,3.07-12.28-0.84-23.07-9.12c-3.32-2.55-7.92-2.55-11.23,0
				c-10.75,8.26-19.93,12.19-22.99,9.12c-3.07-3.07,0.84-12.27,9.09-23.04c2.54-3.32,2.54-7.91,0-11.22
				c-8.26-10.76-12.16-19.97-9.09-23.04c3.07-3.07,12.27,0.84,23.04,9.09c3.32,2.54,7.91,2.54,11.22,0
				c10.76-8.26,19.97-12.16,23.04-9.09c3.07,3.07-0.86,12.24-9.12,22.99c-2.55,3.32-2.55,7.91,0,11.23
				C1301.9,1170,1305.81,1179.21,1302.74,1182.28z"/>
		</g>
		<g>
			<path class="st1" d="M1497.27,1000.04c0,2.99-6.4,5.58-15.7,6.8c-2.86,0.38-5.1,2.62-5.48,5.48c-1.22,9.27-3.77,15.67-6.77,15.67
				c-2.99,0-5.58-6.39-6.8-15.67c-0.38-2.86-2.62-5.1-5.48-5.48c-9.28-1.22-15.67-3.81-15.67-6.8s6.39-5.58,15.67-6.8
				c2.86-0.38,5.1-2.62,5.48-5.48c1.22-9.28,3.81-15.67,6.8-15.67c2.99,0,5.55,6.39,6.77,15.67c0.38,2.86,2.62,5.1,5.48,5.48
				C1490.87,994.46,1497.27,997.05,1497.27,1000.04z"/>
		</g>
		<g>
			<path class="st1" d="M1682.37,2098.18c0,3.22-6.88,6-16.9,7.32c-3.08,0.4-5.49,2.82-5.89,5.9c-1.31,9.98-4.06,16.86-7.28,16.86
				c-3.22,0-6-6.88-7.32-16.86c-0.41-3.08-2.82-5.49-5.89-5.89c-9.98-1.32-16.86-4.1-16.86-7.32c0-3.22,6.88-6,16.86-7.32
				c3.08-0.41,5.49-2.82,5.89-5.89c1.32-9.98,4.1-16.86,7.32-16.86c3.22,0,5.97,6.88,7.28,16.85c0.4,3.08,2.82,5.49,5.89,5.9
				C1675.49,2092.17,1682.37,2094.95,1682.37,2098.18z"/>
		</g>
		<g>
			<path class="st1" d="M2914.66,1543.87c0,3.22-6.88,6-16.9,7.32c-3.08,0.4-5.49,2.82-5.89,5.9c-1.31,9.98-4.06,16.86-7.28,16.86
				c-3.22,0-6-6.88-7.32-16.86c-0.41-3.08-2.82-5.49-5.89-5.89c-9.98-1.32-16.86-4.1-16.86-7.32c0-3.22,6.88-6,16.86-7.32
				c3.08-0.41,5.49-2.82,5.89-5.89c1.32-9.98,4.1-16.86,7.32-16.86c3.22,0,5.97,6.88,7.28,16.85c0.4,3.08,2.82,5.49,5.89,5.9
				C2907.77,1537.86,2914.66,1540.65,2914.66,1543.87z"/>
		</g>
		<g>
			
				<ellipse transform="matrix(0.2298 -0.9732 0.9732 0.2298 -606.7188 3728.1528)" class="st1" cx="2052" cy="2247.39" rx="20.94" ry="20.94"/>
		</g>
		<g>
			
				<ellipse transform="matrix(0.7071 -0.7071 0.7071 0.7071 -779.983 1236.5415)" class="st1" cx="1102.65" cy="1559.79" rx="33.19" ry="33.19"/>
		</g>
		<g>
			
				<ellipse transform="matrix(0.9239 -0.3827 0.3827 0.9239 -630.3904 971.5837)" class="st1" cx="2127.05" cy="2070.39" rx="33.19" ry="33.19"/>
		</g>
		<g>
			<g>
				<path class="st1" d="M1315.05,1011.19l-18.04-31.36c-22.69,11.73-47.57,18.14-64.3,18.09l-12.32-44.32
					c18.23-0.38,41.7-4.66,63.16-17c18.82-10.83,27.51-25.5,19.92-38.7c-7.22-12.54-22.34-14.39-51.52-8.59
					c-42.16,8.44-75.76,5.79-94.18-26.23c-16.71-29.05-9.35-63.61,21.99-90.87l-18.04-31.36l32.35-18.61l16.71,29.05
					c22.69-11.73,40.21-15.65,54.14-16.64l11.89,42.81c-10.68,1.31-30.23,2.45-54,16.13c-21.46,12.34-23.07,25.58-17.75,34.82
					c6.27,10.89,21.8,11.18,55.94,5.6c47.27-8.73,73.56,0.31,90.66,30.02c16.9,29.38,10.54,66.43-23.63,94.88l19.37,33.67
					L1315.05,1011.19z"/>
			</g>
		</g>
		<g>
			<path class="st1" d="M3118.8,1414.17l-8.1-20.49c-1.23-3.11-4.74-4.63-7.85-3.4l-92.82,36.67c-3.11,1.23-6.62-0.3-7.85-3.4
				l-20.85-52.77c-1.23-3.11,0.3-6.62,3.4-7.85l92.82-36.67c3.11-1.23,4.63-4.74,3.4-7.85l-8.1-20.49
				c-2.97-7.51,3.74-15.26,11.6-13.39l50.74,12.06l55.47,13.19c6.76,1.61,9.85,9.44,6.02,15.23l-31.48,47.53l-28.8,43.48
				C3131.96,1422.75,3121.76,1421.68,3118.8,1414.17z"/>
		</g>
		<g>
			<g>
				<g>
					<defs>
						<path id="SVGID_1_" d="M1932.81,2283.15c-4.6-254.52,173.37-262.05,170.46-423.46S1927.17,1668,1927.17,1668
							s-171.97,36.53-169.05,197.93C1761.04,2027.34,1928.21,2028.63,1932.81,2283.15z"/>
					</defs>
					<clipPath id="SVGID_2_">
						<use xlink:href="#SVGID_1_"  style="overflow:visible;"/>
					</clipPath>
					<polygon class="st13" points="1932.81,2283.15 2106.18,2266.22 2106.18,2283.15 					"/>
					<polygon class="st13" points="1896.58,2283.15 2106.18,2262.68 2106.18,2266.22 1932.81,2283.15 					"/>
					<polygon class="st13" points="1860.34,2283.15 2106.18,2259.14 2106.18,2262.68 1896.58,2283.15 					"/>
					<polygon class="st13" points="1824.11,2283.15 2106.18,2255.6 2106.18,2259.14 1860.34,2283.15 					"/>
					<polygon class="st13" points="1787.88,2283.15 2106.18,2252.06 2106.18,2255.6 1824.11,2283.15 					"/>
					<polygon class="st13" points="1775.05,2283.15 1774.83,2280.88 2106.18,2248.52 2106.18,2252.06 1787.88,2283.15 					"/>
					<polygon class="st13" points="1774.83,2280.88 1774.48,2277.38 2106.18,2244.99 2106.18,2248.52 					"/>
					<polygon class="st14" points="1774.48,2277.38 1774.14,2273.87 2106.18,2241.45 2106.18,2244.99 					"/>
					<polygon class="st14" points="1774.14,2273.87 1773.8,2270.37 2106.18,2237.91 2106.18,2241.45 					"/>
					<polygon class="st14" points="1773.8,2270.37 1773.46,2266.86 2106.18,2234.37 2106.18,2237.91 					"/>
					<polygon class="st14" points="1773.46,2266.86 1773.11,2263.36 2106.18,2230.83 2106.18,2234.37 					"/>
					<polygon class="st14" points="1773.11,2263.36 1772.77,2259.85 2106.18,2227.29 2106.18,2230.83 					"/>
					<polygon class="st15" points="1772.77,2259.85 1772.43,2256.35 2106.18,2223.76 2106.18,2227.29 					"/>
					<polygon class="st15" points="1772.43,2256.35 1772.09,2252.84 2106.18,2220.22 2106.18,2223.76 					"/>
					<polygon class="st15" points="1772.09,2252.84 1771.74,2249.34 2106.18,2216.68 2106.18,2220.22 					"/>
					<polygon class="st16" points="1771.74,2249.34 1771.4,2245.83 2106.18,2213.14 2106.18,2216.68 					"/>
					<polygon class="st16" points="1771.4,2245.83 1771.06,2242.33 2106.18,2209.6 2106.18,2213.14 					"/>
					<polygon class="st16" points="1771.06,2242.33 1770.72,2238.82 2106.18,2206.06 2106.18,2209.6 					"/>
					<polygon class="st17" points="1770.72,2238.82 1770.38,2235.32 2106.18,2202.52 2106.18,2206.06 					"/>
					<polygon class="st17" points="1770.38,2235.32 1770.03,2231.81 2106.18,2198.99 2106.18,2202.52 					"/>
					<polygon class="st17" points="1770.03,2231.81 1769.69,2228.31 2106.18,2195.45 2106.18,2198.99 					"/>
					<polygon class="st18" points="1769.69,2228.31 1769.35,2224.8 2106.18,2191.91 2106.18,2195.45 					"/>
					<polygon class="st18" points="1769.35,2224.8 1769.01,2221.3 2106.18,2188.37 2106.18,2191.91 					"/>
					<polygon class="st18" points="1769.01,2221.3 1768.66,2217.79 2106.18,2184.83 2106.18,2188.37 					"/>
					<polygon class="st19" points="1768.66,2217.79 1768.32,2214.29 2106.18,2181.29 2106.18,2184.83 					"/>
					<polygon class="st19" points="1768.32,2214.29 1767.98,2210.78 2106.18,2177.75 2106.18,2181.29 					"/>
					<polygon class="st20" points="1767.98,2210.78 1767.64,2207.28 2106.18,2174.22 2106.18,2177.75 					"/>
					<polygon class="st20" points="1767.64,2207.28 1767.29,2203.77 2106.18,2170.68 2106.18,2174.22 					"/>
					<polygon class="st21" points="1767.29,2203.77 1766.95,2200.27 2106.18,2167.14 2106.18,2170.68 					"/>
					<polygon class="st21" points="1766.95,2200.27 1766.61,2196.76 2106.18,2163.6 2106.18,2167.14 					"/>
					<polygon class="st22" points="1766.61,2196.76 1766.27,2193.26 2106.18,2160.06 2106.18,2163.6 					"/>
					<polygon class="st22" points="1766.27,2193.26 1765.93,2189.75 2106.18,2156.52 2106.18,2160.06 					"/>
					<polygon class="st23" points="1765.93,2189.75 1765.58,2186.25 2106.18,2152.98 2106.18,2156.52 					"/>
					<polygon class="st23" points="1765.58,2186.25 1765.24,2182.74 2106.18,2149.45 2106.18,2152.98 					"/>
					<polygon class="st24" points="1765.24,2182.74 1764.9,2179.24 2106.18,2145.91 2106.18,2149.45 					"/>
					<polygon class="st24" points="1764.9,2179.24 1764.56,2175.73 2106.18,2142.37 2106.18,2145.91 					"/>
					<polygon class="st25" points="1764.56,2175.73 1764.21,2172.23 2106.18,2138.83 2106.18,2142.37 					"/>
					<polygon class="st25" points="1764.21,2172.23 1763.87,2168.72 2106.18,2135.29 2106.18,2138.83 					"/>
					<polygon class="st26" points="1763.87,2168.72 1763.53,2165.22 2106.18,2131.75 2106.18,2135.29 					"/>
					<polygon class="st27" points="1763.53,2165.22 1763.19,2161.71 2106.18,2128.22 2106.18,2131.75 					"/>
					<polygon class="st28" points="1763.19,2161.71 1762.84,2158.21 2106.18,2124.68 2106.18,2128.22 					"/>
					<polygon class="st29" points="1762.84,2158.21 1762.5,2154.7 2106.18,2121.14 2106.18,2124.68 					"/>
					<polygon class="st29" points="1762.5,2154.7 1762.16,2151.2 2106.18,2117.6 2106.18,2121.14 					"/>
					<polygon class="st30" points="1762.16,2151.2 1761.82,2147.69 2106.18,2114.06 2106.18,2117.6 					"/>
					<polygon class="st31" points="1761.82,2147.69 1761.48,2144.19 2106.18,2110.52 2106.18,2114.06 					"/>
					<polygon class="st31" points="1761.48,2144.19 1761.13,2140.68 2106.18,2106.98 2106.18,2110.52 					"/>
					<polygon class="st32" points="1761.13,2140.68 1760.79,2137.18 2106.18,2103.45 2106.18,2106.98 					"/>
					<polygon class="st33" points="1760.79,2137.18 1760.45,2133.67 2106.18,2099.91 2106.18,2103.45 					"/>
					<polygon class="st33" points="1760.45,2133.67 1760.11,2130.17 2106.18,2096.37 2106.18,2099.91 					"/>
					<polygon class="st34" points="1760.11,2130.17 1759.76,2126.66 2106.18,2092.83 2106.18,2096.37 					"/>
					<polygon class="st35" points="1759.76,2126.66 1759.42,2123.16 2106.18,2089.29 2106.18,2092.83 					"/>
					<polygon class="st36" points="1759.42,2123.16 1759.08,2119.65 2106.18,2085.75 2106.18,2089.29 					"/>
					<polygon class="st37" points="1759.08,2119.65 1758.74,2116.15 2106.18,2082.21 2106.18,2085.75 					"/>
					<polygon class="st38" points="1758.74,2116.15 1758.39,2112.64 2106.18,2078.68 2106.18,2082.21 					"/>
					<polygon class="st39" points="1758.39,2112.64 1758.05,2109.14 2106.18,2075.14 2106.18,2078.68 					"/>
					<polygon class="st40" points="1758.05,2109.14 1757.71,2105.63 2106.18,2071.6 2106.18,2075.14 					"/>
					<polygon class="st40" points="1757.71,2105.63 1757.37,2102.13 2106.18,2068.06 2106.18,2071.6 					"/>
					<polygon class="st41" points="1757.37,2102.13 1757.03,2098.62 2106.18,2064.52 2106.18,2068.06 					"/>
					<polygon class="st42" points="1757.03,2098.62 1756.68,2095.12 2106.18,2060.98 2106.18,2064.52 					"/>
					<polygon class="st43" points="1756.68,2095.12 1756.34,2091.61 2106.18,2057.44 2106.18,2060.98 					"/>
					<polygon class="st44" points="1756.34,2091.61 1756,2088.1 2106.18,2053.91 2106.18,2057.44 					"/>
					<polygon class="st44" points="1756,2088.1 1755.66,2084.6 2106.18,2050.37 2106.18,2053.91 					"/>
					<polygon class="st45" points="1755.66,2084.6 1755.31,2081.09 2106.18,2046.83 2106.18,2050.37 					"/>
					<polygon class="st46" points="1755.31,2081.09 1755.2,2079.97 1755.2,2077.57 2106.18,2043.29 2106.18,2046.83 					"/>
					<polygon class="st47" points="1755.2,2074.03 2106.18,2039.75 2106.18,2043.29 1755.2,2077.57 					"/>
					<polygon class="st48" points="1755.2,2070.49 2106.18,2036.21 2106.18,2039.75 1755.2,2074.03 					"/>
					<polygon class="st49" points="1755.2,2066.95 2106.18,2032.68 2106.18,2036.21 1755.2,2070.49 					"/>
					<polygon class="st49" points="1755.2,2063.41 2106.18,2029.14 2106.18,2032.68 1755.2,2066.95 					"/>
					<polygon class="st50" points="1755.2,2059.87 2106.18,2025.6 2106.18,2029.14 1755.2,2063.41 					"/>
					<polygon class="st51" points="1755.2,2056.34 2106.18,2022.06 2106.18,2025.6 1755.2,2059.87 					"/>
					<polygon class="st52" points="1755.2,2052.8 2106.18,2018.52 2106.18,2022.06 1755.2,2056.34 					"/>
					<polygon class="st53" points="1755.2,2049.26 2106.18,2014.98 2106.18,2018.52 1755.2,2052.8 					"/>
					<polygon class="st54" points="1755.2,2045.72 2106.18,2011.44 2106.18,2014.98 1755.2,2049.26 					"/>
					<polygon class="st55" points="1755.2,2042.18 2106.18,2007.91 2106.18,2011.44 1755.2,2045.72 					"/>
					<polygon class="st56" points="1755.2,2038.64 2106.18,2004.37 2106.18,2007.91 1755.2,2042.18 					"/>
					<polygon class="st57" points="1755.2,2035.1 2106.18,2000.83 2106.18,2004.37 1755.2,2038.64 					"/>
					<polygon class="st58" points="1755.2,2031.57 2106.18,1997.29 2106.18,2000.83 1755.2,2035.1 					"/>
					<polygon class="st59" points="1755.2,2028.03 2106.18,1993.75 2106.18,1997.29 1755.2,2031.57 					"/>
					<polygon class="st60" points="1755.2,2024.49 2106.18,1990.21 2106.18,1993.75 1755.2,2028.03 					"/>
					<polygon class="st61" points="1755.2,2020.95 2106.18,1986.67 2106.18,1990.21 1755.2,2024.49 					"/>
					<polygon class="st62" points="1755.2,2017.41 2106.18,1983.14 2106.18,1986.67 1755.2,2020.95 					"/>
					<polygon class="st63" points="1755.2,2013.87 2106.18,1979.6 2106.18,1983.14 1755.2,2017.41 					"/>
					<polygon class="st64" points="1755.2,2010.34 2106.18,1976.06 2106.18,1979.6 1755.2,2013.87 					"/>
					<polygon class="st65" points="1755.2,2006.8 2106.18,1972.52 2106.18,1976.06 1755.2,2010.34 					"/>
					<polygon class="st66" points="1755.2,2003.26 2106.18,1968.98 2106.18,1972.52 1755.2,2006.8 					"/>
					<polygon class="st67" points="1755.2,1999.72 2106.18,1965.44 2106.18,1968.98 1755.2,2003.26 					"/>
					<polygon class="st68" points="1755.2,1996.18 2106.18,1961.91 2106.18,1965.44 1755.2,1999.72 					"/>
					<polygon class="st69" points="1755.2,1992.64 2106.18,1958.37 2106.18,1961.91 1755.2,1996.18 					"/>
					<polygon class="st70" points="1755.2,1989.1 2106.18,1954.83 2106.18,1958.37 1755.2,1992.64 					"/>
					<polygon class="st71" points="1755.2,1985.57 2106.18,1951.29 2106.18,1954.83 1755.2,1989.1 					"/>
					<polygon class="st72" points="1755.2,1982.03 2106.18,1947.75 2106.18,1951.29 1755.2,1985.57 					"/>
					<polygon class="st73" points="1755.2,1978.49 2106.18,1944.21 2106.18,1947.75 1755.2,1982.03 					"/>
					<polygon class="st74" points="1755.2,1974.95 2106.18,1940.67 2106.18,1944.21 1755.2,1978.49 					"/>
					<polygon class="st75" points="1755.2,1971.41 2106.18,1937.14 2106.18,1940.67 1755.2,1974.95 					"/>
					<polygon class="st76" points="1755.2,1967.87 2106.18,1933.6 2106.18,1937.14 1755.2,1971.41 					"/>
					<polygon class="st77" points="1755.2,1964.33 2106.18,1930.06 2106.18,1933.6 1755.2,1967.87 					"/>
					<polygon class="st78" points="1755.2,1960.8 2106.18,1926.52 2106.18,1930.06 1755.2,1964.33 					"/>
					<polygon class="st79" points="1755.2,1957.26 2106.18,1922.98 2106.18,1926.52 1755.2,1960.8 					"/>
					<polygon class="st80" points="1755.2,1953.72 2106.18,1919.44 2106.18,1922.98 1755.2,1957.26 					"/>
					<polygon class="st81" points="1755.2,1950.18 2106.18,1915.9 2106.18,1919.44 1755.2,1953.72 					"/>
					<polygon class="st82" points="1755.2,1946.64 2106.18,1912.37 2106.18,1915.9 1755.2,1950.18 					"/>
					<polygon class="st83" points="1755.2,1943.1 2106.18,1908.83 2106.18,1912.37 1755.2,1946.64 					"/>
					<polygon class="st84" points="1755.2,1939.56 2106.18,1905.29 2106.18,1908.83 1755.2,1943.1 					"/>
					<polygon class="st85" points="1755.2,1936.03 2106.18,1901.75 2106.18,1905.29 1755.2,1939.56 					"/>
					<polygon class="st86" points="1755.2,1932.49 2106.18,1898.21 2106.18,1901.75 1755.2,1936.03 					"/>
					<polygon class="st87" points="1755.2,1928.95 2106.18,1894.67 2106.18,1898.21 1755.2,1932.49 					"/>
					<polygon class="st88" points="1755.2,1925.41 2106.18,1891.13 2106.18,1894.67 1755.2,1928.95 					"/>
					<polygon class="st89" points="1755.2,1921.87 2106.18,1887.6 2106.18,1891.13 1755.2,1925.41 					"/>
					<polygon class="st90" points="1755.2,1918.33 2106.18,1884.06 2106.18,1887.6 1755.2,1921.87 					"/>
					<polygon class="st91" points="1755.2,1914.8 2106.18,1880.52 2106.18,1884.06 1755.2,1918.33 					"/>
					<polygon class="st92" points="1755.2,1911.26 2106.18,1876.98 2106.18,1880.52 1755.2,1914.8 					"/>
					<polygon class="st93" points="1755.2,1907.72 2106.18,1873.44 2106.18,1876.98 1755.2,1911.26 					"/>
					<polygon class="st94" points="1755.2,1904.18 2106.18,1869.9 2106.18,1873.44 1755.2,1907.72 					"/>
					<polygon class="st95" points="1755.2,1900.64 2106.18,1866.36 2106.18,1869.9 1755.2,1904.18 					"/>
					<polygon class="st96" points="1755.2,1897.1 2106.18,1862.83 2106.18,1866.36 1755.2,1900.64 					"/>
					<polygon class="st97" points="1755.2,1893.56 2106.18,1859.29 2106.18,1862.83 1755.2,1897.1 					"/>
					<polygon class="st98" points="1755.2,1890.03 2106.18,1855.75 2106.18,1859.29 1755.2,1893.56 					"/>
					<polygon class="st99" points="1755.2,1886.49 2106.18,1852.21 2106.18,1855.75 1755.2,1890.03 					"/>
					<polygon class="st100" points="1755.2,1882.95 2106.18,1848.67 2106.18,1852.21 1755.2,1886.49 					"/>
					<polygon class="st101" points="1755.2,1879.41 2106.18,1845.13 2106.18,1848.67 1755.2,1882.95 					"/>
					<polygon class="st102" points="1755.2,1875.87 2106.18,1841.6 2106.18,1845.13 1755.2,1879.41 					"/>
					<polygon class="st103" points="1755.2,1872.33 2106.18,1838.06 2106.18,1841.6 1755.2,1875.87 					"/>
					<polygon class="st104" points="1755.2,1868.79 2106.18,1834.52 2106.18,1838.06 1755.2,1872.33 					"/>
					<polygon class="st105" points="1755.2,1865.26 2106.18,1830.98 2106.18,1834.52 1755.2,1868.79 					"/>
					<polygon class="st106" points="1755.2,1861.72 2106.18,1827.44 2106.18,1830.98 1755.2,1865.26 					"/>
					<polygon class="st107" points="1755.2,1858.18 2106.18,1823.9 2106.18,1827.44 1755.2,1861.72 					"/>
					<polygon class="st108" points="1755.2,1854.64 2106.18,1820.36 2106.18,1823.9 1755.2,1858.18 					"/>
					<polygon class="st109" points="1755.2,1851.1 2106.18,1816.83 2106.18,1820.36 1755.2,1854.64 					"/>
					<polygon class="st110" points="1755.2,1847.56 2106.18,1813.29 2106.18,1816.83 1755.2,1851.1 					"/>
					<polygon class="st111" points="1755.2,1844.03 2106.18,1809.75 2106.18,1813.29 1755.2,1847.56 					"/>
					<polygon class="st112" points="1755.2,1840.49 2106.18,1806.21 2106.18,1809.75 1755.2,1844.03 					"/>
					<polygon class="st113" points="1755.2,1836.95 2106.18,1802.67 2106.18,1806.21 1755.2,1840.49 					"/>
					<polygon class="st114" points="1755.2,1833.41 2106.18,1799.13 2106.18,1802.67 1755.2,1836.95 					"/>
					<polygon class="st115" points="1755.2,1829.87 2106.18,1795.59 2106.18,1799.13 1755.2,1833.41 					"/>
					<polygon class="st116" points="1755.2,1826.33 2106.18,1792.06 2106.18,1795.59 1755.2,1829.87 					"/>
					<polygon class="st117" points="1755.2,1822.79 2106.18,1788.52 2106.18,1792.06 1755.2,1826.33 					"/>
					<polygon class="st118" points="1755.2,1819.26 2106.18,1784.98 2106.18,1788.52 1755.2,1822.79 					"/>
					<polygon class="st119" points="1755.2,1815.72 2106.18,1781.44 2106.18,1784.98 1755.2,1819.26 					"/>
					<polygon class="st120" points="1755.2,1812.18 2106.18,1777.9 2106.18,1781.44 1755.2,1815.72 					"/>
					<polygon class="st121" points="1755.2,1808.64 2106.18,1774.36 2106.18,1777.9 1755.2,1812.18 					"/>
					<polygon class="st122" points="1755.2,1805.1 2106.18,1770.83 2106.18,1774.36 1755.2,1808.64 					"/>
					<polygon class="st123" points="1755.2,1801.56 2106.18,1767.29 2106.18,1770.83 1755.2,1805.1 					"/>
					<polygon class="st124" points="1755.2,1798.02 2106.18,1763.75 2106.18,1767.29 1755.2,1801.56 					"/>
					<polygon class="st125" points="1755.2,1794.49 2106.18,1760.21 2106.18,1763.75 1755.2,1798.02 					"/>
					<polygon class="st126" points="1755.2,1790.95 2106.18,1756.67 2106.18,1760.21 1755.2,1794.49 					"/>
					<polygon class="st127" points="1755.2,1787.41 2106.18,1753.13 2106.18,1756.67 1755.2,1790.95 					"/>
					<polygon class="st128" points="1755.2,1783.87 2106.18,1749.59 2106.18,1753.13 1755.2,1787.41 					"/>
					<polygon class="st129" points="1755.2,1780.33 2106.18,1746.06 2106.18,1749.59 1755.2,1783.87 					"/>
					<polygon class="st130" points="1755.2,1776.79 2106.18,1742.52 2106.18,1746.06 1755.2,1780.33 					"/>
					<polygon class="st131" points="1755.2,1773.25 2106.18,1738.98 2106.18,1742.52 1755.2,1776.79 					"/>
					<polygon class="st132" points="1755.2,1769.72 2106.18,1735.44 2106.18,1738.98 1755.2,1773.25 					"/>
					<polygon class="st133" points="1755.2,1766.18 2106.18,1731.9 2106.18,1735.44 1755.2,1769.72 					"/>
					<polygon class="st134" points="1755.2,1762.64 2106.18,1728.36 2106.18,1731.9 1755.2,1766.18 					"/>
					<polygon class="st135" points="1755.2,1759.1 2106.18,1724.82 2106.18,1728.36 1755.2,1762.64 					"/>
					<polygon class="st136" points="1755.2,1755.56 2106.18,1721.29 2106.18,1724.82 1755.2,1759.1 					"/>
					<polygon class="st137" points="1755.2,1752.02 2106.18,1717.75 2106.18,1721.29 1755.2,1755.56 					"/>
					<polygon class="st138" points="1755.2,1748.49 2106.18,1714.21 2106.18,1717.75 1755.2,1752.02 					"/>
					<polygon class="st139" points="1755.2,1744.95 2106.18,1710.67 2106.18,1714.21 1755.2,1748.49 					"/>
					<polygon class="st140" points="1755.2,1741.41 2106.18,1707.13 2106.18,1710.67 1755.2,1744.95 					"/>
					<polygon class="st141" points="1755.2,1737.87 2106.18,1703.59 2106.18,1707.13 1755.2,1741.41 					"/>
					<polygon class="st142" points="1755.2,1734.33 2106.18,1700.05 2106.18,1703.59 1755.2,1737.87 					"/>
					<polygon class="st143" points="1755.2,1730.79 2106.18,1696.52 2106.18,1700.05 1755.2,1734.33 					"/>
					<polygon class="st144" points="1755.2,1727.25 2106.18,1692.98 2106.18,1696.52 1755.2,1730.79 					"/>
					<polygon class="st145" points="1755.2,1723.72 2106.18,1689.44 2106.18,1692.98 1755.2,1727.25 					"/>
					<polygon class="st146" points="1755.2,1720.18 2106.18,1685.9 2106.18,1689.44 1755.2,1723.72 					"/>
					<polygon class="st147" points="1755.2,1716.64 2106.18,1682.36 2106.18,1685.9 1755.2,1720.18 					"/>
					<polygon class="st148" points="1755.2,1713.1 2106.18,1678.82 2106.18,1682.36 1755.2,1716.64 					"/>
					<polygon class="st149" points="1755.2,1709.56 2106.18,1675.29 2106.18,1678.82 1755.2,1713.1 					"/>
					<polygon class="st150" points="1755.2,1706.02 2106.18,1671.75 2106.18,1675.29 1755.2,1709.56 					"/>
					<polygon class="st151" points="1755.2,1702.48 2106.18,1668.21 2106.18,1671.75 1755.2,1706.02 					"/>
					<polygon class="st152" points="1755.2,1698.95 2072.1,1668 2106.18,1668 2106.18,1668.21 1755.2,1702.48 					"/>
					<polygon class="st153" points="1755.2,1695.41 2035.87,1668 2072.1,1668 1755.2,1698.95 					"/>
					<polygon class="st154" points="1755.2,1691.87 1999.64,1668 2035.87,1668 1755.2,1695.41 					"/>
					<polygon class="st155" points="1755.2,1688.33 1963.4,1668 1999.64,1668 1755.2,1691.87 					"/>
					<polygon class="st156" points="1755.2,1684.79 1927.17,1668 1963.4,1668 1755.2,1688.33 					"/>
					<polygon class="st156" points="1927.17,1668 1755.2,1684.79 1755.2,1668 					"/>
				</g>
				<path class="st1" d="M1932.81,2285.85c-1.47,0-2.67-1.17-2.7-2.65c-2.55-140.73-55.28-203.7-101.81-259.26
					c-36.8-43.94-71.57-85.45-72.87-157.95c-2.93-161.76,169.45-200.25,171.19-200.62c0.33-0.08,0.68-0.08,1.02-0.02
					c1.76,0.31,175.4,32.55,178.33,194.3c1.31,72.55-34.16,115.34-71.72,160.63c-47.47,57.25-101.28,122.14-98.73,262.83
					c0,0.02,0,0.03,0,0.05c0,1.47-1.18,2.67-2.65,2.69C1932.84,2285.85,1932.83,2285.85,1932.81,2285.85z M1927.22,1670.76
					c-10.31,2.41-169.17,42.19-166.4,195.13c1.28,70.6,33.87,109.52,71.62,154.58c40.86,48.79,86.45,103.22,99.5,209.91
					c9.91-107.14,56.44-163.26,98.14-213.55c38.5-46.44,71.76-86.54,70.48-157.09C2097.8,1706.81,1937.61,1672.79,1927.22,1670.76z"
					/>
			</g>
			<g class="st157">
				<g>
					<path class="st6" d="M1944.88,2171.37c-45.34-135.4-152.53-162.15-154.87-291.12c-2.92-161.4,169.05-197.93,169.05-197.93
						s15.79,2.77,37.91,11.06c-37.17-19.66-69.8-25.37-69.8-25.37s-171.97,36.53-169.05,197.93
						c2.92,161.4,170.09,162.7,174.69,417.22C1932.02,2239.21,1936.67,2202.65,1944.88,2171.37z"/>
				</g>
			</g>
			<g>
				<path class="st158" d="M1932.45,2082.97c-2.68-148.18,119.36-197.33,117.66-291.3c-1.7-93.97-125.12-111.19-125.12-111.19
					s-122.72,21.68-121.02,115.64C1805.68,1890.09,1929.77,1934.79,1932.45,2082.97z"/>
			</g>
			<g class="st3">
				<path class="st1" d="M2027.1,1712.21c18.77,26.42,31.9,60.35,32.69,103.81c2.41,133.49-118.91,161.74-158.34,311.51
					c17.72,39.4,30.15,88.77,31.36,155.62c-4.6-254.52,173.37-262.05,170.46-423.46C2101.95,1787.01,2066.11,1740.92,2027.1,1712.21
					z"/>
			</g>
			<g>
				<path class="st1" d="M1933.55,2303.4c-6.85,0-12.47-5.49-12.59-12.37c-2.48-137.35-54.33-201.3-100.07-257.72
					c-38.05-46.94-73.99-91.27-75.37-167.16c-3.07-169.83,177.21-210.1,179.03-210.48c1.58-0.34,3.2-0.36,4.79-0.09
					c1.84,0.33,183.45,34.04,186.52,203.87c1.38,76.09-35.01,121.77-73.54,170.12c-46.24,58.04-98.65,123.84-96.17,260.99
					c0,0.07,0,0.15,0,0.22c0.01,6.86-5.49,12.48-12.37,12.61C1933.71,2303.4,1933.63,2303.4,1933.55,2303.4z M1927.4,1680.88
					c-20.8,5.07-159.23,44.13-156.68,184.82c1.22,67.21,32.98,106.39,69.75,151.75c34.16,42.14,71.55,88.25,91.44,163.3
					c18.24-75.9,56.11-123.44,90.71-166.86c37.16-46.66,69.26-86.95,68.05-153.96C2088.12,1719.25,1948.42,1685.2,1927.4,1680.88z"
					/>
			</g>
			<g>
				<path class="st159" d="M2137.57,1562.16l-14.79,61.24c-6.69,27.7-28.06,49.5-55.62,56.74h0
					c-82.09,21.56-168.51,20.25-249.9-3.79h0c-27.33-8.07-48.03-30.5-53.88-58.4l-12.93-61.66"/>
				<path class="st1" d="M1948.99,1698.1c-44.66,0-89.28-6.39-132.5-19.16c-28.33-8.36-49.69-31.52-55.75-60.43l-12.93-61.66
					c-0.31-1.46,0.63-2.89,2.09-3.2c1.47-0.29,2.89,0.63,3.2,2.09l12.93,61.66c5.65,26.97,25.58,48.56,52,56.36
					c80.92,23.91,166.83,25.21,248.45,3.77c26.64-6.99,47.21-27.98,53.68-54.76l14.8-61.23c0.35-1.45,1.8-2.35,3.26-1.99
					c1.45,0.35,2.34,1.81,1.99,3.26l-14.8,61.23c-6.93,28.72-28.99,51.21-57.56,58.72
					C2028.87,1692.99,1988.92,1698.1,1948.99,1698.1z"/>
			</g>
			<g class="st160">
				<g>
					<path class="st6" d="M1787.66,1559.68l12.81,61.06c3.23,15.39,10.56,29.3,20.87,40.49c10.31,11.16,23.59,19.61,38.71,24.06
						c11.66,3.45,23.42,6.46,35.26,9.06c-23.93-3.15-47.65-8.18-70.97-15.08c-13.65-4.02-25.68-11.65-35-21.78
						c-9.32-10.07-15.93-22.65-18.88-36.61l-12.92-61.66L1787.66,1559.68z"/>
				</g>
			</g>
			<g>
				<g class="st161">
					<path class="st1" d="M1951.94,1689.51C1951.95,1689.5,1951.95,1689.5,1951.94,1689.51c28.23-2.09,56.32-6.73,83.91-13.98
						c27.57-7.24,48.92-29.03,55.61-56.74l13.79-57.1l-354.81-5.38l2.76,13.17l263.04,3.97l-14.79,61.26
						C1995.27,1660.3,1976.53,1680.83,1951.94,1689.51z M1983.94,1572.95l-230.73-3.48l-0.87-4.16l232.6,3.51L1983.94,1572.95z"/>
				</g>
			</g>
			<g>
				<path class="st4" d="M1720.5,1378.15c-70.95,5.73-190.8,76.23-146.06,330.65c0.59,3.34,5,4.22,6.82,1.37
					c19.83-31.08,111.85-177.82,205.86-172.85"/>
				<path class="st1" d="M1578.14,1714.58c-0.42,0-0.85-0.04-1.28-0.13c-2.63-0.52-4.62-2.56-5.08-5.19
					c-20.85-118.57-7.77-212.42,37.83-271.41c39.79-51.47,90.65-60.79,110.67-62.41c1.5-0.07,2.79,0.99,2.91,2.48
					c0.12,1.49-0.99,2.79-2.48,2.91c-19.31,1.56-68.36,10.56-106.84,60.33c-44.64,57.75-57.36,150.13-36.79,267.16
					c0.11,0.6,0.56,0.78,0.82,0.83c0.27,0.07,0.74,0.07,1.06-0.44l0.95-1.49c93.54-146.78,164.34-174.87,207.34-172.6
					c1.49,0.08,2.63,1.35,2.55,2.84c-0.07,1.49-1.25,2.56-2.84,2.56c-41.47-2.21-110.36,25.54-202.49,170.11l-0.95,1.49
					C1582.33,1713.5,1580.3,1714.58,1578.14,1714.58z"/>
			</g>
			<g class="st160">
				<g>
					<path class="st6" d="M1602.91,1678.58c-9.07,13.19-15.86,23.95-19.8,30.11c-1.83,2.87-6.22,1.98-6.81-1.36
						c-44.74-254.43,75.11-324.93,146.07-330.65l7.21,17.24C1663.68,1411.98,1580.61,1484.1,1602.91,1678.58z"/>
				</g>
			</g>
			<g>
				<path class="st1" d="M1578.19,1730.8c-1.49,0-3-0.15-4.51-0.45c-9.23-1.84-16.25-9.02-17.88-18.28
					c-21.97-124.94-8.18-220.53,40.97-284.12c43.75-56.59,100.03-66.86,122.19-68.65c10.39-0.86,19.53,6.92,20.37,17.33
					c0.84,10.41-6.92,19.52-17.33,20.37c-17.16,1.38-60.8,9.43-95.32,54.09c-36.85,47.67-50.25,121.73-39.33,215.69
					c70.75-101.77,138.12-151.79,200.75-148.33c10.43,0.55,18.43,9.45,17.88,19.88c-0.55,10.43-9.4,18.46-19.88,17.88
					c-30.41-1.57-95.4,17.37-187.97,162.64l-0.95,1.49C1592.97,1726.96,1585.82,1730.8,1578.19,1730.8z M1593.05,1705.52h0.06
					H1593.05z"/>
			</g>
			<g>
				<path class="st162" d="M2165.46,1384.89c70.75,7.87,192.37,82.03,139.95,334.99c-0.69,3.32-5.12,4.07-6.86,1.16
					c-18.88-31.67-110.63-181.19-204.74-179.07"/>
				<path class="st1" d="M2301.72,1725.54c-2.24,0-4.32-1.16-5.49-3.13c-24.97-41.9-112.81-177.77-200.46-177.77
					c-0.64,0-1.27,0.01-1.91,0.02c-1.58-0.09-2.73-1.15-2.76-2.64c-0.03-1.49,1.15-2.73,2.64-2.76c0.69-0.02,1.39-0.03,2.08-0.03
					c87.97,0,172.58,125.93,205.05,180.41c0.31,0.51,0.79,0.52,1.05,0.47c0.26-0.04,0.72-0.2,0.84-0.8
					c23.8-114.84,13.62-206.9-29.44-266.22c-38.11-52.52-88.34-63.32-108.17-65.53c-1.48-0.17-2.55-1.5-2.38-2.98
					c0.16-1.48,1.47-2.58,2.98-2.38c20.54,2.28,72.56,13.46,111.94,67.72c43.98,60.59,54.47,154.12,30.36,270.5
					c-0.54,2.61-2.6,4.59-5.24,5.03C2302.45,1725.52,2302.08,1725.54,2301.72,1725.54z"/>
			</g>
			<g>
				<path class="st4" d="M2305.42,1719.87c-0.71,3.31-5.13,4.06-6.87,1.15c-9.67-16.21-38.46-63.35-76.91-105.19
					c-36.31-39.55-81.27-74.36-126.83-73.86c-0.33-0.01-0.68,0.02-1.01,0.01l0.43-0.95l71.21-156.13
					c19.86,2.21,43.73,9.64,66.63,24.81C2290.77,1448.47,2343.11,1537.9,2305.42,1719.87z"/>
				<path class="st1" d="M2301.73,1725.53c-2.24,0-4.32-1.16-5.5-3.13c-23.86-39.98-50.34-76.2-76.58-104.75
					c-44.46-48.44-86.13-73-123.86-73c-0.32,0-0.63,0.01-0.95,0.01l-1.08,0.01c-0.91-0.02-1.75-0.49-2.24-1.25
					c-0.49-0.77-0.55-1.73-0.18-2.56l0.43-0.95l71.22-156.14c0.49-1.06,1.59-1.68,2.76-1.56c23.03,2.56,47.11,11.52,67.82,25.24
					c45.77,30.23,116.32,111.09,74.5,312.97c0,0.01-0.01,0.01-0.01,0.02c-0.56,2.61-2.63,4.57-5.27,5
					C2302.44,1725.51,2302.09,1725.53,2301.73,1725.53z M2098,1539.28c38.66,0.89,80.93,26.01,125.64,74.72
					c26.48,28.82,53.19,65.34,77.24,105.63c0.31,0.52,0.79,0.53,1.05,0.49c0.26-0.04,0.73-0.21,0.86-0.81
					c41.17-198.74-27.56-277.87-72.19-307.36c-19.42-12.86-41.89-21.4-63.5-24.14L2098,1539.28z M2305.42,1719.87h0.05H2305.42z"/>
			</g>
			<g class="st161">
				<path class="st1" d="M2221.64,1615.83c-36.31-39.55-81.27-74.36-126.83-73.86c-0.18-0.32-0.39-0.63-0.58-0.94l71.21-156.13
					c19.86,2.21,43.73,9.64,66.63,24.81C2248.56,1460.77,2250.11,1528.51,2221.64,1615.83z"/>
			</g>
			<g>
				<path class="st1" d="M2301.67,1741.75c-7.88,0-15.21-4.08-19.36-11.04c-24.02-40.3-108.63-171.64-188.08-169.85
					c-10.43,0.31-19.09-8.03-19.33-18.47c-0.23-10.44,8.04-19.09,18.48-19.33c0.79-0.02,1.59-0.03,2.38-0.03
					c80.38,0,155.52,91.51,197.89,154.87c13.48-92.39,2.1-166.31-33.44-215.29c-35.28-48.61-83.05-57.4-96.85-58.94
					c-10.38-1.16-17.85-10.51-16.7-20.88c1.15-10.38,10.54-17.81,20.88-16.7c22.68,2.53,80.09,14.82,123.27,74.31
					c47.39,65.3,58.53,160.62,33.11,283.3c-1.91,9.21-9.14,16.16-18.42,17.73C2304.22,1741.65,2302.94,1741.75,2301.67,1741.75z"/>
			</g>
			<g>
				<path class="st6" d="M1963.18,192.13c0,0,313.64,191.14,341.55,711.04c23.76,442.92-168.78,662.92-168.78,662.92
					c-79.42,28.07-163.61,37.5-246.17,28.51c-47.95-5.24-95.33-16.7-140.97-34.4c0,0-82.94-100.73-126.88-299.42
					c-1.5-6.83-2.99-13.81-4.39-20.88c-15.37-76.85-24.74-167.38-21.65-271.44c0.7-24.55,2.14-49.86,4.33-75.92
					c0.07-1.03,0.18-2.05,0.28-3.07c9.04-105.06,29.44-196.2,56.12-274.76c0.84-2.52,1.71-4.99,2.57-7.47
					C1764.57,305.03,1963.18,192.13,1963.18,192.13z"/>
				<path class="st1" d="M1949.77,1600.54c-20.14,0-40.28-1.08-60.27-3.26c-48.53-5.31-96.19-16.94-141.66-34.56
					c-0.43-0.17-0.81-0.44-1.11-0.8c-0.83-1.01-83.86-103.51-127.43-300.55c-1.51-6.85-3-13.85-4.41-20.93
					c-17.21-86.02-24.51-177.55-21.71-272.05c0.7-24.49,2.16-50.08,4.34-76.06c0.07-1.02,0.18-2.08,0.29-3.13
					c8.39-97.5,27.32-190.15,56.25-275.34c0.84-2.52,1.71-5.01,2.58-7.49c104.51-299.71,303.22-415.45,305.21-416.58
					c0.85-0.49,1.9-0.47,2.74,0.04c0.79,0.48,79.81,49.36,161.09,161.27c74.94,103.19,167.3,282.7,181.76,551.92
					c23.54,438.94-167.51,662.64-169.45,664.84c-0.3,0.35-0.7,0.61-1.13,0.77C2077.11,1589.74,2013.39,1600.54,1949.77,1600.54z
					 M1750.47,1557.94c44.82,17.31,91.79,28.74,139.61,33.97c82.11,8.94,166.57-0.78,244.29-28.13
					c10.33-12.31,190.54-234.21,167.67-660.47c-14.38-267.75-106.12-446.23-180.56-548.8c-74.82-103.09-147.58-152.26-158.35-159.21
					c-17.83,10.81-202.19,128.32-301.4,412.85c-0.86,2.46-1.72,4.92-2.56,7.43c-28.79,84.79-47.63,177.01-55.99,274.13
					c-0.11,1.04-0.21,2.03-0.28,3.02c-2.17,25.93-3.63,51.42-4.32,75.8c-2.79,94.1,4.48,185.21,21.6,270.84
					c1.41,7.05,2.88,14.01,4.39,20.83C1666.22,1448.51,1743.95,1549.7,1750.47,1557.94z"/>
			</g>
			<g>
				<path class="st4" d="M2239.96,565.57c-184.5-42.36-375.94-45.26-561.68-8.51c108.31-267.52,286.51-368.81,286.51-368.81
					S2139.8,294.89,2239.96,565.57z"/>
				<path class="st1" d="M2239.96,568.26c-0.2,0-0.4-0.02-0.61-0.07c-185.35-42.54-373.95-45.41-560.55-8.49
					c-1,0.17-1.98-0.17-2.61-0.93c-0.63-0.77-0.79-1.82-0.42-2.74c107.42-265.32,285.89-369.13,287.68-370.15
					c0.85-0.49,1.9-0.47,2.74,0.04c1.76,1.07,176.96,110.23,276.3,378.69c0.34,0.93,0.15,1.98-0.5,2.72
					C2241.47,567.94,2240.73,568.26,2239.96,568.26z M1939.48,528.6c99.12,0,198.09,11.07,296.2,33.22
					c-94.26-250.74-254.5-359.74-270.94-370.41c-16.74,10.15-180.26,114.24-282.07,362.03
					C1768.03,536.88,1853.8,528.6,1939.48,528.6z"/>
			</g>
			<g>
				<g class="st161">
					<path class="st1" d="M2267.79,896.14c-24.14-449.79-262.11-653.47-325.88-700.24c1.92-1.29,3.63-2.41,5.12-3.36
						c-6.04,3.88-15.77,10.46-28.26,20.01c85.63,89.22,205.05,259.54,240.78,537.92c-30.44-69.52-99.29-118.59-180.13-119.81
						c-110.39-1.67-201.23,86.46-202.9,196.85c-1.67,110.39,86.46,201.23,196.85,202.91c93.67,1.42,173.24-61.84,196.22-148.48
						c5.23,190.92-29.82,337.98-69.47,441.38c-53.88,140.53-194.74,228.75-344.43,213.08c-0.83-0.09-1.65-0.17-2.48-0.27
						c-5.93-0.65-11.86-1.42-17.77-2.26c-2.5-0.2-5-0.36-7.51-0.62c-0.83-0.09-1.65-0.17-2.48-0.27c-0.88-0.1-1.76-0.23-2.64-0.33
						c10.3,15.7,16.82,23.65,16.82,23.65c40.3,15.63,81.97,26.38,124.19,32.29c79.02,7.05,159.25-2.73,235.17-29.56
						C2099,1559.02,2291.54,1339.03,2267.79,896.14z"/>
				</g>
				<g class="st161">
					<path class="st1" d="M1722.81,1532.64C1722.82,1532.64,1722.82,1532.64,1722.81,1532.64c-0.16-0.24-0.3-0.45-0.46-0.7
						C1722.51,1532.18,1722.66,1532.41,1722.81,1532.64z"/>
				</g>
				<g class="st161">
					<path class="st1" d="M1722.29,1531.85c0.02,0.03,0.04,0.06,0.06,0.09C1722.33,1531.92,1722.32,1531.89,1722.29,1531.85
						L1722.29,1531.85z"/>
				</g>
			</g>
			<g class="st160">
				<g>
					<path class="st6" d="M1988.72,207.77c-13.86-10.57-22.08-15.58-22.08-15.58S1788.44,293.48,1680.13,561
						c11.99-2.37,24.01-4.57,36.04-6.61C1812.6,329.52,1957.02,227.99,1988.72,207.77z"/>
				</g>
			</g>
			<g>
				<path class="st1" d="M2239.96,584.47c-1.41,0-2.82-0.15-4.23-0.48c-183.13-42.04-369.45-44.86-553.78-8.39
					c-6.83,1.34-13.82-1.14-18.24-6.5c-4.42-5.36-5.56-12.7-2.95-19.14c86.26-213.06,216.94-323.57,269.11-361.2
					c21.11-15.23,49.17-14.81,69.81,1.07c51,39.18,178.24,153.59,258.01,369.17c2.41,6.51,1.06,13.83-3.53,19.04
					C2250.53,582.18,2245.33,584.47,2239.96,584.47z M1939.49,512.39c90.3,0,180.5,9.09,270.04,27.26
					c-76.46-185.38-187.09-284.65-232.89-319.83c-7.29-5.61-17.2-5.76-24.65-0.38c-46.86,33.78-160.47,129.66-242.5,312.63
					C1785.99,518.95,1862.78,512.39,1939.49,512.39z"/>
			</g>
			<g>
				<path class="st1" d="M1951.98,1612.92c-2.94,0-5.87-0.02-8.81-0.06c-68.54-1.04-135.69-14.13-199.57-38.92
					c-3.02-1.17-5.7-3.1-7.76-5.61c-7.79-9.46-190.23-236.77-152.84-681.26c10.22-121.54,36.38-234.96,77.76-337.1
					c2.39-5.91,7.6-10.21,13.85-11.45c189.51-37.5,381.06-34.61,569.33,8.57c6.24,1.34,11.51,5.77,13.79,11.92
					c38.26,103.36,60.97,217.51,67.51,339.3c23.9,445.43-165.38,667.11-173.45,676.32c-2.14,2.44-4.87,4.29-7.93,5.38
					C2081.99,1601.86,2017.49,1612.92,1951.98,1612.92z M1762.15,1540.55c58.22,21.95,119.29,33.55,181.58,34.5
					c62.33,0.97,123.68-8.8,182.56-28.97c23.96-30.28,182.57-246.98,161.17-645.74c-6.13-114.22-26.88-221.33-61.71-318.59
					c-176.58-39.13-356.04-41.87-533.75-8.09c-37.76,96.14-61.75,202.59-71.33,316.58
					C1587.12,1289.28,1739.11,1509.69,1762.15,1540.55z M2137.56,1562.18h0.05H2137.56z M2137.56,1562.18h0.05H2137.56z"/>
			</g>
			<g>
				<path class="st1" d="M1948.99,1709.93c-45.78,0-91.54-6.56-135.85-19.64c-32.51-9.6-57.03-36.17-63.98-69.35l-12.93-61.66
					c-1.65-7.85,3.38-15.56,11.24-17.2c7.87-1.68,15.56,3.38,17.21,11.24l12.93,61.66c4.76,22.7,21.53,40.87,43.77,47.44
					c78.85,23.29,162.56,24.56,242.1,3.67c22.43-5.89,39.74-23.55,45.19-46.1l14.8-61.23c1.88-7.8,9.72-12.6,17.54-10.71
					c7.8,1.88,12.6,9.74,10.71,17.54l-14.8,61.23c-7.96,32.95-33.27,58.77-66.05,67.38
					C2030.89,1704.69,1989.92,1709.93,1948.99,1709.93z"/>
			</g>
			<g>
				
					<ellipse transform="matrix(0.7071 -0.7071 0.7071 0.7071 -5.039 1621.8724)" class="st4" cx="1955.25" cy="817.02" rx="179.76" ry="179.76"/>
				<path class="st1" d="M1955.3,999.48c-0.94,0-1.87-0.01-2.81-0.02c-48.73-0.74-94.26-20.41-128.2-55.39
					c-33.94-34.98-52.22-81.08-51.48-129.82c0.74-48.73,20.41-94.26,55.39-128.2c34.98-33.93,81.12-52.37,129.81-51.48
					c48.73,0.74,94.26,20.41,128.2,55.39c33.94,34.98,52.22,81.08,51.48,129.82C2136.18,919.44,2054.62,999.48,1955.3,999.48z
					 M1955.18,639.96c-46.27,0-89.93,17.69-123.22,49.98c-33.94,32.94-53.03,77.12-53.75,124.41
					c-0.72,47.28,17.02,92.02,49.95,125.97c32.93,33.94,77.11,53.03,124.4,53.75c0.91,0.01,1.82,0.02,2.72,0.02
					c96.4,0,175.53-77.67,177-174.38l2.7,0.04l-2.7-0.04c0.72-47.29-17.02-92.03-49.95-125.97c-32.93-33.94-77.11-53.03-124.4-53.75
					C1957.02,639.97,1956.1,639.96,1955.18,639.96z"/>
			</g>
			<g class="st160">
				<g>
					<path class="st6" d="M2001.48,642.6c-4.07-0.36-8.16-0.56-12.29-0.63c-99.25-1.52-180.94,77.76-182.46,177.01
						c-1.34,87.51,60.09,161.35,142.67,178.65c-93.55-7.62-166.38-86.67-164.95-181.86c1.52-99.28,83.2-178.52,182.49-177.03
						C1978.77,638.93,1990.33,640.25,2001.48,642.6z"/>
				</g>
			</g>
			<g class="st161">
				<path class="st163" d="M2134.98,819.76c-1.51,99.24-83.16,178.52-182.44,177.01c-31.22-0.48-60.45-8.9-85.83-23.3
					c12.91,3.15,26.34,4.93,40.2,5.15c99.28,1.51,180.97-77.74,182.48-177.02c1.03-68.06-35.95-127.87-91.26-159.17
					C2077.74,661.88,2136.27,734.31,2134.98,819.76z"/>
				<path class="st1" d="M1955.31,999.49c-0.94,0-1.87-0.01-2.81-0.02c-30.56-0.47-60.69-8.65-87.12-23.65
					c-1.17-0.66-1.68-2.09-1.18-3.34c0.5-1.25,1.82-1.97,3.15-1.63c12.91,3.15,26.24,4.86,39.6,5.07
					c47.26,0.58,92.03-17.02,125.98-49.95c33.95-32.93,53.04-77.11,53.76-124.41c0.98-64.77-33.47-124.84-89.89-156.78
					c-1.17-0.67-1.68-2.1-1.18-3.35c0.49-1.25,1.82-1.96,3.15-1.63c83.08,20.3,140.2,94.32,138.91,180l0,0
					C2136.16,919.45,2054.62,999.49,1955.31,999.49z M1885.38,979.72c21.14,9.07,44.04,13.99,67.21,14.35
					c0.91,0.01,1.82,0.02,2.73,0.02c96.37,0,175.49-77.66,176.96-174.38c1.16-76.62-45.83-143.63-116.3-169.09
					c48.27,34.61,77.02,90.85,76.12,151.02c-0.74,48.74-20.42,94.26-55.4,128.2c-34.98,33.93-81.27,52.37-129.83,51.47
					C1899.68,981.2,1892.49,980.67,1885.38,979.72z M2134.98,819.75h0.05H2134.98z"/>
			</g>
			<g>
				<path class="st1" d="M1955.3,1011.31c-1,0-1.99-0.01-2.99-0.02c-51.89-0.78-100.37-21.73-136.5-58.98
					c-36.14-37.25-55.61-86.34-54.82-138.23c0.79-51.89,21.73-100.37,58.98-136.51c37.25-36.14,86.23-55.7,138.23-54.82
					c51.89,0.78,100.37,21.73,136.51,58.98c36.14,37.25,55.61,86.34,54.82,138.23C2147.92,926.08,2061.07,1011.31,1955.3,1011.31z
					 M1955.18,651.79c-43.18,0-83.92,16.5-114.98,46.64c-31.68,30.73-49.49,71.96-50.16,116.09
					c-0.67,44.13,15.89,85.87,46.62,117.55c30.73,31.68,71.96,49.49,116.09,50.16c0.84,0.01,1.7,0.02,2.54,0.02
					c89.96,0,163.8-72.47,165.17-162.72l14.53,0.22l-14.53-0.22c0.67-44.13-15.89-85.88-46.62-117.56
					c-30.73-31.68-71.96-49.49-116.09-50.16C1956.9,651.79,1956.04,651.79,1955.18,651.79z"/>
			</g>
			<g>
				
					<ellipse transform="matrix(0.7071 -0.7071 0.7071 0.7071 -4.1207 1619.7471)" class="st164" cx="1953.15" cy="814.85" rx="114.36" ry="114.36"/>
			</g>
			<g class="st3">
				<g>
					<path class="st6" d="M2067.51,816.59c-0.96,63.16-52.94,113.56-116.09,112.6c-13.67-0.19-26.77-2.8-38.85-7.42
						c1.27,0.07,2.53,0.11,3.84,0.14c63.16,0.96,115.14-49.44,116.09-112.6c0.76-49.49-30.02-92.09-73.75-108.68
						C2020.08,703.58,2068.44,754.73,2067.51,816.59z"/>
				</g>
			</g>
			<g class="st161">
				<path class="st1" d="M2002.7,710.24c-1.96-0.1-3.92-0.21-5.91-0.23c-63.16-0.96-115.14,49.44-116.09,112.6
					c-0.74,47.53,27.66,88.76,68.68,106.59c-60.37-4.01-107.63-54.69-106.7-115.86c0.96-63.12,52.9-113.56,116.06-112.6
					C1974.37,701,1989.24,704.33,2002.7,710.24z"/>
			</g>
			<g>
				<path class="st1" d="M1953.17,942.71c-0.66,0-1.3-0.01-1.96-0.02c-70.5-1.07-126.98-59.29-125.91-129.79
					c0.52-34.15,14.3-66.06,38.82-89.84c24.51-23.78,57.02-36.51,90.97-36.07c70.5,1.06,126.98,59.29,125.92,129.78l0,0
					C2079.94,886.62,2022.78,942.71,1953.17,942.71z M1953.1,713.99c-26.35,0-51.22,10.07-70.18,28.46
					c-19.33,18.76-30.21,43.92-30.61,70.86c-0.84,55.61,43.71,101.53,99.32,102.38c55.65,0.94,101.53-43.71,102.37-99.32
					c0.84-55.61-43.71-101.53-99.32-102.37C1954.15,714,1953.62,713.99,1953.1,713.99z M2067.5,816.58h0.05H2067.5z"/>
			</g>
			<g class="st0">
				<path class="st6" d="M1879.67,376.32c-25.57-9.61-66.98,34.66-78.99,64.42c-12.44,30.83-14.77,51.5,0.04,57.77
					c20.69,8.76,37.89-12.16,50.71-40.15C1860.49,438.55,1911.22,388.18,1879.67,376.32z"/>
			</g>
			<g class="st0">
				<path class="st6" d="M1943.33,312.47c-22.56-7.38-53.85,10.66-61.44,24.37c-7.86,14.2-8.03,24.33,5.1,28.95
					c18.34,6.46,31.11-2.3,39.54-15.04C1932.49,341.73,1971.16,321.58,1943.33,312.47z"/>
			</g>
			<g>
				<path class="st4" d="M2011.1,1539.53c-1.36,88.6-72.82,174.78-72.82,174.78s-0.27-0.34-0.72-0.96
					c-7.38-9.77-68.02-92.72-66.8-175.92c1.19-79.84,59.9-143.12,70.82-154.2c1.13-1.13,1.74-1.72,1.74-1.72
					S2012.48,1451.53,2011.1,1539.53z"/>
				<path class="st1" d="M1938.28,1717c-0.01,0-0.02,0-0.02,0c-0.81-0.01-1.58-0.38-2.09-1.02c0,0-0.3-0.37-0.79-1.07
					c-6.98-9.24-68.54-93.19-67.31-177.53c1.21-80.64,59.86-144.14,71.6-156.05c1.17-1.18,1.8-1.79,1.8-1.79
					c1.06-1.02,2.75-0.99,3.78,0.06c0.7,0.71,69.93,71.84,68.55,159.96c-1.37,88.52-72.72,175.59-73.44,176.45
					C1939.85,1716.64,1939.08,1717,1938.28,1717z M1943.26,1385.38c-12.03,12.26-68.63,74.05-69.79,152.09
					c-1.16,78.52,53.61,157.09,64.88,172.41c11.88-15.25,68.85-92.43,70.05-170.39l0,0
					C2009.62,1461.69,1954.2,1397.31,1943.26,1385.38z"/>
			</g>
			<g class="st160">
				<g>
					<path class="st6" d="M1953.73,1379.41c0,0,4.21,4.27,10.52,11.99c-19.33,21.84-62.27,77.91-63.28,146.09
						c-0.99,66.91,38.03,133.65,57.15,162.31c-5.72,7.95-9.43,12.43-9.43,12.43s-0.26-0.36-0.73-0.97
						c-7.36-9.77-68-92.73-66.78-175.93c1.18-79.84,59.89-143.1,70.8-154.17C1953.13,1380,1953.73,1379.41,1953.73,1379.41z"/>
				</g>
			</g>
			<g class="st161">
				<path class="st1" d="M2011.1,1539.53c-1.36,88.6-72.82,174.78-72.82,174.78s-0.27-0.34-0.72-0.96l4.02-330.11
					c1.13-1.13,1.74-1.72,1.74-1.72S2012.48,1451.53,2011.1,1539.53z"/>
			</g>
			<g>
				<path class="st1" d="M1938.28,1728.84c-0.07,0-0.15,0-0.22,0c-4.4-0.07-8.54-2.12-11.24-5.6c-2.94-3.77-71.95-93.4-70.57-186.05
					c1.38-93.04,73.96-163.25,77.05-166.19c5.73-5.46,14.79-5.33,20.36,0.31c3,3.04,73.42,75.4,71.98,168.45
					c-1.43,92.64-73.13,180.14-76.18,183.82C1946.7,1726.92,1942.6,1728.84,1938.28,1728.84z M1942.99,1403.26
					c-18.82,21.88-56.78,73.46-57.68,134.36c-0.91,61.25,34.66,123.53,53.33,151.91c19.52-27.84,56.99-89.11,57.94-150.21
					C1997.52,1478.42,1961.15,1425.71,1942.99,1403.26z"/>
			</g>
		</g>
	</g>
</g>
</svg>
