<?xml version="1.0" encoding="utf-8"?>
<!-- Generator: Adobe Illustrator 23.0.1, SVG Export Plug-In . SVG Version: 6.00 Build 0)  -->
<svg version="1.1" xmlns="http://www.w3.org/2000/svg" xmlns:xlink="http://www.w3.org/1999/xlink" x="0px" y="0px"
	 viewBox="0 0 3710 3710" style="enable-background:new 0 0 3710 3710;" xml:space="preserve">
<style type="text/css">
	.st0{fill:url(#SVGID_1_);}
	.st1{fill:#BDD0FB;}
	.st2{fill:#FFFFFF;}
	.st3{fill:#91B3FA;}
	.st4{fill:url(#SVGID_2_);}
	.st5{fill:#FCFAFA;}
	.st6{fill:url(#SVGID_3_);}
	.st7{fill:url(#SVGID_4_);}
	.st8{fill:url(#SVGID_5_);}
	.st9{fill:url(#SVGID_6_);}
	.st10{fill:url(#SVGID_7_);}
	.st11{fill:url(#SVGID_8_);}
	.st12{fill:url(#SVGID_9_);}
	.st13{fill:url(#SVGID_10_);}
	.st14{fill:url(#SVGID_11_);}
	.st15{fill:url(#SVGID_12_);}
	.st16{fill:url(#SVGID_13_);}
	.st17{fill:url(#SVGID_14_);}
	.st18{fill:url(#SVGID_15_);}
	.st19{fill:url(#SVGID_16_);}
	.st20{fill:url(#SVGID_17_);}
	.st21{fill:url(#SVGID_18_);}
	.st22{fill:url(#SVGID_19_);}
	.st23{fill:url(#SVGID_20_);}
</style>
<g id="Background">
</g>
<g id="Illustration">
	<g>
		<linearGradient id="SVGID_1_" gradientUnits="userSpaceOnUse" x1="3209.9905" y1="3332.9629" x2="1340.2601" y2="1314.8412">
			<stop  offset="0" style="stop-color:#DAE3FE"/>
			<stop  offset="1" style="stop-color:#E9EFFD"/>
		</linearGradient>
		<path class="st0" d="M2949.43,2182.91c-256.91,600.51-935.09,858.44-1466.44,814.46c-145.08-12.01-436.99-36.17-664.92-251.71
			c-437.71-413.93-370.3-1279.17,48.72-1788.57c53.96-65.6,427.47-505.12,1009.51-499.23c426.14,4.31,725.24,245.03,761.61,275.02
			c45.94,37.88,147.28,127.91,238.61,270.73C3091.11,1339.19,3109.98,1807.65,2949.43,2182.91z"/>
		<g>
			<path class="st1" d="M3305.75,1320.49c4.15-12.8-10.78-23.33-21.57-15.28c-109.56,81.71-379.05,333.05-375.07,826.27
				c4.99,618.82-147.48,827.09-321.18,944.95c0,0,224.61-39.18,387.05-249.63C3373.79,2310.1,3231.99,1548.15,3305.75,1320.49z"/>
			<path class="st2" d="M3208.74,1502.57c-20.11,66.54-38.89,133.44-55.2,200.94c-16.66,67.4-31.28,135.27-43.75,203.49
				c-12.21,68.27-23.14,136.76-31.15,205.61c-8.31,68.81-13.66,137.9-18.79,207.29c-5.51,69.32-10.67,139.18-23,208.73
				c-12.24,69.41-32.96,138.48-65.69,201.72c-8.18,15.76-16.67,31.43-26,46.44c-9.06,15.19-18.79,29.99-28.79,44.6
				c-20.14,29.14-42.25,56.99-66.32,83.07c-48.29,52.05-104.46,96.71-164.89,133.04c-6.36,3.82-14.61,1.77-18.44-4.59
				c-3.75-6.24-1.84-14.32,4.25-18.23l0.04-0.03c14.45-9.25,28.77-18.66,42.62-28.67c7.01-4.9,13.79-10.09,20.66-15.16
				c6.67-5.32,13.55-10.39,20.05-15.91c26.36-21.64,51.18-45.11,74.13-70.29c46.11-50.09,84.96-107.33,116.34-167.69
				c15.35-30.36,28.43-61.8,39.05-94.14c10.6-32.35,18.72-65.57,24.96-99.27c12.49-67.45,18.17-136.55,24.18-205.83
				c6.1-69.28,12.71-138.86,22.17-208.07c4.64-34.61,9.89-69.13,15.77-103.54c2.84-17.22,6.01-34.38,9.15-51.55
				c3.3-17.14,6.7-34.25,10.24-51.34c14.27-68.31,30.63-136.16,49.1-203.39c18.79-67.14,39.36-133.77,62.47-199.49
				c0.66-1.88,2.72-2.87,4.6-2.21C3208.31,1498.77,3209.29,1500.74,3208.74,1502.57z"/>
		</g>
		<g>
			<g>
				<path class="st3" d="M2713.25,2117.55c7,23.79,36.02,32.71,55.37,17.2c106.77-85.58,386.78-354.83,389.98-827.2
					c2.7-398.89,42.08-614.93,66.75-711.76c5.22-20.48-18.74-35.71-35.1-22.33C3009.77,721.03,2459.76,1255.43,2713.25,2117.55z"/>
				<path class="st2" d="M2746.75,2119.81c0.49,0.37,1.02,0.7,1.6,0.98c4.8,2.35,10.6,0.36,12.95-4.45
					c2.66-5.45,266.44-550.99,295.25-1105.45c0.28-5.34-3.83-9.89-9.17-10.17c-5.34-0.28-9.89,3.83-10.17,9.17
					c-28.6,550.43-290.67,1092.55-293.31,1097.96C2741.83,2112.07,2743.13,2117.07,2746.75,2119.81z"/>
			</g>
		</g>
		<g>
			<g>
				
					<linearGradient id="SVGID_2_" gradientUnits="userSpaceOnUse" x1="1494.3837" y1="1118.991" x2="-654.7984" y2="5132.1587" gradientTransform="matrix(-1 0 0 1 3686.0842 0)">
					<stop  offset="0" style="stop-color:#FF928E"/>
					<stop  offset="1" style="stop-color:#FE7062"/>
				</linearGradient>
				<path class="st4" d="M2648.75,2275.27c22.83,36.6,46.73,88.84,40.92,141.07c-10.61,95.48-157.05,137.91-285.39,84.87
					c-91.49-37.81-52.54-161.88-22.63-230.01c9.48-21.59-6.2-45.81-29.77-45.81h-330.55v-372.32c0-32.51,34.41-53.42,63.23-38.37
					c34.53,18.03,79.94,37.16,127.73,44.7c100.78,15.91,201.56-95.48,190.95-201.57c-10.61-106.08-111.39-185.65-217.48-180.34
					c-36.51,1.82-66.93,17.03-91.12,36.18c-28.11,22.26-69.58,1.54-69.58-34.32v-325.42h920.07c25.91,0,46.93,20.97,46.99,46.87
					l2.52,1024.59h-318.47C2650.57,2225.39,2635.19,2253.54,2648.75,2275.27z"/>
				<path class="st5" d="M2520.04,2531.25c-39.03,0-79.96-7.88-118.35-23.75c-25.27-10.44-42.98-27.9-52.63-51.87
					c-22.05-54.81,2.16-132.03,26.37-187.16c3.54-8.07,2.79-17.28-2.01-24.63c-4.83-7.4-12.68-11.65-21.53-11.65h-337.35v-379.13
					c0-17.69,9.02-33.71,24.12-42.86c15.08-9.14,33.43-9.71,49.07-1.55c44.06,23,86.33,37.81,125.64,44.01
					c41.25,6.52,85.81-9.51,122.29-43.97c42.75-40.38,66.06-97.93,60.83-150.2c-4.9-49.01-29.93-94.24-70.47-127.35
					c-39.5-32.26-90.51-49.37-139.9-46.88c-30.72,1.54-60.07,13.22-87.23,34.72c-14.9,11.8-34.88,13.96-52.13,5.62
					c-17.57-8.5-28.48-25.84-28.48-45.27v-332.23h926.87c29.59,0,53.72,24.07,53.79,53.66l2.53,1031.41h-325.29
					c-9.44,0-17.81,4.92-22.37,13.15c-4.63,8.34-4.36,18.18,0.72,26.33l0,0c22.48,36.05,48.01,90.54,41.91,145.43
					c-3.88,34.95-24.56,64.43-59.78,85.26C2604.16,2521.57,2563.26,2531.25,2520.04,2531.25z M2028.13,2218.59h323.74
					c13.33,0,25.64,6.66,32.93,17.81c7.33,11.21,8.48,25.25,3.08,37.54c-18.95,43.18-47.56,123.54-26.2,176.61
					c8.23,20.45,23.44,35.38,45.2,44.38c75.91,31.37,165.47,29.65,222.85-4.28c31.4-18.57,49.79-44.52,53.18-75.05
					c5.66-51.01-18.59-102.5-39.94-136.72c-7.73-12.4-8.13-27.4-1.07-40.13c7-12.62,19.82-20.16,34.27-20.16h311.65l-2.5-1017.77
					c-0.05-22.1-18.08-40.09-40.19-40.09h-913.26v318.62c0,14.17,7.97,26.82,20.8,33.02c12.7,6.14,26.81,4.63,37.75-4.03
					c29.42-23.3,61.39-35.97,95-37.65c53.48-2.68,106.49,15.06,149.19,49.93c43.36,35.41,70.14,83.9,75.4,136.53
					c5.64,56.37-19.28,118.23-65.03,161.45c-39.56,37.37-88.3,54.7-133.75,47.52c-40.76-6.44-84.44-21.71-129.82-45.39
					c-11.38-5.95-24.74-5.53-35.71,1.12c-11,6.66-17.56,18.34-17.56,31.22V2218.59z"/>
			</g>
			<g>
				
					<linearGradient id="SVGID_3_" gradientUnits="userSpaceOnUse" x1="193.6679" y1="6454.9219" x2="2042.5144" y2="207.1146" gradientTransform="matrix(-1 0 0 1 3686.0842 0)">
					<stop  offset="0" style="stop-color:#FF928E"/>
					<stop  offset="1" style="stop-color:#FE7062"/>
				</linearGradient>
				<path class="st6" d="M2021.33,3243.81v-311.81c0-31.03-31.62-52.3-60.2-40.2c-31.47,13.33-74.33,26.06-126.29,28.44
					c-115.86,5.3-204.06-90.18-186.48-222.78c17.58-132.61,130.37-164.44,185.36-148.52c28.71,8.31,78.58,40.17,119.68,68.72
					c28.7,19.93,67.92-0.63,67.92-35.57v-356.71h330.55c23.58,0,39.25,24.22,29.77,45.81c-29.91,68.13-68.86,192.2,22.63,230.01
					c128.34,53.05,274.78,10.61,285.39-84.87c5.8-52.24-18.09-104.47-40.92-141.07c-13.55-21.73,1.82-49.88,27.43-49.88h318.47
					l5.19,984.21c0.1,18.86-15.17,34.21-34.03,34.21H2021.33z"/>
				<path class="st5" d="M2965.81,3250.62h-951.28v-318.61c0-12.38-6.17-23.87-16.51-30.72c-10.36-6.87-22.83-8.04-34.22-3.21
					c-40.56,17.17-83.84,26.92-128.63,28.98c-56.91,2.58-108.45-17.98-145.12-57.96c-40.17-43.78-57.36-105.05-48.42-172.52
					c9.78-73.76,47.34-112.44,77.12-131.9c43.92-28.69,90.41-29.93,116.88-22.27c24.32,7.04,65.25,30.48,121.67,69.67
					c11.34,7.88,25.42,8.76,37.66,2.37c12.26-6.41,19.58-18.5,19.58-32.35v-363.51h337.35c13.33,0,25.64,6.66,32.93,17.81
					c7.32,11.21,8.48,25.25,3.08,37.54c-18.95,43.18-47.56,123.54-26.2,176.61c8.23,20.45,23.44,35.38,45.2,44.38
					c75.91,31.37,165.47,29.66,222.85-4.28c31.4-18.57,49.79-44.52,53.18-75.05c5.66-51.01-18.59-102.5-39.94-136.72
					c-7.73-12.4-8.13-27.4-1.07-40.13c7-12.62,19.82-20.16,34.27-20.16h325.24l5.23,990.98c0.06,10.95-4.16,21.25-11.88,29.02
					C2987.04,3246.34,2976.76,3250.62,2965.81,3250.62z M2028.13,3237.01h937.67c7.3,0,14.15-2.85,19.3-8.03
					c5.15-5.17,7.96-12.04,7.92-19.34l-5.15-977.45h-311.7c-9.44,0-17.81,4.92-22.37,13.15c-4.63,8.34-4.36,18.18,0.72,26.33
					c22.48,36.05,48.01,90.54,41.91,145.43c-3.88,34.95-24.55,64.43-59.78,85.26c-61.82,36.57-154.06,38.59-234.97,5.14
					c-25.27-10.44-42.98-27.9-52.63-51.87c-22.06-54.81,2.16-132.03,26.36-187.16c3.54-8.07,2.79-17.28-2.01-24.63
					c-4.83-7.4-12.68-11.65-21.53-11.65h-323.74v349.9c0,19-10.05,35.61-26.88,44.41c-16.81,8.79-36.15,7.57-51.72-3.25
					c-54.43-37.8-95.12-61.24-117.69-67.77c-25.57-7.4-68.16-3.9-105.66,20.59c-27.4,17.9-61.97,53.65-71.07,122.29
					c-8.41,63.4,7.56,120.77,44.96,161.53c33.91,36.95,81.64,55.98,134.47,53.56c43.18-1.98,84.88-11.37,123.95-27.91
					c15.44-6.54,33.02-4.89,47.05,4.4c14.16,9.38,22.61,25.1,22.61,42.06V3237.01z"/>
			</g>
			<g>
				
					<linearGradient id="SVGID_4_" gradientUnits="userSpaceOnUse" x1="2694.7827" y1="1680.8466" x2="437.7536" y2="5895.397" gradientTransform="matrix(-1 0 0 1 3686.0842 0)">
					<stop  offset="0" style="stop-color:#FF928E"/>
					<stop  offset="1" style="stop-color:#FE7062"/>
				</linearGradient>
				<path class="st7" d="M1112.57,3245.39c-20.08,0.03-36.37-16.23-36.37-36.31v-262.4c0-33.84,0.67-348.07,0.67-382.49v-346.76
					h320.15c26.39,0,41.86-30,26.26-51.28c-74.93-102.2-9.55-247.66,46.4-272.28c66.31-29.18,201.57-37.13,241.35,111.39
					c20.72,77.37,1.7,133.86-21.28,170.24c-13.69,21.66,1.63,49.89,27.25,49.89h304.32v356.71c0,34.94-39.23,55.5-67.92,35.57
					c-41.1-28.55-90.97-60.41-119.68-68.72c-54.99-15.91-167.78,15.91-185.36,148.52c-17.58,132.61,70.62,228.08,186.48,222.78
					c51.96-2.38,94.82-15.12,126.29-28.44c28.57-12.1,60.2,9.17,60.2,40.2v311.81L1112.57,3245.39z"/>
				<path class="st5" d="M1112.51,3252.2c-11.5,0-22.31-4.47-30.46-12.6c-8.16-8.15-12.66-18.98-12.66-30.51v-262.4
					c0-16.85,0.17-103.21,0.33-189.93c0.17-87.45,0.34-175.28,0.34-192.56v-353.56h326.96c9.86,0,18.42-5.27,22.89-14.09
					c4.41-8.7,3.62-18.55-2.11-26.37c-46.38-63.26-36.79-134.35-26.94-171.1c13.94-52.03,45.23-97.85,76.09-111.43
					c39.61-17.43,105.75-28.25,161.79-1.37c43.75,20.99,73.65,60.43,88.87,117.22c21.87,81.64,0.05,140.57-22.1,175.64
					c-5.12,8.11-5.43,17.94-0.83,26.29c4.54,8.24,12.89,13.16,22.33,13.16h311.13v363.51c0,19-10.05,35.61-26.88,44.41
					c-16.81,8.79-36.15,7.57-51.72-3.25c-54.43-37.8-95.12-61.24-117.69-67.77c-25.57-7.4-68.16-3.9-105.66,20.59
					c-27.4,17.9-61.97,53.65-71.07,122.29c-8.41,63.4,7.56,120.77,44.96,161.53c33.91,36.95,81.64,55.98,134.47,53.56
					c43.18-1.98,84.88-11.37,123.95-27.91c15.44-6.54,33.02-4.89,47.05,4.4c14.16,9.38,22.61,25.1,22.61,42.06v318.6l-915.55,1.59
					C1112.56,3252.2,1112.53,3252.2,1112.51,3252.2z M1112.56,3238.59l0.01,6.8L1112.56,3238.59l901.96-1.57v-305.01
					c0-12.38-6.17-23.87-16.51-30.72c-10.36-6.87-22.83-8.04-34.22-3.21c-40.56,17.17-83.84,26.92-128.63,28.98
					c-56.91,2.58-108.45-17.98-145.12-57.96c-40.17-43.78-57.36-105.05-48.42-172.52c9.78-73.76,47.34-112.44,77.12-131.9
					c43.92-28.69,90.41-29.93,116.88-22.27c24.32,7.04,65.25,30.48,121.67,69.67c11.34,7.88,25.42,8.76,37.66,2.37
					c12.26-6.41,19.58-18.5,19.58-32.35v-349.9H1717c-14.48,0-27.28-7.55-34.25-20.2c-7.03-12.76-6.57-27.76,1.25-40.12
					c20.7-32.77,41.05-87.96,20.46-164.85c-14.14-52.79-41.6-89.28-81.61-108.48c-51.87-24.88-113.46-14.72-150.42,1.55
					c-27.34,12.03-55.48,54.18-68.42,102.49c-9.22,34.39-18.25,100.85,24.77,159.53c8.69,11.86,9.95,27.4,3.28,40.57
					c-6.73,13.29-20.16,21.55-35.03,21.55h-313.35v339.95c0,17.28-0.17,105.12-0.34,192.59c-0.17,86.71-0.33,173.06-0.33,189.91
					v262.4c0,7.89,3.08,15.31,8.66,20.88c5.57,5.56,12.97,8.63,20.84,8.63C1112.53,3238.59,1112.54,3238.59,1112.56,3238.59z"/>
			</g>
		</g>
		<g>
			
				<linearGradient id="SVGID_5_" gradientUnits="userSpaceOnUse" x1="13560.7256" y1="3182.3047" x2="13702.3516" y2="3182.3047" gradientTransform="matrix(1 0 0 1 -13062.1631 0)">
				<stop  offset="0" style="stop-color:#09005D"/>
				<stop  offset="1" style="stop-color:#1A0F91"/>
			</linearGradient>
			<path class="st8" d="M518.28,3132.4c0,0-15.74,24.81-19.7,94.26c-0.37,6.47,4.76,11.98,11.24,11.98H632.9
				c4.95,0,8.49-4.86,6.9-9.55c-7.21-21.35-29.02-73.39-77.68-103.13L518.28,3132.4z"/>
			
				<linearGradient id="SVGID_6_" gradientUnits="userSpaceOnUse" x1="13575.0928" y1="3116.4922" x2="13632.5313" y2="3116.4922" gradientTransform="matrix(1 0 0 1 -13062.1631 0)">
				<stop  offset="0" style="stop-color:#FEBBBA"/>
				<stop  offset="1" style="stop-color:#FF928E"/>
			</linearGradient>
			<path class="st9" d="M512.93,3085.34l6.96,58.37c0.6,5.04,4.55,9.07,9.59,9.65c6.73,0.78,16.52,1.32,26.03-0.25
				c8.64-1.43,14.86-9.13,14.86-17.89v-56.36L512.93,3085.34z"/>
			
				<linearGradient id="SVGID_7_" gradientUnits="userSpaceOnUse" x1="13861.9111" y1="3180.04" x2="14084.1279" y2="3180.04" gradientTransform="matrix(1 0 0 1 -13062.1631 0)">
				<stop  offset="0" style="stop-color:#09005D"/>
				<stop  offset="1" style="stop-color:#1A0F91"/>
			</linearGradient>
			<path class="st10" d="M822.81,3125.96c0,0-23.56,36.62-23.05,86.88c0.12,11.84,10.03,21.27,21.87,21.27h191.16
				c8.95,0,12.59-11.5,5.26-16.65c-36.17-25.4-107.27-72.86-158.69-91.51H822.81z"/>
			
				<linearGradient id="SVGID_8_" gradientUnits="userSpaceOnUse" x1="13865.2861" y1="3090.9873" x2="13922.4092" y2="3090.9873" gradientTransform="matrix(1 0 0 1 -13062.1631 0)">
				<stop  offset="0" style="stop-color:#FEBBBA"/>
				<stop  offset="1" style="stop-color:#FF928E"/>
			</linearGradient>
			<path class="st11" d="M803.12,3062.92l14.85,72.09c1.66,8.06,9.55,13.49,17.58,11.69c4.89-1.09,10.65-3.18,16.81-7.03
				c5.85-3.66,8.82-10.62,7.62-17.42l-15.36-87.34L803.12,3062.92z"/>
			
				<linearGradient id="SVGID_9_" gradientUnits="userSpaceOnUse" x1="13539.4033" y1="2584.2971" x2="13928.8262" y2="2584.2971" gradientTransform="matrix(1 0 0 1 -13062.1631 0)">
				<stop  offset="0" style="stop-color:#09005D"/>
				<stop  offset="1" style="stop-color:#1A0F91"/>
			</linearGradient>
			<path class="st12" d="M540.21,2060.58c0,0-51.63,45.52-61.35,100.28c-9.72,54.76,27.53,944.87,27.53,944.87
				s51.63,8.59,78.24-7.54c0,0,31.57-577.67,55.56-711.16c0,0,125.83,598.39,160.69,706.52c0,0,49.74,6.05,65.78-3.41
				c0,0-32.96-775.69-74.38-913.59L540.21,2060.58z"/>
			<linearGradient id="SVGID_10_" gradientUnits="userSpaceOnUse" x1="566.8248" y1="2305.3923" x2="641.2412" y2="2305.3923">
				<stop  offset="0" style="stop-color:#4F52FF"/>
				<stop  offset="1" style="stop-color:#4042E2"/>
			</linearGradient>
			<path class="st13" d="M638.69,2365.21c-1.13,0-2.17-0.76-2.47-1.91l-21.68-83.16L568,2250.28c-1.19-0.76-1.53-2.34-0.77-3.53
				c0.76-1.19,2.33-1.53,3.53-0.77l47.38,30.39c0.54,0.35,0.93,0.88,1.09,1.51l21.93,84.13c0.36,1.36-0.46,2.76-1.82,3.11
				C639.12,2365.18,638.9,2365.21,638.69,2365.21z"/>
			<linearGradient id="SVGID_11_" gradientUnits="userSpaceOnUse" x1="697.6058" y1="2844.3245" x2="1090.6022" y2="1180.9384">
				<stop  offset="0" style="stop-color:#4F52FF"/>
				<stop  offset="1" style="stop-color:#4042E2"/>
			</linearGradient>
			<path class="st14" d="M1025.34,1572.4c-217.35-18.04-274.15,26.93-274.15,26.93l104.45,164.9c0,0,213.56-4.22,366.59-122.17
				c-28.64-30.84-48.53-64.93-61.29-91.47C1121.48,1566.99,1076.04,1576.61,1025.34,1572.4z"/>
			
				<linearGradient id="SVGID_12_" gradientUnits="userSpaceOnUse" x1="14223.1006" y1="1444.517" x2="14435.3945" y2="1444.517" gradientTransform="matrix(1 0 0 1 -13062.1631 0)">
				<stop  offset="0" style="stop-color:#FEBBBA"/>
				<stop  offset="1" style="stop-color:#FF928E"/>
			</linearGradient>
			<path class="st15" d="M1365.7,1253.36c-0.29-6.97-9.73-8.86-12.69-2.55l-27.73,59.18c-5.36,11.43-7.08,24.24-4.92,36.68
				l9.73,34.45c2.91,16.8-1.48,34.01-12.13,47.32c-25.48,31.86-79.75,90.04-157.02,122.15c12.76,26.54,32.65,60.63,61.29,91.47
				c56.15-43.28,104.16-101.84,130.46-181.16c12.6-3.87,21.02-15.74,20.52-28.91L1365.7,1253.36z"/>
			<linearGradient id="SVGID_13_" gradientUnits="userSpaceOnUse" x1="1216.8678" y1="1433.3889" x2="522.7465" y2="2566.4382">
				<stop  offset="0" style="stop-color:#4F52FF"/>
				<stop  offset="1" style="stop-color:#4042E2"/>
			</linearGradient>
			<path class="st16" d="M1121.25,1641.86c-76.51-82.45-222.26-119.7-306.64-135c-36.97-6.7-73.41,13.87-86.51,49.08
				c-37.97,102.08-141.25,367.64-161.27,413.29c-16.42,37.44-33.57,74.02-44.47,96.88c-6.51,13.66-0.82,30.01,12.81,36.57
				c70.99,34.22,198.74,72.93,250.52,88.04c11.39,3.32,22.73-5.23,22.73-17.1c0-10.06,2.74-19.94,7.91-28.57l196.14-326.85
				c122.25,135.55,229.31,147.94,311.55,118.27c-13.83-42.74-22.88-85.55-27.22-128.45
				C1175.33,1787.22,1121.25,1641.86,1121.25,1641.86z"/>
			
				<linearGradient id="SVGID_14_" gradientUnits="userSpaceOnUse" x1="14728.1777" y1="1464.6608" x2="14269.4678" y2="2035.339" gradientTransform="matrix(1 0 0 1 -13062.1631 0)">
				<stop  offset="0" style="stop-color:#FEBBBA"/>
				<stop  offset="1" style="stop-color:#FF928E"/>
			</linearGradient>
			<path class="st17" d="M1497.65,1785.28l-21.93-29.24c-70.99,48.75-130.32,60.31-178.9,51.98c4.34,42.9,13.39,85.72,27.22,128.45
				C1432.4,1897.4,1497.65,1785.28,1497.65,1785.28z"/>
			
				<linearGradient id="SVGID_15_" gradientUnits="userSpaceOnUse" x1="14212.127" y1="1119.7709" x2="13767.8633" y2="1936.0608" gradientTransform="matrix(1 0 0 1 -13062.1631 0)">
				<stop  offset="0" style="stop-color:#FEBBBA"/>
				<stop  offset="1" style="stop-color:#FF928E"/>
			</linearGradient>
			<path class="st18" d="M930.68,1355.44l-65.18,159.05c0,0,74.89,51.83,135.14,46.9l32.53-143.01L930.68,1355.44z"/>
			<g>
				
					<linearGradient id="SVGID_16_" gradientUnits="userSpaceOnUse" x1="11592.9072" y1="11486.2764" x2="11396.5684" y2="11746.0166" gradientTransform="matrix(0.817 -0.5767 0.5767 0.817 -15085.5908 -1428.4956)">
					<stop  offset="0" style="stop-color:#FEBBBA"/>
					<stop  offset="1" style="stop-color:#FF928E"/>
				</linearGradient>
				<path class="st19" d="M1040.78,1247.02c1.49,2.12,47.15,167.06,47.15,167.06l-94.74,24.07l-66.5-149.91
					C926.69,1288.24,1015.78,1211.61,1040.78,1247.02z"/>
				<linearGradient id="SVGID_17_" gradientUnits="userSpaceOnUse" x1="1218.0049" y1="960.0307" x2="928.5872" y2="1474.8888">
					<stop  offset="0" style="stop-color:#09005D"/>
					<stop  offset="1" style="stop-color:#1A0F91"/>
				</linearGradient>
				<path class="st20" d="M962.36,1311.02l28.83,81.65c0.37,1.05,0.86,2.02,1.5,2.92c3.91,5.56,18.77,23.69,36.4,7.36
					c16-14.82,30.81-28.11,44.5-30.53c6.14-1.08,12.1,2.67,13.76,8.68c4.14,14.99,12.86,48.93,15.93,79.58
					c0.62,6.22-3.67,11.84-9.81,13.01c-18.5,3.51-57.73,9.83-90.49,7.52c-4.44-0.31-8.34-2.98-10.19-7.02
					c-9.02-19.72-36.68-79.57-46.97-95.05c-9.65-14.53-33.32-14.13-43.25-13.25c-3.25,0.29-6.45-0.76-8.91-2.91
					c-8.68-7.61-25.21-27.04-1.96-50.31c4.86-4.87,4.73-12.72-0.28-17.44c-9.98-9.39-20.66-26.03-4.03-46.68
					c16.91-20.99,39.22-17.65,52.89-12.66c5.53,2.02,11.56-0.32,14.56-5.38c1.71-2.88,4.7-5.06,9.87-4.62
					c6.97,0.6,12.84-5.22,12.71-12.22c-0.24-13.44,4.57-30.43,27.89-37.69c41.38-12.88,67.19,27.1,69.75,56.93
					c2.56,29.83-43.11,41.25-69.96,39.24c-20.42-1.53-35.57,18.7-41.67,28.49C961.53,1303.77,961.15,1307.57,962.36,1311.02z"/>
				
					<linearGradient id="SVGID_18_" gradientUnits="userSpaceOnUse" x1="11305.3477" y1="11691.9697" x2="11462.8281" y2="11530.3994" gradientTransform="matrix(0.817 -0.5767 0.5767 0.817 -15085.5908 -1428.4956)">
					<stop  offset="0" style="stop-color:#FEBBBA"/>
					<stop  offset="1" style="stop-color:#FF928E"/>
				</linearGradient>
				<path class="st21" d="M956.62,1408.77c0,0-6.68-51.79-28.23-54.33c-21.55-2.54-42.52,15.17-21.1,44.24
					C933.94,1434.84,956.62,1408.77,956.62,1408.77z"/>
			</g>
			<linearGradient id="SVGID_19_" gradientUnits="userSpaceOnUse" x1="1206.0314" y1="1213.8037" x2="2566.3342" y2="1213.8037">
				<stop  offset="0" style="stop-color:#4F52FF"/>
				<stop  offset="1" style="stop-color:#4042E2"/>
			</linearGradient>
			<path class="st22" d="M1839.64,1712.35c23.38-37.01,42.73-94.49,21.65-173.2c-40.47-151.11-178.09-143.01-245.55-113.33
				c-56.92,25.04-123.44,173.04-47.2,277.02c15.87,21.65,0.13,52.18-26.72,52.18h-325.73l-10.06-1045.72
				c-0.24-24.82,19.94-45.01,44.76-44.78l930,8.48v331.09c0,36.48,42.19,57.57,70.79,34.92c24.61-19.49,55.55-34.96,92.7-36.81
				c107.93-5.4,210.47,75.56,221.26,183.48c10.79,107.93-91.74,221.26-194.28,205.07c-48.62-7.68-94.82-27.14-129.95-45.48
				c-29.32-15.31-64.33,5.96-64.33,39.04v378.81h-309.62C1841.3,1763.1,1825.72,1734.39,1839.64,1712.35z"/>
			
				<linearGradient id="SVGID_20_" gradientUnits="userSpaceOnUse" x1="14828.5264" y1="1487.8715" x2="14313.6172" y2="2128.4675" gradientTransform="matrix(1 0 0 1 -13062.1631 0)">
				<stop  offset="0" style="stop-color:#FEBBBA"/>
				<stop  offset="1" style="stop-color:#FF928E"/>
			</linearGradient>
			<path class="st23" d="M1482.19,1785.81l123.53,4.82l69.21-121.16c3.33-5.82-1.63-13.13-8.21-11.81
				c-30.13,6.03-53.64,44.25-64.42,65.11c-4.21,8.16-13.01,12.87-22.15,12c-21.31-2.03-58.78-5.33-76.88-5.36
				c-21.69-0.03-33.69,24.92-32.01,35.5c0.34,2.16,0.62,3.46,0.62,3.46L1482.19,1785.81z"/>
		</g>
	</g>
</g>
</svg>
