<?xml version="1.0" encoding="utf-8"?>
<!-- Generator: Adobe Illustrator 23.0.1, SVG Export Plug-In . SVG Version: 6.00 Build 0)  -->
<svg version="1.1" xmlns="http://www.w3.org/2000/svg" xmlns:xlink="http://www.w3.org/1999/xlink" x="0px" y="0px"
	 viewBox="0 0 3710 3710" style="enable-background:new 0 0 3710 3710;" xml:space="preserve">
<style type="text/css">
	.st0{display:none;}
	.st1{display:inline;}
	.st2{fill:#FFFFFF;}
	.st3{fill:#F4F7FA;}
	.st4{clip-path:url(#SVGID_3_);}
	.st5{fill:#FCFDFE;}
	.st6{clip-path:url(#SVGID_6_);}
	.st7{fill:url(#SVGID_7_);}
	.st8{fill:url(#SVGID_8_);}
	.st9{fill:url(#SVGID_9_);}
	.st10{fill:url(#SVGID_10_);}
	.st11{fill:url(#SVGID_11_);}
	.st12{fill:url(#SVGID_12_);}
	.st13{fill:url(#SVGID_13_);}
	.st14{opacity:0.6;fill:#FFFFFF;}
	.st15{filter:url(#Adobe_OpacityMaskFilter);}
	.st16{fill:url(#SVGID_15_);}
	.st17{opacity:0.56;mask:url(#SVGID_14_);fill:#FFFFFF;}
	.st18{fill:#97A6B7;}
	.st19{fill:#D8DEE8;}
	.st20{fill:url(#SVGID_16_);}
	.st21{opacity:0.3;fill:#FFFFFF;}
	.st22{fill:#BFC8D6;}
	.st23{opacity:0.4;fill:#D8DEE8;}
	.st24{fill:url(#SVGID_17_);}
	.st25{fill:url(#SVGID_18_);}
	.st26{fill:url(#SVGID_19_);}
	.st27{fill:url(#SVGID_20_);}
</style>
<g id="Background" class="st0">
	<g class="st1">
		<g>
			<rect x="2637.84" y="3371.88" class="st2" width="3710" height="3710"/>
		</g>
	</g>
</g>
<g id="Illustration">
	<g>
		<path class="st3" d="M2125.72,404.02c-736.55-21.45-1374.55,505.6-1470.94,1197.15c-105.39,756.12,474.66,1436.45,1188.4,1545.41
			c887.76,135.53,1748.84-648.54,1671.53-1499.15C3456.45,1006.58,2874.43,425.82,2125.72,404.02z"/>
		<g>
			<g>
				<g>
					<g>
						<g>
							<defs>
								<path id="SVGID_1_" d="M1561.25,2758.89c-20.81,49.35-59.6,117.88-100.9,196.82h880.18
									c-134.45-248.57-310.32-504.59-173.28-989.85c64.31-227.72,263.09-640.5,122.54-876.23
									c-160.13-268.56-377.2-111.15-468.85-323.76c-143.24-332.29-472.41-530.22-763.74-312.59
									c-287.53,214.79-187.32,832.98,322.05,1451.37C1694.44,2389.68,1669.91,2501.2,1561.25,2758.89z"/>
							</defs>
							<linearGradient id="SVGID_2_" gradientUnits="userSpaceOnUse" x1="1814.4814" y1="494.3373" x2="1464.8571" y2="2957.9854">
								<stop  offset="0" style="stop-color:#FFC444"/>
								<stop  offset="0.9964" style="stop-color:#F36F56"/>
							</linearGradient>
							<use xlink:href="#SVGID_1_"  style="overflow:visible;fill:url(#SVGID_2_);"/>
							<clipPath id="SVGID_3_">
								<use xlink:href="#SVGID_1_"  style="overflow:visible;"/>
							</clipPath>
							<g class="st4">
								<g>
									<path class="st5" d="M1915.39,2904.72c-10.17-114.12-25.54-221.25-41.82-334.66l-5.42-37.81
										c-11.2-54.13-20.78-107.8-30.04-159.71c-20.91-117.21-40.67-227.92-77.7-343.13c-1.38-6.84-2.39-13.54-3.45-20.63
										c-3.8-25.32-7.73-51.5-26.07-74.42l-0.49-0.99C1580.7,1317.33,1301.43,721.87,900.34,163.51l4.15-2.98
										c401.35,558.72,680.85,1154.6,830.73,1771.07c18.89,23.89,23.08,51.78,26.77,76.41c1.06,7.03,2.05,13.66,3.34,20.1
										c37.06,115.26,56.85,226.13,77.79,343.52c9.26,51.87,18.83,105.51,30.05,159.73l5.44,37.97
										c16.29,113.48,31.68,220.67,41.86,334.93L1915.39,2904.72z"/>
									<path class="st5" d="M1829.38,2351.69c-48.31-294.59,56.69-668.03,153.27-929.43c104.6-283.09,222.13-499.41,223.31-501.56
										l4.48,2.45c-1.17,2.15-118.56,218.2-223.03,500.96c-96.36,260.81-201.12,633.3-153,926.77L1829.38,2351.69z"/>
									<path class="st5" d="M1445.11,1096.65c-68.68-309.74-69.03-650.72-69.14-762.76c-0.02-21.43-0.04-35.59-0.52-38.27
										l5.03-0.9c0.54,3,0.57,14.18,0.6,39.17c0.11,111.91,0.46,452.46,69.02,761.66L1445.11,1096.65z"/>
									<path class="st5" d="M1630.24,1581.05c-144.73-254.46-731.77-413.66-737.68-415.24l1.32-4.93
										c5.93,1.58,595.03,161.35,740.8,417.65L1630.24,1581.05z"/>
								</g>
							</g>
						</g>
					</g>
					<g>
						<g>
							<defs>
								<path id="SVGID_4_" d="M1409.96,1776.38c4.74,404.38,199.78,271.13,379.63,311.04c207.57,300.32,227.12,578.95-82.79,819.58
									l-345.31-51.68c-128.13-5.95-278.47-45.11-269.98-215.71c9.59-192.96,55.22-315.51-162.57-410.27
									c-217.79-94.76-311.35-267.67-223.15-464.34c92.81-206.97-124.88-485.95,34.21-624.63
									C1017.21,898.76,1405.03,1355.3,1409.96,1776.38z"/>
							</defs>
							<linearGradient id="SVGID_5_" gradientUnits="userSpaceOnUse" x1="838.2911" y1="1405.5454" x2="2148.3147" y2="3562.1816">
								<stop  offset="3.597120e-03" style="stop-color:#E38DDD"/>
								<stop  offset="1" style="stop-color:#9571F6"/>
							</linearGradient>
							<use xlink:href="#SVGID_4_"  style="overflow:visible;fill:url(#SVGID_5_);"/>
							<clipPath id="SVGID_6_">
								<use xlink:href="#SVGID_4_"  style="overflow:visible;"/>
							</clipPath>
							<g class="st6">
								<g>
									<path class="st5" d="M1495.69,2500.05c-144.17-157.73-269.08-332.99-371.27-520.94
										c-103.06-189.57-181.62-389.52-233.48-594.3c-29.74-117.42-50.74-237.06-62.4-355.58l5.2-0.51
										c11.64,118.26,32.59,237.63,62.27,354.81c51.76,204.35,130.15,403.9,233.01,593.08
										c101.98,187.58,226.65,362.5,370.53,519.91L1495.69,2500.05z"/>
									<path class="st5" d="M1124.02,2722.15l-2.37-4.66c64.14-32.67,139.79-58.15,224.86-75.73
										c40.54-8.38,80.81-13.91,119.69-16.43l0.34,5.21c-38.64,2.51-78.67,8-118.97,16.34
										C1262.95,2664.37,1187.74,2689.69,1124.02,2722.15z"/>
									<path class="st5" d="M1191.65,2094.49c-178.31-172.49-557.89-156.73-561.69-156.52l-0.25-5.22
										c3.85-0.17,385.63-16.08,565.57,157.99L1191.65,2094.49z"/>
									<path class="st5" d="M971.78,1644.32c-53.37-275.18,152.87-593.18,154.95-596.35l4.36,2.87
										c-2.08,3.16-207.15,319.42-154.19,592.49L971.78,1644.32z"/>
								</g>
							</g>
						</g>
					</g>
				</g>
			</g>
		</g>
		<g>
			<g>
				
					<linearGradient id="SVGID_7_" gradientUnits="userSpaceOnUse" x1="2121.3083" y1="2751.4036" x2="2123.1472" y2="2870.9355" gradientTransform="matrix(-1 0 0 1 4283.5015 0)">
					<stop  offset="0" style="stop-color:#444B8C"/>
					<stop  offset="0.9964" style="stop-color:#26264F"/>
				</linearGradient>
				<path class="st7" d="M3131.95,2936.16l-1213.25-83.78c-1.46-0.14-2.93-0.14-4.39-0.01l-722.54,32.73
					c-17.28,1.57-16.5,46.83,3.12,49.3l1135.29,152.02c4.65,0.57,9.35,0.56,13.99-0.04l785.54-110.38
					C3140.2,2974.16,3144.03,2937.04,3131.95,2936.16z"/>
				
					<linearGradient id="SVGID_8_" gradientUnits="userSpaceOnUse" x1="2100.5552" y1="2988.6121" x2="2291.4497" y2="2410.6257" gradientTransform="matrix(-1 0 0 1 4283.5015 0)">
					<stop  offset="0" style="stop-color:#444B8C"/>
					<stop  offset="0.9964" style="stop-color:#26264F"/>
				</linearGradient>
				<path class="st8" d="M3129.55,2934.82L1918.7,2820.56c-1.46-0.14-2.93-0.14-4.39-0.01l-719.03,63.13
					c-13.2,1.16-13.54,20.34-0.39,21.96l1135.29,140.1c4.65,0.57,9.35,0.56,13.99-0.04l785.54-101.52
					C3135.28,2943.45,3135.14,2935.35,3129.55,2934.82z"/>
				
					<linearGradient id="SVGID_9_" gradientUnits="userSpaceOnUse" x1="1254.3279" y1="2933.3096" x2="3028.5916" y2="2933.3096" gradientTransform="matrix(-1 0 0 1 4283.5015 0)">
					<stop  offset="0" style="stop-color:#FF9085"/>
					<stop  offset="1" style="stop-color:#FB6FBB"/>
				</linearGradient>
				<path class="st9" d="M2318.18,3032.05c1.68,0,3.38-0.11,5.04-0.32l704.06-90.99c2.57-0.33,2.5-4.07-0.07-4.31l-1081.17-101.82
					c-0.24-0.02-0.48-0.03-0.72-0.03c-0.22,0-0.44,0.01-0.67,0.03l-687.3,60.34c-3.19,0.28-3.27,4.91-0.09,5.31l1056.11,131.5
					C2314.95,3031.95,2316.57,3032.05,2318.18,3032.05z"/>
				
					<linearGradient id="SVGID_10_" gradientUnits="userSpaceOnUse" x1="1972.5253" y1="2731.7219" x2="2001.3961" y2="2731.7219" gradientTransform="matrix(-0.9927 0.1207 0.1207 0.9927 4375.7886 34.9268)">
					<stop  offset="0" style="stop-color:#FF9085"/>
					<stop  offset="1" style="stop-color:#FB6FBB"/>
				</linearGradient>
				<path class="st10" d="M2718.72,2988.28c0.25,2.1,6.88,3.02,14.79,2.06c7.91-0.96,14.12-3.44,13.87-5.54
					c-0.26-2.1-6.88-3.02-14.79-2.06C2724.68,2983.69,2718.47,2986.18,2718.72,2988.28z"/>
				<g>
					
						<linearGradient id="SVGID_11_" gradientUnits="userSpaceOnUse" x1="2081.4609" y1="3045.0139" x2="2083.425" y2="3095.686" gradientTransform="matrix(-1 0 0 1 4283.5015 0)">
						<stop  offset="0" style="stop-color:#444B8C"/>
						<stop  offset="0.9964" style="stop-color:#26264F"/>
					</linearGradient>
					<path class="st11" d="M2146.18,3053.1l108.98,14.32c7.96,1.05,14.48-2.85,14.48-8.7l0,0c0-5.86-6.52-11.37-14.48-12.3
						l-108.98-12.73c-6.73-0.79-12.14,2.89-12.14,8.2l0,0C2134.03,3047.2,2139.44,3052.21,2146.18,3053.1z"/>
					
						<linearGradient id="SVGID_12_" gradientUnits="userSpaceOnUse" x1="2210.8411" y1="3039.9993" x2="2212.8049" y2="3090.6707" gradientTransform="matrix(-1 0 0 1 4283.5015 0)">
						<stop  offset="0" style="stop-color:#444B8C"/>
						<stop  offset="0.9964" style="stop-color:#26264F"/>
					</linearGradient>
					<path class="st12" d="M2027.13,3037.46l89.75,11.79c6.51,0.85,11.83-2.74,11.83-8.03l0,0c0-5.29-5.32-10.2-11.83-10.96
						l-89.75-10.48c-5.59-0.65-10.08,2.75-10.08,7.59l0,0C2017.05,3032.21,2021.55,3036.73,2027.13,3037.46z"/>
					
						<linearGradient id="SVGID_13_" gradientUnits="userSpaceOnUse" x1="2372.8162" y1="3033.7212" x2="2374.7803" y2="3084.3936" gradientTransform="matrix(-1 0 0 1 4283.5015 0)">
						<stop  offset="0" style="stop-color:#444B8C"/>
						<stop  offset="0.9964" style="stop-color:#26264F"/>
					</linearGradient>
					<path class="st13" d="M1876.72,3017.7l68.28,8.97c4.9,0.64,8.91-2.55,8.91-7.14l0,0c0-4.59-4-8.78-8.91-9.35l-68.28-7.98
						c-4.29-0.5-7.75,2.54-7.75,6.79l0,0C1868.97,3013.24,1872.43,3017.14,1876.72,3017.7z"/>
				</g>
				<path class="st14" d="M1750.36,2891.05c105.51,18.78,175.58,57.03,327,60.1c131.16,2.65,132.13-27.57,284.57-37.12
					c199.71-12.51,251.77,36,456.03,31.82c53.26-1.09,122.98-5.9,205.47-21.04l106.13,10.02c5.59,0.53,5.73,8.63,0.16,9.35
					l-785.54,101.52c-4.64,0.6-9.34,0.61-13.99,0.04l-960.93-118.58C1534.14,2872.17,1660.39,2875.03,1750.36,2891.05z"/>
			</g>
			<g>
				<path class="st2" d="M2000.45,2946.57c-56.22,0-139.87-9.73-139.87-36.53s83.65-36.53,139.87-36.53
					c56.22,0,139.87,9.73,139.87,36.53S2056.67,2946.57,2000.45,2946.57z M2000.45,2884.18c-84.83,0-129.2,16.84-129.2,25.86
					s44.37,25.86,129.2,25.86c84.82,0,129.2-16.84,129.2-25.86S2085.27,2884.18,2000.45,2884.18z"/>
				<ellipse class="st14" cx="2000.45" cy="2910.04" rx="61.15" ry="14.18"/>
				<defs>
					<filter id="Adobe_OpacityMaskFilter" filterUnits="userSpaceOnUse" x="1236.1" y="1414.85" width="1627.7" height="1517.88">
						<feColorMatrix  type="matrix" values="1 0 0 0 0  0 1 0 0 0  0 0 1 0 0  0 0 0 1 0"/>
					</filter>
				</defs>
				<mask maskUnits="userSpaceOnUse" x="1236.1" y="1414.85" width="1627.7" height="1517.88" id="SVGID_14_">
					<g class="st15">
						<linearGradient id="SVGID_15_" gradientUnits="userSpaceOnUse" x1="2099.0454" y1="2841.696" x2="2048.0942" y2="1635.8456">
							<stop  offset="0" style="stop-color:#FFFFFF"/>
							<stop  offset="1" style="stop-color:#000000"/>
						</linearGradient>
						<path class="st16" d="M2863.8,1658.43l-723.55,1183.04l-6.61,10.79l-8.78,14.36l-15.39,25.16l-11.17,18.25
							c0,12.17-41.13,22.05-92.81,22.67c-1.67,0.03-3.33,0.03-5.03,0.03c-54.05,0-97.84-10.15-97.84-22.7l-10.24-18.57l-20.5-37.18
							l-6.99-12.69l-8.77-15.91l-43.06-78.13l-74.18-134.52l-83.57-151.6l-8.34-15.15l-92.34-167.54l-58.7-106.47l-259.83-471.33
							c60.14-46.07,200.48-145.81,405.05-214.43c30.39-10.21,62.18-19.72,95.38-28.26c7.66-1.99,15.41-3.92,23.25-5.79
							c5.88-1.4,11.79-2.78,17.73-4.09c4.68-1.08,9.42-2.11,14.16-3.13c0.03,0,0.03,0,0.06,0c70.76-15.15,147.1-25.65,228.56-29.1
							c9.8-0.44,19.69-0.76,29.66-0.97c155.55-3.28,294.11,20.01,411.9,54.11c3.98,1.11,7.93,2.28,11.82,3.45
							c1.14,0.35,2.28,0.67,3.39,1.02c12.55,3.77,24.86,7.69,36.91,11.7c32.96,10.94,64.06,22.61,93.19,34.6
							C2730.07,1570.62,2818.08,1627.01,2863.8,1658.43z"/>
					</g>
				</mask>
				<path class="st17" d="M2863.8,1658.43l-723.55,1183.04l-6.61,10.79l-8.78,14.36l-15.39,25.16l-11.17,18.25
					c0,12.17-41.13,22.05-92.81,22.67c-1.67,0.03-3.33,0.03-5.03,0.03c-54.05,0-97.84-10.15-97.84-22.7l-10.24-18.57l-20.5-37.18
					l-6.99-12.69l-8.77-15.91l-43.06-78.13l-74.18-134.52l-83.57-151.6l-8.34-15.15l-92.34-167.54l-58.7-106.47l-259.83-471.33
					c60.14-46.07,200.48-145.81,405.05-214.43c30.39-10.21,62.18-19.72,95.38-28.26c7.66-1.99,15.41-3.92,23.25-5.79
					c5.88-1.4,11.79-2.78,17.73-4.09c4.68-1.08,9.42-2.11,14.16-3.13c0.03,0,0.03,0,0.06,0c70.76-15.15,147.1-25.65,228.56-29.1
					c9.8-0.44,19.69-0.76,29.66-0.97c155.55-3.28,294.11,20.01,411.9,54.11c3.98,1.11,7.93,2.28,11.82,3.45
					c1.14,0.35,2.28,0.67,3.39,1.02c12.55,3.77,24.86,7.69,36.91,11.7c32.96,10.94,64.06,22.61,93.19,34.6
					C2730.07,1570.62,2818.08,1627.01,2863.8,1658.43z"/>
			</g>
		</g>
		<g>
			<g>
				<g>
					<path class="st18" d="M3313.18,1234.24l-71.14-13.23c3.92-47.89,1.09-95.11-7.76-140.62l66.67-23.58
						c18.22-6.44,27.88-26.88,21.6-45.7l-16.74-50.18c-6.31-18.93-26.29-29.19-44.67-22.89l-65.71,22.55
						c-20.36-43.92-46.79-85.02-78.51-122.07l45.17-52.26c12.96-14.99,11.31-38.24-3.72-51.98l-40.16-36.74
						c-15.18-13.89-38.18-12.99-51.34,2.07l-45.13,51.64c-40.14-28.74-84.89-52.45-133.53-69.78l12.93-68.86
						c3.81-20.31-9.66-40.68-30.16-45.51l-54.87-12.92c-20.76-4.89-40.78,7.79-44.63,28.32l-13.07,69.62
						c-52.48-5.4-104.48-3.13-154.68,6.05l-25.13-69.87c-7.38-20.53-30.15-32.23-50.89-26.08l-55.48,16.45
						c-20.98,6.22-31.89,28.09-24.32,48.79l26.19,71.58c-47.46,21.75-91.56,50.18-130.83,84.43l-61.88-52.17
						c-17.54-14.79-43.82-13.76-58.65,2.37l-39.59,43.03c-14.94,16.24-12.6,41.38,5.19,56.1l64.2,53.09
						c-28.45,42.02-51.08,88.54-66.54,138.72l-85.96-15.99c-23.14-4.3-45.24,9.7-49.29,31.28l-10.78,57.4
						c-4.05,21.58,11.52,42.38,34.7,46.43l88.42,15.46c-1.95,51.47,3.81,101.91,16.4,150.09l-86.16,29.57
						c-21.97,7.54-33.29,30.22-25.23,50.61l21.37,54.03c8.01,20.25,32.18,30.38,53.95,22.68l87.33-30.89
						c24.48,43.13,54.94,82.7,90.44,117.54l-59.86,68.5c-14.59,16.7-12.34,40.94,5,54.08l45.87,34.74
						c17.15,12.99,42.67,10,57.03-6.61l59.55-68.9c41.52,24.03,86.71,42.82,134.77,55.4l-16.19,86.23
						c-3.86,20.54,10.24,39.37,31.42,42.04l55.96,7.08c20.91,2.64,40.9-11.68,44.71-32l16.01-85.3
						c48.79,0.79,96.41-4.91,141.88-16.29l28.59,78.12c6.83,18.66,27.99,27.53,47.22,19.85l50.87-20.31
						c19.02-7.6,29.01-28.74,22.35-47.28l-27.59-76.71c41.7-21.91,80.26-49.08,114.65-80.68l60.62,50.13
						c14.88,12.31,37.28,9.69,50.05-5.8l33.86-41.05c12.7-15.39,11.1-37.86-3.59-50.24l-58.47-49.29
						c25.52-38.23,46.22-80.15,61.13-125.05l73.2,12.8c18.87,3.3,37.07-9.75,40.71-29.13l9.68-51.55
						C3344.28,1256.29,3332.01,1237.74,3313.18,1234.24z M2657.79,1550.51c-211.89-31.7-357.32-228.07-317.99-437.58
						s246.51-342.02,455.97-297.39c202.35,43.11,331.45,236.53,294.5,433.33C3053.33,1445.66,2862.48,1581.13,2657.79,1550.51z"/>
					<polygon class="st18" points="2597.63,572.58 2547.31,561.32 2521.32,603.45 					"/>
					<polygon class="st18" points="3095.93,687.82 3154.22,699.37 3146.13,742.45 					"/>
					<polygon class="st18" points="3279.49,937.42 3337.26,950.7 3316.59,980.57 					"/>
					<polygon class="st18" points="3318.1,1235.79 3376.02,1251.49 3351.45,1276.41 					"/>
					<polygon class="st18" points="3144.55,1620.88 3200.07,1639.74 3215.8,1594.48 					"/>
					<polygon class="st18" points="2886.78,1790.06 2936.26,1808.99 2947.44,1771.91 					"/>
					<polygon class="st18" points="2613.57,1832.79 2569.11,1816 2619.74,1764.63 					"/>
					<polygon class="st18" points="2373.69,1736.52 2322.21,1715.41 2372.94,1673.1 					"/>
					<polygon class="st18" points="2252.83,720.59 2308.39,732.83 2278.61,769.43 					"/>
					<polygon class="st18" points="2059.33,1138.1 2109.14,1155.28 2112.94,1112.6 					"/>
					<polygon class="st18" points="2111.76,1465.56 2160.3,1483.11 2170.61,1450.69 					"/>
				</g>
				<path class="st19" d="M3369.77,1249.64l-71.73-13.34c3.95-48.28,1.1-95.88-7.83-141.77l67.22-23.77
					c18.37-6.5,28.11-27.1,21.78-46.07l-16.88-50.59c-6.36-19.08-26.51-29.43-45.04-23.08l-66.25,22.73
					c-20.53-44.27-47.18-85.72-79.17-123.07l45.54-52.68c13.07-15.12,11.4-38.55-3.75-52.4l-40.49-37.04
					c-15.31-14-38.49-13.09-51.76,2.09l-45.5,52.06c-40.47-28.98-85.59-52.88-134.64-70.36l13.03-69.42
					c3.85-20.48-9.74-41.01-30.41-45.88l-55.32-13.02c-20.94-4.93-41.11,7.85-45,28.55l-13.18,70.18
					c-52.92-5.44-105.34-3.16-155.96,6.1l-25.34-70.44c-7.45-20.7-30.4-32.49-51.32-26.29l-55.94,16.59
					c-21.16,6.27-32.15,28.32-24.52,49.18l26.41,72.16c-47.85,21.93-92.32,50.59-131.92,85.11l-62.39-52.6
					c-17.69-14.91-44.18-13.88-59.14,2.38l-39.92,43.38c-15.06,16.37-12.7,41.72,5.24,56.56l64.73,53.53
					c-28.69,42.36-51.5,89.26-67.09,139.85l-86.67-16.12c-23.33-4.34-45.61,9.77-49.7,31.53l-10.86,57.87
					c-4.08,21.76,11.62,42.72,34.99,46.81l89.16,15.59c-1.97,51.89,3.84,102.74,16.54,151.31l-86.87,29.81
					c-22.15,7.6-33.56,30.47-25.43,51.02l21.54,54.47c8.07,20.41,32.45,30.63,54.4,22.87l88.05-31.14
					c24.68,43.48,55.4,83.37,91.19,118.5l-60.36,69.05c-14.71,16.83-12.44,41.27,5.05,54.52l46.25,35.02
					c17.29,13.1,43.03,10.09,57.5-6.66l60.04-69.46c41.87,24.23,87.43,43.17,135.89,55.85l-16.32,86.93
					c-3.89,20.7,10.33,39.69,31.68,42.39l56.43,7.14c21.08,2.67,41.24-11.78,45.08-32.26l16.14-85.99
					c49.2,0.8,97.21-4.95,143.05-16.42l28.82,78.76c6.89,18.82,28.22,27.76,47.61,20.02l51.29-20.48
					c19.18-7.66,29.25-28.97,22.53-47.66l-27.82-77.33c42.04-22.09,80.92-49.48,115.6-81.34l61.12,50.54
					c15,12.41,37.59,9.77,50.47-5.84l34.14-41.39c12.8-15.51,11.19-38.17-3.62-50.65l-58.95-49.69
					c25.73-38.54,46.6-80.8,61.63-126.07l73.81,12.91c19.02,3.33,37.38-9.83,41.04-29.37l9.76-51.97
					C3401.12,1271.87,3388.75,1253.17,3369.77,1249.64z M2708.96,1568.48c-213.65-31.96-360.29-229.94-320.64-441.16
					c39.66-211.22,248.54-344.8,459.74-299.81c204.02,43.46,334.2,238.46,296.95,436.87
					C3107.77,1462.79,2915.34,1599.35,2708.96,1568.48z"/>
			</g>
		</g>
		<g>
			<g>
				<g>
					<path class="st18" d="M3118.53,2454.92l-37.93-7.05c2.09-25.53,0.58-50.71-4.14-74.97l35.55-12.57
						c9.71-3.44,14.86-14.33,11.52-24.36l-8.92-26.75c-3.37-10.09-14.02-15.56-23.81-12.2l-35.03,12.02
						c-10.86-23.41-24.95-45.33-41.86-65.08l24.08-27.86c6.91-7.99,6.03-20.39-1.98-27.71l-21.41-19.59
						c-8.09-7.4-20.35-6.92-27.37,1.1l-24.06,27.53c-21.4-15.32-45.26-27.96-71.19-37.2l6.89-36.71
						c2.03-10.83-5.15-21.69-16.08-24.26l-29.25-6.89c-11.07-2.61-21.74,4.15-23.79,15.1l-6.97,37.11
						c-27.98-2.88-55.7-1.67-82.47,3.23l-13.4-37.25c-3.94-10.95-16.07-17.18-27.13-13.9l-29.58,8.77
						c-11.19,3.32-17,14.97-12.96,26.01l13.96,38.16c-25.3,11.6-48.82,26.75-69.75,45.01l-32.99-27.81
						c-9.35-7.89-23.36-7.34-31.27,1.26l-21.11,22.94c-7.96,8.66-6.72,22.06,2.77,29.91l34.23,28.31
						c-15.17,22.4-27.23,47.2-35.48,73.96l-45.83-8.52c-12.33-2.29-24.12,5.17-26.28,16.68l-5.75,30.6
						c-2.16,11.51,6.14,22.59,18.5,24.76l47.14,8.24c-1.04,27.44,2.03,54.33,8.74,80.02l-45.94,15.77
						c-11.71,4.02-17.75,16.11-13.45,26.98l11.39,28.81c4.27,10.8,17.16,16.2,28.76,12.09l46.56-16.47
						c13.05,22.99,29.29,44.09,48.22,62.67l-31.92,36.52c-7.78,8.9-6.58,21.83,2.67,28.83l24.46,18.52
						c9.14,6.93,22.75,5.33,30.41-3.52l31.75-36.73c22.14,12.81,46.23,22.83,71.85,29.54l-8.63,45.97
						c-2.06,10.95,5.46,20.99,16.75,22.42l29.84,3.78c11.15,1.41,21.81-6.23,23.84-17.06l8.54-45.48
						c26.01,0.42,51.4-2.62,75.64-8.68l15.24,41.65c3.64,9.95,14.92,14.68,25.18,10.58l27.12-10.83
						c10.14-4.05,15.47-15.32,11.91-25.2l-14.71-40.9c22.23-11.68,42.79-26.17,61.13-43.01l32.32,26.73
						c7.93,6.56,19.88,5.16,26.69-3.09l18.05-21.89c6.77-8.2,5.92-20.18-1.91-26.78l-31.17-26.28
						c13.6-20.38,24.64-42.73,32.59-66.67l39.02,6.82c10.06,1.76,19.76-5.2,21.7-15.53l5.16-27.48
						C3135.11,2466.68,3128.57,2456.79,3118.53,2454.92z M2769.12,2623.54c-112.97-16.9-190.5-121.59-169.53-233.29
						c20.97-111.7,131.42-182.34,243.1-158.55c107.88,22.98,176.71,126.1,157.01,231.03
						C2979.99,2567.64,2878.24,2639.87,2769.12,2623.54z"/>
					<polygon class="st18" points="2737.04,2102.16 2710.21,2096.16 2696.36,2118.62 					"/>
					<polygon class="st18" points="3002.7,2163.6 3033.78,2169.76 3029.47,2192.73 					"/>
					<polygon class="st18" points="3100.57,2296.68 3131.37,2303.76 3120.35,2319.68 					"/>
					<polygon class="st18" points="3121.15,2455.75 3152.04,2464.12 3138.94,2477.4 					"/>
					<polygon class="st18" points="3028.63,2661.06 3058.23,2671.11 3066.62,2646.98 					"/>
					<polygon class="st18" points="2891.2,2751.25 2917.58,2761.35 2923.54,2741.58 					"/>
					<polygon class="st18" points="2745.54,2774.03 2721.84,2765.08 2748.83,2737.7 					"/>
					<polygon class="st18" points="2617.65,2722.71 2590.2,2711.45 2617.25,2688.9 					"/>
					<polygon class="st18" points="2553.21,2181.08 2582.83,2187.6 2566.96,2207.11 					"/>
					<polygon class="st18" points="2450.05,2403.66 2476.61,2412.83 2478.63,2390.07 					"/>
					<polygon class="st18" points="2478.01,2578.25 2503.88,2587.6 2509.38,2570.32 					"/>
				</g>
				<path class="st19" d="M3148.7,2463.13l-38.24-7.11c2.11-25.74,0.59-51.12-4.17-75.58l35.84-12.67
					c9.8-3.46,14.98-14.45,11.61-24.56l-9-26.97c-3.39-10.17-14.13-15.69-24.01-12.3l-35.32,12.12
					c-10.95-23.6-25.16-45.7-42.21-65.61l24.28-28.09c6.97-8.06,6.08-20.55-2-27.94l-21.59-19.75c-8.16-7.46-20.52-6.98-27.6,1.11
					l-24.26,27.76c-21.58-15.45-45.63-28.19-71.78-37.51l6.95-37.01c2.05-10.92-5.19-21.87-16.21-24.46l-29.5-6.94
					c-11.16-2.63-21.92,4.18-23.99,15.22l-7.02,37.42c-28.21-2.9-56.16-1.68-83.15,3.25l-13.51-37.56
					c-3.97-11.04-16.21-17.32-27.36-14.02l-29.82,8.84c-11.28,3.34-17.14,15.1-13.07,26.22l14.08,38.47
					c-25.51,11.69-49.22,26.97-70.33,45.38l-33.27-28.04c-9.43-7.95-23.55-7.4-31.53,1.27l-21.28,23.13
					c-8.03,8.73-6.77,22.24,2.79,30.15l34.51,28.54c-15.29,22.58-27.46,47.59-35.77,74.56l-46.21-8.59
					c-12.44-2.31-24.32,5.21-26.5,16.81l-5.79,30.85c-2.18,11.6,6.19,22.78,18.65,24.96l47.53,8.31
					c-1.05,27.67,2.05,54.77,8.82,80.67l-46.32,15.89c-11.81,4.05-17.89,16.24-13.56,27.2l11.49,29.04
					c4.3,10.88,17.3,16.33,29,12.19l46.95-16.6c13.16,23.18,29.53,44.45,48.62,63.18l-32.18,36.82c-7.85,8.98-6.63,22,2.69,29.07
					l24.66,18.67c9.22,6.98,22.94,5.38,30.66-3.55l32.01-37.03c22.32,12.92,46.61,23.02,72.45,29.78l-8.7,46.35
					c-2.07,11.04,5.51,21.16,16.89,22.6l30.08,3.81c11.24,1.42,21.99-6.28,24.04-17.2l8.61-45.84c26.23,0.43,51.83-2.64,76.27-8.75
					l15.37,41.99c3.67,10.03,15.05,14.8,25.38,10.67l27.35-10.92c10.23-4.08,15.6-15.45,12.01-25.41l-14.83-41.23
					c22.41-11.78,43.14-26.38,61.63-43.36l32.59,26.95c8,6.61,20.04,5.21,26.91-3.12l18.2-22.06c6.82-8.27,5.96-20.35-1.93-27
					l-31.43-26.49c13.72-20.55,24.85-43.08,32.86-67.21l39.35,6.88c10.14,1.77,19.93-5.24,21.88-15.66l5.2-27.71
					C3165.42,2474.98,3158.82,2465.02,3148.7,2463.13z M2796.39,2633.12c-113.9-17.04-192.09-122.59-170.94-235.2
					c21.14-112.61,132.51-183.83,245.11-159.84c108.77,23.17,178.18,127.14,158.32,232.91
					C3009.02,2576.77,2906.43,2649.58,2796.39,2633.12z"/>
			</g>
		</g>
		<g>
			<ellipse class="st19" cx="2719.01" cy="1447.68" rx="175.34" ry="246.41"/>
			<path class="st2" d="M2183.1,850.59h-330.02c-338.38,0-612.7,274.32-612.7,612.7v0.01c0,180.56,146.38,326.94,326.94,326.94
				h901.53c180.57,0,326.94-146.38,326.94-326.94v0C2795.81,1124.91,2521.49,850.59,2183.1,850.59z"/>
			<path class="st2" d="M2125.15,2460.21h-214.1c-219.53,0-397.5-177.97-397.5-397.5v0c0-117.15,94.96-212.11,212.11-212.11h584.89
				c117.15,0,212.11,94.97,212.11,212.11v0C2522.65,2282.24,2344.68,2460.21,2125.15,2460.21z"/>
			<g>
				<linearGradient id="SVGID_16_" gradientUnits="userSpaceOnUse" x1="1700.585" y1="1453.3339" x2="2619.4402" y2="1453.3339">
					<stop  offset="0" style="stop-color:#444B8C"/>
					<stop  offset="0.9964" style="stop-color:#26264F"/>
				</linearGradient>
				<path class="st20" d="M2482.66,1658.08h-627.31c-85.01,0-154.76-65.16-154.76-145.55v-123.26
					c0-80.38,69.75-143.32,154.76-140.61l627.31,20.01c75.92,2.42,136.78,64.92,136.78,139.61v114.54
					C2619.44,1597.53,2558.58,1658.08,2482.66,1658.08z"/>
				<g>
					<g>
						<path class="st2" d="M2056.33,1444.37c0,53.68-45.7,96.62-102.53,95.9c-57.34-0.72-104.21-45.55-104.21-100.11
							c0-54.56,46.86-97.48,104.21-95.87C2010.64,1345.89,2056.33,1390.68,2056.33,1444.37z"/>
						<path class="st2" d="M2480.27,1452.98c0,51.88-42.68,93.4-95.73,92.73c-53.52-0.68-97.25-43.95-97.25-96.65
							c0-52.7,43.73-94.2,97.25-92.7C2437.59,1357.85,2480.27,1401.1,2480.27,1452.98z"/>
					</g>
				</g>
			</g>
			<path class="st21" d="M2245.75,1704.3c-93.3-109.62-51.84-197.28-173.81-345.83c-167.82-204.4-363.6-181.27-408.45-319.9
				c-12.43-38.41-13.85-91.14,19.48-164.02c-255.61,73.73-442.58,309.39-442.58,588.75v0.01c0,180.56,146.38,326.94,326.94,326.94
				H2353C2305.95,1764.59,2271.55,1734.62,2245.75,1704.3z"/>
			<ellipse class="st19" cx="1328.56" cy="1445.96" rx="175.34" ry="246.41"/>
			<ellipse class="st22" cx="1189.85" cy="1445.96" rx="76.67" ry="107.75"/>
			<path class="st23" d="M2177.88,2241.38c-29.37-137.95-354.29-134.62-363.13-224.79c-6.81-69.51,179.74-138.33,203.18-146.98
				c20.05-7.4,39.95-13.66,59.65-19.01h-351.92c-117.14,0-212.11,94.96-212.11,212.11v0c0,219.53,177.97,397.5,397.5,397.5h214.11
				c20.57,0,40.78-1.56,60.51-4.58c-18.63-23.09-30.78-48.35-33.72-75.92C2145.43,2318.6,2189.26,2294.83,2177.88,2241.38z"/>
			<ellipse class="st19" cx="2023.37" cy="1862.41" rx="338.14" ry="40.94"/>
		</g>
		<g>
			<linearGradient id="SVGID_17_" gradientUnits="userSpaceOnUse" x1="2177.5586" y1="1959.6194" x2="3269.019" y2="1959.6194">
				<stop  offset="0" style="stop-color:#40447E"/>
				<stop  offset="0.9964" style="stop-color:#3C3B6B"/>
			</linearGradient>
			<path class="st24" d="M3151.7,1828.57c-57.73-22.14-120.86-10.99-171.73,24.3c-18.59-92.91-77.64-171.55-165.58-205.27
				c-144.09-55.26-311.16,30.99-373.15,192.64c-15.97,41.66-23.39,84.25-23.17,125.49c-7.43-4.66-15.37-8.65-23.81-11.89
				c-78.73-30.19-170,16.93-203.87,105.25c-33.87,88.32,1.33,187.61,81.22,214.58c42.67,14.4,110.18,14.67,110.18,14.67
				s656.67-48.9,676.93-48.73c80.89,0.67,160.62-54.66,194.46-142.92C3295.51,1986.34,3250.07,1866.3,3151.7,1828.57z"/>
			<linearGradient id="SVGID_18_" gradientUnits="userSpaceOnUse" x1="2971.9404" y1="1819.8855" x2="2498.968" y2="2353.886">
				<stop  offset="0" style="stop-color:#AA80F9"/>
				<stop  offset="0.9964" style="stop-color:#6165D7"/>
			</linearGradient>
			<path class="st25" d="M3171.23,1828.65c-57.73-22.14-120.86-10.99-171.73,24.3c-18.59-92.91-77.64-171.55-165.58-205.27
				c-144.09-55.26-311.16,30.99-373.15,192.64c-15.97,41.66-23.39,84.25-23.17,125.49c-7.43-4.66-15.37-8.65-23.81-11.89
				c-78.73-30.19-170,16.93-203.87,105.25c-33.87,88.32,2.49,184.39,81.22,214.58c16.66,6.39,110.18,14.67,110.18,14.67
				s656.67-48.9,676.93-48.73c80.89,0.67,160.62-54.66,194.46-142.92C3315.03,1986.42,3269.6,1866.37,3171.23,1828.65z"/>
		</g>
		<g>
			<path class="st2" d="M1616.44,1972.99c-25.13,20.6-28.81,57.67-8.21,82.8l169.73,207.1l91.01-74.59l-169.73-207.1
				C1678.65,1956.07,1641.57,1952.39,1616.44,1972.99z"/>
			<path class="st2" d="M2148.47,2168.89c-3.67-32.29-32.82-55.48-65.11-51.81l-266.05,30.26l13.3,116.92l266.05-30.26
				C2128.94,2230.32,2152.14,2201.17,2148.47,2168.89z"/>
			<linearGradient id="SVGID_19_" gradientUnits="userSpaceOnUse" x1="1887.1509" y1="2128.3291" x2="1696.4736" y2="2369.1846">
				<stop  offset="0" style="stop-color:#444B8C"/>
				<stop  offset="0.9964" style="stop-color:#26264F"/>
			</linearGradient>
			<circle class="st26" cx="1817.31" cy="2216.55" r="85.37"/>
		</g>
		
			<linearGradient id="SVGID_20_" gradientUnits="userSpaceOnUse" x1="6785.8491" y1="-837.4909" x2="6583.0903" y2="-581.3747" gradientTransform="matrix(0.2225 0.7493 -0.9777 0.2903 -65.4696 -2642.407)">
			<stop  offset="0" style="stop-color:#444B8C"/>
			<stop  offset="0.9964" style="stop-color:#26264F"/>
		</linearGradient>
		<path class="st27" d="M2094.16,2127.97l43.94,107.86c6.53,16.03,31.3,20.8,50.2,9.42c27.69-16.68,57.96-45.12,45.74-86.27
			c-15.46-52.06-61.45-67.05-99.29-70.09C2109.07,2086.83,2086.36,2108.84,2094.16,2127.97z"/>
	</g>
</g>
</svg>
