<?xml version="1.0" encoding="utf-8"?>
<!-- Generator: Adobe Illustrator 23.0.1, SVG Export Plug-In . SVG Version: 6.00 Build 0)  -->
<svg version="1.1" xmlns="http://www.w3.org/2000/svg" xmlns:xlink="http://www.w3.org/1999/xlink" x="0px" y="0px"
	 viewBox="0 0 3710 3710" style="enable-background:new 0 0 3710 3710;" xml:space="preserve">
<style type="text/css">
	.st0{fill:#F4F7FA;}
	.st1{opacity:0.5;}
	.st2{clip-path:url(#SVGID_2_);}
	.st3{fill:#FFFFFF;}
	.st4{clip-path:url(#SVGID_5_);}
	.st5{clip-path:url(#SVGID_7_);}
	.st6{fill:url(#SVGID_8_);}
	.st7{opacity:0.3;fill:url(#SVGID_9_);}
	.st8{opacity:0.47;fill:#FFFFFF;}
	.st9{fill:#D8DEE8;}
	.st10{fill:url(#SVGID_10_);}
	.st11{opacity:0.3;fill:url(#SVGID_11_);}
	.st12{opacity:0.3;fill:url(#SVGID_12_);}
	.st13{fill:url(#SVGID_13_);}
	.st14{fill:url(#SVGID_14_);}
	.st15{opacity:0.3;fill:url(#SVGID_15_);}
	.st16{fill:url(#SVGID_16_);}
	.st17{fill:url(#SVGID_17_);}
	.st18{opacity:0.73;fill:#FFFFFF;}
	.st19{opacity:0.3;fill:#D8DEE8;}
	.st20{opacity:0.3;}
	.st21{fill:url(#SVGID_18_);}
	.st22{fill:url(#SVGID_19_);}
	.st23{opacity:0.3;fill:url(#SVGID_20_);}
	.st24{fill:url(#SVGID_21_);}
	.st25{fill:url(#SVGID_22_);}
	.st26{fill:url(#SVGID_23_);}
	.st27{fill:url(#SVGID_24_);}
	.st28{fill:url(#SVGID_25_);}
	.st29{fill:url(#SVGID_26_);}
	.st30{fill:url(#SVGID_27_);}
	.st31{fill:url(#SVGID_28_);}
	.st32{fill:url(#SVGID_29_);}
	.st33{fill:url(#SVGID_30_);}
	.st34{fill:url(#SVGID_31_);}
	.st35{fill:url(#SVGID_32_);}
	.st36{fill:url(#SVGID_33_);}
	.st37{fill:url(#SVGID_34_);}
	.st38{fill:url(#SVGID_35_);}
	.st39{fill:url(#SVGID_36_);}
	.st40{fill:url(#SVGID_37_);}
	.st41{fill:url(#SVGID_38_);}
	.st42{opacity:0.3;fill:url(#SVGID_39_);}
	.st43{opacity:0.3;fill:url(#SVGID_40_);}
	.st44{fill:url(#SVGID_41_);}
	.st45{fill:url(#SVGID_42_);}
	.st46{opacity:0.3;fill:url(#SVGID_43_);}
	.st47{fill:url(#SVGID_44_);}
	.st48{fill:url(#SVGID_45_);}
	.st49{fill:url(#SVGID_46_);}
</style>
<g id="Background">
</g>
<g id="Illustration">
	<g id="Autonomous_car">
		<path class="st0" d="M3195.9,1439.56c-54.47-369.38-98.2-624.66-294.89-764.54c-331.77-235.95-702.29,147.09-1172.26-109.93
			c-231.39-126.55-240.07-273.27-436.04-292.74c-346.72-34.46-630.65,394.23-655.26,431C487.94,926.71,438,1199.09,498.61,1458.76
			c39.36,168.66,65.97,343.22,58.67,516.53c-12.71,301.63-5.4,583.17,277.14,763.06c252.27,160.62,569.76,302.27,872.65,327.08
			c205.84,16.86,436.68-10.42,635.07-65.95C3353.18,2716.52,3270.8,1947.44,3195.9,1439.56z"/>
		<g>
			<g>
				<g class="st1">
					<defs>
						<path id="SVGID_1_" class="st1" d="M2521.01,2347.59c-22.87-45.35-49.82-115.79-43.38-199.49
							c7.39-96.11,52.04-121.86,79.66-227.58c39.42-150.9-44.94-243.15,11.49-295.98c27.52-25.76,75.8-33.08,108.78-16.37
							c94.08,47.66,110.62,314.7-8.61,437.9c-53.92,55.72-107.94,58.24-144.59,125.33
							C2491.98,2230.7,2505.75,2300.37,2521.01,2347.59z"/>
					</defs>
					<use xlink:href="#SVGID_1_"  style="overflow:visible;fill:#D8DEE8;"/>
					<clipPath id="SVGID_2_">
						<use xlink:href="#SVGID_1_"  style="overflow:visible;"/>
					</clipPath>
					<g class="st2">
						<path class="st3" d="M2493.5,2228.99l-1.94-0.19c2.09-20.95,5.99-41.8,11.61-61.99c12.92-46.46,30.78-73.59,53.4-107.94
							c14.68-22.3,31.32-47.57,49.6-82.95c34.19-66.16,44.43-89.11,51.32-124.58c13.64-70.23,0.97-129.43-7.8-158.47
							c-12.44-41.19-32.62-79.13-60-112.77l1.52-1.23c27.54,33.83,47.84,72,60.35,113.43c8.82,29.21,21.57,88.76,7.84,159.41
							c-6.94,35.7-17.21,58.75-51.5,125.1c-18.33,35.46-35,60.78-49.71,83.12c-22.52,34.21-40.31,61.23-53.15,107.39
							C2499.46,2187.41,2495.58,2208.15,2493.5,2228.99z"/>
						<path class="st3" d="M2663.54,1802.96l-0.27-1.59c-15.84-93.58-133.45-108.74-134.63-108.89l0.23-1.94
							c1.19,0.14,118.88,15.29,136.04,108.87c10.88-8.98,87.15-76.7,52.4-182.49l1.86-0.61c37.63,114.55-53.42,184.97-54.34,185.67
							L2663.54,1802.96z"/>
						<path class="st3" d="M2655.47,1963.33c-22.79,0-38.82-4.44-39.19-4.55l-0.79-0.23l0.09-0.82
							c10.24-95.8-58.24-133.78-58.93-134.15l0.93-1.72c0.7,0.38,69.93,38.77,60.04,135.25c8.65,2.2,85.99,19.82,140.21-37.3
							l1.42,1.35C2726.38,1955.77,2685.19,1963.33,2655.47,1963.33z"/>
						<path class="st3" d="M2614.96,2064.21c-5.45,0-10.39-0.33-14.79-0.84c-24.16-2.81-37.29-11.44-37.83-11.8l-0.58-0.39
							l0.18-0.68c13.95-52.1-27.95-127.67-28.37-128.43l1.7-0.96c0.43,0.76,42.34,76.35,28.74,129.19
							c6.01,3.57,57.69,31.37,139.19-13.18l0.94,1.71C2667.5,2058.85,2637.04,2064.21,2614.96,2064.21z"/>
					</g>
				</g>
			</g>
			<g>
				<g class="st1">
					<defs>
						<path id="SVGID_3_" class="st1" d="M2565.7,2344.03c-23.88-40.74-54.07-107.08-41.97-181.42
							c21.11-129.68,147.19-137.71,211.39-292.6c51.79-124.92-2.91-185.6,70.05-283.41c12.21-16.37,75.89-105.11,152.19-95.64
							c42.99,5.33,70.91,39.44,76.15,45.84c79.21,96.75,32.88,313.58-83.81,449.39c-67.05,78.03-100.04,73.59-228.41,183.84
							C2645.87,2234.81,2595.67,2300.23,2565.7,2344.03z"/>
					</defs>
					<linearGradient id="SVGID_4_" gradientUnits="userSpaceOnUse" x1="2292.9858" y1="2732.7556" x2="3531.4441" y2="736.9993">
						<stop  offset="0" style="stop-color:#FF9085"/>
						<stop  offset="1" style="stop-color:#FB6FBB"/>
					</linearGradient>
					<use xlink:href="#SVGID_3_"  style="overflow:visible;fill:url(#SVGID_4_);"/>
					<clipPath id="SVGID_5_">
						<use xlink:href="#SVGID_3_"  style="overflow:visible;"/>
					</clipPath>
					<g class="st4">
						<path class="st3" d="M2571.26,2401.52c-18.24-112.3-3.98-197.94,42.41-254.52c22.71-27.7,44.84-39.19,68.27-51.36
							c25.17-13.07,51.2-26.59,78.78-62.08c26.8-34.49,31.52-59.61,37.49-91.42c5.38-28.63,12.07-64.27,37.18-117.94
							c22.01-47.05,41.39-72.55,58.49-95.05c18.51-24.36,33.14-43.6,44.18-81.21c18.04-61.45,13.62-129.68-13.15-202.78l1.83-0.67
							c26.91,73.51,31.35,142.14,13.19,204.01c-11.15,37.96-25.86,57.33-44.5,81.84c-17.04,22.42-36.36,47.84-58.28,94.7
							c-25,53.45-31.67,88.95-37.02,117.48c-6.02,32.07-10.78,57.4-37.87,92.26c-27.84,35.83-54.07,49.45-79.42,62.62
							c-23.24,12.07-45.2,23.47-67.66,50.87c-46.01,56.13-60.14,141.24-41.99,252.97L2571.26,2401.52z"/>
						<path class="st3" d="M2886.31,1740.9l-0.06-1.31c-0.08-1.63-8.76-163.78-84.74-203l0.9-1.74
							c73.31,37.85,84.73,187.72,85.72,203.34c153.05-54.11,189.31-197.66,189.66-199.1l1.9,0.46c-0.09,0.37-9.14,37.07-37.24,79.95
							c-25.93,39.57-73.85,92.68-154.9,120.97L2886.31,1740.9z"/>
						<path class="st3" d="M2819.56,1883.05c-3.82,0-5.93-0.1-6.02-0.11l-0.84-0.04l-0.08-0.84c-4.22-43.45-22.5-91.22-37.09-123.64
							c-15.82-35.15-30.83-60.31-30.98-60.56l1.68-1c0.15,0.25,15.21,25.51,31.08,60.76c14.56,32.34,32.77,79.91,37.17,123.4
							c6.31,0.2,47.55,0.9,100.28-13.72c52.64-14.6,127.83-47.88,187.11-123.57l1.54,1.2c-59.63,76.13-135.26,109.6-188.2,124.27
							C2870.19,1881.68,2833.49,1883.05,2819.56,1883.05z"/>
						<path class="st3" d="M2776.1,2092.41c-44.38,0-70.99-7.02-71.52-7.17l-0.99-0.27l0.32-0.98
							c30.36-91.59-36.07-198.24-36.74-199.31l1.65-1.04c0.68,1.07,67.11,107.73,37.27,199.97c11.28,2.74,116.39,25.66,255.72-31.27
							l0.74,1.81C2887.43,2084.84,2822.19,2092.41,2776.1,2092.41z"/>
					</g>
				</g>
			</g>
			<g>
				<g class="st1">
					<defs>
						<path id="SVGID_6_" class="st1" d="M2479.37,2300.7c25.19-24.58,67-60.96,125.88-92.42
							c104.73-55.95,158.93-40.47,198.71-94.33c41.17-55.75,2.56-98.7,52.44-161.54c4.19-5.28,57.98-71.26,117.55-58.72
							c41.68,8.77,63.81,51.26,74.19,71.2c40.3,77.38,42.83,204.18-34.96,278.66c-73.75,70.62-182.44,58.7-216.98,54.68
							c-60.6-7.05-77.82-27.65-139.16-33.06C2582.44,2258.6,2519.72,2281.3,2479.37,2300.7z"/>
					</defs>
					<use xlink:href="#SVGID_6_"  style="overflow:visible;fill:#D8DEE8;"/>
					<clipPath id="SVGID_7_">
						<use xlink:href="#SVGID_6_"  style="overflow:visible;"/>
					</clipPath>
					<g class="st5">
						<path class="st3" d="M2458.96,2322.59l-1.38-1.39c61.23-60.78,124.87-94.67,189.14-100.73c28.1-2.65,48.59,0.6,68.41,3.74
							c24.77,3.92,48.16,7.63,84.96,0.49c66.22-12.85,119.67-44.06,150.5-87.87c47.74-67.85,45.26-169.2-6.32-258.2l1.69-0.98
							c51.97,89.66,54.41,191.83,6.23,260.31c-31.12,44.23-85,75.71-151.72,88.66c-37.14,7.21-60.69,3.47-85.63-0.48
							c-19.7-3.12-40.06-6.35-67.92-3.72C2583.09,2228.44,2519.86,2262.14,2458.96,2322.59z"/>
						<path class="st3" d="M2972.31,2095.6l-0.11-1.5c-8.24-109.94-149.21-150.29-150.63-150.68l0.52-1.88
							c1.43,0.4,142.41,40.73,151.93,150.89c11.97-6.85,101.08-60.7,95.55-139.56l1.95-0.14c5.99,85.36-96.85,141.6-97.89,142.16
							L2972.31,2095.6z"/>
						<path class="st3" d="M2935.81,2230.63c-3,0-5.9-0.06-8.71-0.17c-46.98-1.85-76.71-17.87-77-18.04l-0.84-0.46l0.44-0.85
							c50.37-97.34-42.2-190.75-43.14-191.68l1.37-1.39c0.95,0.94,94,94.79,43.95,193.1c5.13,2.58,33.24,15.72,75.41,17.37
							c42.97,1.67,109.72-8.59,183.84-66.99l1.21,1.53C3042.54,2218.05,2979.16,2230.63,2935.81,2230.63z"/>
					</g>
				</g>
			</g>
		</g>
		<g>
			<linearGradient id="SVGID_8_" gradientUnits="userSpaceOnUse" x1="1357.6029" y1="559.5762" x2="351.5786" y2="4014.4783">
				<stop  offset="0" style="stop-color:#FF9085"/>
				<stop  offset="1" style="stop-color:#FB6FBB"/>
			</linearGradient>
			<polygon class="st6" points="1224.91,1326.49 869.18,1334.77 687.91,1649.81 869.18,1952.47 1224.91,1936.45 1399.45,1625.51 			
				"/>
			<linearGradient id="SVGID_9_" gradientUnits="userSpaceOnUse" x1="1357.6029" y1="559.5762" x2="351.5786" y2="4014.4783">
				<stop  offset="0" style="stop-color:#FF9085"/>
				<stop  offset="1" style="stop-color:#FB6FBB"/>
			</linearGradient>
			<polygon class="st7" points="1224.91,1326.49 869.18,1334.77 687.91,1649.81 869.18,1952.47 1224.91,1936.45 1399.45,1625.51 			
				"/>
			<polygon class="st8" points="888.26,1918.91 726.52,1648.49 888.26,1367.03 1206.28,1359.26 1362.64,1626.76 1206.28,1904.95 			
				"/>
			<polygon class="st9" points="2323.9,1300.91 1995.69,1308.55 1828.57,1610.85 1995.69,1901.73 2323.9,1886.95 2485.06,1588.42 
							"/>
			<polygon class="st8" points="2013.28,1869.53 1864.16,1609.63 2013.28,1339.55 2306.71,1332.38 2451.06,1589.59 2306.71,1856.65 
							"/>
			<linearGradient id="SVGID_10_" gradientUnits="userSpaceOnUse" x1="1170.7682" y1="522.6652" x2="176.5463" y2="3937.0354">
				<stop  offset="3.597120e-03" style="stop-color:#E38DDD"/>
				<stop  offset="1" style="stop-color:#9571F6"/>
			</linearGradient>
			<polygon class="st10" points="1224.91,652.31 869.18,652.03 687.91,962.71 869.18,1269.73 1224.91,1262.27 1399.45,955.53 			"/>
			<linearGradient id="SVGID_11_" gradientUnits="userSpaceOnUse" x1="1170.7682" y1="522.6652" x2="176.5463" y2="3937.0354">
				<stop  offset="3.597120e-03" style="stop-color:#E38DDD"/>
				<stop  offset="1" style="stop-color:#9571F6"/>
			</linearGradient>
			<polygon class="st11" points="1224.91,652.31 869.18,652.03 687.91,962.71 869.18,1269.73 1224.91,1262.27 1399.45,955.53 			"/>
			<linearGradient id="SVGID_12_" gradientUnits="userSpaceOnUse" x1="726.5193" y1="960.6284" x2="1362.64" y2="960.6284">
				<stop  offset="3.597120e-03" style="stop-color:#E38DDD"/>
				<stop  offset="1" style="stop-color:#9571F6"/>
			</linearGradient>
			<polygon class="st12" points="888.26,1236.63 726.52,962.32 888.26,684.75 1206.28,684.63 1362.64,955.9 1206.28,1230.32 			"/>
			<linearGradient id="SVGID_13_" gradientUnits="userSpaceOnUse" x1="3264.1904" y1="3204.8147" x2="2449.8635" y2="809.7308">
				<stop  offset="3.597000e-03" style="stop-color:#F36F56"/>
				<stop  offset="1" style="stop-color:#FFC444"/>
			</linearGradient>
			<polygon class="st13" points="3009.7,653.71 1995.69,652.91 1828.57,951.19 1995.69,1246.1 3009.7,1224.82 3162.77,937.72 			"/>
			<linearGradient id="SVGID_14_" gradientUnits="userSpaceOnUse" x1="2394.7402" y1="637.8683" x2="440.6531" y2="3950.7527">
				<stop  offset="0" style="stop-color:#FF9085"/>
				<stop  offset="1" style="stop-color:#FB6FBB"/>
			</linearGradient>
			<polygon class="st14" points="1791.12,1645.77 1449.71,1657.86 1275.8,1968.44 1449.71,2262.93 1791.12,2243.41 1958.7,1936.84 
							"/>
			<linearGradient id="SVGID_15_" gradientUnits="userSpaceOnUse" x1="2394.7402" y1="637.8683" x2="440.6531" y2="3950.7527">
				<stop  offset="0" style="stop-color:#FF9085"/>
				<stop  offset="1" style="stop-color:#FB6FBB"/>
			</linearGradient>
			<polygon class="st15" points="1791.12,1645.77 1449.71,1657.86 1275.8,1968.44 1449.71,2262.93 1791.12,2243.41 1958.7,1936.84 
							"/>
			<polygon class="st8" points="1468.01,2229.84 1312.84,1966.72 1468.01,1689.25 1773.24,1678.09 1923.35,1938.48 1773.24,2212.75 
							"/>
			<linearGradient id="SVGID_16_" gradientUnits="userSpaceOnUse" x1="1628.0253" y1="3205.4617" x2="1615.2139" y2="1193.8617">
				<stop  offset="3.597000e-03" style="stop-color:#F36F56"/>
				<stop  offset="1" style="stop-color:#FFC444"/>
			</linearGradient>
			<polygon class="st16" points="1789.69,983.05 1448.24,986.88 1274.31,1293.28 1448.24,1591.99 1789.69,1580.72 1957.28,1278.17 
							"/>
			<polygon class="st8" points="1466.55,1559.34 1311.36,1292.46 1466.55,1018.72 1771.81,1014.94 1921.93,1278.95 1771.81,1549.62 
							"/>
			<linearGradient id="SVGID_17_" gradientUnits="userSpaceOnUse" x1="1796.3275" y1="313.7471" x2="-118.6593" y2="3560.3423">
				<stop  offset="0" style="stop-color:#FF9085"/>
				<stop  offset="1" style="stop-color:#FB6FBB"/>
			</linearGradient>
			<polygon class="st17" points="1788.26,320.25 1446.78,315.84 1272.83,618.06 1446.78,920.98 1788.26,917.95 1955.87,619.44 			
				"/>
			<polygon class="st8" points="1465.08,888.77 1309.88,618.14 1465.08,348.12 1770.37,351.71 1920.52,619.36 1770.37,886.42 			"/>
			<polygon class="st18" points="2152.65,797.38 2036.54,797.91 2036.54,754.57 2152.65,754.23 			"/>
			<polygon class="st18" points="2786.92,794.5 2227.2,797.04 2227.2,754.01 2786.92,752.36 			"/>
			<polygon class="st18" points="2341.68,869.71 2227.2,870.54 2227.2,827.51 2341.68,826.86 			"/>
			<polygon class="st18" points="2967.24,865.17 2415.2,869.18 2415.2,826.45 2967.24,823.32 			"/>
			<polygon class="st18" points="2341.68,942.9 2227.2,944.04 2227.2,901.01 2341.68,900.05 			"/>
			<polygon class="st18" points="2967.24,936.66 2415.2,942.17 2415.2,899.44 2967.24,894.81 			"/>
			<polygon class="st18" points="2152.65,1018.49 2036.54,1019.97 2036.54,976.63 2152.65,975.34 			"/>
			<polygon class="st18" points="2786.92,1010.44 2227.2,1017.55 2227.2,974.52 2786.92,968.3 			"/>
			<polygon class="st18" points="2341.68,1089.28 2227.2,1091.05 2227.2,1048.02 2341.68,1046.43 			"/>
			<polygon class="st18" points="2967.24,1079.63 2415.2,1088.15 2415.2,1045.42 2967.24,1037.78 			"/>
			<polygon class="st18" points="2341.68,1162.47 2227.2,1164.55 2227.2,1121.52 2341.68,1119.62 			"/>
			<polygon class="st18" points="2967.24,1151.12 2415.2,1161.14 2415.2,1118.41 2967.24,1109.27 			"/>
			<g>
				<path class="st19" d="M1900.13,1481.41l-71.56,129.44l167.12,290.88l312.31-14.07c-4.34-13.13-9.13-26.25-14.48-39.33
					C2210.09,1644.45,2051.42,1575.76,1900.13,1481.41z"/>
			</g>
			<g class="st20">
				<linearGradient id="SVGID_18_" gradientUnits="userSpaceOnUse" x1="1578.4537" y1="3202.8687" x2="1565.6654" y2="1194.8922">
					<stop  offset="3.597000e-03" style="stop-color:#F36F56"/>
					<stop  offset="1" style="stop-color:#FFC444"/>
				</linearGradient>
				<path class="st21" d="M1619.46,1184.69c-33.62-72.43-48.39-137.83-53.97-199.12l-117.25,1.32l-173.93,306.4l173.93,298.7
					l341.45-11.27l69.61-125.66C1766.79,1392.88,1680.11,1315.36,1619.46,1184.69z"/>
			</g>
			<g class="st20">
				<linearGradient id="SVGID_19_" gradientUnits="userSpaceOnUse" x1="1717.5627" y1="257.4938" x2="-220.4847" y2="3543.1853">
					<stop  offset="0" style="stop-color:#FF9085"/>
					<stop  offset="1" style="stop-color:#FB6FBB"/>
				</linearGradient>
				<path class="st22" d="M1501.46,462.11c-22.67-38.68-49.13-73.53-78.43-105.01l-150.2,260.96l173.95,302.92l115.82-1.03
					C1562.21,765.22,1601.18,632.25,1501.46,462.11z"/>
			</g>
			<linearGradient id="SVGID_20_" gradientUnits="userSpaceOnUse" x1="726.5187" y1="974.5792" x2="1249.3082" y2="974.5792">
				<stop  offset="3.597120e-03" style="stop-color:#E38DDD"/>
				<stop  offset="1" style="stop-color:#9571F6"/>
			</linearGradient>
			<path class="st23" d="M1045.2,1056.4c-41.12-120.2-54.28-285.15-173.13-343.87L726.52,962.32l161.74,274.31l318.03-6.31
				l43.02-75.51C1167.81,1143.43,1070.06,1130.97,1045.2,1056.4z"/>
			<path class="st8" d="M1706.61,2046.73c-92.98-109.59-130.49-253.07-244.23-347.43l-149.55,267.42l155.17,263.12l305.23-17.09
				l46.55-85.05C1776.75,2109.96,1737.91,2083.82,1706.61,2046.73z"/>
		</g>
		<g>
			<linearGradient id="SVGID_21_" gradientUnits="userSpaceOnUse" x1="2171.1526" y1="2037.8158" x2="15.4089" y2="3874.9448">
				<stop  offset="3.597120e-03" style="stop-color:#E38DDD"/>
				<stop  offset="1" style="stop-color:#9571F6"/>
			</linearGradient>
			<path class="st24" d="M1396.22,2545.11c-8.55-1.85-23.77-1.2-37.02,1.82c-15.58,3.54-22.58,9.02-15.6,12.23
				c29.94,13.78,67.67,26.74,113.02,38.39c13.78,3.55,27.99,6.89,42.54,10.03c49.47,10.68,103.01,19.05,158.56,25.09
				c12.93,1.4,32.45-1.16,43.63-5.74c9.8-4.02,9.87-8.24,0.97-10.17c-1.23-0.26-2.62-0.49-4.19-0.66
				c-52.35-5.69-103.14-13.62-150.2-23.78c-13.83-2.99-27.34-6.17-40.49-9.54c-43.2-11.09-79.06-23.43-107.37-36.47
				C1399.03,2545.84,1397.73,2545.43,1396.22,2545.11L1396.22,2545.11z"/>
			<linearGradient id="SVGID_22_" gradientUnits="userSpaceOnUse" x1="2143.8752" y1="2005.8077" x2="-11.8646" y2="3842.9333">
				<stop  offset="3.597120e-03" style="stop-color:#E38DDD"/>
				<stop  offset="1" style="stop-color:#9571F6"/>
			</linearGradient>
			<path class="st25" d="M1213.6,2551.67c-8.17-1.77-22.51-1.27-35.53,1.48c-15.95,3.38-23.85,8.86-17.71,12.25
				c43.33,23.88,103.47,46.33,179.9,65.96c18.33,4.72,37.23,9.16,56.57,13.33c77.18,16.67,161.76,29.09,249.3,37.23
				c13.33,1.23,32.79-1.5,43.49-6.12c9.14-3.96,8.87-8,0.24-9.87c-1.45-0.31-3.13-0.56-5.05-0.74
				c-83.55-7.77-164.89-19.69-239.24-35.75c-18.63-4.02-36.82-8.31-54.52-12.85c-73.69-18.93-131.54-40.55-172.99-63.41
				C1216.94,2552.57,1215.43,2552.07,1213.6,2551.67L1213.6,2551.67z"/>
			<linearGradient id="SVGID_23_" gradientUnits="userSpaceOnUse" x1="2486.9653" y1="2408.4014" x2="331.2233" y2="4245.5288">
				<stop  offset="3.597120e-03" style="stop-color:#E38DDD"/>
				<stop  offset="1" style="stop-color:#9571F6"/>
			</linearGradient>
			<path class="st26" d="M2570.9,2502.91c-5.71-1.23-14.63-1.43-24.62-0.28c-17.1,1.96-30.82,7.08-30.71,11.45
				c0.6,20.42-11.22,40.31-34.92,58.65c-11.86,9.18-26.66,17.97-44.32,26.3c-17.7,8.33-38.26,16.2-61.85,23.58
				c-4.43,1.38-8.97,2.75-13.65,4.11l0.02-0.01c-25.9,7.53-54.02,14.17-84.19,19.98c-45.24,8.71-95.22,15.56-148.72,20.46
				c-53.5,4.9-110.46,7.83-169.07,8.69c-15.95,0.23-33.83,4.3-39.92,9.08c-4.01,3.14-1.92,5.81,4.52,7.2
				c3.35,0.72,7.88,1.1,13.35,1.02c84.34-1.24,167.39-6.45,245.5-15.92c39.07-4.74,76.86-10.55,112.75-17.46
				c35.9-6.91,69.85-14.92,101.05-23.99l0.02-0.01c5.6-1.63,11.06-3.27,16.41-4.94c28.43-8.89,53.13-18.37,74.09-28.24
				c31.42-14.8,54.36-30.47,69.31-46.53s21.97-32.53,21.47-49.05C2577.37,2505.18,2574.94,2503.78,2570.9,2502.91L2570.9,2502.91z"
				/>
			<linearGradient id="SVGID_24_" gradientUnits="userSpaceOnUse" x1="2108.1406" y1="1963.874" x2="-47.5976" y2="3800.9983">
				<stop  offset="3.597120e-03" style="stop-color:#E38DDD"/>
				<stop  offset="1" style="stop-color:#9571F6"/>
			</linearGradient>
			<path class="st27" d="M973.57,2560.3c-7.88-1.7-21.57-1.31-34.37,1.25c-16.18,3.23-24.81,8.71-19.27,12.24
				c58.55,37.35,147.1,72.58,264.76,102.79c24.39,6.27,49.52,12.18,75.26,17.74c114.08,24.63,240.25,42.29,370.37,52.9
				c13.6,1.11,32.99-1.76,43.32-6.41c8.63-3.9,8.16-7.81-0.26-9.63c-1.62-0.35-3.54-0.62-5.74-0.8
				c-125.49-10.23-248.03-27.35-358.93-51.3c-25.02-5.4-49.46-11.15-73.22-17.26c-114.49-29.39-200.48-63.64-257.04-99.74
				C977.3,2561.33,975.64,2560.74,973.57,2560.3L973.57,2560.3z"/>
			<linearGradient id="SVGID_25_" gradientUnits="userSpaceOnUse" x1="1955.9534" y1="1785.2961" x2="-199.7886" y2="3622.4236">
				<stop  offset="3.597120e-03" style="stop-color:#E38DDD"/>
				<stop  offset="1" style="stop-color:#9571F6"/>
			</linearGradient>
			<path class="st28" d="M1802.22,2221.95c-2.72-0.59-6.24-0.95-10.46-1.02c-131.65-2.2-262.65,2.67-385.39,15.03
				c-61.34,6.19-120.63,14.27-176.61,24.29c-55.95,10.02-108.6,22-156.31,35.86l0.02-0.01c-7.35,2.13-14.51,4.3-21.49,6.48
				c-43.76,13.68-80.81,28.43-111.09,43.87c-45.44,23.17-75.69,47.85-91.7,73.13c-16,25.29-17.82,51.21-6.13,77
				c0.64,1.44,2.92,2.55,6.33,3.29c6.38,1.38,16.74,1.44,27.8-0.12c16.97-2.39,29.22-7.69,27.34-11.82l-0.02,0
				c-14.86-32.77-6.47-65.34,24.72-95.5c15.58-15.08,36.82-29.56,63.61-43.21c26.81-13.67,59.12-26.51,97.18-38.41
				c6.1-1.91,12.32-3.78,18.67-5.62l0.02-0.01c41.54-12.07,87.23-22.48,136.58-31.32c73.98-13.25,156.37-22.96,244.05-28.96
				c87.64-5.99,180.44-8.26,274.55-6.67c15.25,0.26,33.83-3.4,41.53-8.18C1811.01,2226.58,1809.35,2223.49,1802.22,2221.95
				L1802.22,2221.95z"/>
			<linearGradient id="SVGID_26_" gradientUnits="userSpaceOnUse" x1="2554.9333" y1="2488.158" x2="399.1947" y2="4325.2827">
				<stop  offset="3.597120e-03" style="stop-color:#E38DDD"/>
				<stop  offset="1" style="stop-color:#9571F6"/>
			</linearGradient>
			<path class="st29" d="M2810.89,2494.29c-6.06-1.31-15.73-1.44-26.31-0.08c-17.05,2.19-30,7.41-28.95,11.67
				c7.55,30.29-4.91,60.12-36.88,87.76c-15.98,13.82-36.82,27.09-62.4,39.64c-25.61,12.56-55.95,24.41-91.26,35.45
				c-6.08,1.9-12.32,3.78-18.69,5.63c-38.62,11.22-80.85,21.01-126.27,29.44c-68.11,12.64-143.54,22.21-223.9,28.59
				c-80.36,6.38-165.55,9.55-252.52,9.41c-15.6-0.03-33.87,3.83-40.82,8.61c-4.83,3.32-2.94,6.21,3.87,7.68
				c3.02,0.65,6.99,1.02,11.78,1.03c122.14,0.19,242.82-5.77,355.83-18.25c56.49-6.25,111.07-14.14,162.67-23.72
				c51.62-9.58,100.26-20.84,144.62-33.73l0.02-0.01c7.33-2.13,14.47-4.29,21.45-6.47c40.59-12.69,75.41-26.3,104.4-40.52
				c43.51-21.34,73.91-44.03,91.96-67.32c18.06-23.3,23.81-47.22,17.87-71.15C2816.96,2496.33,2814.6,2495.09,2810.89,2494.29
				L2810.89,2494.29z"/>
			<linearGradient id="SVGID_27_" gradientUnits="userSpaceOnUse" x1="2411.3557" y1="2319.679" x2="255.6176" y2="4156.8032">
				<stop  offset="3.597120e-03" style="stop-color:#E38DDD"/>
				<stop  offset="1" style="stop-color:#9571F6"/>
			</linearGradient>
			<path class="st30" d="M2395.22,2285.22c-98.32-21.23-205.63-37.28-316.68-48.1c-13.21-1.28-32.69,1.4-43.53,6.01
				c-9.34,3.98-9.17,8.08-0.47,9.96c1.38,0.3,2.98,0.54,4.8,0.72c107.3,10.46,211.52,26.02,307.13,46.66
				c25.02,5.4,49.46,11.15,73.19,17.26c129.05,33.13,221.87,72.43,277.19,113.59c1.14,0.84,2.94,1.52,5.23,2.01
				c7.61,1.64,20.7,1.35,33.26-1.03c16.37-3.09,25.65-8.56,20.77-12.21c-57.36-42.67-153.03-83.08-285.63-117.13
				C2446.07,2296.69,2420.94,2290.77,2395.22,2285.22L2395.22,2285.22z"/>
			<linearGradient id="SVGID_28_" gradientUnits="userSpaceOnUse" x1="2060.9023" y1="1908.4479" x2="-94.8357" y2="3745.572">
				<stop  offset="3.597120e-03" style="stop-color:#E38DDD"/>
				<stop  offset="1" style="stop-color:#9571F6"/>
			</linearGradient>
			<path class="st31" d="M655.69,2571.72c-7.66-1.65-20.86-1.34-33.47,1.07c-16.33,3.12-25.49,8.6-20.46,12.21
				c76.87,55.31,202.42,107.7,374.93,152c32.52,8.35,65.98,16.23,100.28,23.64c163.27,35.26,345.1,59.77,531.9,73.43
				c13.81,1.01,33.17-1.96,43.18-6.63c8.27-3.86,7.62-7.67-0.64-9.45c-1.75-0.38-3.85-0.67-6.27-0.84
				c-181.64-13.28-359.54-37.23-519.4-71.76c-33.58-7.25-66.37-14.96-98.25-23.14c-169.03-43.4-291.8-94.7-366.64-148.57
				C659.71,2572.86,657.94,2572.2,655.69,2571.72L655.69,2571.72z"/>
			<linearGradient id="SVGID_29_" gradientUnits="userSpaceOnUse" x1="1865.3575" y1="1678.9878" x2="-290.3813" y2="3516.1125">
				<stop  offset="3.597120e-03" style="stop-color:#E38DDD"/>
				<stop  offset="1" style="stop-color:#9571F6"/>
			</linearGradient>
			<path class="st32" d="M1824.18,2135.13c-2.56-0.55-5.84-0.91-9.75-1c-181.63-4.52-362.87,1.08-532.08,17.28
				c-84.57,8.1-166.16,18.86-242.99,32.37c-76.81,13.5-148.85,29.74-213.96,48.66l0.02-0.01c-9.66,2.81-19.07,5.64-28.26,8.52
				c-59.79,18.7-110.07,38.91-150.8,60.11c-61.11,31.82-100.84,65.85-120.32,100.76c-19.48,34.92-18.78,70.75,1.25,106.31
				c0.76,1.35,2.99,2.4,6.24,3.1c6.55,1.41,17.26,1.43,28.57-0.23c16.92-2.49,28.78-7.82,26.47-11.91
				c-25.84-45.81-18.01-91.66,23.32-134.29c20.65-21.32,49.63-41.84,86.84-61.2c37.21-19.37,82.62-37.59,136.49-54.44
				c8.29-2.59,16.76-5.15,25.43-7.66l0.04-0.01c58.68-17.05,123.47-31.68,193.46-43.98c104.92-18.44,221.66-31.63,345.35-39.37
				c123.65-7.74,254.06-10.02,385.68-6.74c15.06,0.37,33.81-3.19,41.87-7.95C1833.03,2139.91,1831.48,2136.71,1824.18,2135.13
				L1824.18,2135.13z"/>
			<linearGradient id="SVGID_30_" gradientUnits="userSpaceOnUse" x1="2645.6328" y1="2594.5872" x2="489.8934" y2="4431.7124">
				<stop  offset="3.597120e-03" style="stop-color:#E38DDD"/>
				<stop  offset="1" style="stop-color:#9571F6"/>
			</linearGradient>
			<path class="st33" d="M3128.73,2482.87c-6.32-1.36-16.52-1.44-27.48,0.08c-16.99,2.35-29.4,7.64-27.69,11.8
				c17.88,43.4,5.42,86.52-37.03,126.61c-21.23,20.05-49.91,39.34-86.01,57.59c-36.1,18.25-79.54,35.45-130.62,51.42
				c-8.29,2.59-16.76,5.15-25.43,7.67c-55.76,16.2-117.01,30.21-182.98,42.11c-98.91,17.85-208.61,30.97-324.95,39.18
				c-116.33,8.22-239.19,11.53-363.83,9.82c-15.32-0.21-33.85,3.49-41.4,8.27c-5.41,3.43-3.69,6.48,3.37,8
				c2.78,0.6,6.39,0.97,10.71,1.02c172.31,2.35,343.25-4.46,502.77-20.85c79.74-8.2,156.65-18.82,229.17-31.9
				c72.5-13.08,140.58-28.64,202.4-46.6c9.64-2.8,19.07-5.64,28.24-8.51c56.68-17.73,104.82-36.81,144.38-56.81
				c59.33-30.01,99.42-62.06,121.24-95c21.81-32.94,25.41-66.8,11.52-100.55C3134.49,2484.76,3132.2,2483.62,3128.73,2482.87
				L3128.73,2482.87z"/>
			<linearGradient id="SVGID_31_" gradientUnits="userSpaceOnUse" x1="2458.0908" y1="2374.519" x2="302.3531" y2="4211.6426">
				<stop  offset="3.597120e-03" style="stop-color:#E38DDD"/>
				<stop  offset="1" style="stop-color:#9571F6"/>
			</linearGradient>
			<path class="st34" d="M2578.21,2218.89c-147.62-31.88-310.42-54.97-478.31-69.21c-13.53-1.15-32.94,1.69-43.37,6.33
				c-8.78,3.92-8.35,7.87,0.12,9.7c1.57,0.34,3.41,0.61,5.53,0.78c163.46,13.86,322.72,36.42,467.28,67.64
				c33.57,7.25,66.34,14.97,98.2,23.14c183.61,47.14,312.61,103.6,384.92,162.54c1.11,0.91,2.98,1.63,5.41,2.16
				c7.46,1.61,20.21,1.37,32.62-0.91c16.47-3.02,26.12-8.47,21.57-12.18c-74.35-60.59-206.33-118.24-393.72-166.36
				C2645.94,2234.17,2612.49,2226.29,2578.21,2218.89L2578.21,2218.89z"/>
		</g>
		<g>
			<linearGradient id="SVGID_32_" gradientUnits="userSpaceOnUse" x1="1205.3871" y1="3252.0525" x2="1452.355" y2="2412.3599">
				<stop  offset="0" style="stop-color:#311944"/>
				<stop  offset="1" style="stop-color:#893976"/>
			</linearGradient>
			<polygon class="st35" points="875.52,2318.23 908.65,2360.9 1221.26,2403.76 1830.6,2592.23 2139.63,2484.09 1937.58,2276.29 
				909.42,2062.25 814.51,2172.55 			"/>
			<linearGradient id="SVGID_33_" gradientUnits="userSpaceOnUse" x1="1878.5454" y1="2515.5435" x2="2180.511" y2="2515.5435">
				<stop  offset="0" style="stop-color:#444B8C"/>
				<stop  offset="0.9964" style="stop-color:#3E4177"/>
			</linearGradient>
			<path class="st36" d="M2127.39,2650.13c-1.69,0.75-5.12,2.07-5.12,2.07l-98.35,41.73l-50.47-20.54l-94.91-68.64V2455.6l4.74-62.2
				l110.6-49.79c55.42-24.44,129.92,22.74,166.39,105.41C2196.72,2531.66,2182.85,2625.69,2127.39,2650.13z"/>
			<linearGradient id="SVGID_34_" gradientUnits="userSpaceOnUse" x1="948.1193" y1="2328.4941" x2="1196.2733" y2="2328.4941">
				<stop  offset="0" style="stop-color:#444B8C"/>
				<stop  offset="0.9964" style="stop-color:#3E4177"/>
			</linearGradient>
			<path class="st37" d="M1158.42,2435.28l-89.09,38.49l-109.35-78.74l-11.86-107.21l15.05-73.35l76.98-26.34
				c2.2-0.92,4.44-1.63,6.68-2.3l0.54-0.17l0.03,0.03c45.55-12.78,101.24,24.91,128.6,89.35
				C1205.38,2344.16,1205.54,2413.48,1158.42,2435.28z"/>
			
				<ellipse transform="matrix(0.9149 -0.4036 0.4036 0.9149 -861.3549 1003.6072)" class="st9" cx="1950.32" cy="2545.31" rx="111.35" ry="166.04"/>
			
				<ellipse transform="matrix(0.9149 -0.4036 0.4036 0.9149 -862.5093 1006.9631)" class="st3" cx="1957.7" cy="2549.73" rx="68.78" ry="102.57"/>
			
				<ellipse transform="matrix(0.9313 -0.3644 0.3644 0.9313 -784.6469 530.8835)" class="st9" cx="1014.56" cy="2344.82" rx="96.7" ry="140.15"/>
			
				<ellipse transform="matrix(0.9313 -0.3644 0.3644 0.9313 -785.5426 533.4056)" class="st3" cx="1020.8" cy="2348.46" rx="59.73" ry="86.57"/>
			<linearGradient id="SVGID_35_" gradientUnits="userSpaceOnUse" x1="1685.79" y1="1882.8447" x2="1382.9917" y2="2608.2041">
				<stop  offset="0" style="stop-color:#FCB148"/>
				<stop  offset="0.0521" style="stop-color:#FDBA46"/>
				<stop  offset="0.1424" style="stop-color:#FFC244"/>
				<stop  offset="0.3183" style="stop-color:#FFC444"/>
				<stop  offset="0.4849" style="stop-color:#FDB946"/>
				<stop  offset="0.7754" style="stop-color:#F99C4D"/>
				<stop  offset="0.8658" style="stop-color:#F8924F"/>
				<stop  offset="1" style="stop-color:#F8924F"/>
			</linearGradient>
			<path class="st38" d="M2201.4,2643.02c-32.02,1.1-61.32,1.7-83.69,2.02c-23.85,0.35-44.65-16.29-49.37-39.66
				c-7.01-34.72-17.5-62.1-26.42-81.57c-8.64-18.81-69.66-151.78-167.61-159.71c-13.69-1.12-30.27-1.8-44.98,7.97
				c-51.66,34.23-20.24,156.43-20.24,156.43l21.15,62.71l-686.5-170.8c-13.73-3.42-25.01-13.15-30.39-26.24
				c-12-29.2-34.3-82.75-50.83-118.18c-23.73-50.84-66.1-99.99-108.46-99.99s-52.54,13.56-61.01,42.37
				c-8.47,28.81,13.56,116.94,13.56,142.36c0,0-72.03-55.08-89.82-72.88c-39.69-39.69-37.76-91.21-40.67-120.33
				c-11.25-112.67,42.81-202.86,66.1-237.27c45.25-28.91,90.53-57.86,135.78-86.77c38.13-31.56,98.26-68.88,173.37-103.82h0.03
				c19.96-4,41.49-7.52,64.78-10.51c156.9-20.03,368.34,135.07,368.34,135.07s360.99,235.5,579.03,592.52
				C2185.81,2493.17,2220.92,2574.79,2201.4,2643.02z"/>
			<linearGradient id="SVGID_36_" gradientUnits="userSpaceOnUse" x1="2695.3418" y1="2571.0908" x2="1654.0828" y2="1708.1423">
				<stop  offset="0" style="stop-color:#FCB148"/>
				<stop  offset="0.0521" style="stop-color:#FDBA46"/>
				<stop  offset="0.1424" style="stop-color:#FFC244"/>
				<stop  offset="0.3183" style="stop-color:#FFC444"/>
				<stop  offset="0.4849" style="stop-color:#FDB946"/>
				<stop  offset="0.7754" style="stop-color:#F99C4D"/>
				<stop  offset="0.8658" style="stop-color:#F8924F"/>
				<stop  offset="1" style="stop-color:#F8924F"/>
			</linearGradient>
			<path class="st39" d="M2767.45,2236.99v199.88c0,28.11-16.43,53.63-42.04,65.23c-83.85,37.97-271.25,119.42-357.92,129.77
				c-49.59,5.93-111.79,9.25-166.09,11.15c19.52-68.23-15.59-149.85-37.86-186.29c-218.05-357.02-579.03-592.52-579.03-592.52
				s-211.44-155.1-368.34-135.07c-23.29,2.98-44.81,6.51-64.78,10.51c129.52-60.27,303.5-113.48,485.65-117.85
				c161.41-3.86,233.84,18.1,345.73,55.93c71.35,24.13,146.56,68.3,250.83,125.41c82.87,45.39,170.46,116.23,283.03,171.17
				c0,0,189.81,101.69,220.32,161C2767.45,2194.62,2767.45,2236.99,2767.45,2236.99z"/>
			<linearGradient id="SVGID_37_" gradientUnits="userSpaceOnUse" x1="1177.0129" y1="2129.2131" x2="1187.0613" y2="1872.973">
				<stop  offset="0" style="stop-color:#444B8C"/>
				<stop  offset="0.9964" style="stop-color:#3E4177"/>
			</linearGradient>
			<path class="st40" d="M1366.22,1916.95l2.58,143.04c-85.82-28.61-206.08-67.11-248.66-77.79
				c-58.74-14.68-148.02-55.35-148.02-55.35c40.81-35.49,78.33-57.79,103.96-71.18c107.89-56.44,242.22-79.38,326.41-48.81
				C1378.29,1838.28,1365.51,1876.72,1366.22,1916.95z"/>
			<linearGradient id="SVGID_38_" gradientUnits="userSpaceOnUse" x1="1649.4119" y1="2187.2185" x2="1539.3541" y2="1927.0822">
				<stop  offset="0" style="stop-color:#444B8C"/>
				<stop  offset="0.9964" style="stop-color:#3E4177"/>
			</linearGradient>
			<path class="st41" d="M1833.06,2195.74c0,0-327.63-88.13-387.53-109.58c-11.66-4.17-28.84-10.1-49.45-17.05l-2.75-152.66
				c-0.64-36.4,11.76-71.08,35.08-98.6c12.95,5.93,30.88,14.54,51.01,25.39c9.25,5.02,36.17,19.32,67.49,40.71
				c37.96,25.9,69.28,53.45,122.33,98.26c80.23,67.79,180.76,190.97,180.76,198.86S1855.67,2195.74,1833.06,2195.74z"/>
			<linearGradient id="SVGID_39_" gradientUnits="userSpaceOnUse" x1="1165.5831" y1="2117.6528" x2="1174.1766" y2="1898.5153">
				<stop  offset="0" style="stop-color:#444B8C"/>
				<stop  offset="0.9964" style="stop-color:#3E4177"/>
			</linearGradient>
			<path class="st42" d="M1146.81,1824.76c-24.27,8.71-48.09,19.06-70.74,30.91c-25.63,13.39-63.15,35.69-103.96,71.18
				c0,0,89.28,40.67,148.02,55.35c42.57,10.68,162.83,49.18,248.66,77.79l-1.93-107.27c-59.11-16.51-117.45-37.62-170.95-77.37
				C1176.27,1861.32,1159.49,1843.93,1146.81,1824.76z"/>
			<linearGradient id="SVGID_40_" gradientUnits="userSpaceOnUse" x1="1585.0753" y1="2171.4438" x2="1515.6031" y2="2007.2369">
				<stop  offset="0" style="stop-color:#444B8C"/>
				<stop  offset="0.9964" style="stop-color:#3E4177"/>
			</linearGradient>
			<path class="st43" d="M1578.93,2017.71c-58.54-27.65-121.77-41.26-184.81-57.66l1.96,109.06c20.61,6.95,37.79,12.88,49.45,17.05
				c37.79,13.54,182.16,53.62,283.58,81.35C1694.5,2100.78,1641.02,2047.41,1578.93,2017.71z"/>
			<linearGradient id="SVGID_41_" gradientUnits="userSpaceOnUse" x1="1643.5989" y1="2278.4353" x2="1659.6991" y2="2147.9385">
				<stop  offset="0" style="stop-color:#FCB148"/>
				<stop  offset="0.0521" style="stop-color:#FDBA46"/>
				<stop  offset="0.1424" style="stop-color:#FFC244"/>
				<stop  offset="0.3183" style="stop-color:#FFC444"/>
				<stop  offset="0.4849" style="stop-color:#FDB946"/>
				<stop  offset="0.7754" style="stop-color:#F99C4D"/>
				<stop  offset="0.8658" style="stop-color:#F8924F"/>
				<stop  offset="1" style="stop-color:#F8924F"/>
			</linearGradient>
			<path class="st44" d="M1734.32,2210.01c-6.47,4.78-17.29,0.31-20.17-0.98l-38.4-38.4l-82.98-5.59c-4.03-0.27-7.8-1.76-10.81-4.14
				c-3.05-2.41-5.39-5.66-6.64-9.52c-2.24-7.02-0.44-14.64,4.71-19.9c14.88-15.19,47.66-44.47,79.04-44.47
				c42.37,0,51.69,46.4,51.69,46.4c0.07,0.31,0.14,0.61,0.2,0.92c0.16,0.81,0.29,1.62,0.38,2.42c1.12,9.47,4.76,18.62,11.82,25.04
				c3.41,3.11,6.64,6.94,9.22,11.66C1738.22,2184.05,1743.2,2203.47,1734.32,2210.01z"/>
			<linearGradient id="SVGID_42_" gradientUnits="userSpaceOnUse" x1="2337.2612" y1="2101.6616" x2="1975.3859" y2="1933.4658">
				<stop  offset="0" style="stop-color:#444B8C"/>
				<stop  offset="0.9964" style="stop-color:#3E4177"/>
			</linearGradient>
			<path class="st45" d="M2120.78,1756.3c119.14,72.29,238.28,144.58,357.43,216.87c0,0-225.01,120.78-550.4,182.92
				c-39.43-39.49-82.17-80.08-128.35-121.16c-46.65-41.51-92.4-79.58-136.64-114.44c65.93-35.77,145.84-73.12,239.09-105.41
				C1981.55,1787.5,2055.52,1768.95,2120.78,1756.3z"/>
			<linearGradient id="SVGID_43_" gradientUnits="userSpaceOnUse" x1="2391.8762" y1="2041.1158" x2="2147.9463" y2="1927.7397">
				<stop  offset="0" style="stop-color:#444B8C"/>
				<stop  offset="0.9964" style="stop-color:#3E4177"/>
			</linearGradient>
			<path class="st46" d="M2120.78,1756.3c-37.66,7.3-78.23,16.58-121.11,28.41c94.88,85.43,176.28,189.21,168.68,311.32
				c190.52-58.81,309.86-122.86,309.86-122.86C2359.07,1900.88,2239.92,1828.59,2120.78,1756.3z"/>
			<path class="st3" d="M2009.89,2273.43c24.3-12.53,102.44-48.78,191.51-22.88c46.02,13.38,133.31,54.52,139.82,117.79
				c0.64,6.22,0.38,11.49,0,15.25c0,0-193.2,20.34-231.34,6.78S2009.89,2286.14,2009.89,2273.43z"/>
			<path class="st3" d="M2715.48,2254.33c-9.09-13.26-26.4-42.37-30.22-83.44c-3.4-36.57,5.51-65.36,11.23-80.12
				c9.14,7.45,22.18,15.66,32.6,29.52c3.3,4.38,12.78,14.3,16.96,30.8c4.98,19.69,3.99,47.16-2.27,63.88
				C2735.96,2235.83,2722.48,2248.56,2715.48,2254.33z"/>
			<linearGradient id="SVGID_44_" gradientUnits="userSpaceOnUse" x1="2599.5261" y1="2598.0393" x2="2570.1433" y2="2417.1028">
				<stop  offset="0" style="stop-color:#FCB148"/>
				<stop  offset="0.0521" style="stop-color:#FDBA46"/>
				<stop  offset="0.1424" style="stop-color:#FFC244"/>
				<stop  offset="0.3183" style="stop-color:#FFC444"/>
				<stop  offset="0.4849" style="stop-color:#FDB946"/>
				<stop  offset="0.7754" style="stop-color:#F99C4D"/>
				<stop  offset="0.8658" style="stop-color:#F8924F"/>
				<stop  offset="1" style="stop-color:#F8924F"/>
			</linearGradient>
			<polygon class="st47" points="2706.44,2348.47 2706.44,2382.06 2433.58,2484.09 2433.58,2450.53 			"/>
			<linearGradient id="SVGID_45_" gradientUnits="userSpaceOnUse" x1="2599.2083" y1="2650.8743" x2="2570.1418" y2="2471.8857">
				<stop  offset="0" style="stop-color:#FCB148"/>
				<stop  offset="0.0521" style="stop-color:#FDBA46"/>
				<stop  offset="0.1424" style="stop-color:#FFC244"/>
				<stop  offset="0.3183" style="stop-color:#FFC444"/>
				<stop  offset="0.4849" style="stop-color:#FDB946"/>
				<stop  offset="0.7754" style="stop-color:#F99C4D"/>
				<stop  offset="0.8658" style="stop-color:#F8924F"/>
				<stop  offset="1" style="stop-color:#F8924F"/>
			</linearGradient>
			<polygon class="st48" points="2706.44,2403.76 2706.44,2436.36 2433.58,2538.39 2433.58,2505.81 			"/>
			<g>
				<linearGradient id="SVGID_46_" gradientUnits="userSpaceOnUse" x1="1336.7473" y1="2275.9512" x2="1620.3389" y2="2198.5566">
					<stop  offset="0" style="stop-color:#FCB148"/>
					<stop  offset="0.0521" style="stop-color:#FDBA46"/>
					<stop  offset="0.1424" style="stop-color:#FFC244"/>
					<stop  offset="0.3183" style="stop-color:#FFC444"/>
					<stop  offset="0.4849" style="stop-color:#FDB946"/>
					<stop  offset="0.7754" style="stop-color:#F99C4D"/>
					<stop  offset="0.8658" style="stop-color:#F8924F"/>
					<stop  offset="1" style="stop-color:#F8924F"/>
				</linearGradient>
				<path class="st49" d="M1398.92,2440.36c-2.55,0-4.75-1.92-5.04-4.51l-25.17-220.74c-2.13-16.38-3.27-33.12-3.4-49.68
					c-0.19-24.92,1.91-50.04,6.24-74.65l0.29-2.66c0.32-2.79,2.82-4.79,5.63-4.48c2.79,0.32,4.79,2.84,4.48,5.63l-0.34,2.97
					c-4.27,24.32-6.32,48.81-6.13,73.12c0.12,16.15,1.24,32.48,3.32,48.53l25.18,220.81c0.32,2.79-1.68,5.31-4.48,5.63
					C1399.31,2440.35,1399.11,2440.36,1398.92,2440.36z"/>
			</g>
		</g>
	</g>
</g>
</svg>
