<?xml version="1.0" encoding="utf-8"?>
<!-- Generator: Adobe Illustrator 23.0.1, SVG Export Plug-In . SVG Version: 6.00 Build 0)  -->
<svg version="1.1" xmlns="http://www.w3.org/2000/svg" xmlns:xlink="http://www.w3.org/1999/xlink" x="0px" y="0px"
	 viewBox="0 0 3710 3710" style="enable-background:new 0 0 3710 3710;" xml:space="preserve">
<style type="text/css">
	.st0{fill:#F4F7FA;}
	.st1{fill:#97A6B7;}
	.st2{fill:#D8DEE8;}
	.st3{clip-path:url(#SVGID_3_);}
	.st4{fill:#FCFDFE;}
	.st5{clip-path:url(#SVGID_6_);}
	.st6{fill:url(#SVGID_7_);}
	.st7{fill:url(#SVGID_8_);}
	.st8{fill:url(#SVGID_9_);}
	.st9{fill:#FFFFFF;}
	.st10{fill:#6165D7;}
	.st11{fill:url(#SVGID_10_);}
	.st12{opacity:0.3;fill:url(#SVGID_11_);}
	.st13{fill:url(#SVGID_12_);}
	.st14{fill:url(#SVGID_13_);}
	.st15{fill:url(#SVGID_14_);}
	.st16{fill:url(#SVGID_15_);}
	.st17{fill:url(#SVGID_16_);}
	.st18{opacity:0.3;fill:url(#SVGID_17_);}
	.st19{fill:url(#SVGID_18_);}
	.st20{fill:url(#SVGID_19_);}
	.st21{fill:url(#SVGID_20_);}
	.st22{fill:url(#SVGID_21_);}
	.st23{fill:url(#SVGID_22_);}
	.st24{fill:url(#SVGID_23_);}
	.st25{fill:url(#SVGID_24_);}
	.st26{fill:url(#SVGID_25_);}
	.st27{opacity:0.3;fill:url(#SVGID_26_);}
	.st28{fill:url(#SVGID_27_);}
	.st29{opacity:0.4;fill:url(#SVGID_28_);}
	.st30{fill:url(#SVGID_29_);}
	.st31{fill:url(#SVGID_30_);}
	.st32{fill:url(#SVGID_31_);}
	.st33{fill:url(#SVGID_32_);}
	.st34{opacity:0.3;fill:url(#SVGID_33_);}
	.st35{fill:url(#SVGID_34_);}
	.st36{opacity:0.3;fill:url(#SVGID_35_);}
	.st37{fill:url(#SVGID_36_);}
	.st38{fill:url(#SVGID_37_);}
	.st39{opacity:0.3;fill:url(#SVGID_38_);}
	.st40{opacity:0.3;fill:url(#SVGID_39_);}
	.st41{fill:url(#SVGID_40_);}
	.st42{fill:url(#SVGID_41_);}
	.st43{opacity:0.3;fill:url(#SVGID_42_);}
	.st44{fill:url(#SVGID_43_);}
	.st45{fill:url(#SVGID_44_);}
	.st46{fill:url(#SVGID_45_);}
	.st47{opacity:0.3;fill:url(#SVGID_46_);}
	.st48{fill:url(#SVGID_47_);}
</style>
<g id="Illustration">
	<g>
		<path class="st0" d="M3323.01,1437.77c-75.55-494.53-385.32-1102.1-997.31-1165.69c0,0-464.65-56.52-922.69,29.14
			c-271.85,50.84-510.22,202.17-661.05,419.67c-150.83,217.5-201.22,482.72-140.07,735.57c39.71,164.23,66.55,334.2,59.18,502.95
			c-12.82,293.7-5.44,567.85,279.59,743.01c254.5,156.39,574.79,294.33,880.35,318.49c207.66,16.42,440.53-10.15,640.68-64.21
			C3481.67,2681.17,3398.56,1932.3,3323.01,1437.77z"/>
		<g>
			<g>
				<g>
					<g>
						<path class="st1" d="M2873.4,977.45l-79.01,0.14c-5.44-52.19-17.99-102.29-36.66-149.35l66.8-38.74
							c18.26-10.59,24.5-34.47,13.98-53.39l-28.07-50.48c-10.59-19.04-34.1-26.03-52.55-15.56l-65.97,37.44
							c-30.7-43.03-67.35-81.82-108.85-115.18l37.94-65.18c10.89-18.7,4.43-43.31-14.46-55.03l-50.5-31.33
							c-19.09-11.84-43.59-6.25-54.68,12.57l-38.03,64.51c-48.86-22.76-101.67-39.18-157.36-47.99v-76.5
							c0-22.57-18.57-41.71-41.54-42.76l-61.49-2.81c-23.27-1.06-42.19,16.57-42.19,39.39v77.34
							c-57.41,4.78-112.76,17.69-164.78,37.66l-41.04-69.92c-12.06-20.55-38.85-28.51-59.87-17.73l-56.23,28.84
							c-21.26,10.91-28.56,36.57-16.27,57.25l42.53,71.54c-46.54,32.91-88.15,72.3-123.4,116.97l-76.92-43.52
							c-21.81-12.34-49.79-5.94-62.47,14.36l-33.82,54.16c-12.76,20.43-5.18,46.95,16.88,59.16l79.59,44.05
							c-22.07,50.83-36.98,105.31-43.46,162.28l-95.47,0.16c-25.69,0.04-46.59,19.52-46.59,43.5v63.77
							c0,23.98,20.9,43.16,46.59,42.84l98.01-1.22c8.27,55.63,24.62,108.6,47.84,157.77l-86.51,49.1
							c-22.06,12.52-29.63,39.14-16.88,59.4l33.82,53.68c12.67,20.12,40.66,26.12,62.47,13.47l87.5-50.74
							c34.96,41.35,75.62,77.68,120.74,107.92l-50.44,85.57c-12.3,20.86-5,46.42,16.27,57.02l56.23,28.04
							c21.02,10.48,47.81,2.14,59.87-18.58l50.03-85.94c49.4,17.42,101.68,28.48,155.8,32.3v95.8c0,22.82,18.92,40.18,42.19,38.79
							l61.49-3.68c22.97-1.37,41.54-20.78,41.54-43.35v-94.76c52.52-8.98,102.47-24.69,148.98-46.06l46.42,78.08
							c11.09,18.66,35.58,23.91,54.68,11.79l50.5-32.05c18.89-11.99,25.35-36.69,14.46-55.24l-45.06-76.76
							c40.33-31.92,76.24-68.84,106.79-109.68l75.15,41.59c18.45,10.21,41.96,2.88,52.55-16.31l28.07-50.88
							c10.52-19.07,4.28-42.86-13.98-53.19l-72.67-41.12c19.68-46.17,33.46-95.32,40.41-146.52l81.13-1.01
							c20.91-0.26,37.82-17.93,37.82-39.46v-57.27C2911.22,994.84,2894.31,977.41,2873.4,977.45z M2233.77,1448.91
							c-233.78,8.68-429.42-172.76-429.42-405.54c0-232.77,195.64-416.71,429.42-411.02c225.84,5.49,403.36,187.06,403.36,405.7
							C2637.13,1256.69,2459.61,1440.53,2233.77,1448.91z"/>
						<polygon class="st1" points="1972.18,411.53 1915.91,409.59 1896.51,460.04 						"/>
						<polygon class="st1" points="2530.16,434.82 2595.05,435.46 2595.05,483.33 						"/>
						<polygon class="st1" points="2777.44,665.7 2842.12,668.31 2825.95,704.53 						"/>
						<polygon class="st1" points="2878.99,978.12 2944.31,983.3 2922.97,1014.99 						"/>
						<polygon class="st1" points="2770.33,1426.35 2833.71,1435.41 2841.47,1383.66 						"/>
						<polygon class="st1" points="2527.78,1659.84 2584.7,1670.19 2589.22,1628.15 						"/>
						<polygon class="st1" points="2243.19,1760.74 2192.09,1751.69 2236.08,1686.36 						"/>
						<polygon class="st1" points="1966.36,1705.77 1906.86,1693.48 1952.78,1637.85 						"/>
						<polygon class="st1" points="1631.97,639.85 1694.06,641.79 1669.48,687.07 						"/>
						<polygon class="st1" points="1508.43,1126.89 1565.35,1135.29 1560.82,1088.72 						"/>
						<polygon class="st1" points="1630.68,1467.75 1686.3,1476.8 1690.83,1439.93 						"/>
					</g>
					<path class="st2" d="M2937.23,982.58l-79.66,0.14c-5.49-52.61-18.14-103.12-36.96-150.57l67.35-39.05
						c18.41-10.67,24.7-34.75,14.09-53.83l-28.3-50.89c-10.68-19.2-34.38-26.24-52.98-15.69l-66.52,37.75
						c-30.96-43.38-67.91-82.48-109.75-116.12l38.26-65.71c10.98-18.85,4.47-43.67-14.58-55.48l-50.92-31.59
						c-19.25-11.94-43.95-6.3-55.13,12.67l-38.34,65.04c-49.27-22.95-102.51-39.5-158.67-48.38v-77.13
						c0-22.75-18.72-42.05-41.88-43.11l-62-2.83c-23.46-1.07-42.54,16.71-42.54,39.71v77.97c-57.89,4.82-113.69,17.83-166.15,37.97
						l-41.38-70.49c-12.16-20.72-39.17-28.75-60.37-17.88l-56.69,29.07c-21.44,10.99-28.8,36.87-16.4,57.72l42.88,72.12
						c-46.93,33.17-88.88,72.89-124.42,117.92l-77.56-43.87c-21.99-12.44-50.21-5.99-62.98,14.47l-34.1,54.6
						c-12.86,20.6-5.23,47.33,17.01,59.64l80.25,44.4c-22.25,51.24-37.28,106.17-43.82,163.6l-96.27,0.17
						c-25.91,0.04-46.98,19.68-46.98,43.85v64.29c0,24.18,21.07,43.51,46.98,43.19l98.82-1.23c8.34,56.09,24.82,109.48,48.24,159.05
						l-87.22,49.5c-22.24,12.62-29.88,39.46-17.01,59.88l34.1,54.12c12.78,20.28,41,26.33,62.98,13.58l88.22-51.16
						c35.25,41.69,76.25,78.31,121.74,108.8l-50.86,86.27c-12.4,21.03-5.04,46.8,16.4,57.49l56.69,28.27
						c21.2,10.57,48.21,2.16,60.37-18.73l50.44-86.64c49.81,17.57,102.52,28.71,157.09,32.56v96.58c0,23,19.08,40.51,42.54,39.11
						l62-3.71c23.16-1.38,41.88-20.95,41.88-43.7v-95.54c52.96-9.05,103.32-24.89,150.21-46.44l46.8,78.72
						c11.18,18.81,35.88,24.1,55.13,11.89l50.92-32.31c19.04-12.08,25.56-36.99,14.58-55.69l-45.43-77.39
						c40.67-32.18,76.87-69.41,107.67-110.58l75.78,41.93c18.6,10.29,42.31,2.91,52.98-16.44l28.3-51.29
						c10.61-19.23,4.32-43.21-14.09-53.63l-73.28-41.45c19.84-46.55,33.73-96.1,40.74-147.71l81.81-1.02
						c21.09-0.26,38.13-18.07,38.13-39.79v-57.74C2975.36,1000.11,2958.32,982.54,2937.23,982.58z M2292.3,1457.88
						c-235.72,8.75-432.98-174.17-432.98-408.84c0-234.67,197.26-420.11,432.98-414.37c227.71,5.54,406.7,188.58,406.7,409.01
						C2699,1264.1,2520.01,1449.43,2292.3,1457.88z"/>
				</g>
			</g>
			<g>
				<g>
					<g>
						<path class="st1" d="M3132.63,2069.56l-42.5-7.9c2.34-28.62,0.65-56.82-4.64-84.02l39.84-14.09
							c10.89-3.85,16.66-16.06,12.91-27.3l-10-29.98c-3.77-11.31-15.71-17.44-26.69-13.67l-39.26,13.48
							c-12.17-26.24-27.96-50.8-46.91-72.94l26.99-31.22c7.74-8.96,6.75-22.85-2.22-31.06l-24-21.95
							c-9.07-8.3-22.81-7.76-30.67,1.24l-26.97,30.85c-23.98-17.17-50.72-31.34-79.78-41.7l7.72-41.14
							c2.28-12.14-5.77-24.31-18.02-27.19l-32.78-7.72c-12.41-2.92-24.36,4.65-26.67,16.92l-7.81,41.59
							c-31.36-3.22-62.43-1.87-92.42,3.62l-15.01-41.75c-4.41-12.27-18.01-19.26-30.41-15.58l-33.15,9.83
							c-12.54,3.72-19.05,16.78-14.53,29.15l15.65,42.77c-28.35,13-54.71,29.98-78.17,50.44l-36.97-31.17
							c-10.48-8.84-26.18-8.22-35.04,1.41l-23.65,25.71c-8.92,9.7-7.53,24.73,3.1,33.52l38.36,31.72
							c-17,25.11-30.52,52.9-39.76,82.88l-51.36-9.55c-13.82-2.57-27.03,5.79-29.45,18.69l-6.44,34.3
							c-2.42,12.9,6.88,25.32,20.73,27.74l52.83,9.24c-1.17,30.76,2.27,60.89,9.8,89.68l-51.48,17.67
							c-13.13,4.51-19.89,18.06-15.07,30.24l12.77,32.28c4.78,12.1,19.23,18.15,32.23,13.55l52.18-18.45
							c14.63,25.77,32.82,49.41,54.04,70.23l-35.77,40.93c-8.72,9.98-7.37,24.46,2.99,32.31l27.41,20.76
							c10.25,7.76,25.5,5.98,34.08-3.95l35.58-41.17c24.81,14.36,51.81,25.58,80.53,33.1l-9.67,51.52
							c-2.3,12.27,6.12,23.52,18.77,25.12l33.44,4.23c12.49,1.58,24.44-6.98,26.72-19.12l9.57-50.96
							c29.15,0.47,57.6-2.93,84.77-9.73l17.08,46.68c4.08,11.15,16.72,16.45,28.21,11.86l30.39-12.14
							c11.37-4.54,17.34-17.17,13.35-28.25l-16.48-45.83c24.91-13.09,47.95-29.33,68.5-48.21l36.22,29.95
							c8.89,7.35,22.27,5.79,29.91-3.46l20.23-24.53c7.59-9.2,6.63-22.62-2.15-30.02l-34.93-29.45
							c15.25-22.84,27.62-47.89,36.52-74.72l43.73,7.65c11.27,1.97,22.15-5.82,24.32-17.41l5.78-30.8
							C3151.21,2082.74,3143.88,2071.66,3132.63,2069.56z M2741.04,2258.53c-126.6-18.94-213.5-136.27-190-261.45
							c23.5-125.18,147.29-204.35,272.44-177.69c120.9,25.76,198.04,141.32,175.96,258.91
							C2977.37,2195.89,2863.34,2276.83,2741.04,2258.53z"/>
						<polygon class="st1" points="2705.1,1674.23 2675.03,1667.5 2659.5,1692.68 						"/>
						<polygon class="st1" points="3002.82,1743.09 3037.65,1749.98 3032.82,1775.73 						"/>
						<polygon class="st1" points="3112.5,1892.22 3147.02,1900.15 3134.67,1918 						"/>
						<polygon class="st1" points="3135.57,2070.49 3170.18,2079.87 3155.5,2094.76 						"/>
						<polygon class="st1" points="3031.87,2300.58 3065.05,2311.85 3074.45,2284.8 						"/>
						<polygon class="st1" points="2877.86,2401.66 2907.42,2412.97 2914.1,2390.82 						"/>
						<polygon class="st1" points="2714.62,2427.19 2688.05,2417.16 2718.3,2386.47 						"/>
						<polygon class="st1" points="2571.29,2369.67 2540.53,2357.06 2570.85,2331.78 						"/>
						<polygon class="st1" points="2499.08,1762.67 2532.28,1769.98 2514.49,1791.85 						"/>
						<polygon class="st1" points="2383.47,2012.12 2413.23,2022.39 2415.5,1996.89 						"/>
						<polygon class="st1" points="2414.8,2207.77 2443.8,2218.26 2449.95,2198.89 						"/>
					</g>
					<path class="st2" d="M3166.44,2078.77l-42.86-7.97c2.36-28.85,0.66-57.29-4.68-84.71l40.17-14.2
						c10.98-3.88,16.79-16.19,13.01-27.52l-10.08-30.23c-3.8-11.4-15.84-17.59-26.91-13.79l-39.58,13.58
						c-12.27-26.45-28.19-51.22-47.3-73.53l27.21-31.48c7.81-9.03,6.81-23.03-2.24-31.31l-24.19-22.13
						c-9.15-8.37-23-7.82-30.93,1.25l-27.19,31.11c-24.18-17.31-51.14-31.59-80.45-42.04l7.79-41.48
						c2.3-12.24-5.82-24.51-18.17-27.41l-33.06-7.78c-12.51-2.94-24.56,4.69-26.89,17.06l-7.87,41.93
						c-31.62-3.25-62.94-1.89-93.19,3.64l-15.14-42.09c-4.45-12.37-18.16-19.41-30.66-15.71l-33.43,9.91
						c-12.64,3.75-19.21,16.92-14.65,29.39l15.78,43.11c-28.59,13.1-55.16,30.22-78.82,50.85l-37.28-31.43
						c-10.57-8.91-26.4-8.29-35.33,1.42l-23.85,25.92c-9,9.78-7.59,24.93,3.13,33.79l38.68,31.98
						c-17.14,25.31-30.77,53.33-40.09,83.56l-51.79-9.63c-13.94-2.59-27.25,5.84-29.69,18.84l-6.49,34.58
						c-2.44,13,6.94,25.53,20.91,27.97l53.27,9.32c-1.18,31.01,2.29,61.38,9.88,90.41l-51.91,17.81
						c-13.24,4.54-20.05,18.21-15.2,30.49l12.87,32.55c4.82,12.2,19.39,18.3,32.5,13.66l52.61-18.6
						c14.75,25.98,33.1,49.81,54.49,70.8l-36.06,41.26c-8.79,10.06-7.43,24.66,3.02,32.57l27.64,20.93
						c10.33,7.82,25.71,6.03,34.36-3.98l35.88-41.5c25.01,14.48,52.24,25.79,81.19,33.37l-9.75,51.94
						c-2.32,12.37,6.17,23.71,18.93,25.33l33.72,4.27c12.6,1.59,24.64-7.04,26.94-19.27l9.65-51.38
						c29.39,0.48,58.08-2.96,85.47-9.81l17.22,47.06c4.11,11.24,16.86,16.58,28.45,11.96l30.65-12.23
						c11.46-4.58,17.48-17.31,13.46-28.48l-16.62-46.21c25.12-13.2,48.35-29.56,69.07-48.6l36.52,30.2
						c8.96,7.41,22.46,5.83,30.15-3.49l20.4-24.73c7.65-9.27,6.68-22.8-2.16-30.26l-35.22-29.69
						c15.37-23.03,27.84-48.28,36.82-75.33l44.1,7.71c11.37,1.99,22.33-5.87,24.52-17.55l5.83-31.05
						C3185.17,2092.05,3177.78,2080.88,3166.44,2078.77z M2771.61,2269.27c-127.65-19.1-215.27-137.38-191.58-263.59
						c23.69-126.2,148.5-206.01,274.69-179.13c121.9,25.97,199.68,142.48,177.43,261.02S2894.93,2287.72,2771.61,2269.27z"/>
				</g>
			</g>
		</g>
		<g>
			<g>
				<g>
					<g>
						<g>
							<defs>
								<path id="SVGID_1_" d="M1315.17,2346.25c-23.02,38.15-63.12,89.95-106.54,150.02l724.68,104.93
									c-81.06-220.68-195.34-452.44-24.67-835.64c80.09-179.83,292.97-495.98,205.35-706.82
									c-99.82-240.21-297.31-136.48-347.42-322.45c-78.32-290.66-325.74-492.87-591.54-348.41
									c-262.34,142.57-253.53,663.49,92.14,1233.35C1468.85,2058.15,1435.36,2147.04,1315.17,2346.25z"/>
							</defs>
							<linearGradient id="SVGID_2_" gradientUnits="userSpaceOnUse" x1="2357.145" y1="2977.1968" x2="310.7385" y2="-561.3767">
								<stop  offset="0" style="stop-color:#AA80F9"/>
								<stop  offset="0.9964" style="stop-color:#6165D7"/>
							</linearGradient>
							<use xlink:href="#SVGID_1_"  style="overflow:visible;fill:url(#SVGID_2_);"/>
							<clipPath id="SVGID_3_">
								<use xlink:href="#SVGID_1_"  style="overflow:visible;"/>
							</clipPath>
							<g class="st3">
								<g>
									<path class="st4" d="M1589.37,2508.53c5.23-95.17,5.34-185.2,5.46-280.52l0.04-31.78c-2.77-45.9-4.26-91.24-5.7-135.08
										c-3.25-99-6.31-192.5-23.07-291.77c-0.32-5.8-0.35-11.43-0.38-17.39c-0.11-21.3-0.23-43.32-12.59-64.38l-0.28-0.87
										c-49.81-525.04-208.75-1048.59-472.42-1556.12l3.77-1.96c263.84,507.86,422.93,1031.79,472.83,1557.21
										c12.71,21.93,12.83,45.39,12.93,66.1c0.03,5.91,0.06,11.49,0.35,16.95c16.77,99.31,19.85,192.96,23.1,292.1
										c1.44,43.81,2.92,89.12,5.7,135.09l-0.04,31.91c-0.12,95.38-0.23,185.46-5.47,280.75L1589.37,2508.53z"/>
									<path class="st4" d="M1584.48,2042.95c-4.65-248.3,126.31-543.25,236.99-746.96c119.87-220.61,242.42-384.7,243.65-386.33
										l3.4,2.55c-1.22,1.63-123.63,165.52-243.35,385.87c-110.43,203.25-241.09,497.44-236.45,744.8L1584.48,2042.95z"/>
									<path class="st4" d="M1417.71,963.83c-19.62-263.21,20.74-543.99,34-636.25c2.54-17.65,4.21-29.31,4.14-31.57l4.25-0.14
										c0.09,2.54-1.22,11.74-4.18,32.32c-13.25,92.15-53.56,372.58-33.97,635.33L1417.71,963.83z"/>
									<path class="st4" d="M1512.39,1384.72c-88.82-226.76-553.18-427.82-557.86-429.82l1.67-3.9
										c4.7,2.01,470.68,203.78,560.14,432.18L1512.39,1384.72z"/>
								</g>
							</g>
						</g>
					</g>
					<g>
						<g>
							<defs>
								<path id="SVGID_4_" d="M1319.96,1545.27c3.94,336.41,166.2,225.56,315.82,258.76c172.68,249.84,188.94,481.64-68.87,681.83
									l-287.27-42.99c-106.59-4.95-231.66-37.52-224.61-179.46c7.98-160.52,45.94-262.48-135.24-341.31
									c-181.18-78.83-259.01-222.68-185.64-386.29c77.21-172.18-103.89-404.27,28.46-519.64
									C993.22,815.16,1315.85,1194.96,1319.96,1545.27z"/>
							</defs>
							<linearGradient id="SVGID_5_" gradientUnits="userSpaceOnUse" x1="844.3759" y1="1236.7605" x2="1934.2087" y2="3030.9063">
								<stop  offset="3.597120e-03" style="stop-color:#E38DDD"/>
								<stop  offset="1" style="stop-color:#9571F6"/>
							</linearGradient>
							<use xlink:href="#SVGID_4_"  style="overflow:visible;fill:url(#SVGID_5_);"/>
							<clipPath id="SVGID_6_">
								<use xlink:href="#SVGID_4_"  style="overflow:visible;"/>
							</clipPath>
							<g class="st5">
								<g>
									<path class="st4" d="M1391.28,2147.3c-119.94-131.21-223.85-277.03-308.86-433.38
										c-85.74-157.71-151.09-324.05-194.24-494.41c-24.74-97.69-42.21-197.21-51.91-295.81l4.32-0.42
										c9.69,98.38,27.11,197.69,51.8,295.17c43.06,170.01,108.28,336.01,193.84,493.4c84.84,156.05,188.55,301.57,308.25,432.53
										L1391.28,2147.3z"/>
									<path class="st4" d="M1082.08,2332.07l-1.97-3.87c53.36-27.18,116.29-48.38,187.07-63c33.72-6.97,67.23-11.57,99.57-13.67
										l0.28,4.34c-32.15,2.09-65.45,6.66-98.98,13.59C1197.66,2284,1135.09,2305.06,1082.08,2332.07z"/>
									<path class="st4" d="M1138.34,1809.9c-148.34-143.5-464.12-130.38-467.28-130.21l-0.2-4.34
										c3.2-0.14,320.81-13.38,470.51,131.43L1138.34,1809.9z"/>
									<path class="st4" d="M955.42,1435.4c-44.4-228.93,127.17-493.47,128.91-496.12l3.63,2.39
										c-1.73,2.63-172.33,265.73-128.27,492.91L955.42,1435.4z"/>
								</g>
							</g>
						</g>
					</g>
				</g>
			</g>
		</g>
		<g>
			<linearGradient id="SVGID_7_" gradientUnits="userSpaceOnUse" x1="194.3081" y1="-1089.8418" x2="2469.6736" y2="3709.1121">
				<stop  offset="0" style="stop-color:#FFC444"/>
				<stop  offset="0.9964" style="stop-color:#F36F56"/>
			</linearGradient>
			<path class="st6" d="M2241.67,2649.56c0,21.02-15.96,38.88-35.69,39.91l-1254.11,65.14c-23.03,1.2-41.74-16.3-41.74-39.08V854.91
				c0-22.78,18.71-40.1,41.74-38.7l16.8-0.9l1237.31,77.41c19.73,1.2,35.69,19.21,35.69,40.23V2649.56z"/>
			<linearGradient id="SVGID_8_" gradientUnits="userSpaceOnUse" x1="1126.0018" y1="822.2136" x2="3401.3679" y2="5621.1685">
				<stop  offset="0" style="stop-color:#FFC444"/>
				<stop  offset="0.9964" style="stop-color:#F36F56"/>
			</linearGradient>
			<path class="st7" d="M2266.38,2648.7c0,21.01-15.96,38.88-35.69,39.91l-1254.11,65.14c-23.03,1.2-41.74-16.3-41.74-39.08V854.05
				c0-22.78,18.71-40.1,41.74-38.7l1254.11,76.51c19.73,1.2,35.69,19.21,35.69,40.23V2648.7z"/>
			<linearGradient id="SVGID_9_" gradientUnits="userSpaceOnUse" x1="1357.9927" y1="671.8983" x2="1703.3912" y2="1400.3755">
				<stop  offset="0" style="stop-color:#FFC444"/>
				<stop  offset="0.9964" style="stop-color:#F36F56"/>
			</linearGradient>
			<path class="st8" d="M1301.93,990.27c-31.17,40.08-35.62,115.78,17.81,146.95c115.78,71.25,267.18,48.98,378.51-26.72
				c81.94-57.36,47.04-163.69,23.59-249.69l-246.65-15.05C1453.98,905.09,1341.03,938.15,1301.93,990.27z"/>
			<path class="st9" d="M2207.39,2574.22c0,18.61-14.18,34.35-31.71,35.17l-1135.54,53.15c-20.16,0.94-36.53-14.51-36.53-34.52
				V1035.35c0-20.01,16.37-35.41,36.53-34.39l1135.54,57.21c17.53,0.88,31.71,16.68,31.71,35.29V2574.22z"/>
			<path class="st10" d="M1896.08,1007.52c-1.69-9.76-9.31-16.67-18.97-17.18l-59.76-3.21c-27.01-1.45-46.54-23.97-45.26-52.28
				l2.97-65.57c0.55-12.12-7.83-21.84-19.45-22.56l-19.29-1.2c-14.68-0.91-24.72-14.05-22.4-29.35c4.1-27.07-13.7-50.42-39.82-52.17
				c-26.2-1.75-50.85,18.89-54.97,46.11c-1.12,7.39-5.03,14.3-10.88,19.21c-5.85,4.91-13.16,7.42-20.33,6.97l-19.69-1.22
				c-11.91-0.74-23.33,7.88-26.49,20.02l-17.11,65.71c-7.4,28.4-34.2,48.77-62.31,47.26l-62.88-3.38
				c-10.26-0.55-20.41,5.6-25.25,15.33l-45.13,90.55l3.88,4.96l578.82,22.52L1896.08,1007.52z M1665.55,820.39
				c-7.68-0.49-12.93-7.34-11.72-15.3c1.2-7.96,8.41-14.01,16.08-13.51c7.67,0.5,12.9,7.35,11.7,15.3
				C1680.41,814.82,1673.22,820.87,1665.55,820.39z"/>
			<linearGradient id="SVGID_10_" gradientUnits="userSpaceOnUse" x1="1474.521" y1="769.1519" x2="1731.9363" y2="1265.5951">
				<stop  offset="0" style="stop-color:#444B8C"/>
				<stop  offset="0.9964" style="stop-color:#26264F"/>
			</linearGradient>
			<path class="st11" d="M1899.95,1012.47c-1.69-9.76-9.31-16.67-18.97-17.18l-59.76-3.21c-27.01-1.45-46.54-23.97-45.26-52.27
				l2.97-65.57c0.55-12.12-7.83-21.84-19.45-22.56l-19.29-1.2c-14.68-0.91-24.72-14.05-22.4-29.35c4.1-27.07-13.7-50.42-39.82-52.17
				c-26.2-1.75-50.85,18.89-54.97,46.11c-1.12,7.39-5.03,14.3-10.88,19.21c-5.85,4.91-13.16,7.42-20.33,6.97l-19.69-1.22
				c-11.91-0.74-23.33,7.88-26.49,20.02l-17.11,65.71c-7.39,28.4-34.2,48.77-62.31,47.26l-62.88-3.38
				c-10.26-0.55-20.4,5.61-25.25,15.33l-45.13,90.55l582.7,27.47L1899.95,1012.47z M1669.43,825.34
				c-7.68-0.49-12.93-7.34-11.72-15.3c1.21-7.96,8.41-14.01,16.08-13.51c7.67,0.5,12.9,7.35,11.7,15.3
				C1684.29,819.78,1677.1,825.83,1669.43,825.34z"/>
			<g>
				<polygon class="st2" points="1887.98,1304.05 1350.32,1282.33 1350.32,1175.04 1887.98,1201.41 				"/>
				<g>
					<path class="st2" d="M2125.86,1558.85c0,3.97-2.65,7.12-5.93,7.05l-443.98-9.94c-3.53-0.08-6.4-3.49-6.4-7.61v-89.59
						c0-4.12,2.87-7.38,6.4-7.27l443.98,13.78c3.28,0.1,5.93,3.4,5.93,7.37V1558.85z"/>
					<path class="st2" d="M2125.86,1658.23c0,3.97-2.65,7.15-5.93,7.1l-443.98-6.13c-3.53-0.05-6.4-3.43-6.4-7.55v-24.89
						c0-4.12,2.87-7.42,6.4-7.36l443.98,7.6c3.28,0.06,5.93,3.32,5.93,7.29V1658.23z"/>
					<path class="st2" d="M2125.86,1749.23c0,3.97-2.65,7.17-5.93,7.15l-443.98-2.65c-3.53-0.02-6.4-3.38-6.4-7.5v-24.89
						c0-4.12,2.87-7.44,6.4-7.41l443.98,4.12c3.28,0.03,5.93,3.27,5.93,7.24V1749.23z"/>
					<path class="st2" d="M2125.86,1840.22c0,3.97-2.65,7.19-5.93,7.19l-443.98,0.82c-3.53,0.01-6.4-3.33-6.4-7.45v-24.89
						c0-4.12,2.87-7.46,6.4-7.46l443.98,0.64c3.28,0,5.93,3.22,5.93,7.19V1840.22z"/>
					<path class="st2" d="M2125.86,1931.22c0,3.97-2.65,7.21-5.93,7.24l-443.98,4.3c-3.53,0.03-6.4-3.28-6.4-7.4v-24.89
						c0-4.12,2.87-7.48,6.4-7.51l443.98-2.84c3.28-0.02,5.93,3.18,5.93,7.15V1931.22z"/>
				</g>
				<g>
					<path class="st2" d="M1516.4,1948.09l-372.07,3.72c-13.97,0.14-25.32-12.42-25.32-28.05v-464.51
						c0-15.63,11.35-27.95,25.32-27.51l372.07,11.65c13.13,0.41,23.75,12.99,23.75,28.1v449.01
						C1540.15,1935.61,1529.53,1947.96,1516.4,1948.09z"/>
					<path class="st2" d="M1143.48,1444.27l0.48,0.01l372.08,11.54c7.23,0.22,13.12,7.29,13.12,15.75v449.12
						c0,8.15-5.65,14.87-12.69,14.98l-372.07,3.62c-7.82,0.08-14.19-6.97-14.19-15.7v-464.4
						C1130.2,1450.87,1136.03,1444.31,1143.48,1444.27z M1143.48,1431.74c-13.58,0.08-24.47,12.21-24.47,27.52v464.51
						c0,15.63,11.35,28.19,25.32,28.05l372.07-3.72c0.05,0,0.1,0,0.15,0c13.06-0.22,23.6-12.54,23.6-27.59v-449.01
						c0-15.11-10.62-27.69-23.75-28.1l-372.07-11.65C1144.04,1431.74,1143.76,1431.73,1143.48,1431.74z"/>
				</g>
				<g>
					<path class="st2" d="M1365.88,2179.15l-237.99,5.04c-1.59,0.03-2.88-1.38-2.88-3.16v-35.36c0-1.78,1.29-3.24,2.88-3.27
						l237.99-4.25c1.53-0.03,2.78,1.36,2.78,3.11v34.68C1368.65,2177.68,1367.41,2179.12,1365.88,2179.15z"/>
					<path class="st2" d="M1532.54,2258.53l-404.66,11.31c-1.59,0.04-2.88-1.36-2.88-3.14v-35.36c0-1.78,1.29-3.25,2.88-3.29
						l404.66-9.97c1.49-0.04,2.7,1.33,2.7,3.05v34.21C1535.24,2257.06,1534.03,2258.49,1532.54,2258.53z"/>
					<path class="st2" d="M1532.54,2341.43l-404.66,14.06c-1.59,0.06-2.88-1.34-2.88-3.12v-35.36c0-1.78,1.29-3.26,2.88-3.31
						l404.66-12.72c1.49-0.05,2.7,1.31,2.7,3.03v34.21C1535.24,2339.94,1534.03,2341.38,1532.54,2341.43z"/>
					<path class="st2" d="M1532.54,2424.34l-404.66,16.81c-1.59,0.07-2.88-1.32-2.88-3.1v-35.36c0-1.78,1.29-3.27,2.88-3.33
						l404.66-15.47c1.49-0.06,2.7,1.29,2.7,3.01v34.21C1535.24,2422.83,1534.03,2424.27,1532.54,2424.34z"/>
				</g>
				<g>
					<path class="st2" d="M2015.7,2165.4l-343.51,7.27c-1.46,0.03-2.64-1.32-2.64-3.03v-33.84c0-1.7,1.18-3.1,2.64-3.13l343.51-6.13
						c1.38-0.02,2.49,1.3,2.49,2.95v32.86C2018.19,2164.01,2017.08,2165.37,2015.7,2165.4z"/>
					<path class="st2" d="M2117.48,2242.17l-445.29,12.45c-1.46,0.04-2.64-1.31-2.64-3.01v-33.84c0-1.7,1.18-3.11,2.64-3.15
						l445.29-10.97c1.35-0.03,2.45,1.27,2.45,2.91v32.57C2119.93,2240.78,2118.83,2242.14,2117.48,2242.17z"/>
					<path class="st2" d="M2117.48,2321.1l-445.29,15.48c-1.46,0.05-2.64-1.29-2.64-2.99v-33.84c0-1.7,1.18-3.12,2.64-3.16
						l445.29-14c1.35-0.04,2.45,1.25,2.45,2.89v32.57C2119.93,2319.69,2118.83,2321.06,2117.48,2321.1z"/>
					<path class="st2" d="M2117.48,2400.03l-445.29,18.5c-1.46,0.06-2.64-1.27-2.64-2.97v-33.84c0-1.7,1.18-3.13,2.64-3.18
						l445.29-17.02c1.35-0.05,2.45,1.23,2.45,2.87v32.57C2119.93,2398.6,2118.83,2399.98,2117.48,2400.03z"/>
				</g>
			</g>
			<linearGradient id="SVGID_11_" gradientUnits="userSpaceOnUse" x1="1638.8464" y1="1511.636" x2="1613.5651" y2="778.4632">
				<stop  offset="0" style="stop-color:#444B8C"/>
				<stop  offset="0.9964" style="stop-color:#26264F"/>
			</linearGradient>
			<path class="st12" d="M1880.98,995.29l-59.76-3.21c-17.93-0.96-32.52-11.24-39.96-26.31c-55.38,11.59-113.72-0.52-172.06,11.15
				c-40.08,8.91-35.62,71.25-80.15,75.7c-63.87,8.63-127.07,9.23-189.61,9.84l-6.5,13.05l582.7,27.47l-15.68-90.51
				C1898.26,1002.71,1890.65,995.81,1880.98,995.29z"/>
		</g>
		<g>
			
				<linearGradient id="SVGID_12_" gradientUnits="userSpaceOnUse" x1="7302.2407" y1="2826.7437" x2="7318.5581" y2="3034.4167" gradientTransform="matrix(-1 0 0 1 8771.3848 0)">
				<stop  offset="0" style="stop-color:#AA80F9"/>
				<stop  offset="0.9964" style="stop-color:#6165D7"/>
			</linearGradient>
			<path class="st13" d="M1439.63,2930.62c0,0,58.56,29.76,59.52,34.51c0.96,4.75-37.66-1.59-53.42-0.91
				c-15.77,0.69-28.73-4.52-27.31-11.99c1.43-7.47,6.95-26.24,6.95-26.24L1439.63,2930.62z"/>
			
				<linearGradient id="SVGID_13_" gradientUnits="userSpaceOnUse" x1="7340.9956" y1="2942.6282" x2="7338.0371" y2="2728.1216" gradientTransform="matrix(-1 0 0 1 8771.3848 0)">
				<stop  offset="0" style="stop-color:#893976"/>
				<stop  offset="1" style="stop-color:#311944"/>
			</linearGradient>
			<path class="st14" d="M1441.77,2906.47l-3.56,29.48c0,0-9.27,3.69-15.5-0.67l-2.66-32.33L1441.77,2906.47z"/>
			
				<linearGradient id="SVGID_14_" gradientUnits="userSpaceOnUse" x1="7577.0239" y1="2802.4543" x2="7593.3838" y2="3010.6731" gradientTransform="matrix(-1 0 0 1 8771.3848 0)">
				<stop  offset="0" style="stop-color:#AA80F9"/>
				<stop  offset="0.9964" style="stop-color:#6165D7"/>
			</linearGradient>
			<path class="st15" d="M1165.99,2907.17l-6.81,12.23c-1.91,3.42-2.47,7.53-1.56,11.43c2.38,10.17,7.14,29.98,9.21,35.15
				c2.82,7.04,40.72,11.22,40.72,11.22s3.38-5.32-4.49-11.74c-7.87-6.42-12.93-7.43-15.7-16.91c-2.78-9.48-4.63-36.28-4.63-36.28
				L1165.99,2907.17z"/>
			
				<linearGradient id="SVGID_15_" gradientUnits="userSpaceOnUse" x1="7592.9585" y1="2938.7422" x2="7590.0005" y2="2724.2627" gradientTransform="matrix(-1 0 0 1 8771.3848 0)">
				<stop  offset="0" style="stop-color:#893976"/>
				<stop  offset="1" style="stop-color:#311944"/>
			</linearGradient>
			<path class="st16" d="M1194.34,2876.11c-2.49,2.22-14.66,43.52-14.66,43.52s-3.94,5.63-11.42-2.68
				c-7.48-8.31-3.39-3.73-3.39-3.73l1.4-40.63L1194.34,2876.11z"/>
			
				<linearGradient id="SVGID_16_" gradientUnits="userSpaceOnUse" x1="6668.9131" y1="2595.2913" x2="6810.6992" y2="2595.2913" gradientTransform="matrix(-1 0 0 1 8145.1226 0)">
				<stop  offset="0" style="stop-color:#AB316D"/>
				<stop  offset="1" style="stop-color:#792D3D"/>
			</linearGradient>
			<path class="st17" d="M1473.99,2314.2c3.09,87.94,3.22,183.48-1.31,285.54c-5.09,114.93-15.33,221.16-28.24,317.46
				c-4.8,0.17-9.84,0.2-15.1,0.03c-3.56-0.11-7-0.3-10.33-0.56c-6.7-19.97-14.61-46.22-21.7-77.59
				c-7.45-32.98-11.95-62.56-15.15-90.85c-11.28-99.6,1.94-108.29-7.21-182.1c-8.11-65.37-19.63-67.93-33.16-160.74
				c-14.68-100.71-3.75-115.82,1.56-121.27C1365.97,2260.88,1419.12,2276.7,1473.99,2314.2z"/>
			
				<linearGradient id="SVGID_17_" gradientUnits="userSpaceOnUse" x1="6678.7163" y1="2595.2979" x2="6810.6982" y2="2595.2979" gradientTransform="matrix(-1 0 0 1 8145.1226 0)">
				<stop  offset="0" style="stop-color:#AB316D"/>
				<stop  offset="1" style="stop-color:#792D3D"/>
			</linearGradient>
			<path class="st18" d="M1343.35,2284.12c21.58-22.16,70.93-8.75,123.06,25.08c-59.97,72.44-66.5,119.43-59.32,149.92
				c8.12,34.46,32.83,44.39,32.73,82.07c-0.12,46.31-37.49,58.57-36.7,107.57c0.53,32.4,16.95,32.07,20.83,72.09
				c4.59,47.35-16.87,63.67-9.92,98.7c2.99,15.07,11.52,34.77,35.83,55.06c-1.75,14.39-3.55,28.63-5.42,42.6
				c-4.8,0.17-9.84,0.2-15.1,0.03c-3.56-0.11-7-0.3-10.33-0.56c-6.7-19.97-14.61-46.22-21.7-77.59
				c-7.45-32.98-11.95-62.56-15.15-90.85c-11.28-99.6,1.94-108.29-7.21-182.1c-8.11-65.37-19.63-67.93-33.16-160.74
				C1327.1,2304.68,1338.03,2289.57,1343.35,2284.12z"/>
			
				<linearGradient id="SVGID_18_" gradientUnits="userSpaceOnUse" x1="6708.2749" y1="2579.6648" x2="6993.7061" y2="2579.6648" gradientTransform="matrix(-1 0 0 1 8145.1226 0)">
				<stop  offset="0" style="stop-color:#AB316D"/>
				<stop  offset="1" style="stop-color:#792D3D"/>
			</linearGradient>
			<path class="st19" d="M1436.85,2312.73c-51.63,84.47-107.33,189.6-157.13,315.43c-37.64,95.09-64.94,184.38-84.98,263.95
				c-2.71,1.4-9.11,4.2-17.29,3c-11.15-1.65-17.83-9.61-19.58-11.83c-8.16-57.04-7.26-105.35-4.49-140.22
				c1.77-22.32,4.91-59.5,17.64-105.39c14.25-51.41,24.05-54.3,42.65-108.68c19.3-56.45,14.63-70.54,33.11-141.18
				c7.59-29.02,20.31-72.21,41.28-123.87C1337.66,2280.19,1387.25,2296.46,1436.85,2312.73z"/>
			
				<linearGradient id="SVGID_19_" gradientUnits="userSpaceOnUse" x1="6912.0181" y1="1851.9091" x2="7184.7935" y2="2101.5676" gradientTransform="matrix(-1 0 0 1 8145.1226 0)">
				<stop  offset="3.597000e-03" style="stop-color:#26264F"/>
				<stop  offset="1" style="stop-color:#444B8C"/>
			</linearGradient>
			<path class="st20" d="M1450.59,1945.7c57.01-37.24,81.44-32.94,97.97-66.39c16.35-33.08,16.31-85.56-10.74-113.37
				c-1.99-2.04-22.59-22.56-50.48-19.05c-42.18,5.32-45.28,58.6-92.59,83.01c-40.09,20.68-83.8,6.14-113.38-3.71
				c-71.24-23.71-81.82-68.56-118.75-61.41c-46.28,8.96-50.38,83.38-96.49,87.96c-30.82,3.06-38.16-29.27-78.67-38.17
				c-47.61-10.46-99.85,20.47-129.15,58.09c-53.55,68.75-39.44,171.38-5.94,234.02c27.53,51.46,86.71,110.66,136.57,97.92
				c39.39-10.06,52.21-59.71,86.1-54.77c24.09,3.51,24.96,29.69,53.44,43.15c46.76,22.12,104.49-20.04,120.24-31.54
				c44.88-32.78,37.74-53.74,95.61-119.45C1367.18,2016.06,1400.1,1978.68,1450.59,1945.7z"/>
			
				<linearGradient id="SVGID_20_" gradientUnits="userSpaceOnUse" x1="6235.4175" y1="1780.7479" x2="6286.1914" y2="1780.7479" gradientTransform="matrix(-1 0 0 1 8145.1226 0)">
				<stop  offset="0" style="stop-color:#893976"/>
				<stop  offset="1" style="stop-color:#311944"/>
			</linearGradient>
			<path class="st21" d="M1858.93,1800.87c0,0,9.63-13.48,15.75-23.5c6.11-10.02,34.65-38.16,34.65-38.16s2.17,4.47-3.97,11.61
				c-6.14,7.15-19.07,19.39-16.1,24.58c2.97,5.18,11.34,9.75,5.3,19.53c-6.04,9.78-16.54,3.1-21.91,10.95
				c-5.37,7.85-10.87,16.41-10.87,16.41L1858.93,1800.87z"/>
			
				<linearGradient id="SVGID_21_" gradientUnits="userSpaceOnUse" x1="6482.6416" y1="1518.7478" x2="6281.5566" y2="3641.9727" gradientTransform="matrix(-1 0 0 1 8145.1226 0)">
				<stop  offset="3.597120e-03" style="stop-color:#E38DDD"/>
				<stop  offset="1" style="stop-color:#9571F6"/>
			</linearGradient>
			<path class="st22" d="M1855.17,1792.07c6.5,10.99,13,21.98,19.5,32.98c-6.77,22.1-18.43,52.78-38.86,85.15
				c-9.01,14.28-36.95,56.17-84.26,89.86c-64.4,45.86-181.72,88.64-216.06,39.84c-30.65-43.55,18.82-140.07,27.93-157.39
				c18.44,9.66,48.73,22.48,87.67,25.52c12.76,0.99,45.98,3.26,83.4-9.6C1803.75,1874.64,1842.2,1814.61,1855.17,1792.07z"/>
			
				<linearGradient id="SVGID_22_" gradientUnits="userSpaceOnUse" x1="6866.6284" y1="1555.1151" x2="6665.5435" y2="3678.3379" gradientTransform="matrix(-1 0 0 1 8145.1226 0)">
				<stop  offset="3.597120e-03" style="stop-color:#E38DDD"/>
				<stop  offset="1" style="stop-color:#9571F6"/>
			</linearGradient>
			<path class="st23" d="M1638.55,1939.41c-3.24,16.28-53.89,7.55-64.34,37.11c-5.61,15.86,6.3,25.94,6.8,52.87
				c0.56,30.16-13.81,47.28-24.84,71.01c-16.15,34.75-16.21,68.81-16.33,136.93c-0.17,96.97,21.27,116.46,2.97,147.72
				c-23.82,40.68-81.03,43.28-96.49,43.98c-52.88,2.4-59.15-25.69-116.53-29.04c-65.53-3.83-74.86,31.79-121.72,16.6
				c-42.81-13.88-57.22-50.79-90.55-43.15c-20.83,4.77-26.36,21.75-46.02,19.92c-19.75-1.85-40.17-21.42-41.56-41.5
				c-1.73-24.95,25.54-56.38,68.28-56.43c16.98,6.67,45.14,14.39,76.45,5.81c51.3-14.06,77.98-62.84,107.62-117.01
				c20.5-37.47,58.19-106.36,58.64-196.68c0.19-37.25-6.11-48.14,2.97-68.05c29.48-64.65,143.86-55,153.55-54.07
				C1575.37,1872.94,1642.46,1919.74,1638.55,1939.41z"/>
			<g>
				
					<linearGradient id="SVGID_23_" gradientUnits="userSpaceOnUse" x1="6607.5952" y1="2099.0767" x2="6518.7446" y2="2246.3499" gradientTransform="matrix(-1 0 0 1 8145.1226 0)">
					<stop  offset="3.597000e-03" style="stop-color:#6165D7"/>
					<stop  offset="1" style="stop-color:#AA80F9"/>
				</linearGradient>
				<path class="st24" d="M1664.1,2020.76l-143.67,6.27c-1.58,0.07-2.96,1.2-3.49,2.86l-67.68,209.92
					c-0.97,3.01,2.07,10.54,4.92,10.2l142.04-21.6c1.44-0.17,2.68-1.24,3.2-2.75l70.41-195.93
					C1670.83,2026.81,1666.88,2020.64,1664.1,2020.76z"/>
				
					<linearGradient id="SVGID_24_" gradientUnits="userSpaceOnUse" x1="6668.0049" y1="2093.7788" x2="6447.8809" y2="2210.9417" gradientTransform="matrix(-1 0 0 1 8145.1226 0)">
					<stop  offset="0" style="stop-color:#FF9085"/>
					<stop  offset="1" style="stop-color:#FB6FBB"/>
				</linearGradient>
				<path class="st25" d="M1666.33,2025.9l-143.67,6.27c-1.58,0.07-2.96,1.2-3.49,2.86l-67.68,209.92
					c-0.97,3.01,1.21,6.12,4.06,5.78l142.9-17.18c1.45-0.17,2.68-1.24,3.2-2.75l68.44-199
					C1671.1,2028.88,1669.11,2025.78,1666.33,2025.9z"/>
				
					<linearGradient id="SVGID_25_" gradientUnits="userSpaceOnUse" x1="6567.9355" y1="1944.6764" x2="6541.811" y2="2030.175" gradientTransform="matrix(-1 0 0 1 8145.1226 0)">
					<stop  offset="3.597000e-03" style="stop-color:#26264F"/>
					<stop  offset="1" style="stop-color:#444B8C"/>
				</linearGradient>
				<path class="st26" d="M1627.04,2033.72l5.54-16.73c0.5-1.51-0.5-3.12-1.94-3.12h-52.29c-0.9,0-1.7,0.65-1.97,1.61l-5.26,18.51
					c-0.43,1.52,0.61,3.06,2.04,3.01l52.02-1.78C1626.01,2035.2,1626.75,2034.6,1627.04,2033.72z"/>
				
					<linearGradient id="SVGID_26_" gradientUnits="userSpaceOnUse" x1="6659.4937" y1="2079.6665" x2="6440.4834" y2="2196.2363" gradientTransform="matrix(-1 0 0 1 8145.1226 0)">
					<stop  offset="0" style="stop-color:#FF9085"/>
					<stop  offset="1" style="stop-color:#FB6FBB"/>
				</linearGradient>
				<path class="st27" d="M1538.61,2199.91c9.33-33.83-6.03-55.86,9.65-82.16c22.17-37.19,69.8-21.45,84.61-51.45
					c3.99-8.09,5.9-20.15,0.52-38.96l32.94-1.43c2.78-0.12,4.77,2.98,3.77,5.88l-68.44,199c-0.52,1.52-1.76,2.58-3.2,2.75
					l-86.85,10.44C1527.07,2228.9,1534.82,2213.66,1538.61,2199.91z"/>
			</g>
			
				<linearGradient id="SVGID_27_" gradientUnits="userSpaceOnUse" x1="6631.2568" y1="2170.4241" x2="6711.4258" y2="2170.4241" gradientTransform="matrix(-1 0 0 1 8145.1226 0)">
				<stop  offset="0" style="stop-color:#893976"/>
				<stop  offset="1" style="stop-color:#311944"/>
			</linearGradient>
			<path class="st28" d="M1433.7,2174.77c0,0,21.71-4.83,30.08-10.72c8.37-5.9,17.25-15.36,29.6-14.85
				c12.34,0.52,24.77,7.53,19.06,9.15c-5.7,1.61-16.35,14.26-24.49,19.24c-8.14,4.98-26.73,5.43-30.2,5.16
				c-3.46-0.27-17.13,8.92-17.13,8.92L1433.7,2174.77z"/>
			
				<linearGradient id="SVGID_28_" gradientUnits="userSpaceOnUse" x1="6594.9238" y1="2169.8628" x2="7115.2681" y2="2169.8628" gradientTransform="matrix(-1 0 0 1 8145.1226 0)">
				<stop  offset="3.597120e-03" style="stop-color:#E38DDD"/>
				<stop  offset="1" style="stop-color:#9571F6"/>
			</linearGradient>
			<path class="st29" d="M1098.22,2295.41c16.98,6.67,45.14,14.39,76.45,5.81c51.3-14.06,77.99-62.84,107.62-117.01
				c20.5-37.47,58.19-106.36,58.64-196.68c0.19-37.25-6.11-48.14,2.97-68.05c1.44-3.17,3.15-6.11,4.98-8.93
				c22.4,16.93,31.08,33.88,33.62,48.76c6.18,36.23-22.95,65.85-7.79,97.09c14.52,29.93,50.41,21.65,57.89,47.3
				c8.07,27.68-31.65,44.37-33.4,87.13c-2.1,51.32,53.09,76.46,43.42,110.79c-8.38,29.75-54.58,27.61-54.55,43.57
				c0.03,18.97-1.43-20.2,54.55-43.57c16.97-7.08,96.81,51.85,106.52,41.51c2.09,16.72,1.71,28.18-6.32,41.89
				c-23.82,40.68-81.03,43.28-96.49,43.98c-52.88,2.4-59.15-25.69-116.53-29.04c-65.53-3.83-74.86,31.79-121.72,16.6
				c-42.81-13.88-57.22-50.79-90.55-43.15c-20.83,4.77-26.36,21.75-46.02,19.92c-19.75-1.85-40.17-21.42-41.56-41.5
				C1028.2,2326.89,1055.47,2295.46,1098.22,2295.41z"/>
			
				<linearGradient id="SVGID_29_" gradientUnits="userSpaceOnUse" x1="6870.0181" y1="1555.4362" x2="6668.9326" y2="3678.6614" gradientTransform="matrix(-1 0 0 1 8145.1226 0)">
				<stop  offset="3.597120e-03" style="stop-color:#E38DDD"/>
				<stop  offset="1" style="stop-color:#9571F6"/>
			</linearGradient>
			<path class="st30" d="M1434.25,2164.71c6.68,13.28,13.36,26.55,20.04,39.83c-10.3,5.64-120.4,63.89-200.21,6.22
				c-9.87-7.13-36.09-26.08-50.23-63.18c-15.58-40.9-6.84-78.92-1.17-103.62c14.03-61.14,53.72-125.27,110.03-151.03
				c21.51-9.84,47.05-14.82,71.07-19.5c20.37-3.97,52.39-8.84,53.07-5.39c0.33,1.68-7.11,3.83-12.27,7.1
				c-31.73,20.07,8.56,102.94-28.73,142.69c-35.72,38.07-82.09,31.79-89.56,66.29c-3.47,16.04,3.72,30.47,6.92,36.9
				C1331.08,2156.89,1379.19,2172.94,1434.25,2164.71z"/>
			
				<linearGradient id="SVGID_30_" gradientUnits="userSpaceOnUse" x1="6787.9048" y1="2974.1797" x2="6890.4971" y2="2825.2556" gradientTransform="matrix(-0.9787 -0.2054 -0.2054 0.9787 8759.9375 371.9818)">
				<stop  offset="0" style="stop-color:#893976"/>
				<stop  offset="1" style="stop-color:#311944"/>
			</linearGradient>
			<path class="st31" d="M1508.99,1805.82c0,0-12.93,42.03-29.04,48.58c-16.1,6.54-41.56,14.05-44.76,16.97
				c-3.19,2.91,85.56,35.13,135.33,20.3l0,0c-14.18-6.94-17.97-9.15-17.97-9.15c-3.79-2.22-10.85-6.34-17.48-12.91
				c-4.51-4.46-11.57-12.77-16.89-26.58l4.65-23.86L1508.99,1805.82z"/>
			
				<linearGradient id="SVGID_31_" gradientUnits="userSpaceOnUse" x1="6776.2656" y1="2901.0903" x2="6957.5845" y2="2791.929" gradientTransform="matrix(-0.9787 -0.2054 -0.2054 0.9787 8759.9375 371.9818)">
				<stop  offset="0" style="stop-color:#893976"/>
				<stop  offset="1" style="stop-color:#311944"/>
			</linearGradient>
			<path class="st32" d="M1503.18,1824.17c0,0,7.5,18.63,25.27,15.77c15.92-2.56,15.1-47.32,4.29-54.94
				c-3.61-2.54-10.92-3.51-16.35-1.29c-3.82,1.56-15.19,11.97-12.65,27.22c-3.51-2.09-7-1.76-8.21,0.12
				c-1.54,2.38,0.95,6.69,1.52,7.67C1499,1822.1,1501.85,1823.59,1503.18,1824.17z"/>
		</g>
		<g>
			<linearGradient id="SVGID_32_" gradientUnits="userSpaceOnUse" x1="2926.3708" y1="2911.5535" x2="1417.7527" y2="2876.9651">
				<stop  offset="0" style="stop-color:#FF9085"/>
				<stop  offset="1" style="stop-color:#FB6FBB"/>
			</linearGradient>
			<path class="st33" d="M1689.94,2782.83h-35.92c0,0-42.89,131.02-62.19,150.32c-19.3,19.3,26.18,77.2,476.31,72.38
				c306.98-6.43,392.23-36.99,398.66-69.16c6.43-32.17-34.54-69.16-34.16-88.46s-53.47-65.07-53.47-65.07H1689.94z"/>
			<linearGradient id="SVGID_33_" gradientUnits="userSpaceOnUse" x1="2901.7092" y1="2910.988" x2="1474.2849" y2="2878.261">
				<stop  offset="0" style="stop-color:#FF9085"/>
				<stop  offset="1" style="stop-color:#FB6FBB"/>
			</linearGradient>
			<path class="st34" d="M2432.64,2847.9c0.38-19.3-53.47-65.07-53.47-65.07h-689.23h-35.92c0,0-6.65,20.31-15.88,46.11
				c26.43,20.5,60.72,25.34,93.39,25.34c50.41,2.29,98.52-20.62,144.34-4.58c82.48,27.49,162.67,68.73,252.03,45.82
				c54.99-13.75,107.68-36.66,164.96-34.37c34.37,0,71.03,36.66,45.82,66.44c-71.03,75.61-183.29,29.78-279.52,48.11
				c-57.28,11.46-109.98,6.87-164.96,6.87c-6.87,0-16.04,6.87-22.91,6.87c-34.78,4.97-68.7,6.91-102.32,6.78
				c70.89,6.76,167.79,10.7,299.17,9.29c306.98-6.43,392.23-36.99,398.66-69.16S2432.26,2867.2,2432.64,2847.9z"/>
			<linearGradient id="SVGID_34_" gradientUnits="userSpaceOnUse" x1="2081.4609" y1="2644.075" x2="2217.4524" y2="2353.1711">
				<stop  offset="0" style="stop-color:#FF9085"/>
				<stop  offset="1" style="stop-color:#FB6FBB"/>
			</linearGradient>
			<ellipse class="st35" cx="2016.6" cy="2782.83" rx="362.58" ry="34.52"/>
			<linearGradient id="SVGID_35_" gradientUnits="userSpaceOnUse" x1="1667.3164" y1="2582.3767" x2="2116.5168" y2="2824.6619">
				<stop  offset="0" style="stop-color:#FF9085"/>
				<stop  offset="1" style="stop-color:#FB6FBB"/>
			</linearGradient>
			<ellipse class="st36" cx="2016.6" cy="2770.77" rx="241.01" ry="22.46"/>
			
				<linearGradient id="SVGID_36_" gradientUnits="userSpaceOnUse" x1="1872.7837" y1="1944.2314" x2="3021.0132" y2="2676.0159" gradientTransform="matrix(0.9912 -0.132 0.132 0.9912 -369.5211 413.9587)">
				<stop  offset="0" style="stop-color:#311944"/>
				<stop  offset="1" style="stop-color:#A03976"/>
			</linearGradient>
			<path class="st37" d="M2178.83,2415.44c0,0,671.18,82.97,813.45,78.69c142.27-4.28,111.36,142.31,21.05,142.08
				c-90.31-0.23-827.24-138.94-827.24-138.94L2178.83,2415.44z"/>
			<linearGradient id="SVGID_37_" gradientUnits="userSpaceOnUse" x1="1509.0994" y1="1664.557" x2="2187.4109" y2="2592.9116">
				<stop  offset="0" style="stop-color:#311944"/>
				<stop  offset="1" style="stop-color:#A03976"/>
			</linearGradient>
			<path class="st38" d="M2023.69,2081.5c-13.65,8.05-33.85,22.6-47.04,47.05c-23.28,43.12,0.13,70.81-19.3,123.04
				c-17.21,46.26-40.46,37.67-53.64,82.22c-14.41,48.72,11.45,65.54-7.95,107.32c-14.6,31.44-34.85,34.01-39.02,64.74
				c-0.65,4.79-0.15,4.63,5.31,55.73c4.4,41.14,4.72,47.37,0.01,55.13c-7.68,12.65-19.16,13.59-28.38,31.93
				c-3.32,6.62-5.95,14.68-6.21,19.51c-1.64,30.67,84.95,66.37,166.07,84.03c35.37,7.7,143.9,31.08,164.27-5.29
				c3.77-6.73,2.46-16.6,0.99-34.51c-2.31-28.29-9.36-32.98-8.26-47.07c1.98-25.16,25.93-28.27,42.33-56.58
				c17.08-29.49,0.49-42.36,9.76-88.69c10.88-54.42,36.67-51.21,47.89-104.65c9.99-47.6-8.97-57.29,6.35-95.3
				c13.28-32.94,31.77-36.22,43.03-67.12c11.45-31.43,5-62.82-2.37-84.64c-27.02-21.33-73.46-52.47-138.36-71.34
				C2103.88,2080.93,2055.8,2079.75,2023.69,2081.5z"/>
			<linearGradient id="SVGID_38_" gradientUnits="userSpaceOnUse" x1="1509.108" y1="1664.569" x2="2187.4116" y2="2592.9126">
				<stop  offset="0" style="stop-color:#311944"/>
				<stop  offset="1" style="stop-color:#A03976"/>
			</linearGradient>
			<path class="st39" d="M2297.52,2168.35c-27.02-21.33-73.46-52.47-138.36-71.34c-55.28-16.08-103.36-17.26-135.47-15.51
				c-11.56,6.81-27.78,18.31-40.5,36.49c29.94-7.09,99.3-18.67,166.22,17.16c9.19,4.92,82.2,44.02,78.47,89.84
				c-2.4,29.5-33.95,29.04-51.86,69.81c-21.19,48.23,13.1,71.36-5.32,127.71c-14.14,43.25-37.59,39.6-47.89,83.37
				c-10.1,42.91,10.83,53.27-1.77,90.46c-16.26,47.97-64.31,69.82-70.95,72.73c-4.87,2.13-25.69,10.88-59.64,11.09
				c-65.16,0.39-116.23-31.06-141.69-49.83c-5.08,4.16-10.37,8.99-15.07,18.35c-3.32,6.62-5.95,14.68-6.21,19.51
				c-1.64,30.67,84.95,66.37,166.07,84.03c35.37,7.7,143.9,31.08,164.27-5.29c3.77-6.73,2.46-16.6,0.99-34.51
				c-2.31-28.29-9.36-32.98-8.26-47.07c1.98-25.16,25.93-28.27,42.33-56.58c17.08-29.49,0.49-42.36,9.76-88.69
				c10.88-54.42,36.67-51.21,47.89-104.65c9.99-47.6-8.97-57.29,6.35-95.3c13.28-32.94,31.77-36.22,43.03-67.12
				C2311.35,2221.55,2304.9,2190.17,2297.52,2168.35z"/>
			
				<linearGradient id="SVGID_39_" gradientUnits="userSpaceOnUse" x1="2055.4805" y1="2046.9611" x2="3035.0588" y2="2671.2617" gradientTransform="matrix(0.9912 -0.132 0.132 0.9912 -369.5211 413.9587)">
				<stop  offset="0" style="stop-color:#311944"/>
				<stop  offset="1" style="stop-color:#A03976"/>
			</linearGradient>
			<path class="st40" d="M3018.2,2495.18c-1.46,2.88-3.07,5.7-4.84,8.45c-46.86,76.3-143.29,67.5-222.33,65.37
				c-105.79-0.47-202.21-43.94-303.66-77.42c-69.73-24.8-145.77-19.03-209.64,22.77c200.34,37.08,665.08,121.69,735.6,121.87
				C3097.68,2636.42,3130.19,2508.57,3018.2,2495.18z"/>
		</g>
		<g>
			<g>
				<linearGradient id="SVGID_40_" gradientUnits="userSpaceOnUse" x1="2677.1111" y1="108.6697" x2="2691.5591" y2="3488.8438">
					<stop  offset="0" style="stop-color:#AA80F9"/>
					<stop  offset="0.9964" style="stop-color:#6165D7"/>
				</linearGradient>
				<path class="st41" d="M2945.04,2081.53c-93.74,185.01-221.22,204.67-258.81,206.54v0.15c0,0,1.1,0.09-1.71,0.03
					c-2.8,0.06-1.71-0.03-1.71-0.03v-0.15c-34.17-1.54-122.9-15.22-207.02-124.1c-17.75-22.97-35.36-50.19-51.7-82.44
					c-108.9-214.92-29.72-325.6-29.72-325.6l288.44-0.69v-0.03l1.71,0.03l1.71-0.03v0.03l122.9,0.3l166.03,0.39
					C2975.16,1755.93,3053.95,1866.62,2945.04,2081.53z"/>
				<linearGradient id="SVGID_41_" gradientUnits="userSpaceOnUse" x1="2683.8374" y1="1494.3209" x2="2685.8474" y2="1964.5441">
					<stop  offset="0" style="stop-color:#444B8C"/>
					<stop  offset="0.9964" style="stop-color:#26264F"/>
				</linearGradient>
				<ellipse class="st42" cx="2684.97" cy="1760.42" rx="292.86" ry="37.09"/>
				<linearGradient id="SVGID_42_" gradientUnits="userSpaceOnUse" x1="2731.2" y1="114.0962" x2="2745.6104" y2="3485.4961">
					<stop  offset="0" style="stop-color:#AA80F9"/>
					<stop  offset="0.9964" style="stop-color:#6165D7"/>
				</linearGradient>
				<path class="st43" d="M2945.04,2081.53c-93.74,185.01-221.22,204.67-258.81,206.54v0.15c0,0,1.1,0.09-1.71,0.03
					c-2.8,0.06-1.71-0.03-1.71-0.03v-0.15c-34.17-1.54-122.9-15.22-207.02-124.1c0.48-100.25,233.09-168.38,305.76-214.86
					c91.93-58.78,17.96-188.69,17.96-188.69c3.56-1.69,7.02-3.32,10.49-4.88l165.59,0.39
					C2975.6,1755.93,3053.95,1866.62,2945.04,2081.53z"/>
			</g>
			<linearGradient id="SVGID_43_" gradientUnits="userSpaceOnUse" x1="2086.6909" y1="1239.1549" x2="2392.1165" y2="1239.1549">
				<stop  offset="0" style="stop-color:#444B8C"/>
				<stop  offset="0.9964" style="stop-color:#26264F"/>
			</linearGradient>
			<ellipse class="st44" cx="2239.4" cy="1239.16" rx="152.71" ry="195.41"/>
			<linearGradient id="SVGID_44_" gradientUnits="userSpaceOnUse" x1="2129.5127" y1="1283.1776" x2="3203.8535" y2="1283.1776">
				<stop  offset="0" style="stop-color:#AA80F9"/>
				<stop  offset="0.9964" style="stop-color:#6165D7"/>
			</linearGradient>
			<path class="st45" d="M3203.85,1283.18c0,243.1-240.51,440.14-537.17,440.14c-45.57,0-89.79-4.64-132.05-13.41
				c-232.82-48.2-405.12-220.98-405.12-426.73c0-243.07,240.51-440.14,537.17-440.14c83.35,0,162.26,15.55,232.67,43.31
				C3079.52,957.4,3203.85,1108.41,3203.85,1283.18z"/>
			<path class="st0" d="M2307.97,1484.09l414.18,36.15c91.56,7.99,170.54-63.63,173.75-160.99l3.42-103.88
				c1.47-44.69-32.74-81.96-75.84-83.07l-590.43-15.23c-34.29-0.88-61.76,30.28-61.76,69.47v91.19
				C2171.28,1403.29,2231.59,1477.43,2307.97,1484.09z"/>
			
				<linearGradient id="SVGID_45_" gradientUnits="userSpaceOnUse" x1="4143.8823" y1="1327.0316" x2="4809.8071" y2="1327.0316" gradientTransform="matrix(-1 0 0 1 7010.1123 0)">
				<stop  offset="0" style="stop-color:#444B8C"/>
				<stop  offset="0.9964" style="stop-color:#26264F"/>
			</linearGradient>
			<path class="st46" d="M2298.03,1424.69l443.18,32.62c65.45,4.82,121.37-46.92,123.54-116.04l1.44-45.88
				c1.39-44.33-32.45-81.47-75.02-82.77l-528.33-16.15c-34.64-1.06-62.43,30.07-62.49,69.4l-0.05,40.72
				C2200.22,1367.97,2243.52,1420.68,2298.03,1424.69z"/>
			<path class="st2" d="M2557.85,1384.99c-4.17-6.86-6.69-14.43-6.56-22.43c0.45-25.94,26.45-45.73,58.4-44.11
				c32.32,1.63,58.32,24.48,57.72,50.97c-0.18,8.17-3.12,15.56-7.72,21.99L2557.85,1384.99z"/>
			<path class="st2" d="M2285.14,1367.81c-3.84-6.51-6.21-13.71-6.17-21.32c0.12-24.68,23.38-43.56,52.24-42.11
				c29.17,1.47,52.86,23.13,52.62,48.29c-0.07,7.76-2.64,14.8-6.71,20.93L2285.14,1367.81z"/>
			<linearGradient id="SVGID_46_" gradientUnits="userSpaceOnUse" x1="2853.2371" y1="-1692.3617" x2="2875.8733" y2="3603.4319">
				<stop  offset="0" style="stop-color:#AA80F9"/>
				<stop  offset="0.9964" style="stop-color:#6165D7"/>
			</linearGradient>
			<path class="st47" d="M3203.85,1283.18c0,243.1-240.51,440.14-537.17,440.14c-45.57,0-89.79-4.64-132.05-13.41
				c-41.78-131.87,194.33-276.5,330.12-368.64c166.36-112.88,34.6-454.91,34.6-454.91
				C3079.52,957.4,3203.85,1108.41,3203.85,1283.18z"/>
			<linearGradient id="SVGID_47_" gradientUnits="userSpaceOnUse" x1="2977.8333" y1="1315.7888" x2="3283.2585" y2="1315.7888">
				<stop  offset="0" style="stop-color:#444B8C"/>
				<stop  offset="0.9964" style="stop-color:#26264F"/>
			</linearGradient>
			<ellipse class="st48" cx="3130.55" cy="1315.79" rx="152.71" ry="195.41"/>
		</g>
	</g>
</g>
<g id="Background">
</g>
</svg>
