<?xml version="1.0" encoding="utf-8"?>
<!-- Generator: Adobe Illustrator 23.0.1, SVG Export Plug-In . SVG Version: 6.00 Build 0)  -->
<svg version="1.1" xmlns="http://www.w3.org/2000/svg" xmlns:xlink="http://www.w3.org/1999/xlink" x="0px" y="0px"
	 viewBox="0 0 3710 3710" style="enable-background:new 0 0 3710 3710;" xml:space="preserve">
<style type="text/css">
	.st0{fill:#F4F7FA;}
	.st1{opacity:0.7;clip-path:url(#SVGID_3_);}
	.st2{fill:#FCFDFE;}
	.st3{fill:url(#SVGID_4_);}
	.st4{clip-path:url(#SVGID_7_);}
	.st5{fill:#D8DEE8;}
	.st6{clip-path:url(#SVGID_10_);}
	.st7{fill:#BEB8F2;}
	.st8{fill:url(#SVGID_11_);}
	.st9{fill:#26264F;}
	.st10{fill:url(#SVGID_12_);}
	.st11{fill:#FFFFFF;}
	.st12{opacity:0.6;}
	.st13{opacity:0.8;fill:#FFFFFF;}
	.st14{opacity:0.5;}
	.st15{opacity:0.5;fill:#FFFFFF;}
	.st16{opacity:0.8;}
	.st17{opacity:0.3;fill:#FFFFFF;}
	.st18{fill:url(#SVGID_13_);}
	.st19{fill:url(#SVGID_14_);}
	.st20{fill:url(#SVGID_15_);}
	.st21{fill:url(#SVGID_16_);}
	.st22{fill:url(#SVGID_17_);}
	.st23{opacity:0.3;fill:url(#SVGID_18_);}
	.st24{fill:url(#SVGID_19_);}
	.st25{fill:url(#SVGID_20_);}
	.st26{fill:url(#SVGID_21_);}
	.st27{fill:url(#SVGID_22_);}
	.st28{fill:url(#SVGID_23_);}
	.st29{fill:url(#SVGID_24_);}
	.st30{fill:url(#SVGID_25_);}
	.st31{opacity:0.3;fill:url(#SVGID_26_);}
	.st32{fill:url(#SVGID_27_);}
	.st33{opacity:0.3;fill:url(#SVGID_28_);}
	.st34{fill:url(#SVGID_29_);}
	.st35{fill:url(#SVGID_30_);}
	.st36{fill:url(#SVGID_31_);}
	.st37{fill:url(#SVGID_32_);}
	.st38{fill:url(#SVGID_33_);}
	.st39{fill:url(#SVGID_34_);}
	.st40{fill:url(#SVGID_35_);}
	.st41{fill:url(#SVGID_36_);}
	.st42{fill:url(#SVGID_37_);}
	.st43{fill:url(#SVGID_38_);}
	.st44{fill:url(#SVGID_39_);}
	.st45{fill:url(#SVGID_40_);}
	.st46{fill:url(#SVGID_41_);}
	.st47{fill:url(#SVGID_42_);}
	.st48{fill:url(#SVGID_43_);}
	.st49{fill:url(#SVGID_44_);}
	.st50{fill:url(#SVGID_45_);}
	.st51{fill:url(#SVGID_46_);}
	.st52{fill:url(#SVGID_47_);}
	.st53{fill:url(#SVGID_48_);}
	.st54{fill:url(#SVGID_49_);}
	.st55{opacity:0.3;fill:url(#SVGID_50_);}
	.st56{fill:url(#SVGID_51_);}
	.st57{fill:url(#SVGID_52_);}
	.st58{opacity:0.3;fill:url(#SVGID_53_);}
	.st59{opacity:0.61;}
</style>
<g id="Background">
</g>
<g id="Illustration">
	<g>
		<path class="st0" d="M1912.11,412.02c-707.11-20.88-1319.62,492.2-1412.16,1165.42c-101.18,736.08,455.7,1398.37,1140.91,1504.45
			c852.29,131.94,1678.96-631.35,1604.73-1459.42C3189.66,998.6,2630.9,433.24,1912.11,412.02z"/>
		<g>
			<g>
				<defs>
					<path id="SVGID_1_" d="M1912.7,2262.12c37.81,46.48,74.11,80.43,113.16,124.12c-241.44,73.57-460.71,188.76-705.36,263.8
						c53.47-325.54,154.89-497.4-66.89-809.07c-104.08-146.26-352.06-404.03-345.48-586.67c7.5-208.08,153.65-210.12,59.27-359.03
						C819.88,662.54,842.61,350.19,1225.38,327.8c377.77-22.09,707.14,903.33,607.25,1226.26
						C1802.68,1845.89,1715.28,2019.43,1912.7,2262.12z"/>
				</defs>
				<linearGradient id="SVGID_2_" gradientUnits="userSpaceOnUse" x1="2193.6526" y1="2894.7285" x2="198.5558" y2="-555.1218">
					<stop  offset="0" style="stop-color:#FFC444"/>
					<stop  offset="0.9964" style="stop-color:#F36F56"/>
				</linearGradient>
				<use xlink:href="#SVGID_1_"  style="overflow:visible;fill:url(#SVGID_2_);"/>
				<clipPath id="SVGID_3_">
					<use xlink:href="#SVGID_1_"  style="overflow:visible;"/>
				</clipPath>
				<g class="st1">
					<g>
						<path class="st2" d="M1645.45,2495.59l5.38-0.82c-14.09-92.01-21.12-186.24-27.92-277.37l-2.59-34.62
							c-5.56-73.3-11.83-138.77-17.37-196.53c-3.1-32.35-6.05-63.1-8.66-92.85c-7.98-91.01-13.39-154.72-16.08-186.39l-1.79-20.92
							c-21.96-249.56-143.6-580.58-208.95-758.42c-7.07-19.24-13.39-36.45-18.74-51.26c-91.87-254.58-156.98-530.49-193.52-820.04
							l-5.4,0.68c36.59,289.95,101.79,566.24,193.8,821.2c5.35,14.82,11.67,32.03,18.75,51.29
							c65.26,177.6,186.74,508.19,208.64,757.02l1.78,20.9c2.69,31.67,8.1,95.38,16.08,186.4c2.61,29.76,5.56,60.52,8.66,92.89
							c5.53,57.73,11.81,123.17,17.36,196.42l2.6,34.61C1624.29,2309.04,1631.33,2403.38,1645.45,2495.59z"/>
						<path class="st2" d="M1608.55,2033.92l5.39-0.74c-22.35-164.23-114.77-348.12-267.26-531.81
							c-127.01-153-292.22-300.34-453.27-404.26l-2.95,4.57C1202.61,1303.1,1560.48,1680.74,1608.55,2033.92z"/>
						<path class="st2" d="M1373.68,959.17l4.48-3.09c-81.39-117.93-178.17-226.26-271.76-331.03
							c-64.05-71.7-130.28-145.83-191.04-222.44L911.1,406c60.86,76.73,127.14,150.93,191.24,222.68
							C1195.82,733.32,1292.48,841.52,1373.68,959.17z"/>
						<path class="st2" d="M1521.77,1398.23c8.05-199.05,109.08-461.91,216.21-562.52l-3.72-3.97
							c-108,101.42-209.82,366.04-217.92,566.27L1521.77,1398.23z"/>
					</g>
				</g>
			</g>
		</g>
		<g>
			<linearGradient id="SVGID_4_" gradientUnits="userSpaceOnUse" x1="1554.9962" y1="1375.105" x2="2804.6853" y2="1375.105">
				<stop  offset="0" style="stop-color:#FFC444"/>
				<stop  offset="0.9964" style="stop-color:#F36F56"/>
			</linearGradient>
			<path class="st3" d="M1992.35,1226.96c17.87,331.63-181.58,311-437.35,295.8c117.5,286.13,221.38,569.06,325.81,856.55
				c171.34,7.63,294.2,9.91,336.4-193.98c47.72-230.6,67.62-365.26,300.5-479.37c232.89-114.11,372.42-343.2,228.72-559.01
				c-151.22-227.11-19.72-607.84-275.89-735.37C2024.18,189.35,1973.74,881.63,1992.35,1226.96z"/>
			<g>
				<defs>
					<path id="SVGID_5_" d="M1992.35,1226.96c17.87,331.63-181.58,311-437.35,295.8c117.5,286.13,221.38,569.06,325.81,856.55
						c171.34,7.63,294.2,9.91,336.4-193.98c47.72-230.6,67.62-365.26,300.5-479.37c232.89-114.11,372.42-343.2,228.72-559.01
						c-151.22-227.11-19.72-607.84-275.89-735.37C2024.18,189.35,1973.74,881.63,1992.35,1226.96z"/>
				</defs>
				<linearGradient id="SVGID_6_" gradientUnits="userSpaceOnUse" x1="2571.949" y1="466.3708" x2="2196.2893" y2="1413.488">
					<stop  offset="0" style="stop-color:#FFC444"/>
					<stop  offset="0.9964" style="stop-color:#F36F56"/>
				</linearGradient>
				<use xlink:href="#SVGID_5_"  style="overflow:visible;fill:url(#SVGID_6_);"/>
				<clipPath id="SVGID_7_">
					<use xlink:href="#SVGID_5_"  style="overflow:visible;"/>
				</clipPath>
				<g class="st4">
					<g>
						<path class="st5" d="M1804.28,1996.05c213.08-181.7,385.57-339.03,505.19-569.79c114.49-220.85,143.09-434.17,95.65-713.27
							c-24.58-144.61-25.84-251-24.96-396.81l-5.88-0.04c-0.88,146.12,0.39,252.75,25.05,397.83
							c47.21,277.74,18.78,489.96-95.07,709.59c-119.13,229.81-291.2,386.74-503.79,568.02L1804.28,1996.05z"/>
						<path class="st5" d="M2214.16,2306.95l3.47-4.74c-74.39-54.43-149.78-94.8-230.48-123.43
							c-41.3-14.65-81.46-21.41-129.06-27.05l-0.69,5.84c47.21,5.6,87,12.29,127.79,26.75
							C2065.34,2212.75,2140.24,2252.87,2214.16,2306.95z"/>
						<path class="st5" d="M2228.4,1562.52c160.63-137.5,383.53-218.6,627.62-228.34l-0.23-5.87
							c-245.41,9.8-469.58,91.39-631.21,229.75L2228.4,1562.52z"/>
						<path class="st5" d="M2419.73,1019.19l5.82-0.8c-4.28-31.19-127.03-305.14-164.55-388.36
							c-77.63-172.19-163.48-356.56-172.77-367.02l-4.4,3.9c7.72,8.7,86.4,176.09,171.81,365.54
							C2332.79,803.57,2416.41,995.03,2419.73,1019.19z"/>
					</g>
				</g>
			</g>
		</g>
		<g>
			<g>
				<g>
					<defs>
						<path id="SVGID_8_" d="M1753.98,2924.31c98.14-49.36,195.47-100.64,291.91-153.8c2.11,0.65-30.44-196.61-171.1-255.71
							c-276.75-112.96-195.98-332.47-191.48-446.97c13.39-163.88-74.72-304.51-248.35-244.74
							c-193.7,63.18-322.59-187.78-373.49-439.88c-14.91-126.51-198.39-220.64-342.5-205.48c-148.12,12.65-256.88,134.6-215,382.4
							c33.75,292.2,328.95,369.77,465.07,473.49c133.82,101.75-28.73,281.27,175.04,340.84c173.39,55.69,371.69,69.28,355.89,223.07
							C1481.92,2750.44,1535.27,2851.02,1753.98,2924.31z"/>
					</defs>
					<linearGradient id="SVGID_9_" gradientUnits="userSpaceOnUse" x1="1489.552" y1="1457.1565" x2="1064.9286" y2="2663.9819">
						<stop  offset="0" style="stop-color:#AA80F9"/>
						<stop  offset="0.9964" style="stop-color:#6165D7"/>
					</linearGradient>
					<use xlink:href="#SVGID_8_"  style="overflow:visible;fill:url(#SVGID_9_);"/>
					<clipPath id="SVGID_10_">
						<use xlink:href="#SVGID_8_"  style="overflow:visible;"/>
					</clipPath>
					<g class="st6">
						<path class="st7" d="M1900.3,2884.16c-0.56-1.66-237.86-356.18-542.62-674.86c-45.27-52.99-92.77-105.82-138.71-156.9
							c-255.83-284.49-497.48-553.2-483.57-953.44l-6.44,0.5c-13.97,402.1,228.28,671.49,484.76,956.69
							c45.92,51.06,93.4,103.86,138.72,156.91c306.41,320.4,540.58,671.15,541.75,673.43L1900.3,2884.16z"/>
						<path class="st7" d="M984.12,1787.97l3.36-5.08c-152.07-64.46-343.67-164.88-446.6-218.83c-83.31-43.66-83.56-43.55-86.56-42
							l1.38,2.36l-0.65,2.73c4,0.88,38.44,18.93,82.03,41.78C640.09,1622.92,831.82,1723.41,984.12,1787.97z"/>
						<path class="st7" d="M899.4,1654.59c-19.46-128.79,11.78-229.43,41.41-291.18c32.28-67.26,71.22-106.83,76.7-109.78
							l-1.12-1.81l1.21-3.46c-1.84-0.31-3.47,0.69-5.83,2.64c-33.79,27.92-152.97,178.46-118.75,404.94L899.4,1654.59z"/>
						<path class="st7" d="M1540.98,2423.82l5.92-2.81c-120.55-228.35-3.91-523.64,51.84-640c2.99-6.25,3.95-8.28,4.22-9.25
							l-6.26-0.65l3.13,0.33l-3.13-0.35c-0.21,0.69-1.91,4.23-3.87,8.32c-40.2,83.92-69.44,167.45-86.89,248.29
							C1472.4,2182.98,1484.19,2316.26,1540.98,2423.82z"/>
						<path class="st7" d="M1010.99,2284.46l-1.12-2.45l-0.12,2.76l-3.01-1.76l1.44-3.22c0.01-0.01,0.02-0.01,0.04-0.02
							c4.07-1.9,267-82.82,448.73,37.88l-4.29,4.58C1272.74,2202.74,1013.43,2283.53,1010.99,2284.46z M1009.87,2281.98l0.12-2.78
							L1009.87,2281.98z"/>
						<path class="st7" d="M1860.42,2826.64c-19.62-48.07-28.33-138.93,41.59-298.78c3.97-9.07,3.97-9.07,3.27-10.31l-5.85,2.93
							l2.93-1.46l-3.16-0.06c-0.18,0.65-1.56,3.82-3.17,7.49c-70.64,161.49-61.67,253.69-41.71,302.6L1860.42,2826.64z"/>
						<path class="st7" d="M1795.38,2746.29l5.42-3.56c-61.56-76.23-230.8-87.4-326.2-87.28c-3.03,0-4.97,0.01-5.68-0.03l-1.19,5.58
							c0.76,0.05,2.86,0.05,6.12,0.04C1568.12,2660.92,1735.25,2671.84,1795.38,2746.29z"/>
					</g>
				</g>
			</g>
		</g>
		<g>
			<g>
				<g>
					<g>
						
							<linearGradient id="SVGID_11_" gradientUnits="userSpaceOnUse" x1="3479.7622" y1="1794.3126" x2="4888.7124" y2="1794.3126" gradientTransform="matrix(0.9998 0.0199 -0.0199 0.9998 -2497.696 -41.8984)">
							<stop  offset="0" style="stop-color:#444B8C"/>
							<stop  offset="0.9964" style="stop-color:#26264F"/>
						</linearGradient>
						<path class="st8" d="M2129.04,772.48l205.23,2064.04c3.05,30.73-18.11,57.61-47.11,59.72L1287.22,2980
							c-60.96,2.14-93.85-30.7-97.16-63.22L967.7,731.98c-3.34-32.82,27.11-61.87,88.69-60.61l1013.56,42.73
							C2099.4,715.21,2125.95,741.48,2129.04,772.48z"/>
						<path class="st9" d="M2174.5,769.85l206.09,2074.67c3.07,30.89-18.18,57.91-47.29,60.04l-1036.68,75.99
							c-32.37,2.37-61.64-22.43-64.97-55.13L1008.29,729.06c-3.35-32.99,20.88-58.97,53.77-57.73l1053.11,39.83
							C2144.74,712.28,2171.4,738.69,2174.5,769.85z"/>
						<linearGradient id="SVGID_12_" gradientUnits="userSpaceOnUse" x1="2158.0063" y1="1021.072" x2="1379.4037" y2="2398.9922">
							<stop  offset="3.597120e-03" style="stop-color:#E38DDD"/>
							<stop  offset="1" style="stop-color:#9571F6"/>
						</linearGradient>
						<path class="st10" d="M2152.67,884.33l191.14,1922.91c2.87,28.87-17.02,54.06-44.27,56l-975.07,69.31
							c-30.1,2.14-57.32-21.02-60.41-51.46L1057.92,852.39c-3.12-30.7,19.39-55.03,49.93-54.06l989.36,31.49
							C2124.85,830.7,2149.78,855.23,2152.67,884.33z"/>
					</g>
					<path class="st11" d="M1628.23,757.15c1.11,11.1-6.72,19.8-17.51,19.44c-10.8-0.36-20.47-9.67-21.59-20.79
						c-1.12-11.12,6.74-19.82,17.55-19.44C1617.47,736.74,1627.12,746.05,1628.23,757.15z"/>
				</g>
			</g>
			<g class="st12">
				<path class="st11" d="M1532.25,1769.85c-103.03-304.42,76.3-457.79-25.26-739.75c-55.25-153.41-165.86-267.7-287.54-352.81
					l-157.39-5.95c-32.89-1.24-57.12,24.73-53.77,57.73l223.36,2196.37c3.32,32.7,32.6,57.5,64.96,55.13l895.03-65.61
					c-2.81-229.33-61.07-392.55-125.87-508.58C1887.71,2087.54,1638.94,2085.07,1532.25,1769.85z"/>
			</g>
		</g>
		<g>
			<circle class="st13" cx="1733.4" cy="1441.71" r="316.38"/>
			<circle class="st11" cx="1733.4" cy="1441.71" r="156.29"/>
		</g>
		<g>
			<g>
				<path class="st13" d="M1954.88,1434.46c7.35,126.82-82.13,235.7-201.31,243.3c-120.82,7.7-226.09-91.35-233.62-221.35
					c-7.53-129.99,85.69-239.07,206.69-243.57C1846,1208.4,1947.53,1307.64,1954.88,1434.46z"/>
				<path class="st13" d="M1846.86,1439.91c3.65,63.04-41.01,116.85-100.11,120.22c-59.5,3.39-111.03-45.57-114.72-109.38
					c-3.7-63.81,41.88-117.67,101.42-120.29C1792.59,1327.87,1843.21,1376.87,1846.86,1439.91z"/>
			</g>
			<path class="st13" d="M1784.79,2216.89c-194.42,18.4-385.93-45.93-537.74-183.14c-154.26-139.42-247.13-335.53-259.58-550.46
				c-12.45-214.93,57.23-419.24,194.49-573.38c135.08-151.69,318.04-234.92,513.45-236.2c191.17-1.25,371.7,76.18,509.9,216.36
				c136.14,138.08,216.56,322.27,228.03,520.24s-47.21,389.18-166.61,540.16C2145.53,2103.73,1974.99,2198.89,1784.79,2216.89z
				 M1697.59,711.35c-387.81,3.37-696.3,348.85-671.91,770.01c24.39,421.16,370.99,733.58,756.93,697.89
				c369.66-34.18,640.74-377.82,618.18-767.3C2378.23,1022.47,2069.04,708.12,1697.59,711.35z"/>
			<g>
				<g>
					<g>
						<path class="st13" d="M1093.27,817.62c-7.51-129.62,92.35-234.82,217.86-234.97c120.16-0.15,219.48,96.82,226.42,216.59
							c6.94,119.76-80.71,224.47-200.31,234.25C1212.31,1043.69,1100.78,947.23,1093.27,817.62z"/>
					</g>
					<g class="st14">
						<path class="st11" d="M1129.6,816.11c-6.29-108.68,77.33-197.07,182.66-197.41c101.06-0.32,184.75,81.15,190.59,181.96
							c5.84,100.81-68.04,188.81-168.65,196.83C1229.33,1005.85,1135.89,924.79,1129.6,816.11z"/>
					</g>
					<path class="st15" d="M1306,635.26c101.13-0.42,184.89,81.01,190.73,181.87c1.39,23.98-1.76,47.19-8.64,68.77
						c11.08-26.04,16.51-55.02,14.76-85.23c-5.84-100.81-89.53-182.29-190.59-181.96c-81.13,0.26-149.36,52.8-173.57,126.76
						C1167.18,680.38,1231.1,635.57,1306,635.26z"/>
					<g>
						<path class="st11" d="M1222.19,903.63c-6.39,0.12-12.48-2.22-17.25-6.65c-4.8-4.45-7.65-10.5-8.02-17.02l-7.72-133.35
							c-0.79-13.59,9.54-24.93,23-25.28l209.5-5.51c6.26-0.08,12.21,2.22,16.85,6.71c4.57,4.42,7.29,10.35,7.66,16.71l7.39,127.6
							c0.76,13.04-8.81,24.23-21.34,24.93l-209.13,11.81C1222.81,903.62,1222.49,903.63,1222.19,903.63z M1422.76,730.32
							L1213.27,736c-5.8,0.16-10.26,4.86-9.93,10.47l7.72,133.24c0.14,2.5,1.24,4.82,3.08,6.53c2.05,1.91,4.75,2.84,7.62,2.71
							l209.14-11.64c5.22-0.29,9.22-4.88,8.91-10.22l-7.4-127.7c-0.14-2.45-1.19-4.73-2.95-6.43
							C1427.64,731.19,1425.32,730.23,1422.76,730.32L1422.76,730.32z"/>
						<path class="st11" d="M1324.29,819.66c-6.31,0.09-12.72-2.01-18.16-6.35l-98.69-78.89c-3.17-2.53-3.89-7.15-1.6-10.31
							c2.29-3.16,6.72-3.66,9.88-1.13l98.59,78.91c5.69,4.56,13.57,4.19,18.74-0.86l85.36-83.4c2.72-2.65,7.1-2.38,9.78,0.61
							c2.68,2.99,2.65,7.57-0.07,10.23l-85.27,83.41C1337.68,816.95,1331.04,819.56,1324.29,819.66z"/>
					</g>
				</g>
				<g>
					<g class="st16">
						<path class="st11" d="M1161.94,1314c91.85,88.16,100.23,232.78,18.9,326.35c-83.02,95.52-230.04,104.51-328.69,16.6
							c-100.78-89.81-109.67-243.22-19.63-338.99C920.64,1224.22,1068.18,1224.01,1161.94,1314z"/>
					</g>
					<g class="st14">
						<path class="st11" d="M1132.01,1346.43c74.34,71.11,81.11,187.98,15.26,263.48c-67.09,76.92-185.61,83.84-264.93,12.91
							c-80.87-72.32-88.02-195.62-15.8-272.73C937.37,1274.46,1056.27,1273.97,1132.01,1346.43z"/>
					</g>
					<path class="st15" d="M1132.01,1346.43c-75.74-72.46-194.63-71.97-265.47,3.66c-0.66,0.71-1.27,1.45-1.92,2.16
						c71.73-52.93,173.65-46.44,241.31,18.11c74.55,71.13,81.33,188.17,15.28,263.87c-0.19,0.22-0.39,0.42-0.58,0.63
						c9.52-7.27,18.46-15.59,26.63-24.95C1213.12,1534.41,1206.35,1417.54,1132.01,1346.43z"/>
					<g>
						<polygon class="st11" points="1091.23,1586.31 1125.43,1584.82 1114.21,1391.14 1079.97,1391.86 						"/>
						<polygon class="st11" points="1029.77,1588.99 1064.45,1587.48 1058.8,1489.95 1024.1,1491.07 						"/>
						<polygon class="st11" points="967.42,1591.72 1002.6,1590.18 990.14,1375.11 954.91,1375.77 						"/>
						<polygon class="st11" points="904.16,1594.48 939.85,1592.92 929.17,1408.42 893.43,1409.23 						"/>
					</g>
				</g>
				<g>
					<g>
						<g>
							<path class="st13" d="M1916.97,637.88c81.37-81.23,215.35-72.67,299.18,14.01c81.14,83.89,88.68,214.1,17.12,295.58
								c-73.93,84.18-207.17,88.51-298.11,4.56C1841.02,865.11,1832.73,721.98,1916.97,637.88z"/>
						</g>
						<g class="st14">
							<path class="st11" d="M1939.99,661.37c69.34-69.41,183.72-62.33,255.41,11.63c69.48,71.68,75.93,183.06,14.64,252.67
								c-63.25,71.83-177.02,75.3-254.53,3.56C1875.38,855.08,1868.32,733.12,1939.99,661.37z"/>
						</g>
						<path class="st17" d="M1931.78,677.63c69.41-69.51,183.9-62.54,255.67,11.4c56.22,57.92,71.17,141.72,42.58,208.45
							c38.69-68.83,26.14-161.8-34.62-224.48c-71.69-73.96-186.08-81.04-255.41-11.63c-15.02,15.03-26.54,32.31-34.69,50.91
							C1912.46,699.85,1921.25,688.18,1931.78,677.63z"/>
					</g>
					<g>
						<path class="st11" d="M2179.61,783.15c0.8,13.72-0.48,26.31-3.82,37.76c-3.34,11.46-8.48,20.49-15.42,27.1
							c-6.95,6.62-15.26,10.01-24.96,10.18c-6.47,0.11-12.3-1.48-17.48-4.79c-5.19-3.31-9.04-7.73-11.55-13.24l-2.1,0.03
							c-8.76,12.51-20.48,18.9-35.18,19.16c-15.6,0.27-28.21-4.63-37.82-14.71c-9.62-10.1-14.95-24.05-15.98-41.85
							c-1.18-20.3,3.81-36.73,14.95-49.28c11.12-12.53,26.21-18.88,45.22-19.07c7.56-0.08,15.93,0.63,25.1,2.11
							c9.16,1.48,16.74,3.3,22.73,5.43l1.04,70.17c0.77,13.29,4.48,19.88,11.12,19.78c5.59-0.09,9.78-4.63,12.58-13.61
							c2.8-8.98,3.78-20.67,2.94-35.09c-0.89-15.37-4.6-28.92-11.13-40.64c-6.53-11.74-15.29-20.66-26.29-26.78
							c-11.01-6.12-23.36-9.13-37.07-9.01c-17.78,0.15-33.03,4.27-45.73,12.37c-12.72,8.11-22.18,19.73-28.35,34.87
							c-6.18,15.15-8.7,32.61-7.56,52.36c1.54,26.59,9.27,46.88,23.17,60.85c13.88,13.95,33.17,20.68,57.85,20.21
							c9.32-0.18,19.49-1.5,30.51-3.96c11-2.46,21.75-5.94,32.25-10.44l1.59,27.52c-18.21,9.08-38.77,13.86-61.7,14.34
							c-33.5,0.69-60.26-8.39-80.22-27.28c-20.01-18.93-31.02-45.59-33.01-79.94c-1.38-23.84,2.2-45.53,10.73-65.08
							c8.52-19.52,21.36-34.87,38.5-46.03c17.1-11.14,37.16-16.79,60.14-16.95c19.33-0.14,36.8,4.05,52.44,12.54
							c15.61,8.48,27.96,20.59,37.06,36.35C2173.27,744.26,2178.41,762.47,2179.61,783.15z M2046.11,802.93
							c1.17,20.27,9.35,30.28,24.5,30.04c7.92-0.13,13.77-3.27,17.54-9.42c3.78-6.15,5.71-16.07,5.79-29.78l-0.13-31.77
							c-4.54-1-9.62-1.47-15.25-1.4c-11,0.13-19.35,3.97-25.04,11.53C2047.83,779.69,2045.36,789.96,2046.11,802.93z"/>
					</g>
				</g>
				<g>
					<g>
						<g>
							<path class="st13" d="M2255.33,1240.4c78.31-82.75,207.45-78.89,288.35,3.62c78.32,79.86,85.73,207.85,16.83,290.51
								c-71.18,85.39-199.58,94.14-287.3,14.54C2182.41,1466.68,2174.27,1326.05,2255.33,1240.4z"/>
						</g>
						<g class="st14">
							<path class="st11" d="M2277.54,1262.74c66.73-70.7,176.98-67.63,246.16,2.77c67.06,68.23,73.4,177.71,14.38,248.33
								c-60.89,72.86-170.54,80.11-245.3,12.1C2215.51,1455.63,2208.57,1335.82,2277.54,1262.74z"/>
						</g>
						<path class="st17" d="M2269.65,1279.03c66.8-70.8,177.15-67.83,246.4,2.54c54.26,55.13,68.77,137.16,41.27,203.84
							c37.22-69.09,25.03-160.23-33.62-219.9c-69.19-70.39-179.43-73.47-246.16-2.77c-14.45,15.31-25.53,32.72-33.37,51.3
							C2251.05,1301.56,2259.51,1289.77,2269.65,1279.03z"/>
					</g>
					<path class="st11" d="M2314.34,1358.27c2.06,35.62,44.39,118.31,73.92,172.08c12.27,22.35,41.12,22.2,50.8-0.25
						c23.26-54,55.93-136.94,53.87-172.52c-3.18-54.9-45.7-99.28-95.01-99.12C2348.59,1258.61,2311.16,1303.3,2314.34,1358.27z
						 M2355.73,1358.11c-1.71-29.5,18.38-53.5,44.87-53.59c26.48-0.09,49.32,23.73,51.02,53.22c1.71,29.49-18.36,53.48-44.84,53.59
						C2380.3,1411.44,2357.44,1387.61,2355.73,1358.11z"/>
				</g>
			</g>
		</g>
		<g>
			
				<linearGradient id="SVGID_13_" gradientUnits="userSpaceOnUse" x1="6775.8354" y1="2896.3704" x2="6798.2622" y2="3181.7959" gradientTransform="matrix(1 0 0 1 -4408.5942 0)">
				<stop  offset="0" style="stop-color:#AA80F9"/>
				<stop  offset="0.9964" style="stop-color:#6165D7"/>
			</linearGradient>
			<path class="st18" d="M2407.81,3039.13c0,0-80.49,40.9-81.8,47.43c-1.31,6.53,51.76-2.19,73.43-1.25
				c21.67,0.94,39.49-6.22,37.53-16.48c-1.96-10.26-9.55-36.07-9.55-36.07L2407.81,3039.13z"/>
			
				<linearGradient id="SVGID_14_" gradientUnits="userSpaceOnUse" x1="6829.1001" y1="3055.6421" x2="6825.0342" y2="2760.8235" gradientTransform="matrix(1 0 0 1 -4408.5942 0)">
				<stop  offset="0" style="stop-color:#893976"/>
				<stop  offset="1" style="stop-color:#311944"/>
			</linearGradient>
			<path class="st19" d="M2404.86,3005.94l4.9,40.52c0,0,12.74,5.07,21.3-0.92l3.65-44.44L2404.86,3005.94z"/>
			
				<linearGradient id="SVGID_15_" gradientUnits="userSpaceOnUse" x1="7153.498" y1="2862.9863" x2="7175.9834" y2="3149.1631" gradientTransform="matrix(1 0 0 1 -4408.5942 0)">
				<stop  offset="0" style="stop-color:#AA80F9"/>
				<stop  offset="0.9964" style="stop-color:#6165D7"/>
			</linearGradient>
			<path class="st20" d="M2783.9,3006.91l9.36,16.8c2.62,4.7,3.4,10.36,2.14,15.71c-3.27,13.97-9.81,41.21-12.66,48.31
				c-3.88,9.67-55.97,15.42-55.97,15.42s-4.65-7.31,6.17-16.13c10.81-8.83,17.76-10.21,21.58-23.24
				c3.82-13.02,6.36-49.87,6.36-49.87L2783.9,3006.91z"/>
			
				<linearGradient id="SVGID_16_" gradientUnits="userSpaceOnUse" x1="7175.3989" y1="3050.3013" x2="7171.333" y2="2755.5195" gradientTransform="matrix(1 0 0 1 -4408.5942 0)">
				<stop  offset="0" style="stop-color:#893976"/>
				<stop  offset="1" style="stop-color:#311944"/>
			</linearGradient>
			<path class="st21" d="M2744.94,2964.21c3.42,3.05,20.15,59.82,20.15,59.82s5.42,7.74,15.7-3.68c10.29-11.43,4.66-5.13,4.66-5.13
				l-1.93-55.84L2744.94,2964.21z"/>
			
				<linearGradient id="SVGID_17_" gradientUnits="userSpaceOnUse" x1="6139.8623" y1="2578.261" x2="6334.7339" y2="2578.261" gradientTransform="matrix(1 0 0 1 -3782.3318 0)">
				<stop  offset="0" style="stop-color:#AB316D"/>
				<stop  offset="1" style="stop-color:#792D3D"/>
			</linearGradient>
			<path class="st22" d="M2360.58,2191.93c-4.25,120.86-4.42,252.17,1.8,392.45c7,157.97,21.08,303.96,38.81,436.31
				c6.59,0.24,13.52,0.27,20.76,0.05c4.89-0.15,9.62-0.42,14.2-0.77c9.2-27.44,20.08-63.53,29.82-106.64
				c10.24-45.33,16.42-85.99,20.82-124.86c15.5-136.89-2.66-148.83,9.91-250.29c11.14-89.85,26.98-93.36,45.58-220.92
				c20.18-138.41,5.16-159.18-2.15-166.68C2509.04,2118.64,2435.99,2140.39,2360.58,2191.93z"/>
			
				<linearGradient id="SVGID_18_" gradientUnits="userSpaceOnUse" x1="6153.3359" y1="2578.27" x2="6334.7329" y2="2578.27" gradientTransform="matrix(1 0 0 1 -3782.3318 0)">
				<stop  offset="0" style="stop-color:#AB316D"/>
				<stop  offset="1" style="stop-color:#792D3D"/>
			</linearGradient>
			<path class="st23" d="M2540.14,2150.58c-29.66-30.46-97.49-12.02-169.13,34.47c82.42,99.56,91.4,164.15,81.52,206.05
				c-11.17,47.36-45.12,61-44.99,112.79c0.16,63.64,51.53,80.5,50.44,147.85c-0.72,44.53-23.3,44.07-28.63,99.07
				c-6.31,65.08,23.18,87.51,13.63,135.66c-4.11,20.72-15.84,47.78-49.24,75.67c2.41,19.77,4.88,39.35,7.45,58.55
				c6.59,0.23,13.52,0.27,20.76,0.04c4.89-0.15,9.62-0.42,14.2-0.77c9.2-27.44,20.08-63.53,29.82-106.64
				c10.24-45.33,16.42-85.99,20.82-124.87c15.5-136.89-2.66-148.83,9.91-250.29c11.14-89.85,26.98-93.36,45.58-220.92
				C2562.46,2178.84,2547.44,2158.08,2540.14,2150.58z"/>
			
				<linearGradient id="SVGID_19_" gradientUnits="userSpaceOnUse" x1="6193.9619" y1="2556.7837" x2="6586.2593" y2="2556.7837" gradientTransform="matrix(1 0 0 1 -3782.3318 0)">
				<stop  offset="0" style="stop-color:#AB316D"/>
				<stop  offset="1" style="stop-color:#792D3D"/>
			</linearGradient>
			<path class="st24" d="M2411.63,2189.9c70.97,116.1,147.51,260.59,215.96,433.53c51.73,130.7,89.25,253.41,116.79,362.77
				c3.73,1.93,12.52,5.78,23.76,4.12c15.32-2.27,24.51-13.2,26.91-16.26c11.21-78.4,9.98-144.8,6.17-192.72
				c-2.44-30.68-6.75-81.78-24.24-144.85c-19.59-70.66-33.06-74.63-58.62-149.38c-26.53-77.59-20.1-96.95-45.51-194.04
				c-10.44-39.89-27.91-99.24-56.74-170.25C2547.96,2145.19,2479.79,2167.55,2411.63,2189.9z"/>
			
				<linearGradient id="SVGID_20_" gradientUnits="userSpaceOnUse" x1="6473.9868" y1="1556.554" x2="6848.8906" y2="1899.6855" gradientTransform="matrix(1 0 0 1 -3782.3318 0)">
				<stop  offset="3.597000e-03" style="stop-color:#26264F"/>
				<stop  offset="1" style="stop-color:#444B8C"/>
			</linearGradient>
			<path class="st25" d="M2392.74,1685.46c-78.36-51.18-111.94-45.28-134.65-91.24c-22.47-45.47-22.42-117.6,14.76-155.81
				c2.73-2.81,31.05-31.01,69.38-26.18c57.97,7.31,62.24,80.54,127.26,114.09c55.09,28.43,115.18,8.43,155.84-5.1
				c97.91-32.59,112.45-94.22,163.22-84.4c63.61,12.31,69.24,114.59,132.61,120.89c42.36,4.21,52.45-40.22,108.13-52.46
				c65.43-14.38,137.23,28.13,177.5,79.83c73.6,94.5,54.21,235.54,8.16,321.64c-37.83,70.73-119.17,152.09-187.7,134.59
				c-54.13-13.83-71.76-82.07-118.33-75.28c-33.11,4.83-34.31,40.8-73.45,59.31c-64.27,30.4-143.61-27.54-165.26-43.35
				c-61.69-45.05-51.86-73.86-131.41-164.17C2507.38,1782.16,2462.13,1730.78,2392.74,1685.46z"/>
			
				<linearGradient id="SVGID_21_" gradientUnits="userSpaceOnUse" x1="5544.0645" y1="1458.7498" x2="5613.8486" y2="1458.7498" gradientTransform="matrix(1 0 0 1 -3782.3318 0)">
				<stop  offset="0" style="stop-color:#311944"/>
				<stop  offset="1" style="stop-color:#893976"/>
			</linearGradient>
			<path class="st26" d="M1831.52,1486.41c0,0-13.24-18.53-21.64-32.3c-8.4-13.77-47.63-52.45-47.63-52.45s-2.99,6.14,5.46,15.96
				c8.44,9.82,26.21,26.66,22.13,33.78c-4.09,7.12-15.59,13.4-7.29,26.85c8.3,13.45,22.73,4.26,30.11,15.05
				c7.38,10.79,14.94,22.55,14.94,22.55L1831.52,1486.41z"/>
			<linearGradient id="SVGID_22_" gradientUnits="userSpaceOnUse" x1="1984.9213" y1="1955.7633" x2="1800.5066" y2="2830.0271">
				<stop  offset="0" style="stop-color:#FFC444"/>
				<stop  offset="0.9964" style="stop-color:#F36F56"/>
			</linearGradient>
			<path class="st27" d="M1836.69,1474.31c-8.93,15.11-17.86,30.21-26.8,45.32c9.3,30.37,25.33,72.54,53.41,117.03
				c12.39,19.63,50.79,77.2,115.81,123.51c88.51,63.03,249.76,121.83,296.96,54.76c42.12-59.85-25.86-192.51-38.38-216.32
				c-25.34,13.28-66.98,30.9-120.5,35.07c-17.54,1.37-63.19,4.48-114.63-13.19C1907.36,1587.8,1854.52,1505.29,1836.69,1474.31z"/>
			<linearGradient id="SVGID_23_" gradientUnits="userSpaceOnUse" x1="2529.0869" y1="2070.5476" x2="2344.6724" y2="2944.8108">
				<stop  offset="0" style="stop-color:#FFC444"/>
				<stop  offset="0.9964" style="stop-color:#F36F56"/>
			</linearGradient>
			<path class="st28" d="M2134.41,1676.81c4.45,22.38,74.07,10.38,88.43,51c7.71,21.8-8.66,35.65-9.35,72.67
				c-0.77,41.45,18.99,64.99,34.14,97.59c22.2,47.76,22.28,94.57,22.44,188.19c0.23,133.27-29.23,160.07-4.08,203.02
				c32.74,55.91,111.36,59.48,132.61,60.45c72.68,3.3,81.3-35.31,160.16-39.92c90.06-5.27,102.89,43.69,167.3,22.81
				c58.84-19.07,78.64-69.81,124.45-59.3c28.64,6.56,36.23,29.9,63.25,27.37c27.15-2.54,55.21-29.44,57.13-57.03
				c2.38-34.29-35.11-77.49-93.85-77.56c-23.34,9.16-62.04,19.78-105.07,7.99c-70.51-19.33-107.18-86.36-147.91-160.82
				c-28.18-51.51-79.97-146.18-80.59-270.31c-0.25-51.19,8.4-66.17-4.08-93.53c-40.52-88.85-197.72-75.59-211.03-74.31
				C2221.24,1585.45,2129.03,1649.78,2134.41,1676.81z"/>
			<g>
				
					<linearGradient id="SVGID_24_" gradientUnits="userSpaceOnUse" x1="6055.5869" y1="1896.2621" x2="5933.4702" y2="2098.6748" gradientTransform="matrix(1 0 0 1 -3782.3318 0)">
					<stop  offset="3.597000e-03" style="stop-color:#6165D7"/>
					<stop  offset="1" style="stop-color:#AA80F9"/>
				</linearGradient>
				<path class="st29" d="M2099.29,1788.63l197.45,8.62c2.17,0.09,4.07,1.65,4.8,3.93l93.02,288.51c1.33,4.14-2.85,14.49-6.76,14.02
					l-195.22-29.69c-1.98-0.24-3.68-1.7-4.4-3.78l-96.77-269.29C2090.04,1796.94,2095.47,1788.46,2099.29,1788.63z"/>
				<path class="st11" d="M2096.23,1795.69l197.45,8.62c2.17,0.09,4.07,1.65,4.8,3.93l93.02,288.51c1.33,4.14-1.67,8.41-5.58,7.94
					l-196.4-23.61c-1.99-0.24-3.68-1.7-4.4-3.78l-94.07-273.51C2089.68,1799.79,2092.41,1795.52,2096.23,1795.69z"/>
				
					<linearGradient id="SVGID_25_" gradientUnits="userSpaceOnUse" x1="6001.0786" y1="1684.0538" x2="5965.1729" y2="1801.5631" gradientTransform="matrix(1 0 0 1 -3782.3318 0)">
					<stop  offset="3.597000e-03" style="stop-color:#26264F"/>
					<stop  offset="1" style="stop-color:#444B8C"/>
				</linearGradient>
				<path class="st30" d="M2150.22,1806.44l-7.61-23c-0.69-2.08,0.69-4.28,2.67-4.28h71.87c1.24,0,2.34,0.9,2.71,2.22l7.23,25.44
					c0.59,2.09-0.84,4.21-2.8,4.14l-71.49-2.44C2151.65,1808.47,2150.62,1807.65,2150.22,1806.44z"/>
				
					<linearGradient id="SVGID_26_" gradientUnits="userSpaceOnUse" x1="6126.916" y1="1869.5846" x2="5825.9082" y2="2029.7983" gradientTransform="matrix(1 0 0 1 -3782.3318 0)">
					<stop  offset="0" style="stop-color:#FF9085"/>
					<stop  offset="1" style="stop-color:#FB6FBB"/>
				</linearGradient>
				<path class="st31" d="M2271.77,2034.85c-12.83-46.5,8.28-76.78-13.26-112.91c-30.47-51.11-95.94-29.48-116.29-70.72
					c-5.49-11.12-8.11-27.69-0.71-53.55l-45.28-1.97c-3.82-0.17-6.55,4.09-5.18,8.09l94.07,273.51c0.72,2.08,2.42,3.54,4.4,3.78
					l119.36,14.36C2287.63,2074.7,2276.98,2053.75,2271.77,2034.85z"/>
			</g>
			<linearGradient id="SVGID_27_" gradientUnits="userSpaceOnUse" x1="2466.0991" y1="2136.6292" x2="2315.835" y2="1924.8936">
				<stop  offset="0" style="stop-color:#311944"/>
				<stop  offset="1" style="stop-color:#893976"/>
			</linearGradient>
			<path class="st32" d="M2415.96,2000.29c0,0-29.84-6.64-41.35-14.73c-11.51-8.1-23.71-21.11-40.68-20.41
				c-16.97,0.71-34.04,10.36-26.2,12.57c7.84,2.21,22.48,19.59,33.66,26.44c11.18,6.84,36.74,7.46,41.5,7.09
				c4.76-0.37,23.55,12.26,23.55,12.26L2415.96,2000.29z"/>
			
				<linearGradient id="SVGID_28_" gradientUnits="userSpaceOnUse" x1="6038.1719" y1="1993.5505" x2="6753.335" y2="1993.5505" gradientTransform="matrix(1 0 0 1 -3782.3318 0)">
				<stop  offset="0" style="stop-color:#FFC444"/>
				<stop  offset="0.9964" style="stop-color:#F36F56"/>
			</linearGradient>
			<path class="st33" d="M2877.05,2166.11c-23.34,9.16-62.04,19.78-105.07,7.99c-70.51-19.33-107.18-86.36-147.91-160.82
				c-28.18-51.51-79.97-146.18-80.59-270.31c-0.25-51.19,8.4-66.17-4.08-93.53c-1.99-4.35-4.33-8.39-6.84-12.27
				c-30.78,23.26-42.72,46.56-46.2,67.02c-8.49,49.79,31.54,90.5,10.71,133.44c-19.95,41.13-69.28,29.75-79.57,65.01
				c-11.1,38.04,43.5,60.98,45.9,119.76c2.89,70.54-72.97,105.08-59.68,152.26c11.52,40.89,75.01,37.95,74.98,59.88
				c-0.04,26.08,1.96-27.77-74.98-59.88c-23.32-9.73-133.06,71.27-146.4,57.05c-2.87,22.98-2.35,38.73,8.68,57.57
				c32.74,55.91,111.36,59.48,132.61,60.45c72.68,3.3,81.3-35.31,160.16-39.92c90.06-5.27,102.89,43.69,167.3,22.81
				c58.84-19.07,78.64-69.81,124.45-59.3c28.64,6.56,36.23,29.9,63.25,27.37c27.15-2.54,55.21-29.44,57.13-57.03
				C2973.27,2209.37,2935.79,2166.18,2877.05,2166.11z"/>
			<linearGradient id="SVGID_29_" gradientUnits="userSpaceOnUse" x1="2510.4736" y1="2066.6216" x2="2326.0593" y2="2940.8835">
				<stop  offset="0" style="stop-color:#FFC444"/>
				<stop  offset="0.9964" style="stop-color:#F36F56"/>
			</linearGradient>
			<path class="st34" d="M2415.2,1986.47c-9.18,18.25-18.36,36.5-27.54,54.75c14.15,7.75,165.48,87.81,275.17,8.55
				c13.56-9.8,49.61-35.84,69.03-86.84c21.41-56.21,9.4-108.47,1.61-142.41c-19.29-84.02-73.84-172.17-151.23-207.58
				c-29.56-13.53-64.66-20.37-97.68-26.81c-28-5.46-72-12.15-72.94-7.41c-0.46,2.31,9.77,5.27,16.87,9.76
				c43.61,27.58-11.76,141.48,39.49,196.11c49.1,52.33,112.82,43.69,123.09,91.11c4.77,22.05-5.11,41.88-9.51,50.72
				C2557,1975.72,2490.87,1997.78,2415.2,1986.47z"/>
			<linearGradient id="SVGID_30_" gradientUnits="userSpaceOnUse" x1="2413.9988" y1="1415.1766" x2="2289.3484" y2="1659.3549">
				<stop  offset="0" style="stop-color:#311944"/>
				<stop  offset="1" style="stop-color:#893976"/>
			</linearGradient>
			<path class="st35" d="M2312.48,1493.21c0,0,17.77,57.77,39.91,66.76c22.13,8.99,57.12,19.31,61.52,23.32
				c4.39,3.99-117.59,48.28-185.99,27.9l0,0c19.49-9.53,24.7-12.58,24.7-12.58c5.2-3.05,14.91-8.72,24.02-17.74
				c6.2-6.13,15.91-17.56,23.21-36.54l-6.39-32.8L2312.48,1493.21z"/>
			<linearGradient id="SVGID_31_" gradientUnits="userSpaceOnUse" x1="2510.5798" y1="1273.2262" x2="2360.3159" y2="1430.3202">
				<stop  offset="0" style="stop-color:#311944"/>
				<stop  offset="1" style="stop-color:#893976"/>
			</linearGradient>
			<path class="st36" d="M2320.46,1518.43c0,0-10.3,25.6-34.73,21.67c-21.87-3.52-20.76-65.04-5.9-75.51
				c4.96-3.49,15.01-4.82,22.48-1.77c5.25,2.15,20.87,16.45,17.39,37.41c4.82-2.87,9.62-2.42,11.29,0.16
				c2.11,3.27-1.31,9.2-2.09,10.54C2326.21,1515.58,2322.29,1517.63,2320.46,1518.43z"/>
		</g>
		<g>
			<g>
				<g>
					
						<linearGradient id="SVGID_32_" gradientUnits="userSpaceOnUse" x1="-2536.1162" y1="225.7799" x2="-2543.1687" y2="-383.1026" gradientTransform="matrix(0 -1 1 0 865.1974 461.2213)">
						<stop  offset="0" style="stop-color:#FFC444"/>
						<stop  offset="0.9964" style="stop-color:#F36F56"/>
					</linearGradient>
					<path class="st37" d="M707.06,2997.98c0,25.65-21.99,48.55-49.1,51.04c-27.21,2.5-49.41-16.46-49.41-42.28
						c0-25.82,22.21-48.74,49.41-51.07C685.07,2953.33,707.06,2972.32,707.06,2997.98z M629.79,3004.85
						c0,14.72,12.65,25.55,28.17,24.14c15.49-1.4,28.07-14.48,28.07-29.14c0-14.67-12.58-25.5-28.07-24.15
						C642.44,2977.05,629.79,2990.13,629.79,3004.85z"/>
					
						<linearGradient id="SVGID_33_" gradientUnits="userSpaceOnUse" x1="-2309.2839" y1="220.7045" x2="-2316.2966" y2="-384.7587" gradientTransform="matrix(0 -1 1 0 865.1974 461.2213)">
						<stop  offset="0" style="stop-color:#FFC444"/>
						<stop  offset="0.9964" style="stop-color:#F36F56"/>
					</linearGradient>
					<path class="st38" d="M748.9,2771.33c0,25.59-21.87,48.1-48.83,50.18c-27.06,2.1-49.15-17.14-49.15-42.89
						c0-25.75,22.08-48.27,49.15-50.21C727.03,2726.49,748.9,2745.74,748.9,2771.33z M672.05,2777.05
						c0,14.68,12.58,25.67,28.02,24.49c15.4-1.17,27.92-14.02,27.92-28.65c0-14.63-12.51-25.62-27.92-24.5
						C684.63,2749.51,672.05,2762.37,672.05,2777.05z"/>
					
						<linearGradient id="SVGID_34_" gradientUnits="userSpaceOnUse" x1="-2095.9841" y1="227.9287" x2="-2103.145" y2="-390.3356" gradientTransform="matrix(0 -1 1 0 865.1974 461.2213)">
						<stop  offset="0" style="stop-color:#FFC444"/>
						<stop  offset="0.9964" style="stop-color:#F36F56"/>
					</linearGradient>
					<path class="st39" d="M586.65,2560.65c0,25.86-22.33,48.3-49.87,50.04c-27.64,1.74-50.2-18-50.2-44.03
						c0-26.02,22.56-48.48,50.2-50.06C564.32,2515.03,586.65,2534.79,586.65,2560.65z M508.16,2565.36
						c0,14.84,12.85,26.11,28.62,25.14c15.73-0.97,28.51-13.79,28.51-28.57c0-14.78-12.78-26.06-28.51-25.15
						C521.01,2537.7,508.16,2550.52,508.16,2565.36z"/>
					
						<linearGradient id="SVGID_35_" gradientUnits="userSpaceOnUse" x1="-2060.4309" y1="212.2323" x2="-2067.3237" y2="-382.8663" gradientTransform="matrix(0 -1 1 0 865.1974 461.2213)">
						<stop  offset="0" style="stop-color:#FFC444"/>
						<stop  offset="0.9964" style="stop-color:#F36F56"/>
					</linearGradient>
					<path class="st40" d="M879.08,2521.68c0,25.37-21.5,47.33-48.01,48.97c-26.6,1.64-48.31-17.79-48.31-43.32
						c0-25.53,21.71-47.51,48.31-48.99C857.59,2476.87,879.08,2496.31,879.08,2521.68z M803.53,2526.11
						c0,14.55,12.37,25.65,27.55,24.73c15.14-0.91,27.44-13.46,27.44-27.96c0-14.51-12.3-25.6-27.44-24.74
						C815.9,2499.01,803.53,2511.56,803.53,2526.11z"/>
					<g>
						
							<linearGradient id="SVGID_36_" gradientUnits="userSpaceOnUse" x1="-2461.2876" y1="214.2984" x2="-2468.1582" y2="-378.8987" gradientTransform="matrix(0 -1 1 0 865.1974 461.2213)">
							<stop  offset="0" style="stop-color:#FFC444"/>
							<stop  offset="0.9964" style="stop-color:#F36F56"/>
						</linearGradient>
						<polygon class="st41" points="1037.26,2850.43 1037.26,2869.97 872.73,2883.52 684.16,2999.65 673.92,2983.07 867.41,2864.2 
													"/>
						
							<linearGradient id="SVGID_37_" gradientUnits="userSpaceOnUse" x1="-2292.0146" y1="212.0959" x2="-2298.8564" y2="-378.6096" gradientTransform="matrix(0 -1 1 0 865.1974 461.2213)">
							<stop  offset="0" style="stop-color:#FFC444"/>
							<stop  offset="0.9964" style="stop-color:#F36F56"/>
						</linearGradient>
						<polygon class="st42" points="1037.26,2734.5 1037.26,2754.04 738.45,2776.36 738.45,2756.43 						"/>
						
							<linearGradient id="SVGID_38_" gradientUnits="userSpaceOnUse" x1="-2132.9795" y1="210.5915" x2="-2139.8938" y2="-386.3582" gradientTransform="matrix(0 -1 1 0 865.1974 461.2213)">
							<stop  offset="0" style="stop-color:#FFC444"/>
							<stop  offset="0.9964" style="stop-color:#F36F56"/>
						</linearGradient>
						<polygon class="st43" points="1037.26,2618.57 1037.26,2638.11 841.86,2651.2 685.15,2564.73 575.98,2571.35 575.98,2551.22 
							691.36,2544.37 847.94,2631.01 						"/>
						
							<linearGradient id="SVGID_39_" gradientUnits="userSpaceOnUse" x1="-2054.8567" y1="208.8997" x2="-2061.6406" y2="-376.8068" gradientTransform="matrix(0 -1 1 0 865.1974 461.2213)">
							<stop  offset="0" style="stop-color:#FFC444"/>
							<stop  offset="0.9964" style="stop-color:#F36F56"/>
						</linearGradient>
						<polygon class="st44" points="1037.26,2502.64 1037.26,2522.18 865.5,2532.36 865.5,2512.6 						"/>
					</g>
				</g>
				<g>
					
						<linearGradient id="SVGID_40_" gradientUnits="userSpaceOnUse" x1="3200.8193" y1="-1376.014" x2="3195.041" y2="-1874.8817" gradientTransform="matrix(0 1 -1 0 388.4627 -848.5277)">
						<stop  offset="0" style="stop-color:#FFC444"/>
						<stop  offset="0.9964" style="stop-color:#F36F56"/>
					</linearGradient>
					<path class="st45" d="M2079.01,2350.26c0-23.37,18.19-43.26,40.49-44.34c22.23-1.08,40.26,16.95,40.26,40.19
						c0,23.24-18.03,43.12-40.26,44.33C2097.2,2391.65,2079.01,2373.63,2079.01,2350.26z M2142.51,2346.99
						c0-13.28-10.31-23.57-23.01-22.94c-12.72,0.63-23.09,11.99-23.09,25.31c0,13.33,10.37,23.62,23.09,22.94
						C2132.2,2371.63,2142.51,2360.27,2142.51,2346.99z"/>
					
						<linearGradient id="SVGID_41_" gradientUnits="userSpaceOnUse" x1="3405.7197" y1="-1376.5592" x2="3399.9119" y2="-1877.9884" gradientTransform="matrix(0 1 -1 0 388.4627 -848.5277)">
						<stop  offset="0" style="stop-color:#FFC444"/>
						<stop  offset="0.9964" style="stop-color:#F36F56"/>
					</linearGradient>
					<path class="st46" d="M2044.12,2556.17c0-23.43,18.28-43.64,40.69-45.05c22.34-1.41,40.46,16.4,40.46,39.7
						c0,23.29-18.12,43.49-40.46,45.03C2062.4,2597.39,2044.12,2579.59,2044.12,2556.17z M2107.93,2551.96
						c0-13.32-10.36-23.48-23.13-22.66c-12.78,0.82-23.2,12.36-23.2,25.72c0,13.36,10.42,23.52,23.2,22.65
						C2097.57,2576.8,2107.93,2565.27,2107.93,2551.96z"/>
					
						<linearGradient id="SVGID_42_" gradientUnits="userSpaceOnUse" x1="3597.7466" y1="-1385.8699" x2="3592.0471" y2="-1877.9388" gradientTransform="matrix(0 1 -1 0 388.4627 -848.5277)">
						<stop  offset="0" style="stop-color:#FFC444"/>
						<stop  offset="0.9964" style="stop-color:#F36F56"/>
					</linearGradient>
					<path class="st47" d="M2177.44,2747.29c0-23.21,17.94-43.47,39.92-45.17c21.92-1.69,39.7,15.7,39.7,38.78
						c0,23.07-17.78,43.33-39.7,45.15C2195.38,2787.88,2177.44,2770.49,2177.44,2747.29z M2240.05,2742.26
						c0-13.19-10.17-23.12-22.69-22.14c-12.54,0.99-22.76,12.55-22.76,25.79c0,13.23,10.22,23.16,22.76,22.13
						C2229.88,2767.01,2240.05,2755.45,2240.05,2742.26z"/>
					
						<linearGradient id="SVGID_43_" gradientUnits="userSpaceOnUse" x1="3634.4294" y1="-1374.8986" x2="3628.5288" y2="-1884.3433" gradientTransform="matrix(0 1 -1 0 388.4627 -848.5277)">
						<stop  offset="0" style="stop-color:#FFC444"/>
						<stop  offset="0.9964" style="stop-color:#F36F56"/>
					</linearGradient>
					<path class="st48" d="M1933.17,2786.82c0-23.61,18.57-44.28,41.34-46.07c22.69-1.79,41.1,15.86,41.1,39.34
						c0,23.48-18.41,44.13-41.1,46.06C1951.74,2828.07,1933.17,2810.44,1933.17,2786.82z M1998,2781.53
						c0-13.42-10.53-23.49-23.49-22.45c-12.99,1.04-23.57,12.84-23.57,26.3c0,13.47,10.58,23.53,23.57,22.45
						C1987.47,2806.74,1998,2794.95,1998,2781.53z"/>
					<g>
						
							<linearGradient id="SVGID_44_" gradientUnits="userSpaceOnUse" x1="3264.1155" y1="-1368.4933" x2="3258.196" y2="-1879.5531" gradientTransform="matrix(0 1 -1 0 388.4627 -848.5277)">
							<stop  offset="0" style="stop-color:#FFC444"/>
							<stop  offset="0.9964" style="stop-color:#F36F56"/>
						</linearGradient>
						<polygon class="st49" points="1793.34,2477.2 1793.34,2458.64 1938.67,2450.21 2097.96,2349.61 2106.39,2365.04 
							1943.27,2468.31 						"/>
						
							<linearGradient id="SVGID_45_" gradientUnits="userSpaceOnUse" x1="3419.9377" y1="-1370.1105" x2="3413.9956" y2="-1883.1411" gradientTransform="matrix(0 1 -1 0 388.4627 -848.5277)">
							<stop  offset="0" style="stop-color:#FFC444"/>
							<stop  offset="0.9964" style="stop-color:#F36F56"/>
						</linearGradient>
						<polygon class="st50" points="1793.34,2587.31 1793.34,2568.75 2052.87,2551.7 2052.87,2569.92 						"/>
						
							<linearGradient id="SVGID_46_" gradientUnits="userSpaceOnUse" x1="3566.3721" y1="-1372.072" x2="3560.4861" y2="-1880.2539" gradientTransform="matrix(0 1 -1 0 388.4627 -848.5277)">
							<stop  offset="0" style="stop-color:#FFC444"/>
							<stop  offset="0.9964" style="stop-color:#F36F56"/>
						</linearGradient>
						<polygon class="st51" points="1793.34,2697.42 1793.34,2678.86 1965.27,2666.25 2097.14,2744.66 2186.02,2737.57 
							2186.02,2755.62 2092.02,2763.23 1960.05,2684.97 						"/>
						
							<linearGradient id="SVGID_47_" gradientUnits="userSpaceOnUse" x1="3641.8904" y1="-1372.328" x2="3635.9014" y2="-1889.4019" gradientTransform="matrix(0 1 -1 0 388.4627 -848.5277)">
							<stop  offset="0" style="stop-color:#FFC444"/>
							<stop  offset="0.9964" style="stop-color:#F36F56"/>
						</linearGradient>
						<polygon class="st52" points="1793.34,2807.53 1793.34,2788.98 1944.92,2776.68 1944.92,2795.04 						"/>
					</g>
				</g>
			</g>
			<g>
				<linearGradient id="SVGID_48_" gradientUnits="userSpaceOnUse" x1="1458.7445" y1="2728.1455" x2="1250.6982" y2="2466.4792">
					<stop  offset="0" style="stop-color:#311944"/>
					<stop  offset="1" style="stop-color:#893976"/>
				</linearGradient>
				<path class="st53" d="M1684.44,3024.3l-567.22,55.36c-75.23,7.34-136.77-46.49-136.77-120.31v-581.43
					c0-73.82,61.54-136.21,136.77-139.33l567.22-23.51c68.96-2.86,124.37,51.41,124.37,121.18v549.56
					C1808.82,2955.6,1753.4,3017.57,1684.44,3024.3z"/>
				<linearGradient id="SVGID_49_" gradientUnits="userSpaceOnUse" x1="1929.4658" y1="1787.519" x2="887.7327" y2="3532.4243">
					<stop  offset="0" style="stop-color:#FF9085"/>
					<stop  offset="1" style="stop-color:#FB6FBB"/>
				</linearGradient>
				<path class="st54" d="M1702.77,3043.89l-566.55,55.68c-75.14,7.38-136.6-46.38-136.6-120.16v-581.08
					c0-73.78,61.47-136.17,136.6-139.33l566.55-23.85c68.88-2.9,124.23,51.3,124.23,121.03v549.24
					C1827,2975.15,1771.64,3037.12,1702.77,3043.89z"/>
				<linearGradient id="SVGID_50_" gradientUnits="userSpaceOnUse" x1="1916.1443" y1="1809.791" x2="891.7547" y2="3525.6458">
					<stop  offset="0" style="stop-color:#FF9085"/>
					<stop  offset="1" style="stop-color:#FB6FBB"/>
				</linearGradient>
				<path class="st55" d="M1457.65,2806.66c-69.21-87.35,0.48-154.91-73.21-254.96c-89.11-120.97-235.48-83.96-293.66-195.72
					c-12.87-24.71-18.48-51.32-19.33-78.23c-42.71,24.41-71.85,69.85-71.85,120.59v581.08c0,73.78,61.47,127.54,136.61,120.16
					l566.55-55.68c55.21-5.43,101.64-46.34,117.92-98.18C1723.92,2844.72,1553.27,2927.33,1457.65,2806.66z"/>
			</g>
			<g>
				<linearGradient id="SVGID_51_" gradientUnits="userSpaceOnUse" x1="1698.0653" y1="3080.4849" x2="1494.8193" y2="2781.0793">
					<stop  offset="0" style="stop-color:#311944"/>
					<stop  offset="1" style="stop-color:#893976"/>
				</linearGradient>
				<path class="st56" d="M1598.08,2903.06l-377.79,33.46c-46.82,4.15-84.99-30.16-84.99-76.66v-386.08
					c0-46.49,38.17-86.16,84.99-88.58l377.79-19.56c44.21-2.29,79.86,32.2,79.86,77.02v372.19
					C1677.94,2859.66,1642.3,2899.15,1598.08,2903.06z"/>
				<linearGradient id="SVGID_52_" gradientUnits="userSpaceOnUse" x1="1528.2386" y1="2423.9163" x2="984.92" y2="3590.0654">
					<stop  offset="0" style="stop-color:#FFC444"/>
					<stop  offset="0.9964" style="stop-color:#F36F56"/>
				</linearGradient>
				<path class="st57" d="M1608.65,2909.16l-372.11,32.87c-46.1,4.07-83.69-29.49-83.69-75v-377.85c0-45.5,37.58-84.34,83.69-86.74
					l372.11-19.36c43.56-2.27,78.68,31.47,78.68,75.35v364.34C1687.33,2866.65,1652.21,2905.32,1608.65,2909.16z"/>
				<linearGradient id="SVGID_53_" gradientUnits="userSpaceOnUse" x1="1440.4982" y1="2604.7891" x2="1078.0371" y2="3382.7556">
					<stop  offset="0" style="stop-color:#FFC444"/>
					<stop  offset="0.9964" style="stop-color:#F36F56"/>
				</linearGradient>
				<path class="st58" d="M1457.65,2806.66c-69.21-87.35,0.48-154.91-73.21-254.96c-58.46-79.36-141.41-90.75-208.16-120.76
					c-14.47,15.57-23.43,36.11-23.43,58.24v377.85c0,45.5,37.58,79.07,83.69,75l372.11-32.87c19.5-1.72,37.28-10.46,51-23.47
					C1586.18,2877.89,1510.39,2873.22,1457.65,2806.66z"/>
			</g>
			<g class="st59">
				<path class="st11" d="M1293.76,2758.63l-18.47,67.19c-3.79,13.79-16.24,24.14-30.45,25.31l-15.45,1.27
					c-21.35,1.76-36.67-17.32-30.41-37.93l87.97-289.66c4.05-13.32,16.25-22.97,30.05-23.78l56.64-3.34
					c13.62-0.8,25.64,7.29,29.66,19.97l86.82,273.53c6.11,19.25-8.62,40.47-29.31,42.17l-18.39,1.51
					c-13.62,1.12-25.65-6.81-29.58-19.53l-19.88-64.29L1293.76,2758.63z M1381.72,2693.96l-21.51-71.25
					c-6.16-19.96-12.32-45.03-17.46-65.09l-1.03,0.06c-5.14,20.72-10.29,47.07-15.96,67.35l-20.64,74.47L1381.72,2693.96z"/>
				<path class="st11" d="M1623.63,2513.34v276.23c0,16.79-13.48,31.5-30.13,32.88l-15.63,1.29c-16.73,1.38-30.32-11.19-30.32-28.06
					v-277.68c0-16.88,13.59-31.36,30.32-32.34l15.63-0.92C1610.15,2483.74,1623.63,2496.55,1623.63,2513.34z"/>
			</g>
		</g>
	</g>
</g>
</svg>
