<svg width="512" height="512" viewBox="0 0 512 512" fill="none" xmlns="http://www.w3.org/2000/svg">
<path d="M504 172.288C504 152.28 487.72 136 467.712 136C458.024 136 448.904 139.776 442.056 146.632L418.344 170.344L392 196.688V119.36C419.096 115.456 440 92.152 440 64C440 33.12 414.88 8 384 8H64C33.12 8 8 33.12 8 64V464C8 468.416 11.584 472 16 472H56V496C56 500.416 59.584 504 64 504H384C388.416 504 392 500.416 392 496V299.312L469.656 221.656L477.872 213.44C473.728 234.08 463.624 253.056 448.408 268.28L410.352 306.336L421.664 317.648L459.72 279.592C482.424 256.888 495.12 226.904 495.864 194.912C501.04 188.496 504 180.656 504 172.288V172.288ZM453.368 157.944C457.2 154.112 462.296 152 467.712 152C478.896 152 488 161.104 488 172.288C488 177.704 485.888 182.8 482.056 186.632L464 204.688L435.312 176L453.368 157.944ZM424 187.312L432.688 196L332 296.688L323.312 288L424 187.312ZM233.736 398.424L250.192 365.504L274.496 389.808L241.576 406.264L233.736 398.424ZM259.312 352L312 299.312L340.688 328L288 380.688L259.312 352ZM384 24C406.056 24 424 41.944 424 64C424 86.056 406.056 104 384 104H103.12C113.52 93.824 120 79.664 120 64C120 48.336 113.52 34.176 103.12 24H384ZM72 103.192V80C72 75.592 75.592 72 80 72H103.192C100 87.648 87.648 100 72 103.192V103.192ZM24 456V64C24 41.944 41.944 24 64 24C83.312 24 99.472 37.768 103.192 56H80C66.768 56 56 66.768 56 80V456H24ZM376 488H72V120H376V212.688L340.688 248H104V264H324.688L308.688 280H104V296H292.688L242.344 346.344C241.72 346.968 241.312 347.712 240.936 348.464L240.848 348.416L216.848 396.416C215.312 399.496 215.912 403.216 218.352 405.648L220.688 408L202.344 426.344L213.656 437.656L232 419.312L234.344 421.656C235.88 423.192 237.928 424 240 424C241.208 424 242.44 423.72 243.576 423.16L291.576 399.16L291.528 399.072C292.28 398.696 293.024 398.288 293.648 397.664L357.648 333.664L376 315.312V488ZM352 316.688L343.312 308L444 207.312L452.688 216L352 316.688Z" fill="white"/>
<path d="M104 152H344V168H104V152Z" fill="white"/>
<path d="M104 184H344V200H104V184Z" fill="white"/>
<path d="M104 216H344V232H104V216Z" fill="white"/>
<path d="M104 408H192V424H104V408Z" fill="white"/>
<path d="M104 440H344V456H104V440Z" fill="white"/>
</svg>
