<svg width="480" height="480" viewBox="0 0 480 480" fill="none" xmlns="http://www.w3.org/2000/svg">
<path d="M239.8 440C129.369 439.889 39.9265 350.298 40 239.867C40.0737 129.436 129.636 39.9632 240.067 40C350.498 40.0368 440 129.569 440 240C439.934 350.508 350.308 440.044 239.8 440ZM80 243.44C80.9464 331.465 152.822 402.191 240.851 401.72C328.879 401.244 399.991 329.75 399.991 241.72C399.991 153.69 328.879 82.1954 240.851 81.7199C152.822 81.2491 80.9464 151.975 80 240V243.44ZM260 340H220V300H260V340ZM260 260H220V140H260V260Z" fill="white"/>
</svg>
