<svg width="512" height="512" viewBox="0 0 512 512" fill="none" xmlns="http://www.w3.org/2000/svg">
<g clip-path="url(#clip0)">
<path d="M200.186 37.4301H121.883C117.74 37.4301 114.383 40.7881 114.383 44.9301C114.383 49.0721 117.74 52.4301 121.883 52.4301H200.186C204.329 52.4301 207.686 49.0721 207.686 44.9301C207.686 40.7881 204.329 37.4301 200.186 37.4301Z" fill="#0561A6"/>
<path d="M60.4219 52.4301H83.2429C87.3859 52.4301 90.7429 49.0721 90.7429 44.9301C90.7429 40.7881 87.3859 37.4301 83.2429 37.4301H60.4219C56.2789 37.4301 52.9219 40.7881 52.9219 44.9301C52.9219 49.0721 56.2799 52.4301 60.4219 52.4301Z" fill="#0561A6"/>
<path d="M60.4219 88.384H138.724C142.867 88.384 146.224 85.026 146.224 80.884C146.224 76.742 142.867 73.384 138.724 73.384H60.4219C56.2789 73.384 52.9219 76.742 52.9219 80.884C52.9219 85.026 56.2799 88.384 60.4219 88.384Z" fill="#0561A6"/>
<path d="M200.187 73.384H177.365C173.222 73.384 169.865 76.742 169.865 80.884C169.865 85.026 173.222 88.384 177.365 88.384H200.187C204.33 88.384 207.687 85.026 207.687 80.884C207.687 76.742 204.33 73.384 200.187 73.384Z" fill="#0561A6"/>
<path d="M464.265 162.857C447.209 162.857 432.923 174.927 429.471 190.979H388.501C388.089 186.816 387.342 182.652 386.234 178.522C383.346 167.717 378.251 157.889 371.358 149.502L422.868 97.942C432.332 107.244 444.825 112.369 458.113 112.369C471.573 112.369 484.222 107.119 493.72 97.596C503.241 88.082 508.485 75.424 508.485 61.955C508.485 48.486 503.241 35.829 493.724 26.319C484.217 16.803 471.571 11.563 458.113 11.563C444.655 11.563 432.009 16.804 422.502 26.319C412.983 35.833 407.741 48.489 407.741 61.955C407.741 70.442 409.827 78.605 413.748 85.862C413.699 85.908 413.647 85.948 413.6 85.996L360.74 138.907C357.496 136.25 354.026 133.824 350.322 131.686C332.509 121.402 311.765 118.676 291.915 124.007C280.952 126.941 271.178 132.117 262.945 138.907L239.191 115.131C241.781 111.162 243.294 106.427 243.294 101.342V25.292C243.293 11.346 231.955 0 218.018 0H47.8054C33.8694 0 22.5304 11.346 22.5304 25.292V101.343C22.5304 115.289 33.8694 126.635 47.8054 126.635H106.914C111.057 126.635 114.414 123.277 114.414 119.135C114.414 114.993 111.057 111.635 106.914 111.635H47.8054C42.1394 111.635 37.5304 107.018 37.5304 101.343V25.292C37.5304 19.617 42.1394 15 47.8054 15H218.018C223.684 15 228.293 19.617 228.293 25.292V101.343C228.293 107.018 223.684 111.635 218.018 111.635H141.558C137.415 111.635 134.058 114.993 134.058 119.135C134.058 123.277 137.415 126.635 141.558 126.635H218.018C221.406 126.635 224.637 125.96 227.592 124.745L252.366 149.543C238.32 166.7 231.806 189.673 236.153 212.728L146.28 264.688C146.273 264.692 146.268 264.697 146.261 264.7C135.681 251.956 121.477 242.788 105.153 238.413C84.3184 232.828 62.5564 235.7 43.8814 246.498C5.31644 268.798 -7.94556 318.329 14.3174 356.905C25.0914 375.618 42.5034 389 63.3454 394.59C70.3024 396.456 77.3604 397.379 84.3744 397.379C98.3744 397.379 112.195 393.7 124.645 386.502C162.884 364.417 176.23 315.561 154.763 277.112L240.489 227.55C248.519 247.38 264.277 262.852 284.398 270.5V339.572V343.545C284.398 347.326 284.189 350.097 283.919 352.098C268.658 329.999 254.606 313.668 227.6 318.367C218.746 319.931 212.044 325.038 209.215 332.38C206.33 339.866 207.986 348.464 213.758 356.007L276.794 448.558C288.856 466.3 290.891 477.108 290.891 494.625C290.891 504.206 298.694 512 308.285 512H426.447C436.039 512 443.842 504.206 443.842 494.625V464.035C443.842 452.911 446.163 448.389 449.376 442.132C452.799 435.465 457.06 427.168 458.881 410.239C458.909 409.972 458.924 409.705 458.924 409.437V383.755C458.924 379.613 455.567 376.255 451.424 376.255C447.281 376.255 443.924 379.613 443.924 383.755V409.028C442.383 422.911 439.154 429.199 436.032 435.28C432.497 442.165 428.842 449.284 428.842 464.034V494.624C428.842 495.912 427.745 496.999 426.447 496.999H308.284C306.986 496.999 305.89 495.911 305.89 494.624C305.89 474.762 303.308 460.879 289.195 440.118L226.032 347.381C225.944 347.253 225.852 347.126 225.757 347.003C223.165 343.665 222.237 340.301 223.211 337.773C224.105 335.455 226.655 333.765 230.19 333.14C247.505 330.125 256.777 339.074 272.278 361.639C272.383 361.793 272.496 361.943 272.612 362.089C278.27 369.133 283.932 371.722 289.438 369.785C296.327 367.361 299.398 359.268 299.398 343.544V339.571V200.239C299.398 190.191 306.101 186.626 311.841 186.626C317.582 186.626 324.285 190.191 324.285 200.239V329.583C324.285 333.725 327.642 337.083 331.785 337.083C335.928 337.083 339.285 333.725 339.285 329.583V269.565C339.285 259.517 345.989 255.952 351.729 255.952C353.112 255.952 354.55 256.165 355.937 256.62C356.162 256.716 356.39 256.801 356.621 256.874C360.703 258.48 364.173 262.34 364.173 269.565V339.6C364.173 343.742 367.53 347.1 371.673 347.1C375.816 347.1 379.173 343.742 379.173 339.6V286.563C379.173 276.515 385.876 272.95 391.617 272.95C397.357 272.95 404.06 276.515 404.06 286.563V349.617C404.06 353.759 407.417 357.117 411.56 357.117C415.703 357.117 419.06 353.759 419.06 349.617V303.561C419.06 293.505 425.752 289.937 431.483 289.937C434.738 289.937 437.86 291.119 440.047 293.179C442.617 295.599 443.92 299.092 443.92 303.56V349.105C443.92 353.247 447.277 356.605 451.42 356.605C455.563 356.605 458.92 353.247 458.92 349.105V303.56C458.92 284.768 445.117 274.936 431.482 274.936C426.848 274.936 422.197 276.076 418.073 278.315C414.687 264.912 403.093 257.949 391.615 257.949C386.975 257.949 382.317 259.089 378.188 261.33C376.823 255.918 374.121 251.556 370.628 248.278C380.861 236.187 387.016 221.418 388.516 205.979H429.469C432.923 222.015 447.208 234.073 464.262 234.073C483.873 234.073 499.828 218.106 499.828 198.479C499.831 178.837 483.876 162.857 464.265 162.857ZM433.109 36.926C433.11 36.925 433.112 36.923 433.113 36.922C439.786 30.243 448.665 26.564 458.113 26.564C467.561 26.564 476.44 30.243 483.117 36.926C489.803 43.607 493.485 52.496 493.485 61.956C493.485 71.416 489.802 80.306 483.108 86.995C476.436 93.685 467.559 97.37 458.113 97.37C448.667 97.37 439.79 93.686 433.109 86.987C426.423 80.306 422.741 71.417 422.741 61.957C422.741 52.497 426.423 43.606 433.109 36.926ZM117.141 373.514C117.139 373.515 117.138 373.515 117.137 373.516C101.921 382.315 84.1964 384.653 67.2314 380.102C50.2634 375.552 36.0884 364.656 27.3124 349.415C9.17744 317.99 19.9784 277.647 51.3894 259.484C61.5204 253.627 72.7645 250.634 84.1604 250.634C89.8664 250.634 95.6115 251.385 101.271 252.902C118.248 257.452 132.433 268.348 141.214 283.585C159.361 315.03 148.561 355.371 117.141 373.514ZM373.875 198.597C373.863 214.375 367.821 229.704 356.674 241.387C355.04 241.099 353.384 240.952 351.73 240.952C347.455 240.952 343.163 241.919 339.286 243.823V200.239C339.286 181.454 325.48 171.626 311.842 171.626C298.204 171.626 284.399 181.454 284.399 200.239V254.164C268.466 246.344 256.629 232.098 251.913 214.533C243.07 181.45 262.755 147.341 295.801 138.496C311.782 134.204 328.483 136.397 342.823 144.678C357.188 152.971 367.459 166.366 371.746 182.403C373.159 187.669 373.859 193.006 373.88 198.296C373.879 198.357 373.871 198.417 373.871 198.479C373.87 198.519 373.875 198.557 373.875 198.597ZM464.265 219.073C452.909 219.073 443.67 209.835 443.67 198.479C443.67 187.108 452.908 177.857 464.265 177.857C475.606 177.857 484.831 187.108 484.831 198.479C484.831 209.834 475.606 219.073 464.265 219.073Z" fill="#0561A6"/>
<path d="M94.095 279.787C84.3 277.16 74.061 278.507 65.256 283.589C47.125 294.075 40.898 317.37 51.374 335.517C56.448 344.308 64.638 350.594 74.434 353.218C77.703 354.093 81.019 354.527 84.316 354.527C90.901 354.527 97.404 352.798 103.265 349.415C103.266 349.414 103.268 349.413 103.27 349.412C121.394 338.931 127.622 315.648 117.156 297.518C112.082 288.713 103.893 282.417 94.095 279.787ZM95.76 336.427C90.437 339.499 84.241 340.318 78.316 338.729C72.39 337.142 67.436 333.337 64.365 328.018C58.021 317.028 61.79 302.922 72.761 296.577C76.31 294.528 80.244 293.482 84.228 293.482C86.223 293.482 88.231 293.744 90.207 294.275C96.132 295.865 101.087 299.676 104.161 305.012C110.498 315.99 106.73 330.083 95.76 336.427Z" fill="#0561A6"/>
</g>
<defs>
<clipPath id="clip0">
<rect width="512" height="512" fill="white"/>
</clipPath>
</defs>
</svg>
