<svg width="478" height="478" viewBox="0 0 478 478" fill="none" xmlns="http://www.w3.org/2000/svg">
<g clip-path="url(#clip0)">
<path d="M460.92 153.66C451.494 153.66 443.853 161.301 443.853 170.727V221.927H392.653V170.727C392.653 161.301 385.012 153.66 375.586 153.66C366.16 153.66 358.519 161.301 358.519 170.727V221.927H203.384C193.958 166.164 141.113 128.6 85.3503 138.026C29.5873 147.451 -7.97669 200.297 1.44831 256.06C10.8733 311.823 63.7193 349.387 119.482 339.961C162.454 332.697 196.12 299.031 203.383 256.06H460.92C470.346 256.06 477.987 248.419 477.987 238.993V170.726C477.987 161.301 470.346 153.66 460.92 153.66ZM102.52 307.26C64.8173 307.26 34.2533 276.696 34.2533 238.993C34.2533 201.29 64.8173 170.726 102.52 170.726C140.223 170.726 170.787 201.29 170.787 238.993C170.787 276.696 140.223 307.26 102.52 307.26Z" fill="white"/>
</g>
<defs>
<clipPath id="clip0">
<rect width="477.987" height="477.987" fill="white"/>
</clipPath>
</defs>
</svg>
