<svg width="513" height="513" viewBox="0 0 513 513" fill="none" xmlns="http://www.w3.org/2000/svg">
<g clip-path="url(#clip0)">
<path d="M448.18 80H128.18C110.507 80 96.1797 94.327 96.1797 112C96.1797 129.673 110.507 144 128.18 144H448.18C465.853 144 480.18 129.673 480.18 112C480.18 94.327 465.853 80 448.18 80Z" fill="white"/>
<path d="M64.1793 112C64.1433 103.527 60.7483 95.414 54.7393 89.44C42.2583 77.033 22.1003 77.033 9.61925 89.44C3.60925 95.414 0.21425 103.527 0.17925 112C-0.05975 114.073 -0.05975 116.167 0.17925 118.24C0.54125 120.325 1.13125 122.364 1.93925 124.32C2.79825 126.215 3.81525 128.035 4.97925 129.76C6.12825 131.554 7.46925 133.217 8.97925 134.72C10.4352 136.17 12.0443 137.458 13.7793 138.56C15.4643 139.787 17.2912 140.808 19.2192 141.6C21.3402 142.7 23.6013 143.508 25.9393 144C28.0123 144.232 30.1062 144.232 32.1792 144C40.6292 144.007 48.7393 140.671 54.7393 134.72C56.2493 133.217 57.5903 131.554 58.7393 129.76C59.9033 128.035 60.9202 126.215 61.7792 124.32C62.8002 122.388 63.6053 120.349 64.1793 118.24C64.4183 116.167 64.4183 114.073 64.1793 112Z" fill="white"/>
<path d="M64.1797 256C64.4177 253.927 64.4177 251.833 64.1797 249.76C63.6267 247.695 62.8207 245.707 61.7797 243.84C60.9557 241.877 59.9367 240.001 58.7397 238.24C57.6307 236.466 56.2847 234.851 54.7397 233.44C42.2587 221.033 22.1007 221.033 9.61969 233.44C3.60969 239.414 0.214688 247.527 0.179688 256C0.241687 260.217 1.05469 264.388 2.57969 268.32C3.38169 270.213 4.34569 272.033 5.45969 273.76C6.67669 275.499 8.07069 277.108 9.61969 278.56C11.0337 280.102 12.6477 281.448 14.4197 282.56C16.1047 283.788 17.9307 284.809 19.8597 285.6C21.8107 286.421 23.8517 287.012 25.9397 287.36C27.9867 287.819 30.0817 288.034 32.1797 288C34.2527 288.239 36.3467 288.239 38.4197 288C40.4557 287.651 42.4437 287.06 44.3397 286.24C46.3207 285.454 48.2007 284.433 49.9397 283.2C51.7117 282.088 53.3257 280.742 54.7397 279.2C56.2817 277.786 57.6277 276.172 58.7397 274.4C59.9697 272.716 60.9907 270.89 61.7797 268.96C62.8727 266.836 63.6797 264.576 64.1797 262.24C64.4257 260.167 64.4257 258.073 64.1797 256Z" fill="white"/>
<path d="M64.1797 400C64.4167 397.927 64.4167 395.833 64.1797 393.76C63.6267 391.644 62.8207 389.603 61.7797 387.68C60.9207 385.785 59.9037 383.965 58.7397 382.24C57.6277 380.468 56.2817 378.854 54.7397 377.44C42.2587 365.033 22.1007 365.033 9.6197 377.44C8.0777 378.854 6.7317 380.468 5.6197 382.24C4.4557 383.965 3.4387 385.785 2.5797 387.68C1.7497 389.628 1.1587 391.67 0.819696 393.76C0.368696 395.809 0.154696 397.902 0.179696 400C0.215696 408.473 3.6107 416.586 9.6197 422.56C11.0337 424.102 12.6477 425.448 14.4197 426.56C16.1047 427.788 17.9307 428.809 19.8597 429.6C21.8107 430.421 23.8517 431.012 25.9397 431.36C27.9867 431.819 30.0817 432.034 32.1797 432C34.2527 432.239 36.3467 432.239 38.4197 432C40.4557 431.651 42.4437 431.06 44.3397 430.24C46.3207 429.454 48.2007 428.433 49.9397 427.2C51.7117 426.088 53.3257 424.742 54.7397 423.2C56.2817 421.786 57.6277 420.172 58.7397 418.4C59.9707 416.717 60.9917 414.89 61.7797 412.96C62.8717 410.835 63.6787 408.576 64.1797 406.24C64.4257 404.167 64.4257 402.073 64.1797 400Z" fill="white"/>
<path d="M480.18 224H128.18C110.507 224 96.1797 238.327 96.1797 256C96.1797 273.673 110.507 288 128.18 288H480.18C497.853 288 512.18 273.673 512.18 256C512.18 238.327 497.853 224 480.18 224Z" fill="white"/>
<path d="M336.18 368H128.18C110.507 368 96.1797 382.327 96.1797 400C96.1797 417.673 110.507 432 128.18 432H336.18C353.853 432 368.18 417.673 368.18 400C368.18 382.327 353.853 368 336.18 368Z" fill="white"/>
</g>
<defs>
<clipPath id="clip0">
<rect width="512.18" height="512.18" fill="white"/>
</clipPath>
</defs>
</svg>
