<svg width="286" height="286" viewBox="0 0 286 286" fill="none" xmlns="http://www.w3.org/2000/svg">
<path d="M143.001 262.167C77.1867 262.167 23.834 208.814 23.834 143C23.834 77.1861 77.1867 23.8333 143.001 23.8333C208.815 23.8333 262.167 77.1861 262.167 143C262.095 208.784 208.785 262.094 143.001 262.167ZM131.084 48.4055C92.0694 53.3393 60.0877 81.7232 50.5548 119.876C41.0219 158.028 55.8941 198.119 88.0027 220.824C120.111 243.529 162.867 244.188 195.66 222.484L194.469 223.33L195.589 222.556L196.292 222.067L197.055 221.531L197.245 221.4L197.353 221.316L136.244 160.184C132.924 156.805 131.07 152.253 131.084 147.516V48.4055ZM164.796 154.917L215.168 205.288L215.251 205.193L215.311 205.122L215.192 205.253C227.485 191.066 235.283 173.545 237.595 154.917H164.796ZM154.917 48.4055V131.083H237.595C232.155 87.8748 198.126 53.8456 154.917 48.4055Z" fill="white"/>
</svg>
