<svg width="512" height="512" viewBox="0 0 512 512" fill="none" xmlns="http://www.w3.org/2000/svg">
<g clip-path="url(#clip0)">
<path d="M486.4 256H477.867V51.2H486.4C500.538 51.2 512 39.738 512 25.6C512 11.462 500.539 0 486.4 0H25.6C11.461 0 0 11.461 0 25.6C0 39.739 11.461 51.2 25.6 51.2H34.133V256H25.6C11.461 256 0 267.462 0 281.6C0 295.738 11.461 307.2 25.6 307.2H486.4C500.538 307.2 512 295.738 512 281.6C512 267.462 500.539 256 486.4 256ZM25.6 34.133C20.89 34.127 17.073 30.31 17.067 25.6C17.073 20.89 20.89 17.073 25.6 17.067H486.4C491.113 17.067 494.933 20.887 494.933 25.6C494.933 30.313 491.113 34.133 486.4 34.133H25.6ZM460.8 51.2V256H51.2V51.2H460.8ZM486.4 290.133H25.6C20.887 290.133 17.067 286.313 17.067 281.6C17.067 276.887 20.887 273.067 25.6 273.067H486.4C491.11 273.073 494.927 276.89 494.933 281.6C494.927 286.31 491.11 290.127 486.4 290.133Z" fill="#0561A6"/>
<path d="M145.067 195.696C149.78 195.696 153.6 191.875 153.6 187.163V145.387L179.2 156.265V207.187L179.219 207.28C179.229 208.364 179.446 209.436 179.857 210.438C180.444 211.358 181.046 212.267 181.664 213.167C182.451 213.972 183.391 214.613 184.427 215.053L226.859 233.07C245.511 240.922 266.542 240.914 285.188 233.049L327.574 215.052C328.61 214.612 329.55 213.971 330.337 213.166C330.955 212.267 331.557 211.357 332.144 210.437C332.556 209.434 332.772 208.362 332.782 207.279L332.8 207.186V156.264L366.596 141.902C372.006 139.388 375.467 133.964 375.467 127.998C375.467 122.032 372.006 116.608 366.596 114.094L261.296 69.349C257.913 67.899 254.083 67.899 250.7 69.349L145.404 114.094C139.924 116.528 136.431 122.003 136.533 127.998V187.161C136.534 191.875 140.354 195.696 145.067 195.696ZM315.733 201.541L278.566 217.321C264.152 223.394 247.898 223.402 233.478 217.342L196.265 201.541V163.518L250.703 186.65C254.086 188.1 257.916 188.1 261.299 186.65L315.732 163.518V201.541H315.733ZM256 85.641L355.675 128L320.985 142.742L320.91 142.774L256 170.358L191.09 142.774L191.015 142.742L156.325 128L256 85.641Z" fill="#0561A6"/>
<path d="M494.933 460.8H477.866V449.829C477.647 428.224 465.249 408.594 445.835 399.113C459.427 387.51 464.348 368.666 458.164 351.899C451.981 335.132 436.003 323.995 418.132 323.995C400.261 323.995 384.283 335.132 378.1 351.899C371.917 368.666 376.837 387.51 390.429 399.113C371.015 408.595 358.617 428.224 358.398 449.829V460.8H315.731V449.829C315.512 428.224 303.114 408.594 283.7 399.113C297.292 387.51 302.213 368.666 296.029 351.899C289.846 335.132 273.868 323.995 255.997 323.995C238.126 323.995 222.148 335.132 215.965 351.899C209.782 368.666 214.702 387.51 228.294 399.113C208.88 408.595 196.482 428.224 196.263 449.829V460.8H153.6V449.829C153.381 428.224 140.983 408.594 121.569 399.113C135.161 387.51 140.082 368.666 133.898 351.899C127.715 335.132 111.737 323.995 93.866 323.995C75.995 323.995 60.017 335.132 53.834 351.899C47.651 368.666 52.571 387.51 66.163 399.113C46.749 408.595 34.351 428.224 34.132 449.829V460.8H17.067C7.645 460.809 0.009 468.445 0 477.867V494.934C0.009 504.356 7.645 511.991 17.067 512.001H494.934C504.356 511.992 511.991 504.356 512.001 494.934V477.867C511.991 468.445 504.355 460.809 494.933 460.8ZM418.133 341.333C432.271 341.333 443.733 352.794 443.733 366.933C443.733 381.072 432.272 392.533 418.133 392.533C404.001 392.518 392.548 381.065 392.533 366.933C392.533 352.795 403.995 341.333 418.133 341.333ZM375.467 449.829C376.796 427.238 395.504 409.599 418.134 409.599C440.764 409.599 459.471 427.238 460.801 449.829V460.8H375.468V449.829H375.467ZM256 341.333C270.138 341.333 281.6 352.794 281.6 366.933C281.6 381.072 270.138 392.533 256 392.533C241.868 392.518 230.415 381.065 230.4 366.933C230.4 352.795 241.862 341.333 256 341.333ZM213.333 449.829C214.662 427.238 233.37 409.599 256 409.599C278.63 409.599 297.337 427.238 298.667 449.829V460.8H213.334V449.829H213.333ZM93.867 341.333C108.005 341.333 119.467 352.794 119.467 366.933C119.467 381.072 108.006 392.533 93.867 392.533C79.735 392.518 68.282 381.065 68.267 366.933C68.267 352.795 79.728 341.333 93.867 341.333ZM51.2 449.829C51.918 426.958 70.993 408.973 93.867 409.6C116.74 408.973 135.815 426.958 136.534 449.829V460.8H51.2V449.829ZM17.067 494.933V477.866H494.934L494.946 494.933H17.067Z" fill="#0561A6"/>
</g>
<defs>
<clipPath id="clip0">
<rect width="512" height="512" fill="white"/>
</clipPath>
</defs>
</svg>
