<svg width="512" height="512" viewBox="0 0 512 512" fill="none" xmlns="http://www.w3.org/2000/svg">
<path d="M394.669 0H32.002C14.329 0 0.00195312 14.327 0.00195312 32V288C0.00195312 305.673 14.329 320 32.002 320H170.669V298.667H32.002C26.111 298.667 21.335 293.891 21.335 288V32C21.335 26.109 26.111 21.333 32.002 21.333H394.669C400.56 21.333 405.336 26.109 405.336 32V224H426.669V32C426.669 14.327 412.342 0 394.669 0Z" fill="#0561A6"/>
<path d="M149.335 309.333H128.002V373.333H149.335V309.333Z" fill="#0561A6"/>
<path d="M74.668 256C68.777 256 64.001 251.224 64.001 245.333V224H42.668V245.333C42.668 263.006 56.995 277.333 74.668 277.333H96.001V256H74.668Z" fill="#0561A6"/>
<path d="M64.001 181.333H42.668V202.666H64.001V181.333Z" fill="#0561A6"/>
<path d="M389.836 225.941C368.1 204.201 338.617 191.988 307.875 191.989C243.869 191.992 191.984 243.881 191.986 307.887C191.989 371.893 243.878 423.778 307.884 423.776C338.616 423.775 368.088 411.568 389.821 389.839C435.084 344.584 435.091 271.205 389.836 225.941ZM307.82 402.453C255.596 402.435 213.274 360.085 213.292 307.861C213.31 255.637 255.66 213.315 307.884 213.333C332.985 213.265 357.068 223.253 374.753 241.066C392.471 258.804 402.42 282.853 402.412 307.925C402.394 360.149 360.044 402.471 307.82 402.453Z" fill="#0561A6"/>
<path d="M508.875 464L441.92 397.067C439.92 395.067 437.207 393.942 434.379 393.942C431.55 393.943 428.838 395.067 426.838 397.067L397.078 426.827C392.914 430.992 392.914 437.744 397.078 441.91L464.033 508.875C466.033 510.876 468.746 512 471.574 512C474.407 511.991 477.121 510.855 479.115 508.843L508.875 479.083C513.039 474.917 513.039 468.165 508.875 464ZM471.573 486.251L419.701 434.368L434.378 419.691L486.25 471.574L471.573 486.251Z" fill="#0561A6"/>
<path d="M389.835 374.743L374.75 389.828L411.949 427.027L427.034 411.942L389.835 374.743Z" fill="#0561A6"/>
<path d="M309.334 234.667V256C338.775 256.035 362.632 279.893 362.667 309.333H384C383.954 268.116 350.552 234.714 309.334 234.667Z" fill="#0561A6"/>
<path d="M192.001 362.667H106.668V384H192.001V362.667Z" fill="#0561A6"/>
<path d="M160.002 42.667C142.329 42.667 128.002 56.994 128.002 74.667C128.002 92.34 142.329 106.667 160.002 106.667C177.675 106.667 192.002 92.34 192.002 74.667C192.002 56.994 177.675 42.667 160.002 42.667ZM160.002 85.333C154.111 85.333 149.335 80.557 149.335 74.666C149.335 68.775 154.111 63.999 160.002 63.999C165.893 63.999 170.669 68.775 170.669 74.666C170.669 80.558 165.893 85.333 160.002 85.333Z" fill="#0561A6"/>
<path d="M234.668 117.333C216.995 117.333 202.668 131.66 202.668 149.333C202.668 167.006 216.995 181.333 234.668 181.333C252.341 181.333 266.668 167.006 266.668 149.333C266.668 131.66 252.341 117.333 234.668 117.333ZM234.668 160C228.777 160 224.001 155.224 224.001 149.333C224.001 143.442 228.777 138.666 234.668 138.666C240.559 138.666 245.335 143.442 245.335 149.333C245.334 155.224 240.559 160 234.668 160Z" fill="#0561A6"/>
<path d="M141.791 77.7944L88.459 131.127L103.544 146.211L156.876 92.879L141.791 77.7944Z" fill="#0561A6"/>
<path d="M178.163 77.8217L163.078 92.9062L216.41 146.239L231.495 131.154L178.163 77.8217Z" fill="#0561A6"/>
<path d="M309.334 42.667C291.661 42.667 277.334 56.994 277.334 74.667C277.334 92.34 291.661 106.667 309.334 106.667C327.007 106.667 341.334 92.34 341.334 74.667C341.335 56.994 327.008 42.667 309.334 42.667ZM309.334 85.333C303.443 85.333 298.667 80.557 298.667 74.666C298.667 68.775 303.443 63.999 309.334 63.999C315.225 63.999 320.001 68.775 320.001 74.666C320.001 80.558 315.225 85.333 309.334 85.333Z" fill="#0561A6"/>
<path d="M291.117 77.8319L237.785 131.164L252.87 146.249L306.202 92.9164L291.117 77.8319Z" fill="#0561A6"/>
</svg>
