<svg width="512" height="512" viewBox="0 0 512 512" fill="none" xmlns="http://www.w3.org/2000/svg">
<path d="M251.327 196.704C245.087 190.464 234.943 190.432 228.671 196.672L175.999 249.376L155.327 228.672C149.087 222.432 138.943 222.432 132.703 228.672C126.463 234.912 126.463 245.056 132.703 251.296L164.703 283.296C167.807 286.432 171.903 288 175.999 288C180.095 288 184.191 286.432 187.327 283.328L251.327 219.328C257.567 213.088 257.567 202.944 251.327 196.704Z" fill="white"/>
<path d="M251.327 324.704C245.087 318.464 234.943 318.432 228.671 324.672L175.999 377.376L155.327 356.704C149.087 350.464 138.943 350.464 132.703 356.704C126.463 362.944 126.463 373.088 132.703 379.328L164.703 411.328C167.807 414.432 171.903 416 175.999 416C180.095 416 184.191 414.432 187.327 411.328L251.327 347.328C257.567 341.088 257.567 330.944 251.327 324.704Z" fill="white"/>
<path d="M368 224H304C295.168 224 288 231.168 288 240C288 248.832 295.168 256 304 256H368C376.832 256 384 248.832 384 240C384 231.168 376.832 224 368 224Z" fill="white"/>
<path d="M368 352H304C295.168 352 288 359.168 288 368C288 376.832 295.168 384 304 384H368C376.832 384 384 376.832 384 368C384 359.168 376.832 352 368 352Z" fill="white"/>
<path d="M416 64H352V48C352 39.168 344.832 32 336 32H301.28C294.656 13.376 276.864 0 256 0C235.136 0 217.344 13.376 210.72 32H176C167.168 32 160 39.168 160 48V64H96C78.368 64 64 78.368 64 96V480C64 497.632 78.368 512 96 512H416C433.632 512 448 497.632 448 480V96C448 78.368 433.632 64 416 64ZM192 64H224C232.832 64 240 56.832 240 48C240 39.168 247.168 32 256 32C264.832 32 272 39.168 272 48C272 56.832 279.168 64 288 64H320V96H192V64ZM416 480H96V96H160V112C160 120.832 167.168 128 176 128H336C344.832 128 352 120.832 352 112V96H416V480Z" fill="white"/>
</svg>
